<svg width="60" height="60" fill="none" xmlns="http://www.w3.org/2000/svg"><path d="M36.445 60H14.062c-5.169 0-9.374-4.206-9.374-9.375V18.867c0-5.17 4.205-9.375 9.375-9.375h22.382c5.17 0 9.375 4.206 9.375 9.375v31.758c0 5.17-4.205 9.375-9.375 9.375zM14.062 14.18a4.693 4.693 0 00-4.687 4.687v31.758a4.693 4.693 0 004.688 4.688h22.382a4.693 4.693 0 004.688-4.688V18.867a4.693 4.693 0 00-4.688-4.687H14.062zm41.133 30.586V9.375C55.195 4.205 50.99 0 45.82 0H19.805a2.344 2.344 0 100 4.688H45.82a4.693 4.693 0 014.688 4.687v35.39a2.344 2.344 0 104.687 0z" fill="#000"/></svg>