<svg width="30" height="30" fill="none" xmlns="http://www.w3.org/2000/svg"><path d="M15 30c8.28 0 15-6.72 15-15 0-8.28-6.72-15-15-15C6.72 0 0 6.72 0 15c0 8.28 6.72 15 15 15zm5.354-16.071H22.5v-2.146h2.148v2.147h2.128v2.148H24.65v2.147H22.5v-2.148h-2.147V13.93zm-9.63-6.43c1.892 0 3.635.666 5.021 1.954l-2.032 1.972c-.8-.781-1.893-1.155-2.99-1.155-2.594 0-4.67 2.148-4.67 4.724s2.07 4.724 4.67 4.724c1.972 0 3.926-1.155 4.24-3.224h-4.24v-2.576h7.072c.079.41.115.822.115 1.25 0 4.283-2.874 7.33-7.186 7.33v.002a7.489 7.489 0 01-7.502-7.501c0-4.144 3.34-7.5 7.502-7.5z" fill="#fff"/></svg>