<svg width="60" height="60" fill="none" xmlns="http://www.w3.org/2000/svg"><path d="M30 60c16.56 0 30-13.44 30-30C60 13.44 46.56 0 30 0 13.44 0 0 13.44 0 30c0 16.56 13.44 30 30 30zm10.708-32.142h4.294v-4.293h4.295v4.295h4.258v4.295h-4.258v4.295h-4.294v-4.295h-4.295v-4.297zm-19.26-12.86c3.785 0 7.27 1.332 10.042 3.907l-4.065 3.945c-1.598-1.563-3.785-2.31-5.977-2.31-5.19 0-9.34 4.295-9.34 9.448 0 5.152 4.137 9.447 9.34 9.447 3.942 0 7.85-2.31 8.48-6.448h-8.48v-5.152H35.59c.157.822.23 1.645.23 2.502 0 8.566-5.747 14.66-14.372 14.66V45A14.978 14.978 0 016.445 29.997c0-8.287 6.68-15 15.003-15z" fill="#39373C"/></svg>