<svg width="40" height="40" fill="none" xmlns="http://www.w3.org/2000/svg"><g clip-path="url(#clip0)"><path d="M8.865 24.172L7.472 29.37l-5.088.108A19.91 19.91 0 010 20c0-3.317.807-6.444 2.236-9.198h.001l4.531.83 1.985 4.504A11.888 11.888 0 008.11 20c0 1.468.266 2.875.754 4.172z" fill="#FBBB00"/><path d="M39.652 16.264c.23 1.21.35 2.459.35 3.736 0 1.432-.15 2.828-.438 4.176a19.996 19.996 0 01-7.041 11.42h-.001l-5.707-.292-.808-5.041a11.92 11.92 0 005.129-6.087H20.44v-7.912h19.211z" fill="#518EF8"/><path d="M32.52 35.596A19.916 19.916 0 0120 40c-7.617 0-14.24-4.257-17.617-10.522l6.481-5.305c1.69 4.507 6.037 7.716 11.135 7.716 2.192 0 4.244-.592 6.006-1.626l6.514 5.333z" fill="#28B446"/><path d="M32.768 4.604l-6.48 5.305a11.822 11.822 0 00-6.286-1.798c-5.213 0-9.643 3.356-11.247 8.025l-6.516-5.334C5.566 4.385 12.271 0 20.001 0a19.92 19.92 0 0112.766 4.604z" fill="#F14336"/></g><defs><clipPath id="clip0"><path fill="#fff" d="M0 0h40v40H0z"/></clipPath></defs></svg>