<svg width="20" height="20" fill="none" xmlns="http://www.w3.org/2000/svg"><path d="M17.656 0H2.344A2.346 2.346 0 000 2.344v3.125h1.563V2.344c0-.431.35-.781.78-.781h15.313c.431 0 .782.35.782.78v15.313a.783.783 0 01-.782.782H2.344a.782.782 0 01-.781-.782v-3.125H0v3.125A2.346 2.346 0 002.344 20h15.312A2.346 2.346 0 0020 17.656V2.344A2.346 2.346 0 0017.656 0z" fill="#39373C"/><path d="M9.375 5.145L8.27 6.25l2.969 2.969H0v1.562h11.239L8.27 13.75l1.105 1.105L14.23 10 9.375 5.145z" fill="#39373C"/></svg>