<svg width="521" height="102" fill="none" xmlns="http://www.w3.org/2000/svg"><path fill-rule="evenodd" clip-rule="evenodd" d="M.65 100.62h14.82l-1.4-16.18H1.82L.65 100.62zm34.01 0h6.09V.62H25.01l9.65 100zM12.53 68.49H3.35l3.78-50.87h.94l4.46 50.87zM88.07.62h-16.8l8.39 61 8.41-61zm-17 100H58.81V28.56l12.26 72.06zm29.44 0H88.98l11.53-72.06v72.06z" fill="#39373C"/><path d="M153.47 34.34h-21.93l-4.32 10.15h-8.4L138.56.63h8l19.8 43.86h-8.52l-4.37-10.15zM150.78 28l-8.27-19.23L134.3 28h16.48zm56.14 16.49l-9-12.85c-.38 0-.94.06-1.7.06h-9.9v12.79h-8.14V.63h18a24.18 24.18 0 019.94 1.88 14.379 14.379 0 016.48 5.39 15.073 15.073 0 012.26 8.33 14.844 14.844 0 01-2.42 8.52 14.315 14.315 0 01-6.92 5.33l10.09 14.41h-8.69zm-2.95-34.72c-1.84-1.5-4.534-2.25-8.08-2.25h-9.53V25h9.53c3.553 0 6.246-.763 8.08-2.29a7.934 7.934 0 002.76-6.48 7.879 7.879 0 00-2.76-6.46zm34.62 32.43a21.533 21.533 0 01-8.4-8.05 22.401 22.401 0 01-3-11.59A22.193 22.193 0 01230.22 11a21.776 21.776 0 018.43-8.06 24.718 24.718 0 0112-2.91c3.373-.04 6.719.599 9.84 1.88a20.114 20.114 0 017.52 5.45l-5.27 4.95a15.36 15.36 0 00-11.67-5.17 16.408 16.408 0 00-8.09 2 14.109 14.109 0 00-5.57 5.48 15.718 15.718 0 00-2 8 15.675 15.675 0 002 8 14.212 14.212 0 005.53 5.38 16.51 16.51 0 008.13 2 15.241 15.241 0 0011.71-5.2l5.27 5a20.067 20.067 0 01-7.55 5.45 25.161 25.161 0 01-9.87 1.88 24.72 24.72 0 01-12.04-2.93zm71.02-7.86h-21.93l-4.32 10.15h-8.4L294.7.63h8l19.8 43.86h-8.52l-4.37-10.15zM306.92 28l-8.27-19.23L290.44 28h16.48zM334.36.63h19.17A27.59 27.59 0 01366 3.35a20.204 20.204 0 018.46 7.71 21.851 21.851 0 013 11.5 21.835 21.835 0 01-3 11.49 20.142 20.142 0 01-8.46 7.71 27.463 27.463 0 01-12.47 2.73h-19.17V.63zm18.8 37a18.68 18.68 0 008.49-1.84 13.31 13.31 0 005.64-5.27 15.589 15.589 0 002-7.92 15.626 15.626 0 00-2-7.93 13.234 13.234 0 00-5.64-5.26 18.68 18.68 0 00-8.49-1.85H342.5v30.03l10.66.04zm39.22-37h8.14v43.86h-8.14V.63zm54.69 33.71h-21.92l-4.33 10.15h-8.39L432.17.63h8l19.79 43.86h-8.52l-4.37-10.15zM444.38 28l-8.31-19.23L427.9 28h16.48zm-285.31 72.61V71.54L144.64 95.6H141l-14.41-23.69v28.7h-7.77V56.75h6.71l17.41 29.07 17.13-29.07h6.7l.07 43.86h-7.77zm58.75-6.83v6.83h-32.9V56.75h32v6.83h-23.85V75h21.18v6.71h-21.18v12.07h24.75zm55.64 6.83l-.06-29.07-14.42 24.06h-3.63l-14.41-23.69v28.7h-7.77V56.75h6.7l17.42 29.07 17.11-29.07h6.67l.06 43.86h-7.67zm34.21-2.29a21.498 21.498 0 01-8.46-8.08 23.297 23.297 0 010-23.12 21.499 21.499 0 018.46-8.12 26.488 26.488 0 0124.18 0 21.496 21.496 0 018.46 8.05 23.412 23.412 0 010 23.18 21.497 21.497 0 01-8.46 8 26.487 26.487 0 01-24.18 0v.09zm20-6.2a14.327 14.327 0 005.51-5.52 16.698 16.698 0 000-15.85 14.301 14.301 0 00-5.51-5.51 16.811 16.811 0 00-15.79 0 14.26 14.26 0 00-5.52 5.51 16.699 16.699 0 000 15.85 14.287 14.287 0 005.52 5.52 16.812 16.812 0 0015.79 0zm59.32 8.49l-9-12.85c-.561.057-1.126.08-1.69.07h-9.9v12.78h-8.15V56.75h18a24.33 24.33 0 019.93 1.88 14.46 14.46 0 016.58 5.37 15.086 15.086 0 012.25 8.33 14.84 14.84 0 01-2.41 8.52 14.399 14.399 0 01-6.92 5.33l10.08 14.41-8.77.02zm-2.92-34.71c-1.84-1.513-4.537-2.267-8.09-2.26h-9.52v17.48h9.52c3.553 0 6.25-.76 8.09-2.28a7.991 7.991 0 002.75-6.49 7.877 7.877 0 00-2.75-6.45zm26.29-9.15h8.15v43.86h-8.15V56.75zm54.71 33.71h-21.94l-4.32 10.15h-8.4l19.74-43.86h8l19.8 43.86h-8.52l-4.36-10.15zm-2.69-6.39l-8.31-19.18-8.21 19.18h16.52zm27.43-27.32h8.15v37h22.93v6.89h-31.08V56.75z" fill="#39373C"/></svg>