<svg display="none" xmlns="http://www.w3.org/2000/svg">
  <symbol id="dark-logo" width="100%" viewBox="0 0 521 102" fill="none">
    <g>
      <path fill-rule="evenodd" clip-rule="evenodd" d="M0.649902 100.62H15.4699L14.0699 84.4401H1.8199L0.649902 100.62ZM34.6599 100.62H40.7499V0.620117H25.0099L34.6599 100.62ZM12.5299 68.4901H3.3499L7.1299 17.6201H8.0699L12.5299 68.4901ZM88.0699 0.620117H71.2699L79.6599 61.6201L88.0699 0.620117ZM71.0699 100.62H58.8099V28.5601L71.0699 100.62ZM100.51 100.62H88.9799L100.51 28.5601V100.62Z" fill="#39373C"/>
      <path d="M153.47 34.3399H131.54L127.22 44.4899H118.82L138.56 0.629883H146.56L166.36 44.4899H157.84L153.47 34.3399ZM150.78 27.9999L142.51 8.76988L134.3 27.9999H150.78Z" fill="#39373C"/>
      <path d="M206.92 44.4899L197.92 31.6399C197.54 31.6399 196.98 31.6999 196.22 31.6999H186.32V44.4899H178.18V0.629904H196.18C199.589 0.548706 202.976 1.18939 206.12 2.5099C208.77 3.619 211.027 5.49633 212.6 7.8999C214.149 10.3968 214.935 13.2923 214.86 16.2299C214.939 19.25 214.095 22.2225 212.44 24.7499C210.745 27.2043 208.325 29.0678 205.52 30.0799L215.61 44.4899H206.92ZM203.97 9.76991C202.13 8.26991 199.436 7.5199 195.89 7.5199H186.36V24.9999H195.89C199.443 24.9999 202.136 24.2366 203.97 22.7099C204.898 21.9154 205.63 20.9172 206.109 19.7931C206.587 18.6691 206.8 17.4496 206.73 16.2299C206.801 15.013 206.588 13.7963 206.109 12.6753C205.63 11.5544 204.898 10.5598 203.97 9.76991Z" fill="#39373C"/>
      <path d="M238.59 42.2C235.104 40.3379 232.198 37.553 230.19 34.15C228.157 30.6302 227.12 26.6239 227.19 22.5599C227.124 18.502 228.172 14.5037 230.22 10.9999C232.245 7.59688 235.159 4.81029 238.65 2.93995C242.339 0.97047 246.468 -0.0307652 250.65 0.0299494C254.023 -0.0104146 257.369 0.628965 260.49 1.90995C263.387 3.11499 265.963 4.98142 268.01 7.35995L262.74 12.3099C261.279 10.662 259.481 9.34739 257.467 8.45536C255.454 7.56334 253.272 7.11473 251.07 7.13995C248.246 7.09937 245.459 7.78825 242.98 9.13995C240.644 10.4059 238.714 12.3054 237.41 14.6199C236.043 17.0611 235.353 19.8228 235.41 22.6199C235.351 25.4173 236.041 28.1795 237.41 30.6199C238.722 32.889 240.636 34.7509 242.94 36C245.433 37.3541 248.233 38.0429 251.07 38C253.282 38.0352 255.476 37.5883 257.498 36.6903C259.52 35.7923 261.322 34.4648 262.78 32.7999L268.05 37.7999C265.995 40.1837 263.409 42.0506 260.5 43.25C257.37 44.5338 254.013 45.1733 250.63 45.13C246.433 45.1913 242.289 44.183 238.59 42.2Z" fill="#39373C"/>
      <path d="M309.61 34.3399H287.68L283.36 44.4899H274.96L294.7 0.629883H302.7L322.5 44.4899H313.98L309.61 34.3399ZM306.92 27.9999L298.65 8.76988L290.44 27.9999H306.92Z" fill="#39373C"/>
      <path d="M334.36 0.629801H353.53C357.842 0.549348 362.113 1.48094 366 3.3498C369.504 5.05037 372.442 7.72788 374.46 11.0598C376.503 14.5423 377.542 18.5229 377.46 22.5598C377.541 26.5934 376.502 30.5706 374.46 34.0498C372.445 37.3839 369.506 40.0621 366 41.7598C362.115 43.6367 357.843 44.572 353.53 44.4898H334.36V0.629801ZM353.16 37.6298C356.095 37.6922 359.004 37.0618 361.65 35.7898C364.009 34.6288 365.972 32.795 367.29 30.5198C368.649 28.1045 369.339 25.3706 369.29 22.5998C369.339 19.8258 368.649 17.0888 367.29 14.6698C365.974 12.3953 364.01 10.5641 361.65 9.4098C359.005 8.13435 356.096 7.50054 353.16 7.5598H342.5V37.5898L353.16 37.6298Z" fill="#39373C"/>
      <path d="M392.38 0.629883H400.52V44.4899H392.38V0.629883Z" fill="#39373C"/>
      <path d="M447.07 34.3399H425.15L420.82 44.4899H412.43L432.17 0.629883H440.17L459.96 44.4899H451.44L447.07 34.3399ZM444.38 27.9999L436.07 8.76988L427.9 27.9999H444.38Z" fill="#39373C"/>
      <path d="M159.07 100.61V71.54L144.64 95.6H141L126.59 71.91V100.61H118.82V56.75H125.53L142.94 85.82L160.07 56.75H166.77L166.84 100.61H159.07Z" fill="#39373C"/>
      <path d="M217.82 93.78V100.61H184.92V56.75H216.92V63.58H193.07V75H214.25V81.71H193.07V93.78H217.82Z" fill="#39373C"/>
      <path d="M273.46 100.61L273.4 71.54L258.98 95.6H255.35L240.94 71.91V100.61H233.17V56.75H239.87L257.29 85.82L274.4 56.75H281.07L281.13 100.61H273.46Z" fill="#39373C"/>
      <path d="M307.67 98.3199C304.157 96.4603 301.229 93.6634 299.21 90.2399C297.198 86.7194 296.14 82.7347 296.14 78.6799C296.14 74.6251 297.198 70.6405 299.21 67.1199C301.223 63.6817 304.152 60.8704 307.67 58.9999C311.411 57.0809 315.555 56.0801 319.76 56.0801C323.965 56.0801 328.109 57.0809 331.85 58.9999C335.359 60.8513 338.287 63.6375 340.31 67.0499C342.322 70.5812 343.38 74.5756 343.38 78.6399C343.38 82.7043 342.322 86.6986 340.31 90.2299C338.28 93.624 335.352 96.3922 331.85 98.2299C328.109 100.149 323.965 101.15 319.76 101.15C315.555 101.15 311.411 100.149 307.67 98.2299V98.3199ZM327.67 92.1199C329.982 90.8248 331.889 88.914 333.18 86.5999C334.493 84.1647 335.18 81.4415 335.18 78.6749C335.18 75.9084 334.493 73.1851 333.18 70.7499C331.889 68.4386 329.981 66.5311 327.67 65.2399C325.239 63.9468 322.528 63.2706 319.775 63.2706C317.022 63.2706 314.311 63.9468 311.88 65.2399C309.564 66.5279 307.652 68.436 306.36 70.7499C305.047 73.1851 304.36 75.9084 304.36 78.6749C304.36 81.4415 305.047 84.1647 306.36 86.5999C307.652 88.9166 309.563 90.8279 311.88 92.1199C314.311 93.413 317.022 94.0893 319.775 94.0893C322.528 94.0893 325.239 93.413 327.67 92.1199Z" fill="#39373C"/>
      <path d="M386.99 100.61L377.99 87.7601C377.429 87.8171 376.864 87.8405 376.3 87.8301H366.4V100.61H358.25V56.7501H376.25C379.655 56.6748 383.038 57.3153 386.18 58.6301C388.861 59.7211 391.154 61.5918 392.76 64.0001C394.305 66.4986 395.087 69.3936 395.01 72.3301C395.092 75.3492 394.252 78.3215 392.6 80.8501C390.901 83.3004 388.483 85.1627 385.68 86.1801L395.76 100.59L386.99 100.61ZM384.07 65.9001C382.23 64.3868 379.533 63.6334 375.98 63.6401H366.46V81.1201H375.98C379.533 81.1201 382.23 80.3601 384.07 78.8401C384.994 78.0401 385.722 77.0393 386.198 75.9143C386.675 74.7893 386.888 73.57 386.82 72.3501C386.891 71.1356 386.68 69.921 386.203 68.8019C385.726 67.6828 384.996 66.6895 384.07 65.9001Z" fill="#39373C"/>
      <path d="M410.36 56.75H418.51V100.61H410.36V56.75Z" fill="#39373C"/>
      <path d="M465.07 90.46H443.13L438.81 100.61H430.41L450.15 56.75H458.15L477.95 100.61H469.43L465.07 90.46ZM462.38 84.07L454.07 64.89L445.86 84.07H462.38Z" fill="#39373C"/>
      <path d="M489.81 56.75H497.96V93.75H520.89V100.64H489.81V56.75Z" fill="#39373C"/>
    </g>
  </symbol>
  <symbol id="white-logo" width="100%" viewBox="0 0 153 30" fill="none">
    <g>
      <path fill-rule="evenodd" clip-rule="evenodd" d="M0.190918 29.5939H4.54305L4.13192 24.8351H0.534507L0.190918 29.5939ZM10.1785 29.5939H11.9669V0.182129H7.34462L10.1785 29.5939ZM3.67967 20.1439H0.983816L2.09387 5.18213H2.36992L3.67967 20.1439ZM25.8632 0.182129H20.9296L23.3935 18.1233L25.8632 0.182129ZM20.8709 29.5939H17.2705V8.39977L20.8709 29.5939ZM29.5164 29.5939H26.1304L29.5164 8.39977V29.5939Z" fill="white"/>
      <path d="M45.0691 10.0998H38.629L37.3603 13.0851H34.8936L40.6905 0.185059H43.0399L48.8544 13.0851H46.3524L45.0691 10.0998ZM44.2791 8.23506L41.8505 2.57918L39.4395 8.23506H44.2791Z" fill="white"/>
      <path d="M60.7652 13.0851L58.1222 9.30571C58.0106 9.30571 57.8461 9.32336 57.6229 9.32336H54.7156V13.0851H52.3252V0.185122H57.6112C58.6122 0.161241 59.607 0.349678 60.5302 0.738064C61.3084 1.06427 61.9712 1.61642 62.4332 2.32336C62.8882 3.05775 63.1189 3.90935 63.0969 4.77336C63.1202 5.66163 62.8722 6.53587 62.3862 7.27924C61.8885 8.00113 61.178 8.54922 60.354 8.84689L63.3171 13.0851H60.7652ZM59.8988 2.87336C59.3585 2.43218 58.5676 2.21159 57.526 2.21159H54.7274V7.35277H57.526C58.5695 7.35277 59.3605 7.12826 59.8988 6.67924C60.1714 6.44556 60.3864 6.15197 60.527 5.82137C60.6676 5.49077 60.73 5.1321 60.7094 4.77336C60.7302 4.41545 60.6678 4.05758 60.5272 3.72789C60.3866 3.39821 60.1715 3.10569 59.8988 2.87336Z" fill="white"/>
      <path d="M70.0656 12.4115C69.042 11.8639 68.1886 11.0448 67.5988 10.0439C67.0019 9.00864 66.6973 7.83032 66.7178 6.63505C66.6983 5.44155 67.0061 4.26556 67.6076 3.23505C68.2022 2.23415 69.0581 1.41456 70.0832 0.864461C71.1666 0.285203 72.3791 -0.00927836 73.6072 0.00857885C74.5977 -0.00329289 75.5805 0.18476 76.4969 0.56152C77.3478 0.915943 78.1041 1.46489 78.7052 2.16446L77.1576 3.62034C76.7286 3.13564 76.2005 2.749 75.6092 2.48664C75.0179 2.22428 74.3772 2.09234 73.7305 2.09976C72.9012 2.08782 72.0829 2.29043 71.3548 2.68799C70.6689 3.06032 70.1019 3.619 69.719 4.29976C69.3177 5.01775 69.1149 5.83001 69.1317 6.6527C69.1144 7.47545 69.3171 8.28786 69.719 9.00564C70.1043 9.67299 70.6663 10.2206 71.343 10.588C72.0752 10.9863 72.8974 11.1889 73.7305 11.1762C74.3802 11.1866 75.0243 11.0552 75.6182 10.791C76.2121 10.5269 76.7414 10.1365 77.1693 9.64682L78.717 11.1174C78.1137 11.8185 77.3541 12.3676 76.4998 12.7203C75.5806 13.098 74.5948 13.286 73.6013 13.2733C72.3688 13.2913 71.152 12.9948 70.0656 12.4115Z" fill="white"/>
      <path d="M90.9226 10.0998H84.4825L83.2139 13.0851H80.7471L86.544 0.185059H88.8934L94.7079 13.0851H92.2059L90.9226 10.0998ZM90.1326 8.23506L87.704 2.57918L85.293 8.23506H90.1326Z" fill="white"/>
      <path d="M98.1904 0.185006H103.82C105.086 0.161343 106.341 0.435341 107.482 0.985006C108.511 1.48517 109.374 2.27268 109.966 3.25265C110.567 4.27692 110.871 5.44768 110.847 6.63501C110.871 7.82137 110.566 8.99112 109.966 10.0144C109.375 10.995 108.512 11.7827 107.482 12.2821C106.341 12.8341 105.087 13.1092 103.82 13.085H98.1904V0.185006ZM103.711 11.0674C104.573 11.0857 105.428 10.9003 106.205 10.5262C106.897 10.1847 107.474 9.64536 107.861 8.97618C108.26 8.26579 108.463 7.46172 108.448 6.64677C108.463 5.83089 108.26 5.02588 107.861 4.31442C107.474 3.64544 106.898 3.10686 106.205 2.76736C105.428 2.39223 104.574 2.20581 103.711 2.22324H100.581V11.0556L103.711 11.0674Z" fill="white"/>
      <path d="M115.229 0.185059H117.619V13.0851H115.229V0.185059Z" fill="white"/>
      <path d="M131.29 10.0998H124.853L123.581 13.0851H121.117L126.914 0.185059H129.263L135.075 13.0851H132.573L131.29 10.0998ZM130.5 8.23506L128.059 2.57918L125.66 8.23506H130.5Z" fill="white"/>
      <path d="M46.7136 29.5909V21.0409L42.476 28.1174H41.4071L37.1753 21.1497V29.5909H34.8936V16.6909H36.8641L41.9768 25.2409L47.0073 16.6909H48.9748L48.9954 29.5909H46.7136Z" fill="white"/>
      <path d="M63.9663 27.5821V29.5909H54.3047V16.6909H63.702V18.6997H56.6981V22.0586H62.9179V24.0321H56.6981V27.5821H63.9663Z" fill="white"/>
      <path d="M80.3064 29.5909L80.2888 21.0409L76.0541 28.1174H74.9881L70.7564 21.1497V29.5909H68.4746V16.6909H70.4422L75.5578 25.2409L80.5825 16.6909H82.5412L82.5588 29.5909H80.3064Z" fill="white"/>
      <path d="M90.3527 28.9171C89.3212 28.3702 88.4612 27.5476 87.8683 26.5407C87.2775 25.5052 86.9668 24.3333 86.9668 23.1407C86.9668 21.9481 87.2775 20.7761 87.8683 19.7407C88.4595 18.7294 89.3196 17.9026 90.3527 17.3524C91.4514 16.788 92.6684 16.4937 93.9032 16.4937C95.1379 16.4937 96.3549 16.788 97.4536 17.3524C98.484 17.897 99.3438 18.7164 99.938 19.7201C100.529 20.7587 100.84 21.9335 100.84 23.1289C100.84 24.3243 100.529 25.4991 99.938 26.5377C99.3417 27.536 98.482 28.3501 97.4536 28.8907C96.3549 29.4551 95.1379 29.7494 93.9032 29.7494C92.6684 29.7494 91.4514 29.4551 90.3527 28.8907V28.9171ZM96.2261 27.0936C96.9049 26.7127 97.465 26.1507 97.8441 25.4701C98.2297 24.7538 98.4315 23.9529 98.4315 23.1392C98.4315 22.3255 98.2297 21.5246 97.8441 20.8083C97.465 20.1285 96.9048 19.5675 96.2261 19.1877C95.5122 18.8074 94.7161 18.6085 93.9076 18.6085C93.099 18.6085 92.3029 18.8074 91.5891 19.1877C90.9089 19.5666 90.3475 20.1277 89.968 20.8083C89.5825 21.5246 89.3806 22.3255 89.3806 23.1392C89.3806 23.9529 89.5825 24.7538 89.968 25.4701C90.3475 26.1514 90.9087 26.7136 91.5891 27.0936C92.3029 27.4739 93.099 27.6728 93.9076 27.6728C94.7161 27.6728 95.5122 27.4739 96.2261 27.0936Z" fill="white"/>
      <path d="M113.646 29.5907L111.003 25.8113C110.838 25.8281 110.672 25.835 110.507 25.8319H107.599V29.5907H105.206V16.6907H110.492C111.492 16.6686 112.485 16.8569 113.408 17.2437C114.196 17.5645 114.869 18.1147 115.34 18.8231C115.794 19.5579 116.024 20.4094 116.001 21.2731C116.025 22.161 115.778 23.0352 115.293 23.7789C114.794 24.4996 114.084 25.0474 113.261 25.3466L116.221 29.5848L113.646 29.5907ZM112.789 19.3819C112.248 18.9368 111.456 18.7152 110.413 18.7172H107.617V23.8584H110.413C111.456 23.8584 112.248 23.6348 112.789 23.1878C113.06 22.9525 113.274 22.6581 113.414 22.3272C113.554 21.9964 113.616 21.6378 113.596 21.2789C113.617 20.9217 113.555 20.5645 113.415 20.2354C113.275 19.9062 113.06 19.6141 112.789 19.3819Z" fill="white"/>
      <path d="M120.509 16.6909H122.902V29.5909H120.509V16.6909Z" fill="white"/>
      <path d="M136.575 26.6056H130.132L128.863 29.5909H126.396L132.193 16.6909H134.543L140.357 29.5909H137.855L136.575 26.6056ZM135.785 24.7262L133.345 19.085L130.934 24.7262H135.785Z" fill="white"/>
      <path d="M143.841 16.6909H146.234V27.5733H152.968V29.5997H143.841V16.6909Z" fill="white"/>
    </g>
  </symbol>
</svg>