<svg width="80" height="80" fill="none" xmlns="http://www.w3.org/2000/svg"><g clip-path="url(#clip0)" fill="#D2D2D2"><path d="M40 41.543c4.741 0 9.37-2.876 13.035-8.1C56.27 28.836 58.2 23.137 58.2 18.2 58.2 8.164 50.036 0 40 0 29.966 0 21.8 8.164 21.8 18.2c0 4.936 1.932 10.635 5.166 15.244 3.665 5.223 8.294 8.099 13.035 8.099zm0-38.575c8.4 0 15.233 6.833 15.233 15.232 0 4.284-1.773 9.472-4.627 13.54-3.049 4.343-6.914 6.835-10.605 6.835-3.692 0-7.557-2.492-10.606-6.836-2.854-4.067-4.627-9.255-4.627-13.54 0-8.398 6.834-15.231 15.233-15.231z"/><path d="M66.672 49.683a31.767 31.767 0 00-13.056-11.489 1.484 1.484 0 00-1.685.29c-3.576 3.565-7.7 5.45-11.93 5.45-4.228 0-8.353-1.885-11.926-5.45a1.483 1.483 0 00-1.686-.29 31.773 31.773 0 00-13.056 11.489 31.59 31.59 0 00-5.036 17.15v.026c0 .42.177.818.487 1.1A46.378 46.378 0 0040.002 80a46.379 46.379 0 0031.217-12.04c.31-.282.487-.68.487-1.1v-.025a31.59 31.59 0 00-5.034-17.15zm-26.67 27.35a43.416 43.416 0 01-28.73-10.831 28.616 28.616 0 014.555-14.911 28.812 28.812 0 0110.927-9.963c3.966 3.65 8.526 5.573 13.248 5.573 4.72 0 9.282-1.923 13.25-5.574a28.806 28.806 0 0110.925 9.964 28.618 28.618 0 014.555 14.91 43.416 43.416 0 01-28.73 10.832z"/></g><defs><clipPath id="clip0"><path fill="#fff" d="M0 0h80v80H0z"/></clipPath></defs></svg>