<svg width="37" height="36" fill="none" xmlns="http://www.w3.org/2000/svg"><g clip-path="url(#clip0)" fill="#39373C"><path d="M33.5 2.4h-3.6v-.6a1.8 1.8 0 10-3.6 0v.6h-6v-.6a1.8 1.8 0 10-3.6 0v.6h-6v-.6a1.8 1.8 0 10-3.6 0v.6H3.5a3.003 3.003 0 00-3 3V33a3.003 3.003 0 003 3h30a3.003 3.003 0 003-3V5.4a3.003 3.003 0 00-3-3zm-6-.6a.6.6 0 111.2 0v3.6a.6.6 0 11-1.2 0V1.8zm-9.6 0a.6.6 0 111.2 0v3.6a.6.6 0 11-1.2 0V1.8zm-9.6 0a.6.6 0 111.2 0v3.6a.6.6 0 11-1.2 0V1.8zM3.5 3.6h3.6v1.8a1.8 1.8 0 103.6 0V3.6h6v1.8a1.8 1.8 0 103.6 0V3.6h6v1.8a1.8 1.8 0 103.6 0V3.6h3.6a1.802 1.802 0 011.8 1.8v4.2H1.7V5.4a1.802 1.802 0 011.8-1.8zm30 31.2h-30A1.802 1.802 0 011.7 33V10.8h33.6V33a1.803 1.803 0 01-1.8 1.8z"/><path d="M16.46 18.507l-2.813-.43-1.263-2.691a.563.563 0 00-1.018 0l-1.263 2.69-2.813.43a.562.562 0 00-.317.95l2.051 2.103-.485 2.976a.562.562 0 00.827.582l2.509-1.387 2.509 1.387a.563.563 0 00.827-.583l-.485-2.976 2.052-2.102a.563.563 0 00-.318-.95zm-2.738 2.469a.563.563 0 00-.152.483l.344 2.113-1.767-.977a.562.562 0 00-.545 0l-1.767.977.345-2.113a.562.562 0 00-.153-.483l-1.485-1.523 2.027-.309a.563.563 0 00.424-.317l.882-1.878.881 1.878a.563.563 0 00.424.317l2.028.31-1.486 1.522z"/></g><defs><clipPath id="clip0"><path fill="#fff" transform="translate(.5)" d="M0 0h36v36H0z"/></clipPath></defs></svg>