<svg width="36" height="36" fill="none" xmlns="http://www.w3.org/2000/svg"><g clip-path="url(#clip0)" fill="#B0742E"><path d="M17.98 16.73c-2.13 0-3.857 1.691-3.857 3.777 0 2.085 1.728 3.776 3.858 3.775h.005c2.13-.001 3.855-1.693 3.854-3.778-.001-2.086-1.729-3.776-3.86-3.775zm1.903 5.638c-.5.498-1.184.781-1.898.785h-.005c-1.493 0-2.703-1.186-2.702-2.648 0-1.462 1.211-2.647 2.704-2.646h.001a2.702 2.702 0 012.48 1.636 2.605 2.605 0 01-.58 2.873zm7.371-8.109h-.002c-2.116 0-3.837 1.704-3.836 3.78.001 2.07 1.722 3.773 3.837 3.773h.053c2.108-.021 3.802-1.708 3.788-3.773.001-2.08-1.715-3.77-3.84-3.78zm1.92 5.64a2.657 2.657 0 01-1.876.783h-.044c-1.493 0-2.703-1.186-2.703-2.648 0-1.461 1.211-2.646 2.704-2.646h.002a2.716 2.716 0 012.475 1.638c.417.98.198 2.11-.558 2.873z"/><path d="M2.5 27.842v5.105c0 .316.257.574.58.582h8.72v1.906c-.006.147.05.29.153.397a.56.56 0 00.398.168h11.263a.58.58 0 00.586-.565V33.53h8.72a.588.588 0 00.58-.582v-5.09c0-2.905-2.403-5.262-5.37-5.269h-1.665c-2.152.01-4.098 1.254-4.97 3.18a5.426 5.426 0 00-2.672-.71H17.15a5.436 5.436 0 00-2.667.706c-.862-1.924-2.803-3.17-4.948-3.176H7.879c-2.966-.001-5.373 2.35-5.379 5.254zm23.965-4.124h1.663c2.331.005 4.218 1.856 4.218 4.14V32.4H24.2v-2.054a5.187 5.187 0 00-1.573-3.725c-.056-.054-.114-.106-.172-.158.625-1.641 2.22-2.734 4.01-2.745zm-9.314 2.47h1.67c2.338.01 4.227 1.869 4.226 4.157v4.526H12.953v-4.54c0-2.278 1.872-4.143 4.198-4.143zm-9.271-2.47h1.654c1.787.007 3.382 1.099 4.002 2.74A5.18 5.18 0 0011.8 30.33v2.07H3.653v-4.557c.006-2.282 1.897-4.127 4.227-4.125zm.83-9.459c-2.13 0-3.857 1.691-3.856 3.777 0 2.086 1.727 3.776 3.858 3.776h.002a3.847 3.847 0 002.706-1.103 3.686 3.686 0 001.103-2.66v-.014a3.712 3.712 0 00-1.106-2.661 3.872 3.872 0 00-2.705-1.115zm.002 6.423h-.001c-1.493 0-2.704-1.186-2.703-2.648 0-1.461 1.211-2.646 2.704-2.646h.001c1.486.01 2.685 1.193 2.684 2.647a2.68 2.68 0 01-2.685 2.647zm22.822-7.431C31.534 5.933 25.474 0 18 0 10.526 0 4.467 5.933 4.467 13.251c0 .284.215.524.503.56a.576.576 0 00.631-.416c.083-.309.404-1.273.787-1.683a2.778 2.778 0 011.895-.75 2.722 2.722 0 011.89.744c.493.5.77 1.167.772 1.862a.57.57 0 00.577.565.57.57 0 00.577-.565 2.538 2.538 0 01.767-1.856 2.65 2.65 0 011.895-.75 2.723 2.723 0 011.89.744c.493.5.77 1.167.773 1.862a.57.57 0 00.576.565.57.57 0 00.577-.565 2.538 2.538 0 01.767-1.856 2.65 2.65 0 011.895-.75 2.722 2.722 0 011.89.744c.493.5.77 1.167.773 1.862a.57.57 0 00.576.565.57.57 0 00.577-.565 2.537 2.537 0 01.767-1.856 2.65 2.65 0 011.896-.75 2.722 2.722 0 011.889.744c.385.407.702 1.356.792 1.689a.577.577 0 00.632.416.569.569 0 00.503-.56zm-3.816-3.42a3.927 3.927 0 00-2.724 1.095c-.194.2-.366.42-.515.655a4.133 4.133 0 00-.516-.655l-.012-.013a3.94 3.94 0 00-5.435.013 4.14 4.14 0 00-.516.655 4.14 4.14 0 00-.515-.655l-.013-.013a3.939 3.939 0 00-5.434.013c-.194.2-.367.42-.516.655a4.136 4.136 0 00-.516-.655l-.012-.013a3.934 3.934 0 00-5.086-.282c1.256-5.55 6.28-9.501 12.087-9.504 5.806-.002 10.835 3.945 12.095 9.494a3.936 3.936 0 00-2.372-.79z"/></g><defs><clipPath id="clip0"><path fill="#fff" d="M0 0h36v36H0z"/></clipPath></defs></svg>