<svg width="36" height="36" fill="none" xmlns="http://www.w3.org/2000/svg"><g clip-path="url(#clip0)" fill="#39373C"><path d="M31.983 36H4.017C1.802 36 0 34.178 0 31.938V4.062C0 1.822 1.802 0 4.017 0h27.966C34.198 0 36 1.822 36 4.062v27.876C36 34.178 34.198 36 31.983 36zM4.017 1.213c-1.553 0-2.817 1.278-2.817 2.85v27.875c0 1.57 1.264 2.848 2.817 2.848h27.966c1.553 0 2.817-1.277 2.817-2.848V4.062c0-1.57-1.264-2.849-2.817-2.849H4.017z"/><path d="M23.4 11.326c-1.984 0-3.6-1.633-3.6-3.64 0-2.008 1.616-3.641 3.6-3.641 1.986 0 3.6 1.633 3.6 3.64 0 2.008-1.614 3.64-3.6 3.64zm0-6.068c-1.323 0-2.4 1.089-2.4 2.427 0 1.339 1.077 2.427 2.4 2.427 1.324 0 2.4-1.088 2.4-2.427 0-1.338-1.076-2.427-2.4-2.427zM31.984 36H18.268a.6.6 0 01-.547-.358.612.612 0 01.099-.652l9.333-14.662a.615.615 0 01.897 0l7.513 12.591c.155.177.195.43.1.647A4.016 4.016 0 0131.985 36zm-12.38-1.213h12.38a2.81 2.81 0 002.408-1.373l-6.79-11.77-7.998 13.143z"/><path d="M18.267 36H4.017C1.802 36 0 34.178 0 31.938v-3.75c0-.149.054-.292.152-.403l10.2-14.638a.615.615 0 01.897 0l10 17.697a.612.612 0 010 .806l-2.534 4.146a.595.595 0 01-.448.204zM1.201 28.419v3.519c0 1.57 1.263 2.848 2.817 2.848h13.98l2-3.539-9.197-16.783-9.6 13.955z"/></g><defs><clipPath id="clip0"><path fill="#fff" d="M0 0h36v36H0z"/></clipPath></defs></svg>