<svg width="30" height="36" fill="none" xmlns="http://www.w3.org/2000/svg"><path d="M15 18.694c2.134 0 4.217-1.294 5.866-3.644 1.456-2.074 2.324-4.639 2.324-6.86C23.19 3.674 19.516 0 15 0c-4.515 0-8.19 3.674-8.19 8.19 0 2.221.87 4.786 2.325 6.86 1.65 2.35 3.732 3.644 5.866 3.644zm0-17.359a6.862 6.862 0 016.855 6.855c0 1.928-.798 4.262-2.082 6.093-1.372 1.955-3.111 3.076-4.772 3.076-1.662 0-3.401-1.122-4.773-3.076-1.284-1.83-2.082-4.165-2.082-6.093A6.862 6.862 0 0115 1.335z" fill="#B0742E"/><path d="M27.002 22.358a14.295 14.295 0 00-5.875-5.17.668.668 0 00-.758.13c-1.61 1.604-3.465 2.452-5.368 2.452-1.904 0-3.76-.848-5.367-2.452a.668.668 0 00-.76-.13A14.298 14.298 0 003 22.357a14.215 14.215 0 00-2.266 7.717v.012c0 .188.08.368.22.494A20.87 20.87 0 0015 36.002a20.87 20.87 0 0014.049-5.42.668.668 0 00.219-.494v-.012c0-2.748-.784-5.417-2.266-7.717zM15.001 34.665A19.537 19.537 0 012.072 29.79a12.877 12.877 0 012.05-6.71 12.965 12.965 0 014.917-4.484c1.785 1.643 3.837 2.508 5.962 2.508 2.124 0 4.176-.865 5.962-2.508a12.962 12.962 0 014.916 4.484 12.878 12.878 0 012.05 6.71 19.537 19.537 0 01-12.928 4.874z" fill="#B0742E"/></svg>