<svg width="37" height="36" fill="none" xmlns="http://www.w3.org/2000/svg"><path d="M30.694 24.386c-1.975 0-3.659.987-4.704 2.439l-8.942-5.052a8.372 8.372 0 00.871-3.774c0-1.335-.348-2.613-.87-3.774l8.941-5.052a5.7 5.7 0 004.704 2.439c3.193 0 5.806-2.613 5.806-5.807C36.5 2.612 33.887 0 30.694 0c-3.194 0-5.807 2.613-5.807 5.806 0 .813.174 1.626.523 2.323l-8.942 5.052A8.64 8.64 0 009.21 9.29C4.39 9.29.5 13.18.5 18a8.698 8.698 0 008.71 8.709c3.019 0 5.69-1.568 7.258-3.89l8.884 5.051c-.29.697-.523 1.51-.523 2.323 0 3.193 2.613 5.806 5.806 5.806 3.194 0 5.807-2.613 5.807-5.806.058-3.194-2.555-5.807-5.748-5.807zm0-23.226a4.659 4.659 0 014.645 4.646 4.659 4.659 0 01-4.645 4.645 4.659 4.659 0 01-4.646-4.645 4.659 4.659 0 014.646-4.646zM9.21 25.547A7.533 7.533 0 011.66 18a7.533 7.533 0 017.549-7.548A7.533 7.533 0 0116.757 18a7.533 7.533 0 01-7.548 7.549zm21.483 9.29a4.659 4.659 0 01-4.645-4.644 4.659 4.659 0 014.646-4.646 4.659 4.659 0 014.645 4.646 4.659 4.659 0 01-4.645 4.645z" fill="#B0742E"/></svg>