<svg width="60" height="60" fill="none" xmlns="http://www.w3.org/2000/svg"><g clip-path="url(#clip0)"><path d="M50.323 40.644c-3.29 0-6.097 1.645-7.84 4.065l-14.902-8.42c.967-1.935 1.451-4.064 1.451-6.29s-.58-4.355-1.451-6.29l14.903-8.42c1.742 2.516 4.645 4.065 7.839 4.065 5.322 0 9.677-4.355 9.677-9.678C60 4.354 55.645 0 50.323 0 45 0 40.645 4.355 40.645 9.677c0 1.355.29 2.71.871 3.871l-14.903 8.42C24 18 19.548 15.484 14.516 15.484A14.497 14.497 0 000 29.999a14.497 14.497 0 0014.516 14.516c5.032 0 9.484-2.612 12.097-6.483l14.806 8.419c-.483 1.161-.87 2.516-.87 3.87 0 5.323 4.354 9.678 9.677 9.678 5.322 0 9.677-4.355 9.677-9.677.097-5.323-4.258-9.678-9.58-9.678zm0-38.71c4.258 0 7.742 3.484 7.742 7.743 0 4.258-3.484 7.742-7.742 7.742s-7.742-3.484-7.742-7.742c0-4.259 3.483-7.742 7.742-7.742zM14.516 42.58A12.556 12.556 0 011.936 30c0-6.969 5.612-12.581 12.58-12.581s12.58 5.612 12.58 12.58-5.612 12.58-12.58 12.58zm35.807 15.484c-4.258 0-7.742-3.484-7.742-7.742s3.483-7.742 7.742-7.742c4.258 0 7.742 3.484 7.742 7.742s-3.484 7.742-7.742 7.742z" fill="#39373C"/></g><defs><clipPath id="clip0"><path fill="#fff" d="M0 0h60v60H0z"/></clipPath></defs></svg>