<svg width="37" height="36" viewBox="0 0 37 36" fill="none" xmlns="http://www.w3.org/2000/svg">

<g clip-path="url(#clip0)">
<path d="M33.5 2.4H29.9V1.8C29.9 1.32261 29.7104 0.864773 29.3728 0.527208C29.0352 0.189642 28.5774 0 28.1 0C27.6226 0 27.1648 0.189642 26.8272 0.527208C26.4896 0.864773 26.3 1.32261 26.3 1.8V2.4H20.3V1.8C20.3 1.32261 20.1104 0.864773 19.7728 0.527208C19.4352 0.189642 18.9774 0 18.5 0C18.0226 0 17.5648 0.189642 17.2272 0.527208C16.8896 0.864773 16.7 1.32261 16.7 1.8V2.4H10.7V1.8C10.7 1.32261 10.5104 0.864773 10.1728 0.527208C9.83523 0.189642 9.37739 0 8.9 0C8.42261 0 7.96477 0.189642 7.62721 0.527208C7.28964 0.864773 7.1 1.32261 7.1 1.8V2.4H3.5C2.70462 2.40089 1.94208 2.71725 1.37967 3.27967C0.817251 3.84208 0.500893 4.60462 0.5 5.4V33C0.500893 33.7954 0.817251 34.5579 1.37967 35.1203C1.94208 35.6828 2.70462 35.9991 3.5 36H33.5C34.2954 35.9991 35.0579 35.6828 35.6203 35.1203C36.1828 34.5579 36.4991 33.7954 36.5 33V5.4C36.4991 4.60462 36.1828 3.84208 35.6203 3.27967C35.0579 2.71725 34.2954 2.40089 33.5 2.4ZM27.5 1.8C27.5 1.64087 27.5632 1.48826 27.6757 1.37574C27.7883 1.26321 27.9409 1.2 28.1 1.2C28.2591 1.2 28.4117 1.26321 28.5243 1.37574C28.6368 1.48826 28.7 1.64087 28.7 1.8V5.4C28.7 5.55913 28.6368 5.71174 28.5243 5.82426C28.4117 5.93679 28.2591 6 28.1 6C27.9409 6 27.7883 5.93679 27.6757 5.82426C27.5632 5.71174 27.5 5.55913 27.5 5.4V1.8ZM17.9 1.8C17.9 1.64087 17.9632 1.48826 18.0757 1.37574C18.1883 1.26321 18.3409 1.2 18.5 1.2C18.6591 1.2 18.8117 1.26321 18.9243 1.37574C19.0368 1.48826 19.1 1.64087 19.1 1.8V5.4C19.1 5.55913 19.0368 5.71174 18.9243 5.82426C18.8117 5.93679 18.6591 6 18.5 6C18.3409 6 18.1883 5.93679 18.0757 5.82426C17.9632 5.71174 17.9 5.55913 17.9 5.4V1.8ZM8.3 1.8C8.3 1.64087 8.36321 1.48826 8.47574 1.37574C8.58826 1.26321 8.74087 1.2 8.9 1.2C9.05913 1.2 9.21174 1.26321 9.32426 1.37574C9.43679 1.48826 9.5 1.64087 9.5 1.8V5.4C9.5 5.55913 9.43679 5.71174 9.32426 5.82426C9.21174 5.93679 9.05913 6 8.9 6C8.74087 6 8.58826 5.93679 8.47574 5.82426C8.36321 5.71174 8.3 5.55913 8.3 5.4V1.8ZM3.5 3.6H7.1V5.4C7.1 5.87739 7.28964 6.33523 7.62721 6.67279C7.96477 7.01036 8.42261 7.2 8.9 7.2C9.37739 7.2 9.83523 7.01036 10.1728 6.67279C10.5104 6.33523 10.7 5.87739 10.7 5.4V3.6H16.7V5.4C16.7 5.87739 16.8896 6.33523 17.2272 6.67279C17.5648 7.01036 18.0226 7.2 18.5 7.2C18.9774 7.2 19.4352 7.01036 19.7728 6.67279C20.1104 6.33523 20.3 5.87739 20.3 5.4V3.6H26.3V5.4C26.3 5.87739 26.4896 6.33523 26.8272 6.67279C27.1648 7.01036 27.6226 7.2 28.1 7.2C28.5774 7.2 29.0352 7.01036 29.3728 6.67279C29.7104 6.33523 29.9 5.87739 29.9 5.4V3.6H33.5C33.9772 3.60056 34.4347 3.79038 34.7722 4.12782C35.1096 4.46527 35.2994 4.92278 35.3 5.4V9.6H1.7V5.4C1.70056 4.92278 1.89038 4.46527 2.22782 4.12782C2.56527 3.79038 3.02278 3.60056 3.5 3.6ZM33.5 34.8H3.5C3.02278 34.7994 2.56527 34.6096 2.22782 34.2722C1.89038 33.9347 1.70056 33.4772 1.7 33V10.8H35.3V33C35.2994 33.4772 35.1096 33.9347 34.7722 34.2722C34.4347 34.6096 33.9772 34.7994 33.5 34.8Z" fill="#B0742E"/>
<path d="M16.4597 18.5066L13.6472 18.0769L12.3839 15.3859C12.3385 15.2892 12.2665 15.2074 12.1764 15.1502C12.0862 15.0929 11.9816 15.0624 11.8747 15.0624C11.7679 15.0624 11.6633 15.0929 11.5731 15.1502C11.4829 15.2074 11.4109 15.2892 11.3655 15.3859L10.1028 18.0769L7.29035 18.5066C7.18806 18.5222 7.09204 18.5657 7.01286 18.6323C6.93369 18.6989 6.87442 18.7861 6.84158 18.8842C6.80874 18.9823 6.8036 19.0876 6.82673 19.1885C6.84986 19.2893 6.90037 19.3818 6.97268 19.4558L9.02447 21.5587L8.53931 24.5347C8.52253 24.6388 8.53531 24.7454 8.5762 24.8426C8.61708 24.9397 8.68443 25.0234 8.77057 25.0841C8.8567 25.1448 8.95816 25.1801 9.06338 25.1859C9.1686 25.1918 9.27335 25.168 9.36569 25.1172L11.8747 23.7304L14.3837 25.1172C14.4761 25.1683 14.581 25.1923 14.6865 25.1866C14.7919 25.1808 14.8935 25.1455 14.9798 25.0847C15.0661 25.0239 15.1336 24.9401 15.1745 24.8428C15.2154 24.7454 15.228 24.6386 15.211 24.5344L14.7259 21.5583L16.7777 19.4555C16.85 19.3815 16.9005 19.289 16.9236 19.1881C16.9468 19.0873 16.9416 18.982 16.9088 18.8838C16.8759 18.7857 16.8167 18.6986 16.7375 18.6319C16.6583 18.5653 16.5623 18.5218 16.46 18.5063L16.4597 18.5066ZM13.7221 20.9758C13.6606 21.0388 13.6148 21.1154 13.5883 21.1993C13.5618 21.2833 13.5554 21.3723 13.5695 21.4592L13.9141 23.5721L12.1467 22.5948C12.0634 22.5488 11.9698 22.5246 11.8746 22.5246C11.7794 22.5246 11.6858 22.5488 11.6025 22.5948L9.8351 23.5721L10.1796 21.4592C10.1938 21.3723 10.1874 21.2833 10.1609 21.1993C10.1344 21.1154 10.0885 21.0388 10.0271 20.9758L8.54191 19.4534L10.5692 19.144C10.6605 19.13 10.747 19.0938 10.821 19.0385C10.895 18.9832 10.9542 18.9106 10.9934 18.827L11.8747 16.9489L12.7561 18.8266C12.7953 18.9102 12.8546 18.9829 12.9285 19.0382C13.0025 19.0935 13.089 19.1297 13.1803 19.1437L15.2076 19.453L13.7221 20.9758Z" fill="#B0742E"/>
</g>
<defs>
<clipPath id="clip0">
<rect width="36" height="36" fill="white" transform="translate(0.5)"/>
</clipPath>
</defs>

</svg>
