<svg width="36" height="36" viewBox="0 0 36 36" fill="none" xmlns="http://www.w3.org/2000/svg">
<g clip-path="url(#clip0)">
<path d="M17.9809 16.7294H17.9792C15.8491 16.7299 14.1225 18.421 14.123 20.5067C14.1233 22.5923 15.8505 24.2829 17.9806 24.2823H17.9857C20.1158 24.2809 21.8415 22.5893 21.8404 20.5036C21.839 18.418 20.111 16.728 17.9809 16.7294ZM19.8826 22.3676C19.3822 22.8664 18.6993 23.1491 17.9851 23.1529H17.9803C16.4872 23.1524 15.2774 21.967 15.2779 20.505C15.2785 19.0431 16.4892 17.8582 17.9823 17.8588H17.9834C19.0713 17.8654 20.0488 18.5106 20.4636 19.4953C20.8781 20.4799 20.6492 21.6121 19.8823 22.3676H19.8826Z" fill="#B0742E"/>
<path d="M27.2538 14.2588H27.2519C25.1358 14.2588 23.4152 15.9634 23.416 18.0386C23.4171 20.1096 25.1378 21.8117 27.2533 21.8117H27.3062C29.4144 21.7905 31.108 20.1038 31.0939 18.0394C31.095 15.959 29.3786 14.269 27.2538 14.2588ZM29.1744 19.8987C28.6822 20.3964 28.0057 20.679 27.2981 20.6823H27.2538C25.7607 20.6818 24.5506 19.4964 24.5512 18.0344C24.5515 16.5725 25.7624 15.3876 27.2552 15.3882H27.2567C28.3417 15.4009 29.315 16.0445 29.7318 17.0255C30.1488 18.0063 29.9297 19.136 29.1742 19.8987H29.1744Z" fill="#B0742E"/>
<path d="M2.5 27.8418V32.9473C2.5 33.263 2.75711 33.5214 3.07956 33.5293H11.8V35.4352C11.7944 35.5822 11.8496 35.7253 11.9535 35.8317C12.0574 35.9382 12.2007 35.9988 12.3511 35.9999H23.6145C23.9347 36.0008 24.1961 35.7487 24.2 35.4352V33.5293H32.9204C33.2429 33.5214 33.5 33.263 33.5 32.9473V27.8578C33.4997 24.9518 31.097 22.5945 28.1291 22.5882H26.4647C24.3132 22.5973 22.3675 23.842 21.4951 25.7674C20.6835 25.3053 19.7618 25.0607 18.8226 25.0588H17.1507C16.2143 25.061 15.2948 25.3042 14.4843 25.7636C13.6218 23.8395 11.6814 22.5945 9.53555 22.5882H7.87882C4.91286 22.5868 2.50591 24.9375 2.5 27.8418H2.5ZM26.4647 23.7176H28.1279C30.4591 23.7226 32.3465 25.5744 32.3465 27.8572V32.3999H24.2V30.3457C24.2037 28.9486 23.6373 27.6077 22.6272 26.6211C22.5714 26.5665 22.5126 26.5152 22.4551 26.4634C23.0795 24.8216 24.6754 23.7289 26.4647 23.7176ZM17.1515 26.1882H18.8217C21.1591 26.1981 23.0479 28.0568 23.0465 30.3452V34.8705H12.9535V30.3306C12.9535 28.053 14.8254 26.1882 17.1515 26.1882ZM7.87966 23.7176H9.53442C11.3213 23.7251 12.916 24.817 13.5361 26.4576C12.4263 27.4513 11.7961 28.8573 11.8 30.3297V32.3999H3.65349V27.8426C3.65884 25.5614 5.55015 23.7157 7.87966 23.7176Z" fill="#B0742E"/>
<path d="M8.71064 14.2588H8.70867C6.57855 14.2593 4.85226 15.9504 4.85254 18.0361C4.8531 20.1217 6.58024 21.8123 8.71064 21.8117H8.71261C9.72896 21.8128 10.7036 21.4158 11.4192 20.7091C12.1348 20.0024 12.5319 19.0445 12.522 18.0493V18.0355C12.5288 17.0396 12.1308 16.082 11.4161 15.3736C10.7011 14.6649 9.72783 14.264 8.71064 14.2588ZM8.71233 20.6823H8.71064C7.21753 20.6818 6.00744 19.4964 6.008 18.0344C6.00828 16.5725 7.21922 15.3876 8.71233 15.3882H8.71346C10.199 15.3984 11.3978 16.5808 11.3972 18.0353C11.3665 19.5132 10.188 20.6823 8.71233 20.6823Z" fill="#B0742E"/>
<path d="M31.5338 13.251C31.5338 5.93272 25.4746 0 18.0003 0C10.526 0 4.4668 5.93272 4.4668 13.251C4.4668 13.5347 4.68195 13.7746 4.96976 13.811C5.25729 13.8474 5.52763 13.6693 5.60142 13.3947C5.68421 13.0861 6.00497 12.1222 6.38824 11.7116C6.89768 11.2321 7.57637 10.9635 8.28294 10.9613C8.98782 10.9577 9.66651 11.2249 10.1723 11.7061C10.666 12.2057 10.9428 12.873 10.9453 13.5681C10.9453 13.88 11.2036 14.1328 11.5221 14.1328C11.8406 14.1328 12.0988 13.88 12.0988 13.5681C12.0873 12.8733 12.3638 12.2038 12.8656 11.7124C13.3675 11.221 14.0515 10.95 14.7612 10.9613C15.4663 10.9577 16.1447 11.2252 16.6505 11.7061C17.1442 12.2057 17.4213 12.873 17.4235 13.5681C17.4235 13.88 17.6818 14.1328 18.0003 14.1328C18.3188 14.1328 18.577 13.88 18.577 13.5681C18.5655 12.8733 18.8423 12.2038 19.3441 11.7124C19.846 11.221 20.53 10.95 21.2394 10.9613C21.9446 10.9577 22.623 11.2249 23.129 11.7061C23.6224 12.2057 23.8995 12.873 23.9018 13.5681C23.9018 13.88 24.16 14.1328 24.4785 14.1328C24.797 14.1328 25.0553 13.88 25.0553 13.5681C25.0437 12.8733 25.3205 12.2038 25.8224 11.7124C26.3242 11.221 27.0083 10.95 27.7176 10.9613C28.4228 10.9577 29.1009 11.2249 29.6067 11.7058C29.992 12.1125 30.309 13.0619 30.3989 13.3947C30.4727 13.6693 30.7433 13.8474 31.0308 13.811C31.3184 13.7746 31.5335 13.5347 31.5335 13.251H31.5338ZM27.7176 9.83189C26.7106 9.83217 25.743 10.2157 25.0189 10.9015C25.0105 10.9095 25.0023 10.9175 24.9944 10.9257C24.8004 11.1267 24.6278 11.3462 24.4785 11.5812C24.3296 11.3462 24.1566 11.1267 23.9629 10.9257C23.9589 10.9216 23.9547 10.9175 23.9508 10.9133C22.4481 9.47592 20.0499 9.47068 18.5407 10.9015C18.5323 10.9095 18.5241 10.9175 18.5159 10.9257C18.3222 11.1267 18.1493 11.3462 18.0003 11.5812C17.8513 11.3462 17.6784 11.1267 17.4847 10.9257L17.4723 10.9133C15.9699 9.47592 13.5716 9.47068 12.0625 10.9015C12.054 10.9095 12.0456 10.9175 12.0377 10.9257C11.8439 11.1267 11.671 11.3462 11.5221 11.5812C11.3728 11.3462 11.2002 11.1267 11.0061 10.9257C11.0022 10.9216 10.998 10.9175 10.994 10.9133C9.60962 9.58677 7.43669 9.46627 5.90809 10.631C7.16381 5.0807 12.1889 1.12969 17.9952 1.12721C23.8012 1.125 28.8297 5.07188 30.0905 10.6213C29.4104 10.1085 28.576 9.83107 27.7176 9.83189Z" fill="#B0742E"/>
</g>
<defs>
<clipPath id="clip0">
<rect width="36" height="36" fill="white"/>
</clipPath>
</defs>
</svg>
