<svg width="36" height="36" viewBox="0 0 36 36" fill="none" xmlns="http://www.w3.org/2000/svg">
<g clip-path="url(#clip0)">
<path d="M17.9809 16.7285H17.9792C15.8491 16.7291 14.1225 18.4202 14.123 20.5058C14.1233 22.5915 15.8505 24.282 17.9806 24.2815H17.9857C20.1158 24.2801 21.8415 22.5885 21.8404 20.5028C21.839 18.4171 20.111 16.7271 17.9809 16.7285ZM19.8826 22.3668C19.3822 22.8656 18.6993 23.1482 17.9851 23.1521H17.9803C16.4872 23.1515 15.2774 21.9661 15.2779 20.5042C15.2785 19.0422 16.4892 17.8574 17.9823 17.8579H17.9834C19.0713 17.8645 20.0488 18.5098 20.4636 19.4944C20.8781 20.4791 20.6492 21.6112 19.8823 22.3668H19.8826Z" fill="#39373C"/>
<path d="M27.2538 14.2578H27.2519C25.1358 14.2578 23.4152 15.9624 23.416 18.0376C23.4171 20.1086 25.1378 21.8108 27.2533 21.8108H27.3062C29.4144 21.7895 31.108 20.1028 31.0939 18.0384C31.095 15.958 29.3786 14.268 27.2538 14.2578ZM29.1744 19.8977C28.6822 20.3954 28.0057 20.678 27.2981 20.6813H27.2538C25.7607 20.6808 24.5506 19.4954 24.5512 18.0335C24.5515 16.5715 25.7624 15.3867 27.2552 15.3872H27.2567C28.3417 15.3999 29.315 16.0435 29.7318 17.0245C30.1488 18.0053 29.9297 19.135 29.1742 19.8977H29.1744Z" fill="#39373C"/>
<path d="M2.5 27.8415V32.947C2.5 33.2627 2.75711 33.521 3.07956 33.529H11.8V35.4349C11.7944 35.5819 11.8496 35.725 11.9535 35.8314C12.0574 35.9379 12.2007 35.9985 12.3511 35.9996H23.6145C23.9347 36.0005 24.1961 35.7484 24.2 35.4349V33.529H32.9204C33.2429 33.521 33.5 33.2627 33.5 32.947V27.8575C33.4997 24.9515 31.097 22.5942 28.1291 22.5879H26.4647C24.3132 22.597 22.3675 23.8417 21.4951 25.7671C20.6835 25.305 19.7618 25.0604 18.8226 25.0585H17.1507C16.2143 25.0607 15.2948 25.3039 14.4843 25.7633C13.6218 23.8392 11.6814 22.5942 9.53555 22.5879H7.87882C4.91286 22.5865 2.50591 24.9372 2.5 27.8415H2.5ZM26.4647 23.7173H28.1279C30.4591 23.7223 32.3465 25.5741 32.3465 27.8569V32.3996H24.2V30.3454C24.2037 28.9483 23.6373 27.6074 22.6272 26.6208C22.5714 26.5662 22.5126 26.5149 22.4551 26.4631C23.0795 24.8213 24.6754 23.7286 26.4647 23.7173ZM17.1515 26.1879H18.8217C21.1591 26.1978 23.0479 28.0565 23.0465 30.3449V34.8702H12.9535V30.3302C12.9535 28.0527 14.8254 26.1879 17.1515 26.1879ZM7.87966 23.7173H9.53442C11.3213 23.7247 12.916 24.8167 13.5361 26.4573C12.4263 27.451 11.7961 28.857 11.8 30.3294V32.3996H3.65349V27.8423C3.65884 25.5611 5.55015 23.7154 7.87966 23.7173Z" fill="#39373C"/>
<path d="M8.71064 14.2578H8.70867C6.57855 14.2584 4.85226 15.9494 4.85254 18.0351C4.8531 20.1208 6.58024 21.8113 8.71064 21.8108H8.71261C9.72896 21.8119 10.7036 21.4148 11.4192 20.7081C12.1348 20.0014 12.5319 19.0435 12.522 18.0483V18.0346C12.5288 17.0386 12.1308 16.081 11.4161 15.3726C10.7011 14.664 9.72783 14.2631 8.71064 14.2578ZM8.71233 20.6813H8.71064C7.21753 20.6808 6.00744 19.4954 6.008 18.0335C6.00828 16.5715 7.21922 15.3867 8.71233 15.3872H8.71346C10.199 15.3974 11.3978 16.5798 11.3972 18.0343C11.3665 19.5122 10.188 20.6813 8.71233 20.6813Z" fill="#39373C"/>
<path d="M31.5338 13.251C31.5338 5.93272 25.4746 0 18.0003 0C10.526 0 4.4668 5.93272 4.4668 13.251C4.4668 13.5347 4.68195 13.7746 4.96976 13.811C5.25729 13.8474 5.52763 13.6693 5.60142 13.3947C5.68421 13.0861 6.00497 12.1222 6.38824 11.7116C6.89768 11.2321 7.57637 10.9635 8.28294 10.9613C8.98782 10.9577 9.66651 11.2249 10.1723 11.7061C10.666 12.2057 10.9428 12.873 10.9453 13.5681C10.9453 13.88 11.2036 14.1328 11.5221 14.1328C11.8406 14.1328 12.0988 13.88 12.0988 13.5681C12.0873 12.8733 12.3638 12.2038 12.8656 11.7124C13.3675 11.221 14.0515 10.95 14.7612 10.9613C15.4663 10.9577 16.1447 11.2252 16.6505 11.7061C17.1442 12.2057 17.4213 12.873 17.4235 13.5681C17.4235 13.88 17.6818 14.1328 18.0003 14.1328C18.3188 14.1328 18.577 13.88 18.577 13.5681C18.5655 12.8733 18.8423 12.2038 19.3441 11.7124C19.846 11.221 20.53 10.95 21.2394 10.9613C21.9446 10.9577 22.623 11.2249 23.129 11.7061C23.6224 12.2057 23.8995 12.873 23.9018 13.5681C23.9018 13.88 24.16 14.1328 24.4785 14.1328C24.797 14.1328 25.0553 13.88 25.0553 13.5681C25.0437 12.8733 25.3205 12.2038 25.8224 11.7124C26.3242 11.221 27.0083 10.95 27.7176 10.9613C28.4228 10.9577 29.1009 11.2249 29.6067 11.7058C29.992 12.1125 30.309 13.0619 30.3989 13.3947C30.4727 13.6693 30.7433 13.8474 31.0308 13.811C31.3184 13.7746 31.5335 13.5347 31.5335 13.251H31.5338ZM27.7176 9.83189C26.7106 9.83217 25.743 10.2157 25.0189 10.9015C25.0105 10.9095 25.0023 10.9175 24.9944 10.9257C24.8004 11.1267 24.6278 11.3462 24.4785 11.5812C24.3296 11.3462 24.1566 11.1267 23.9629 10.9257C23.9589 10.9216 23.9547 10.9175 23.9508 10.9133C22.4481 9.47592 20.0499 9.47068 18.5407 10.9015C18.5323 10.9095 18.5241 10.9175 18.5159 10.9257C18.3222 11.1267 18.1493 11.3462 18.0003 11.5812C17.8513 11.3462 17.6784 11.1267 17.4847 10.9257L17.4723 10.9133C15.9699 9.47592 13.5716 9.47068 12.0625 10.9015C12.054 10.9095 12.0456 10.9175 12.0377 10.9257C11.8439 11.1267 11.671 11.3462 11.5221 11.5812C11.3728 11.3462 11.2002 11.1267 11.0061 10.9257C11.0022 10.9216 10.998 10.9175 10.994 10.9133C9.60962 9.58677 7.43669 9.46627 5.90809 10.631C7.16381 5.0807 12.1889 1.12969 17.9952 1.12721C23.8012 1.125 28.8297 5.07188 30.0905 10.6213C29.4104 10.1085 28.576 9.83107 27.7176 9.83189Z" fill="#39373C"/>
</g>
<defs>
<clipPath id="clip0">
<rect width="36" height="36" fill="white"/>
</clipPath>
</defs>
</svg>
