<svg width="36" height="36" viewBox="0 0 36 36" fill="none" xmlns="http://www.w3.org/2000/svg">
<g clip-path="url(#clip0)">
<path d="M31.983 36H4.017C1.8024 36 0 34.178 0 31.9379V4.06214C0 1.82265 1.8018 0 4.017 0H31.983C34.1982 0 36 1.82205 36 4.06214V31.9379C36 34.178 34.1982 36 31.983 36ZM4.017 1.21348C2.4642 1.21348 1.2 2.49128 1.2 4.06214V31.9379C1.2 33.5087 2.4636 34.7865 4.017 34.7865H31.983C33.5364 34.7865 34.8 33.5087 34.8 31.9379V4.06214C34.8 2.49128 33.5364 1.21348 31.983 1.21348H4.017Z" fill="#B0742E"/>
<path d="M23.4008 11.3258C21.416 11.3258 19.8008 9.69308 19.8008 7.68537C19.8008 5.67766 21.416 4.04492 23.4008 4.04492C25.3862 4.04492 27.0008 5.67766 27.0008 7.68537C27.0008 9.69308 25.3856 11.3258 23.4008 11.3258ZM23.4008 5.25841C22.0772 5.25841 21.0008 6.3469 21.0008 7.68537C21.0008 9.02384 22.0772 10.1123 23.4008 10.1123C24.7244 10.1123 25.8008 9.02384 25.8008 7.68537C25.8008 6.3469 24.7238 5.25841 23.4008 5.25841Z" fill="#B0742E"/>
<path d="M31.9844 36H18.2678C18.0314 36 17.8172 35.8598 17.7206 35.642C17.624 35.4242 17.6624 35.1687 17.8196 34.9903L27.1532 20.3274C27.3806 20.0683 27.8222 20.0683 28.0502 20.3274L35.5628 32.9189C35.7182 33.0961 35.7578 33.3485 35.6636 33.5657C35.0234 35.0443 33.5792 36 31.9844 36ZM19.604 34.7865H31.9844C32.9768 34.7865 33.8864 34.258 34.3922 33.414L27.6014 21.6434L19.604 34.7865Z" fill="#B0742E"/>
<path d="M18.267 36H4.017C1.8024 36 0 34.1779 0 31.9379V28.1882C0 28.0395 0.054 27.8963 0.1518 27.7847L10.3518 13.1471C10.5792 12.888 11.0208 12.888 11.2488 13.1471L21.2488 30.8437C21.451 31.0737 21.451 31.4201 21.2488 31.6501L18.7152 35.7961C18.6018 35.926 18.4386 36 18.267 36ZM1.2006 28.4188V31.9379C1.2006 33.5087 2.4642 34.7865 4.0176 34.7865H17.9982L19.9984 31.2472L10.8006 14.4637L1.2006 28.4188Z" fill="#B0742E"/>
</g>
<defs>
<clipPath id="clip0">
<rect width="36" height="36" fill="white"/>
</clipPath>
</defs>
</svg>
