<svg width="30" height="36" viewBox="0 0 30 36" fill="none" xmlns="http://www.w3.org/2000/svg">
<path d="M15.0005 18.6943C17.1337 18.6943 19.2168 17.4 20.866 15.0497C22.3215 12.9756 23.1904 10.4112 23.1904 8.18991C23.1905 3.67401 19.5164 0 15.0005 0C10.4846 0 6.81055 3.67401 6.81055 8.18991C6.81055 10.4112 7.67941 12.9756 9.13492 15.0497C10.7842 17.4 12.8672 18.6943 15.0005 18.6943ZM15.0005 1.33549C18.78 1.33549 21.8549 4.4104 21.8549 8.18991C21.8549 10.1179 21.0571 12.4524 19.7729 14.2826C18.401 16.2375 16.6615 17.3588 15.0005 17.3588C13.3394 17.3588 11.6 16.2375 10.2281 14.2826C8.94385 12.4524 8.14603 10.1179 8.14603 8.18991C8.14603 4.4104 11.2209 1.33549 15.0005 1.33549Z" fill="#B0742E"/>
<path d="M27.0022 22.3575C25.5591 20.1179 23.5277 18.3303 21.1272 17.1875C20.8722 17.0662 20.5686 17.1183 20.3686 17.3176C18.7597 18.9221 16.9035 19.77 15.0006 19.77C13.0974 19.77 11.2415 18.9221 9.63353 17.3177C9.43356 17.1182 9.12978 17.066 8.87488 17.1874C6.47439 18.3302 4.44267 20.1179 2.99945 22.3574C1.51697 24.6577 0.733398 27.3265 0.733398 30.0752V30.0868C0.733398 30.2752 0.812994 30.4549 0.952507 30.5815C4.80548 34.0757 9.7945 36.0001 15.0005 36.0001C20.2065 36.0001 25.1954 34.0757 29.0485 30.5815C29.188 30.4549 29.2676 30.2753 29.2676 30.0868V30.0752C29.2678 27.3265 28.4844 24.6577 27.0022 22.3575ZM15.0006 34.6647C10.2266 34.6647 5.64728 32.936 2.072 29.7908C2.12391 27.3998 2.83002 25.0857 4.12206 23.0809C5.34777 21.179 7.04126 19.6365 9.03906 18.5974C10.8237 20.2404 12.8758 21.1055 15.0006 21.1055C17.125 21.1055 19.1775 20.2402 20.963 18.5974C22.9606 19.6364 24.6541 21.1789 25.8795 23.0808C27.1713 25.0855 27.8773 27.3996 27.9292 29.7907C24.3539 32.9359 19.7746 34.6647 15.0006 34.6647Z" fill="#B0742E"/>
</svg>
