<svg width="60" height="60" viewBox="0 0 60 60" fill="none" xmlns="http://www.w3.org/2000/svg">
<g clip-path="url(#clip0)">
<path d="M50.3226 40.6443C47.0322 40.6443 44.2258 42.2895 42.4838 44.7088L27.5805 36.2894C28.5483 34.3539 29.0321 32.2249 29.0321 29.9991C29.0321 27.7733 28.4515 25.6443 27.5805 23.7088L42.4838 15.2894C44.2258 17.8055 47.129 19.3539 50.3226 19.3539C55.6451 19.3539 60 14.9991 60 9.67647C60 4.35393 55.6452 -0.000976562 50.3226 -0.000976562C44.9999 -0.000976562 40.6451 4.35381 40.6451 9.67647C40.6451 11.0313 40.9354 12.3862 41.5161 13.5474L26.6128 21.9668C23.9999 17.9991 19.5483 15.4829 14.516 15.4829C6.4839 15.4831 0 21.967 0 29.9992C0 38.0315 6.4839 44.5154 14.5162 44.5154C19.5484 44.5154 24 41.9025 26.6129 38.0315L41.4194 46.4509C40.9356 47.6121 40.5484 48.967 40.5484 50.3219C40.5484 55.6444 44.9032 59.9993 50.2259 59.9993C55.5484 59.9993 59.9033 55.6445 59.9033 50.3219C60 44.9992 55.6452 40.6443 50.3226 40.6443ZM50.3226 1.93463C54.5807 1.93463 58.0645 5.41849 58.0645 9.67659C58.0645 13.9347 54.5807 17.4185 50.3226 17.4185C46.0645 17.4185 42.5806 13.9347 42.5806 9.67659C42.5806 5.41849 46.0645 1.93463 50.3226 1.93463ZM14.5162 42.5798C7.54845 42.5798 1.93549 36.9668 1.93549 29.9991C1.93549 23.0314 7.54833 17.4185 14.5162 17.4185C21.484 17.4185 27.0968 23.0314 27.0968 29.9992C27.0968 36.9671 21.4839 42.5798 14.5162 42.5798ZM50.3226 58.0637C46.0645 58.0637 42.5806 54.5798 42.5806 50.3217C42.5806 46.0636 46.0645 42.5798 50.3226 42.5798C54.5807 42.5798 58.0645 46.0636 58.0645 50.3217C58.0645 54.5798 54.5807 58.0637 50.3226 58.0637Z" fill="#39373C"/>
</g>
<defs>
<clipPath id="clip0">
<rect width="60" height="60" fill="white"/>
</clipPath>
</defs>
</svg>
