<svg width="37" height="36" viewBox="0 0 37 36" fill="none" xmlns="http://www.w3.org/2000/svg">
<path d="M30.6935 24.3862C28.7193 24.3862 27.0355 25.3733 25.9903 26.8249L17.0483 21.7732C17.629 20.6119 17.9192 19.3346 17.9192 17.9991C17.9192 16.6636 17.5709 15.3862 17.0483 14.2249L25.9903 9.17327C27.0355 10.6829 28.7774 11.612 30.6935 11.612C33.8871 11.612 36.5 8.99908 36.5 5.80549C36.5 2.61197 33.8871 -0.000976562 30.6935 -0.000976562C27.4999 -0.000976562 24.8871 2.6119 24.8871 5.80549C24.8871 6.61841 25.0613 7.43133 25.4096 8.12808L16.4677 13.1797C14.8999 10.799 12.229 9.28937 9.20962 9.28937C4.39034 9.28944 0.5 13.1798 0.5 17.9991C0.5 22.8185 4.39034 26.7088 9.20969 26.7088C12.229 26.7088 14.9 25.1411 16.4677 22.8185L25.3516 27.8701C25.0613 28.5669 24.8291 29.3798 24.8291 30.1927C24.8291 33.3862 27.4419 35.9992 30.6355 35.9992C33.829 35.9992 36.442 33.3863 36.442 30.1927C36.5 26.9991 33.8871 24.3862 30.6935 24.3862ZM30.6935 1.16039C33.2484 1.16039 35.3387 3.2507 35.3387 5.80556C35.3387 8.36042 33.2484 10.4507 30.6935 10.4507C28.1387 10.4507 26.0484 8.36042 26.0484 5.80556C26.0484 3.2507 28.1387 1.16039 30.6935 1.16039ZM9.20969 25.5475C5.02907 25.5475 1.66129 22.1797 1.66129 17.9991C1.66129 13.8184 5.029 10.4507 9.20969 10.4507C13.3904 10.4507 16.7581 13.8184 16.7581 17.9991C16.7581 22.1798 13.3903 25.5475 9.20969 25.5475ZM30.6935 34.8378C28.1387 34.8378 26.0484 32.7475 26.0484 30.1927C26.0484 27.6378 28.1387 25.5475 30.6935 25.5475C33.2484 25.5475 35.3387 27.6378 35.3387 30.1927C35.3387 32.7475 33.2484 34.8378 30.6935 34.8378Z" fill="#B0742E"/>
</svg>
