<svg width="30" height="30" viewBox="0 0 30 30" fill="none" xmlns="http://www.w3.org/2000/svg">
<path d="M29 18.552V2C29 1.7235 28.776 1.5 28.5 1.5H0.5C0.224 1.5 0 1.7235 0 2V24C0 24.2765 0.224 24.5 0.5 24.5H17.5015C18.483 26.8465 20.8015 28.5 23.5 28.5C27.084 28.5 30 25.584 30 22C30 20.7325 29.63 19.5525 29 18.552ZM17.1795 23.5H1V2.5H28V17.311C27.915 17.229 27.823 17.1555 27.734 17.0785C27.69 17.041 27.6485 17.001 27.6035 16.9645C27.486 16.8685 27.3635 16.7795 27.2395 16.692C27.1935 16.6595 27.149 16.6245 27.102 16.593C26.9795 16.5115 26.853 16.437 26.725 16.364C26.6705 16.3325 26.618 16.299 26.5625 16.2695C26.524 16.249 26.4855 16.228 26.4465 16.208C26.536 16.0155 26.5025 15.782 26.3375 15.631L20.3375 10.131C20.2395 10.0415 20.1125 9.9925 19.9775 10C19.845 10.006 19.72 10.0645 19.6305 10.1625L14.7335 15.526L12.362 13.1545C12.175 12.968 11.876 12.959 11.678 13.1325L3.1695 20.6245C2.962 20.807 2.942 21.123 3.1245 21.3305C3.2235 21.443 3.3615 21.5 3.5 21.5C3.617 21.5 3.735 21.459 3.83 21.3755L11.9865 14.1945L17.1375 19.345C17.239 19.4465 17.3725 19.4925 17.5055 19.4885C17.1805 20.2615 17 21.11 17 22C17 22.2465 17.0165 22.4885 17.0435 22.728C17.048 22.7655 17.0555 22.8025 17.0605 22.84C17.0885 23.054 17.126 23.2645 17.174 23.471C17.1765 23.4805 17.177 23.4905 17.1795 23.5ZM24.3895 15.568C24.3085 15.557 24.229 15.5405 24.147 15.5325C23.9335 15.5115 23.7175 15.5 23.5 15.5C21.1135 15.5 19.029 16.7965 17.8985 18.7185C17.8805 18.6915 17.8685 18.6615 17.845 18.6375L15.4415 16.234L20.032 11.207L24.879 15.6505C24.8455 15.643 24.8125 15.6345 24.779 15.628C24.6505 15.602 24.5195 15.586 24.3895 15.568ZM23.5 27.5C21.1065 27.5 19.0705 25.96 18.3165 23.821C18.2695 23.6875 18.2285 23.553 18.192 23.418C18.1845 23.389 18.177 23.3605 18.1695 23.3315C18.1395 23.2125 18.1135 23.0935 18.0915 22.9735C18.0795 22.907 18.0705 22.84 18.061 22.773C18.048 22.683 18.034 22.593 18.0255 22.503C18.0105 22.337 18 22.1695 18 22C18 18.9675 20.4675 16.5 23.5 16.5C23.713 16.5 23.924 16.5155 24.1325 16.5395C24.196 16.547 24.2575 16.559 24.32 16.568C24.4655 16.59 24.6095 16.616 24.7515 16.649C24.822 16.6655 24.892 16.684 24.962 16.703C25.096 16.74 25.2275 16.7825 25.358 16.8295C25.425 16.8535 25.4925 16.8765 25.558 16.903C25.7055 16.9625 25.8495 17.0305 25.991 17.1025C26.0325 17.1235 26.076 17.141 26.117 17.163C26.288 17.2555 26.4525 17.3595 26.613 17.47C26.6785 17.515 26.7405 17.565 26.804 17.613C26.9035 17.688 27.0015 17.7655 27.096 17.8475C27.1595 17.9025 27.2215 17.9595 27.2825 18.017C27.379 18.109 27.472 18.2055 27.562 18.3045C27.609 18.356 27.6575 18.4055 27.7025 18.459C27.833 18.6145 27.9575 18.776 28.072 18.947C28.6575 19.8215 29 20.8715 29 22C29 25.0325 26.5325 27.5 23.5 27.5Z" fill="#646464"/>
<path d="M26.5 21.5H24V19C24 18.7235 23.776 18.5 23.5 18.5C23.224 18.5 23 18.7235 23 19V21.5H20.5C20.224 21.5 20 21.7235 20 22C20 22.2765 20.224 22.5 20.5 22.5H23V25C23 25.2765 23.224 25.5 23.5 25.5C23.776 25.5 24 25.2765 24 25V22.5H26.5C26.776 22.5 27 22.2765 27 22C27 21.7235 26.776 21.5 26.5 21.5Z" fill="#646464"/>
<path d="M8.00032 12.569C9.53582 12.569 10.7848 11.32 10.7848 9.785C10.7848 8.249 9.53582 7 8.00032 7C6.46482 7 5.21582 8.249 5.21582 9.7845C5.21582 11.32 6.46482 12.569 8.00032 12.569ZM8.00032 8C8.98432 8 9.78482 8.801 9.78482 9.7845C9.78482 10.768 8.98432 11.569 8.00032 11.569C7.01632 11.569 6.21582 10.7685 6.21582 9.785C6.21582 8.8015 7.01632 8 8.00032 8Z" fill="#646464"/>
</svg>
