<svg width="60" height="60" viewBox="0 0 60 60" fill="none" xmlns="http://www.w3.org/2000/svg">
<path d="M52.8884 37.8884L54.6397 39.6397C54.8356 39.8355 55.0882 39.9648 55.3616 40.0092C55.635 40.0535 55.9154 40.0108 56.1632 39.887C56.4474 39.7449 56.6708 39.505 56.7924 39.2115C56.914 38.9179 56.9256 38.5904 56.8252 38.2889L54.7922 32.1901C54.6706 31.8254 54.4374 31.5082 54.1256 31.2834C53.8137 31.0586 53.4391 30.9376 53.0547 30.9375C52.693 30.9375 52.3395 31.0446 52.0385 31.2451L49.6875 32.8125V36.5625C50.8881 36.5625 52.0394 37.0394 52.8884 37.8884Z" fill="#FDC8A2"/>
<path d="M57.1875 2.8125H48.93C45.9128 2.81254 42.9787 3.80107 40.5767 5.62684C38.1746 7.4526 36.4368 10.0151 35.6292 12.9221C35.0471 15.018 33.9779 16.9466 32.5089 18.5507C31.0398 20.1549 29.2125 21.3891 27.1758 22.1529L26.25 22.5V30.9375H39.375C40.6182 30.9375 41.8105 30.4436 42.6896 29.5646C43.5686 28.6855 44.0625 27.4932 44.0625 26.25C45.3057 26.25 46.498 25.7561 47.3771 24.8771C48.2561 23.998 48.75 22.8057 48.75 21.5625C49.3656 21.5625 49.9751 21.4413 50.5438 21.2057C51.1125 20.9701 51.6293 20.6248 52.0646 20.1896C52.4998 19.7543 52.8451 19.2375 53.0807 18.6688C53.3163 18.1001 53.4375 17.4906 53.4375 16.875H50.625C51.8682 16.875 53.0605 16.3811 53.9396 15.5021C54.8186 14.623 55.3125 13.4307 55.3125 12.1875H52.5C53.7432 12.1875 54.9355 11.6936 55.8146 10.8146C56.6936 9.93549 57.1875 8.7432 57.1875 7.5H52.5C53.7432 7.5 54.9355 7.00614 55.8146 6.12706C56.6936 5.24799 57.1875 4.0557 57.1875 2.8125Z" fill="#DFDFDD"/>
<path d="M50.625 10.3125C50.625 10.0639 50.5262 9.8254 50.3504 9.64959C50.1746 9.47377 49.9361 9.375 49.6875 9.375H48.2507C49.1766 8.34551 49.6884 7.00961 49.6875 5.625C49.6875 5.37636 49.5887 5.1379 49.4129 4.96209C49.2371 4.78627 48.9986 4.6875 48.75 4.6875H45.9375V6.5625H47.6939C47.485 7.36697 47.0152 8.07946 46.3581 8.58839C45.701 9.09732 44.8937 9.37396 44.0625 9.375H41.25V11.25H48.6314C48.4225 12.0545 47.9527 12.7669 47.2956 13.2759C46.6385 13.7848 45.8311 14.0614 45 14.0625H39.375V15.9375H44.8814C44.6725 16.742 44.2027 17.4545 43.5456 17.9634C42.8885 18.4723 42.0812 18.749 41.25 18.75H36.5625V20.625H39.2564C39.0475 21.4295 38.5777 22.1419 37.9206 22.6509C37.2635 23.1598 36.4561 23.4364 35.625 23.4375H32.8125V25.3125H35.625C36.9537 25.3107 38.239 24.8392 39.2537 23.9814C40.2685 23.1237 40.9474 21.9348 41.1704 20.625H41.25C42.6327 20.6232 43.9664 20.1128 44.997 19.1912C46.0277 18.2695 46.6834 17.0009 46.8391 15.6271C47.9437 15.2436 48.9015 14.526 49.5799 13.5737C50.2582 12.6214 50.6235 11.4817 50.625 10.3125Z" fill="#D5D5D3"/>
<path d="M48.75 6.5625H53.4375V8.4375H48.75V6.5625Z" fill="#D5D5D3"/>
<path d="M49.6875 11.25H53.4375V13.125H49.6875V11.25Z" fill="#D5D5D3"/>
<path d="M45.9375 15.9375H51.5625V17.8125H45.9375V15.9375Z" fill="#D5D5D3"/>
<path d="M39.375 20.625H48.75V22.5H39.375V20.625Z" fill="#D5D5D3"/>
<path d="M38.4375 25.3125H44.0625V27.1875H38.4375V25.3125Z" fill="#D5D5D3"/>
<path d="M7.5 22.5V13.125L6.5625 6.5625H10.3125L11.25 12.1875V21.5625L23.4375 20.7456L26.2073 20.7169C26.578 20.7049 26.9473 20.7676 27.2933 20.9012C27.6393 21.0349 27.9549 21.2367 28.2213 21.4946C28.4878 21.7526 28.6997 22.0615 28.8444 22.403C28.9891 22.7445 29.0636 23.1116 29.0637 23.4825C29.0637 24.2164 28.7723 24.9202 28.2534 25.4392C27.7345 25.9582 27.0308 26.2499 26.2969 26.25H11.25C10.2554 26.25 9.30161 25.8549 8.59835 25.1516C7.89509 24.4484 7.5 23.4946 7.5 22.5Z" fill="#FDC8A2"/>
<path d="M12.3785 8.84227C10.0634 7.69588 8.29525 5.68079 7.45957 3.23625L6.60586 2.8125L2.8125 10.4244L3.66621 10.8482C6.12198 10.0379 8.79822 10.2289 11.1141 11.3796L20.298 15.9375L21.5625 13.4002L12.3785 8.84227Z" fill="#FFB431"/>
<path d="M30 10.7812C30 9.66237 29.5555 8.58931 28.7644 7.79814C27.9732 7.00697 26.9001 6.5625 25.7812 6.5625H25.4693C24.6 6.5625 23.752 6.83101 23.0412 7.33132C22.3303 7.83162 21.7914 8.53928 21.498 9.35754L21.075 10.5375L18.75 11.25L20.2875 13.2375L19.8649 15.1391C19.8158 15.3603 19.8484 15.5918 19.9568 15.7908C20.0652 15.9898 20.242 16.1429 20.4545 16.2216L22.8516 17.1094L21.9141 25.6641L27.1875 21.5625L28.0664 14.7656L28.3536 14.5559C28.8083 14.2238 29.1853 13.7966 29.4581 13.3041C29.731 12.8116 29.8933 12.2655 29.9337 11.7039L30 10.7812Z" fill="#FDC8A2"/>
<path d="M17.8622 29.6537C18.1243 30.309 18.5767 30.8708 19.161 31.2665C19.7454 31.6622 20.435 31.8737 21.1407 31.8737H22.5001L23.4376 33.7487L30.0001 30.9362L29.0626 25.3112V23.9423C29.0626 23.2622 28.8353 22.6016 28.4167 22.0655C27.9982 21.5295 27.4125 21.1487 26.7527 20.9837C26.3041 20.8715 25.8358 20.8628 25.3833 20.9582C24.9308 21.0536 24.506 21.2507 24.1408 21.5345L18.9729 25.5541C18.3681 26.0244 17.9326 26.6787 17.7323 27.4182C17.5319 28.1578 17.5775 28.9424 17.8622 29.6537Z" fill="#95C2DA"/>
<path d="M30.9375 34.6875L24.375 37.5L23.4375 33.75L30 30.9375L30.9375 34.6875Z" fill="#8CB8CE"/>
<path d="M53.4375 53.4375L54.9922 56.547C55.0885 56.7394 55.2364 56.9013 55.4194 57.0144C55.6025 57.1276 55.8134 57.1875 56.0286 57.1875C56.1808 57.1875 56.3315 57.1575 56.4721 57.0993C56.6127 57.0411 56.7405 56.9557 56.8481 56.8481C56.9557 56.7405 57.0411 56.6127 57.0993 56.4721C57.1575 56.3315 57.1875 56.1808 57.1875 56.0286V49.9089C57.1875 49.7567 57.1575 49.606 57.0993 49.4654C57.0411 49.3248 56.9557 49.197 56.8481 49.0894C56.7405 48.9818 56.6127 48.8964 56.4721 48.8382C56.3315 48.78 56.1808 48.75 56.0286 48.75H51.5625V52.5L53.4375 53.4375Z" fill="#FDC8A2"/>
<path d="M46.875 42.1875H48.75V57.1875H46.875V42.1875Z" fill="black"/>
<path d="M46.875 38.4375H48.75V40.3125H46.875V38.4375Z" fill="black"/>
<path d="M14.3945 30.9375C14.7945 30.9375 15.1909 30.8612 15.5623 30.7126L27.3055 26.0156C27.8242 25.8081 28.2689 25.45 28.582 24.9873C28.8952 24.5247 29.0626 23.9788 29.0625 23.4202C29.0625 22.6788 28.768 21.9679 28.2438 21.4437C27.7196 20.9195 27.0087 20.625 26.2673 20.625H25.9724C25.5384 20.625 25.1105 20.726 24.7223 20.9201L15.9375 25.3125L15 15L15.9375 10.3125L14.0625 8.4375L11.25 7.5V27.793C11.25 28.206 11.3313 28.6149 11.4893 28.9964C11.6473 29.3779 11.879 29.7245 12.171 30.0165C12.463 30.3085 12.8096 30.5402 13.1911 30.6982C13.5726 30.8562 13.9815 30.9375 14.3945 30.9375Z" fill="#FFD4B5"/>
<path d="M28.0663 14.7642L27.7935 16.8735H29.9999C31.2941 16.8736 32.5438 16.4009 33.514 15.5444C34.4843 14.6879 35.1083 13.5065 35.2688 12.2223L35.6249 9.37355H35.0867C34.3805 9.37355 33.6841 9.20914 33.0525 8.89333C32.4209 8.57753 31.8715 8.11901 31.4479 7.55409L31.3698 7.45015C30.9479 6.8858 30.4008 6.42708 29.7715 6.11012C29.1422 5.79316 28.4479 5.62659 27.7432 5.62355C26.17 5.60457 24.638 6.12626 23.4033 7.1014L27.1874 11.2485L27.5301 11.2122C27.9027 11.1728 28.2776 11.2627 28.5919 11.4667C28.9062 11.6707 29.1409 11.9766 29.2566 12.333C29.3509 12.6231 29.362 12.9339 29.2888 13.23C29.2157 13.5262 29.061 13.796 28.8425 14.0088L28.0663 14.7642Z" fill="#FFB431"/>
<path d="M24.375 37.4999L24.3807 37.4975C24.4011 37.4541 24.4002 37.453 24.375 37.4999Z" fill="#95C2DA"/>
<path d="M51.563 40.7555V57.1875H24.8138C23.7304 57.1876 22.665 56.9105 21.7189 56.3827C20.7729 55.8548 19.9775 55.0938 19.4085 54.1719C18.8395 53.25 18.5158 52.1978 18.4681 51.1155C18.4204 50.0332 18.6503 48.9567 19.136 47.9883C20.9747 44.3238 24.1071 38.0766 24.3767 37.5082C24.3761 37.5055 24.3757 37.5028 24.3755 37.5L24.3802 37.5012C24.3802 37.5 24.3814 37.4988 24.3814 37.4977L30.938 34.6875C32.0772 34.6874 33.1962 34.9885 34.1815 35.5602C35.1669 36.1319 35.9836 36.9539 36.5489 37.943C36.5489 37.943 37.2427 39.1969 37.6564 39.7289C37.8357 39.9586 38.2564 40.384 38.2868 40.4133L39.9345 39.3152L49.688 32.8125C50.921 35.2787 51.563 37.9982 51.563 40.7555Z" fill="#8CB8CE"/>
<path d="M23.5117 12.2246L24.0367 10.4246L25.8367 10.9496L25.3117 12.7496L23.5117 12.2246Z" fill="#FCB079"/>
<path d="M14.317 55.6598L13.9343 54.7029C13.3101 53.1424 13.0414 51.4624 13.1477 49.785C13.254 48.1077 13.7326 46.4751 14.5488 45.0059L16.1879 45.9163C15.507 47.1421 15.1076 48.5042 15.0189 49.9036C14.9302 51.303 15.1544 52.7046 15.6751 54.0066L16.058 54.9635L14.317 55.6598Z" fill="#F1F1F1"/>
<path d="M15.3252 43.623L16.3676 41.7484L18.0064 42.6597L16.9639 44.5343L15.3252 43.623Z" fill="#F1F1F1"/>
<path d="M35.5903 6.81375L33.7842 6.30984L33.8178 6.18949C34.379 4.17902 36.0027 2.58141 38.161 1.91602L38.7134 3.70781C37.1677 4.1843 36.0127 5.30051 35.6238 6.69363L35.5903 6.81375Z" fill="#F1F1F1"/>
<path d="M40.4005 35.1856C40.3455 35.1856 40.2907 35.1856 40.2354 35.1837L40.278 33.3087C41.8962 33.3458 43.3438 32.6518 44.1532 31.4532L44.2235 31.3496L45.7774 32.3989L45.7071 32.5024C44.5675 34.1905 42.5928 35.1856 40.4005 35.1856Z" fill="#F1F1F1"/>
<path d="M9.64844 2.53906L10.9741 1.21344L15.6609 5.90027L14.3353 7.22589L9.64844 2.53906Z" fill="#F1F1F1"/>
<path d="M1.875 16.875H4.6875V18.75H1.875V16.875Z" fill="#F1F1F1"/>
<path d="M23.325 51.0694L21.6748 50.1795L26.8263 40.6523L28.4765 41.5424L23.325 51.0694Z" fill="#7DA9C1"/>
<path d="M24.967 53.2693L24.0176 51.6525L29.9415 48.2227L30.8911 49.8395L24.967 53.2693Z" fill="#7DA9C1"/>
<path d="M51.5625 40.7555V57.1875H41.5008C37.6207 57.1875 33.8848 55.609 31.2539 52.7555C25.6031 46.6289 24.416 37.8152 24.3762 37.5082C24.3755 37.5055 24.3752 37.5028 24.375 37.5L24.3809 37.4977L30.9375 34.6875C32.0767 34.6874 33.1957 34.9885 34.181 35.5602C35.1664 36.1319 35.9831 36.9539 36.5484 37.943C36.5484 37.943 37.2422 39.1969 37.6559 39.7289C37.8352 39.9586 38.2559 40.384 38.2863 40.4133L39.934 39.3152L49.6875 32.8125C50.9205 35.2787 51.5625 37.9982 51.5625 40.7555Z" fill="#95C2DA"/>
<path d="M44.576 49.0807C36.5045 47.4138 31.7296 41.4186 29.6016 37.9933L31.1941 37.0039C33.1641 40.1737 37.5703 45.7193 44.9552 47.2446L44.576 49.0807Z" fill="#8CB8CE"/>
<path d="M44.2139 53.8848C41.8254 53.3611 39.5378 52.4529 37.4404 51.1957L38.4014 49.5859C40.3248 50.7392 42.4227 51.5723 44.6132 52.053L44.2139 53.8848Z" fill="#8CB8CE"/>
<path d="M45.7967 41.4625L45.3127 43.2742L41.6295 42.2898C40.3773 41.9492 39.2288 41.3043 38.2861 40.4125L39.9338 39.3145C40.5694 39.8528 41.3125 40.2495 42.1135 40.4781L45.7967 41.4625Z" fill="#8CB8CE"/>
<path d="M27.3057 36.2422L25.5303 37.0027C25.7729 37.6332 28.8432 45.1988 35.8685 50.1699L36.9514 48.6395C30.3103 43.9391 27.3783 36.432 27.3057 36.2422Z" fill="#8CB8CE"/>
</svg>
