<svg width="60" height="60" viewBox="0 0 60 60" fill="none" xmlns="http://www.w3.org/2000/svg">
<path d="M39.4917 14.2969C36.5179 14.2969 33.7221 15.455 31.6193 17.558C30.9937 18.1835 30.4526 18.8708 30 19.6054C29.5473 18.8707 29.0061 18.1835 28.3807 17.558C26.2779 15.455 23.4821 14.2969 20.5083 14.2969C9.20004 14.2969 0 23.4969 0 34.8052V58.2422C0 59.213 0.787031 60 1.75781 60C3.70301 60 5.50242 59.3644 6.96 58.2905L8.71781 49.4531L10.4756 52.3329L16.2567 49.4425L18.0145 44.7656L19.7723 48.5111C22.6385 47.0614 24.6094 44.0893 24.6094 40.6641V37.1484C24.6094 34.2407 26.975 31.875 29.8828 31.875H30.1172C33.025 31.875 35.3906 34.2407 35.3906 37.1484V40.6641C35.3906 44.0893 37.3615 47.0614 40.2277 48.5111L41.9855 44.7656L43.7433 49.4425L49.5244 52.3329L51.2822 49.4531L53.04 58.2905C54.4976 59.3644 56.297 60 58.2422 60C59.213 60 60 59.213 60 58.2422V34.8052C60 23.4969 50.8 14.2969 39.4917 14.2969Z" fill="#F9F9F9"/>
<path d="M39.4917 14.2969C36.5179 14.2969 33.7221 15.455 31.6193 17.558C30.9937 18.1835 30.4526 18.8708 30 19.6054V31.875H30.1172C33.025 31.875 35.3906 34.2407 35.3906 37.1484V40.6641C35.3906 44.0893 37.3615 47.0614 40.2277 48.5111L41.9855 44.7656L43.7433 49.4425L49.5244 52.3329L51.2822 49.4531L53.04 58.2905C54.4976 59.3644 56.297 60 58.2422 60C59.213 60 60 59.213 60 58.2422V34.8052C60 23.4969 50.8 14.2969 39.4917 14.2969Z" fill="#EAF1FF"/>
<path d="M18.0146 35.3906C17.0439 35.3906 16.2568 36.1777 16.2568 37.1484V49.4425C17.5164 49.3805 18.7059 49.0503 19.7725 48.5109V37.1484C19.7725 36.1777 18.9854 35.3906 18.0146 35.3906Z" fill="#EAF1FF"/>
<path d="M8.71777 40.0781C7.74699 40.0781 6.95996 40.8652 6.95996 41.8359V58.2905C8.84891 56.8987 10.1636 54.7705 10.4756 52.333V41.8359C10.4756 40.8652 9.68855 40.0781 8.71777 40.0781Z" fill="#EAF1FF"/>
<path d="M41.9854 35.3906C42.9561 35.3906 43.7432 36.1777 43.7432 37.1484V49.4425C42.4836 49.3805 41.2941 49.0503 40.2275 48.5109V37.1484C40.2275 36.1777 41.0146 35.3906 41.9854 35.3906Z" fill="#D5E7FF"/>
<path d="M51.2822 40.0781C52.253 40.0781 53.04 40.8652 53.04 41.8359V58.2905C51.1511 56.8987 49.8364 54.7705 49.5244 52.333V41.8359C49.5244 40.8652 50.3114 40.0781 51.2822 40.0781Z" fill="#D5E7FF"/>
<path d="M30 11.7188C27.2586 11.7188 24.6543 11.2398 22.6663 10.37C19.3608 8.92383 18.8672 6.9232 18.8672 5.85938C18.8672 4.79555 19.3608 2.79492 22.6663 1.34871C24.6543 0.478945 27.2586 0 30 0C32.7414 0 35.3457 0.478945 37.3337 1.34871C40.6392 2.79492 41.1328 4.79555 41.1328 5.85938C41.1328 6.9232 40.6392 8.92383 37.3337 10.37C35.3457 11.2398 32.7414 11.7188 30 11.7188ZM30 3.51562C27.7658 3.51562 25.6064 3.89977 24.0754 4.56949C22.7839 5.13457 22.3828 5.71266 22.3828 5.85938C22.3828 6.00609 22.7839 6.58418 24.0754 7.14926C25.6064 7.81898 27.7658 8.20312 30 8.20312C32.2342 8.20312 34.3936 7.81898 35.9246 7.14926C37.2161 6.58418 37.6172 6.00609 37.6172 5.85938C37.6172 5.71266 37.2161 5.13457 35.9246 4.56949C34.3936 3.89977 32.2342 3.51562 30 3.51562Z" fill="#FFDD54"/>
<path d="M41.1328 5.85938C41.1328 4.79555 40.6392 2.79492 37.3337 1.34871C35.3457 0.478945 32.7414 0 30 0V3.51562C32.2342 3.51562 34.3936 3.89977 35.9246 4.56949C37.2161 5.13457 37.6172 5.71266 37.6172 5.85938C37.6172 6.00609 37.2161 6.58418 35.9246 7.14926C34.3936 7.81898 32.2342 8.20312 30 8.20312V11.7188C32.7414 11.7188 35.3457 11.2398 37.3337 10.37C40.6392 8.92383 41.1328 6.9232 41.1328 5.85938Z" fill="#FFB454"/>
</svg>
