<svg width="60" height="60" viewBox="0 0 60 60" fill="none" xmlns="http://www.w3.org/2000/svg">
<g clip-path="url(#clip0)">
<path d="M33.6077 16.6513C33.107 16.6513 32.7012 16.2454 32.7012 15.7448V9.48054C32.7012 8.97991 33.107 8.57397 33.6077 8.57397C34.1085 8.57397 34.5143 8.97991 34.5143 9.48054V15.7448C34.5143 16.2455 34.1085 16.6513 33.6077 16.6513Z" fill="#365E7D"/>
<path d="M47.5382 53.1815L45.2689 55.599H22.517L20.0039 53.1815V15.3131C20.0039 14.2164 20.893 13.3274 21.9897 13.3274H45.5525C46.6492 13.3274 47.5382 14.2165 47.5382 15.3131V53.1815Z" fill="#F9EFDA"/>
<path d="M45.5511 13.3274H42.998C44.0948 13.3274 44.9838 14.2165 44.9838 15.3131V53.1815H47.5368V15.3131C47.5368 14.2164 46.6477 13.3274 45.5511 13.3274Z" fill="#ECD5C6"/>
<path d="M46.4824 60.0002H21.0592C17.6504 60.0002 14.5173 58.1273 12.9033 55.1247L12.2051 53.8258C12.0485 53.5345 12.2594 53.1816 12.5901 53.1816H54.9513C55.282 53.1816 55.493 53.5346 55.3364 53.8258L54.6382 55.1247C53.0243 58.1273 49.8912 60.0002 46.4824 60.0002Z" fill="#365E7D"/>
<path d="M54.9511 53.1816H51.2814C51.6121 53.1816 51.8231 53.5346 51.6665 53.8259L50.9683 55.1248C49.3544 58.1273 46.2213 60.0002 42.8125 60.0002H46.4822C49.891 60.0002 53.0241 58.1273 54.6381 55.1247L55.3363 53.8258C55.4929 53.5346 55.2818 53.1816 54.9511 53.1816Z" fill="#2B4D66"/>
<path d="M19.0909 55.7805L17.7948 55.5535C10.6253 54.2981 5.83108 47.4684 7.08639 40.299L7.28174 39.1837C7.2992 39.0838 7.39436 39.0171 7.49421 39.0345L8.60948 39.2299C15.7789 40.4853 20.5732 47.315 19.3179 54.4844L19.0909 55.7805Z" fill="#DA387D"/>
<path d="M19.122 55.7805L20.4181 55.5535C27.5875 54.2981 32.3817 47.4684 31.1264 40.299L30.9311 39.1837C30.9136 39.0838 30.8184 39.0171 30.7186 39.0345L29.6033 39.2299C22.4339 40.4853 17.6397 47.315 18.895 54.4844L19.122 55.7805Z" fill="#DA387D"/>
<path d="M19.106 59.9993H17.7902C10.5117 59.9993 4.61133 54.0989 4.61133 46.8204V45.6882C4.61133 45.5868 4.69348 45.5046 4.79484 45.5046H5.92711C13.2056 45.5046 19.106 51.405 19.106 58.6835V59.9993Z" fill="#EAAADD"/>
<path d="M19.1055 59.9993V58.6835C19.1055 51.405 25.0059 45.5046 32.2844 45.5046H33.4167C33.518 45.5046 33.6002 45.5868 33.6002 45.6882V46.8204C33.6002 54.0989 27.6998 59.9993 20.4213 59.9993H19.1055Z" fill="#EAAADD"/>
<path d="M19.1063 59.9991L17.9738 58.8667C11.7092 52.602 11.7092 42.4452 17.9738 36.1806L18.9766 35.1778C19.0483 35.1061 19.1645 35.1061 19.2362 35.1778L20.239 36.1806C26.5036 42.4452 26.5036 52.602 20.239 58.8667L19.1063 59.9991Z" fill="#E490D0"/>
<path d="M20.2382 58.8667C26.5028 52.602 26.5028 42.4452 20.2382 36.1806L19.2354 35.1778C19.1637 35.1061 19.0475 35.1061 18.9758 35.1778L17.973 36.1806C17.873 36.2807 17.7746 36.3818 17.6777 36.4837C23.5485 42.6667 23.5485 52.3806 17.6777 58.5635C17.7745 58.6656 17.873 58.7666 17.973 58.8667L19.1055 59.9991L20.2382 58.8667Z" fill="#DF73C1"/>
<path d="M35.3412 9.97289C34.3833 10.9308 32.8302 10.9308 31.8723 9.97289C29.5764 7.67695 29.5764 3.95437 31.8723 1.65844L33.477 0.0537891C33.5487 -0.0179297 33.6648 -0.0179297 33.7366 0.0537891L35.3412 1.65844C37.6372 3.95437 37.6372 7.67695 35.3412 9.97289Z" fill="#E49542"/>
<path d="M35.3412 9.97289C37.6373 7.67695 37.6373 3.95438 35.3412 1.65844L33.7366 0.0537891C33.6649 -0.0179297 33.5487 -0.0179297 33.477 0.0537891L32.3867 1.1441L32.9011 1.65844C35.1971 3.95438 35.1971 7.67695 32.9011 9.97289C32.7443 10.1298 32.5702 10.2582 32.3867 10.3637C33.3241 10.9024 34.5403 10.7739 35.3412 9.97289Z" fill="#E27D47"/>
<path d="M20.0039 24.2093C20.0039 25.6078 21.1376 26.7416 22.5362 26.7416C23.9347 26.7416 25.0684 25.6079 25.0684 24.2094V19.2138C25.0684 18.0475 26.0139 17.102 27.1802 17.102H27.2333C28.3997 17.102 29.3452 18.0475 29.3452 19.2138V31.7099C29.3452 33.0595 30.4394 34.1537 31.789 34.1537C33.1387 34.1537 34.2328 33.0595 34.2328 31.7099V23.6277C34.2328 22.4613 35.1783 21.5159 36.3447 21.5159H36.5799C37.7462 21.5159 38.6917 22.4613 38.6917 23.6277V24.099C38.6917 25.2827 39.6604 26.288 40.8439 26.2658C41.9916 26.2444 42.9154 25.3072 42.9154 24.1543V13.3274H21.9897C20.8929 13.3274 20.0039 14.2165 20.0039 15.3131V24.2093Z" fill="#F4D8A5"/>
<path d="M40.9686 13.3274V24.1544C40.9686 24.9646 40.5114 25.6667 39.8418 26.0208C40.1423 26.1823 40.484 26.2726 40.8463 26.2658C41.9941 26.2444 42.9179 25.3073 42.9179 24.1544V13.3274H40.9686Z" fill="#FFD064"/>
<path d="M25.285 17.1016H25.2319C24.0655 17.1016 23.12 18.047 23.12 19.2134V24.209C23.12 25.262 22.477 26.1644 21.5625 26.5463C21.8626 26.6716 22.1917 26.7413 22.5371 26.7413C23.9357 26.7413 25.0693 25.6076 25.0693 24.209V19.2134C25.0693 18.3884 25.5435 17.6758 26.233 17.3282C25.9477 17.1844 25.6263 17.1016 25.285 17.1016Z" fill="#FFD064"/>
<path d="M34.6308 21.5156H34.3955C33.2291 21.5156 32.2836 22.4611 32.2836 23.6275V31.7096C32.2836 32.7126 31.6788 33.5736 30.8145 33.9501C31.1132 34.0803 31.4425 34.1535 31.7891 34.1535C33.1387 34.1535 34.2329 33.0593 34.2329 31.7096V23.6275C34.2329 22.7665 34.7489 22.0273 35.4878 21.6984C35.2257 21.5818 34.9363 21.5156 34.6308 21.5156Z" fill="#FFD064"/>
<path d="M41.0859 36.4379C39.8498 36.4379 38.8477 35.4359 38.8477 34.1997V32.1245C38.8477 30.8884 39.8497 29.8862 41.0859 29.8862C42.322 29.8862 43.3242 30.8883 43.3242 32.1245V34.1997C43.3241 35.4359 42.322 36.4379 41.0859 36.4379Z" fill="#F4D8A5"/>
<path d="M41.0873 29.8862C40.8005 29.8862 40.5273 29.9421 40.2754 30.0405C41.1096 30.3658 41.7018 31.1751 41.7018 32.1245V34.1997C41.7018 35.1491 41.1096 35.9584 40.2754 36.2837C40.5273 36.3819 40.8005 36.4379 41.0873 36.4379C42.3234 36.4379 43.3254 35.4359 43.3254 34.1997V32.1245C43.3254 30.8883 42.3234 29.8862 41.0873 29.8862Z" fill="#FFD064"/>
</g>
<defs>
<clipPath id="clip0">
<rect width="60" height="60" fill="white"/>
</clipPath>
</defs>
</svg>
