<svg width="60" height="60" viewBox="0 0 60 60" fill="none" xmlns="http://www.w3.org/2000/svg">
<g clip-path="url(#clip0)">
<path d="M49.4988 19.2219V18.6052L49.2148 18.5156H45.9402L45.8525 18.6328V19.2219C45.8525 27.1991 39.6557 33.7559 31.8232 34.3322L31.4961 34.587V37.5648L31.8232 37.9855C41.6679 37.4027 49.4988 29.2103 49.4988 19.2219Z" fill="#60B9FE"/>
<path d="M42.2073 19.2223V18.5973L42.0176 18.418H38.6936L38.5611 18.6388V19.2225C38.5611 23.1751 35.6278 26.4541 31.8241 27.0005L31.4971 27.3031V30.161L31.8241 30.6733C37.6436 30.1071 42.2073 25.1879 42.2073 19.2223Z" fill="#60B9FE"/>
<path d="M28.1778 27.0004C24.374 26.454 21.4408 23.175 21.4408 19.2223V18.6386L21.331 18.4707H19.771L19.6123 18.5993V19.2348C19.6123 24.6419 23.3022 29.1995 28.295 30.5325L28.3783 30.4324V27.1627L28.1778 27.0004Z" fill="#60B9FE"/>
<path d="M28.1773 34.3325C20.3448 33.7562 14.1479 27.1994 14.1479 19.2222V18.6331L14.0316 18.4707H12.3808L12.2803 18.6071V19.2309C12.2803 28.6535 19.171 36.4945 28.1776 37.9857L28.3777 37.7765V34.6075L28.1773 34.3325Z" fill="#60B9FE"/>
<path d="M28.1773 41.6388C16.3209 41.0519 6.85551 31.2218 6.85551 19.2225V18.6263L6.67762 18.4961H5.0118L4.92285 18.6154V19.2303C4.92285 32.1347 14.2413 42.9011 26.502 45.1602C27.0557 45.2195 27.614 45.2634 28.1773 45.2873L28.4582 44.9095V41.9316L28.1773 41.6388Z" fill="#60B9FE"/>
<path d="M19.7543 19.2222V18.5971L19.9104 18.4707H17.95L17.7939 18.5971V19.2222C17.7939 25.1878 22.3577 30.1069 28.1771 30.6731L28.3775 30.4323V30.359C23.4242 29.0762 19.7543 24.571 19.7543 19.2222Z" fill="#1CA8FF"/>
<path d="M12.4623 19.2223V18.6056L12.5616 18.4707H10.6013L10.502 18.6056V19.2223C10.502 29.2107 18.3329 37.4032 28.1776 37.9859L28.3602 37.7951C19.367 36.3964 12.4623 28.6013 12.4623 19.2223Z" fill="#1CA8FF"/>
<path d="M5.1693 19.2225V18.6141L5.2573 18.4961H3.29699L3.20898 18.6141V19.2225C3.20898 33.2327 14.3095 44.6972 28.177 45.2873L28.2851 45.1417C15.2946 43.6606 5.1693 32.6029 5.1693 19.2225Z" fill="#1CA8FF"/>
<path d="M56.6469 18.4551H53.2666L53.145 18.6255V19.2217C53.145 31.221 43.6796 41.0511 31.8232 41.6379L31.4961 42.0918V44.7879L31.8232 45.2866C45.6907 44.6964 56.7911 33.232 56.7911 19.2218V18.6134L56.6469 18.4551Z" fill="#60B9FE"/>
<path d="M45.9395 18.5157L45.8519 18.6329V19.222C45.8519 26.9092 40.0973 33.2763 32.6699 34.245H33.049C35.4186 34.245 37.7651 33.6932 39.8508 32.5687C44.6009 30.0083 47.8362 24.986 47.8362 19.2219V18.6328L47.9239 18.5156H45.9395V18.5157Z" fill="#1CA8FF"/>
<path d="M38.6926 18.418L38.5602 18.6387V19.2225C38.5602 23.0021 35.8771 26.1641 32.3164 26.9115H32.788C36.0158 26.9115 38.9623 24.9438 40.0705 21.912C40.3773 21.0727 40.5447 20.1668 40.5447 19.2225V18.6387L40.6771 18.418H38.6926Z" fill="#1CA8FF"/>
<path d="M53.266 18.4551L53.1444 18.6255V19.2217C53.1444 30.9154 44.1547 40.5473 32.7236 41.5736H33.6368C34.5675 41.5736 35.498 41.5092 36.4159 41.355C47.022 39.573 55.1287 30.3264 55.1287 19.2217V18.6255L55.2504 18.4551H53.266Z" fill="#1CA8FF"/>
<path d="M31.657 16.5488H29.9424V52.5145H31.5965L31.823 52.2818V16.675L31.657 16.5488Z" fill="#B5DCFF"/>
<path d="M30.064 16.5488H28.3077L28.1777 16.675V52.2818L28.4184 52.5145H30.064V16.5488Z" fill="#8BCAFF"/>
<path d="M54.9611 10.8247C54.461 10.8247 54.0557 10.4193 54.0557 9.9193V7.33508C54.0557 6.83504 54.461 6.42969 54.9611 6.42969C55.4611 6.42969 55.8664 6.83504 55.8664 7.33508V9.9193C55.8664 10.4193 55.4611 10.8247 54.9611 10.8247Z" fill="#FFEAC8"/>
<path d="M56.4195 9.64648H55.3488C55.0013 9.6466 54.7197 9.92832 54.7197 10.2757V18.1098C54.7197 18.4572 55.0014 18.7389 55.3489 18.7389H56.4194C56.7669 18.7389 57.0486 18.4572 57.0486 18.1098V10.2757C57.0487 9.9282 56.767 9.64648 56.4195 9.64648Z" fill="#FFDDA8"/>
<path d="M54.9605 18.1098V10.2757C54.9605 9.9282 55.2422 9.64648 55.5897 9.64648H53.5022C53.1548 9.64648 52.873 9.9282 52.873 10.2757V18.1098C52.873 18.4572 53.1548 18.7389 53.5022 18.7389H55.5897C55.2422 18.7389 54.9605 18.4572 54.9605 18.1098Z" fill="#FFC365"/>
<path d="M56.0183 2.57812C55.3289 3.2775 54.9014 4.23551 54.9014 5.29523C54.9014 6.26355 55.3414 6.93375 55.9508 7.30945C56.6505 6.99023 57.1864 6.31008 57.1864 5.26687C57.1864 4.20551 56.737 3.24961 56.0183 2.57812Z" fill="#FFC365"/>
<path d="M54.9604 5.26822C54.9604 4.23498 55.3876 3.30275 56.0734 2.63455C55.8192 2.38682 55.5306 2.17424 55.2134 2.00771C55.0549 1.92451 54.8657 1.92451 54.7073 2.00771C53.5346 2.62318 52.7344 3.85189 52.7344 5.26822C52.7344 7.29322 54.7554 7.95252 56.074 7.24811C55.4353 6.90721 54.9604 6.24861 54.9604 5.26822Z" fill="#FFA90F"/>
<path d="M34.8715 52.2832H29.1797C26.8381 52.5731 24.9847 53.9646 24.623 56.3194L25.3254 56.7414H39.6245L40.2276 56.2738C39.8292 53.6791 37.573 52.2832 34.8715 52.2832Z" fill="#60B9FE"/>
<path d="M30.1186 52.2832H25.1286C22.4271 52.2832 20.1709 53.6791 19.7725 56.2737L20.5507 56.7412H25.5407L24.7624 56.2737C25.1609 53.6791 27.4171 52.2832 30.1186 52.2832Z" fill="#1CA8FF"/>
<path d="M42.3499 56.2734H23.4056C22.947 56.2736 22.5752 56.6454 22.5752 57.1039V59.1701C22.5752 59.6287 22.947 60.0006 23.4057 60.0006H42.3499C42.8086 60.0006 43.1804 59.6287 43.1804 59.1701V57.1039C43.1804 56.6453 42.8086 56.2734 42.3499 56.2734Z" fill="#B5DCFF"/>
<path d="M22.6955 59.1701V57.1039C22.6955 56.6453 23.0673 56.2734 23.526 56.2734H17.6508C17.1921 56.2734 16.8203 56.6453 16.8203 57.1039V59.1701C16.8203 59.6287 17.1921 60.0006 17.6508 60.0006H23.526C23.0673 60.0006 22.6955 59.6287 22.6955 59.1701Z" fill="#8BCAFF"/>
<path d="M47.6583 10.8247C47.1583 10.8247 46.7529 10.4193 46.7529 9.9193V7.33508C46.7529 6.83504 47.1583 6.42969 47.6583 6.42969C48.1584 6.42969 48.5637 6.83504 48.5637 7.33508V9.9193C48.5638 10.4193 48.1584 10.8247 47.6583 10.8247Z" fill="#FFEAC8"/>
<path d="M49.1158 9.64648H48.0451C47.6976 9.6466 47.416 9.92832 47.416 10.2757V18.1098C47.416 18.4572 47.6977 18.7389 48.0452 18.7389H49.1157C49.4632 18.7389 49.7449 18.4572 49.7449 18.1098V10.2757C49.745 9.9282 49.4633 9.64648 49.1158 9.64648Z" fill="#FFDDA8"/>
<path d="M47.6578 18.1098V10.2757C47.6578 9.9282 47.9395 9.64648 48.287 9.64648H46.1995C45.852 9.64648 45.5703 9.9282 45.5703 10.2757V18.1098C45.5703 18.4572 45.852 18.7389 46.1995 18.7389H48.287C47.9395 18.7389 47.6578 18.4572 47.6578 18.1098Z" fill="#FFC365"/>
<path d="M48.7155 2.57812C48.0261 3.2775 47.5986 4.23551 47.5986 5.29523C47.5986 6.26355 48.0387 6.93375 48.648 7.30945C49.3478 6.99023 49.8837 6.31008 49.8837 5.26687C49.8838 4.20551 49.4343 3.24961 48.7155 2.57812Z" fill="#FFC365"/>
<path d="M47.6586 5.26822C47.6586 4.23498 48.0859 3.30275 48.7716 2.63455C48.5175 2.38682 48.2288 2.17424 47.9116 2.00771C47.7532 1.92451 47.5639 1.92451 47.4056 2.00771C46.2329 2.62318 45.4326 3.85189 45.4326 5.26822C45.4326 7.29322 47.4536 7.95252 48.7722 7.24811C48.1337 6.90721 47.6586 6.24861 47.6586 5.26822Z" fill="#FFA90F"/>
<path d="M40.3556 10.8247C39.8555 10.8247 39.4502 10.4193 39.4502 9.9193V7.33508C39.4502 6.83504 39.8555 6.42969 40.3556 6.42969C40.8556 6.42969 41.261 6.83504 41.261 7.33508V9.9193C41.261 10.4193 40.8556 10.8247 40.3556 10.8247Z" fill="#FFEAC8"/>
<path d="M41.8141 9.64648H40.7433C40.3959 9.6466 40.1143 9.92832 40.1143 10.2757V18.1098C40.1143 18.4572 40.396 18.7389 40.7434 18.7389H41.8139C42.1614 18.7389 42.4431 18.4572 42.4431 18.1098V10.2757C42.4432 9.9282 42.1615 9.64648 41.8141 9.64648Z" fill="#FFDDA8"/>
<path d="M40.356 18.1098V10.2757C40.356 9.9282 40.6377 9.64648 40.9852 9.64648H38.8977C38.5503 9.64648 38.2686 9.9282 38.2686 10.2757V18.1098C38.2686 18.4572 38.5503 18.7389 38.8977 18.7389H40.9852C40.6376 18.7389 40.356 18.4572 40.356 18.1098Z" fill="#FFC365"/>
<path d="M41.4128 2.57812C40.7234 3.2775 40.2959 4.23551 40.2959 5.29523C40.2959 6.26355 40.7359 6.93375 41.3453 7.30945C42.045 6.99023 42.5809 6.31008 42.5809 5.26687C42.5809 4.20551 42.1315 3.24961 41.4128 2.57812Z" fill="#FFC365"/>
<path d="M40.3559 5.26822C40.3559 4.23498 40.7831 3.30275 41.4689 2.63455C41.2147 2.38682 40.9261 2.17424 40.6089 2.00771C40.4504 1.92451 40.2612 1.92451 40.1029 2.00771C38.9302 2.62318 38.1299 3.85189 38.1299 5.26822C38.1299 7.29322 40.1509 7.95252 41.4695 7.24811C40.8308 6.90721 40.3559 6.24861 40.3559 5.26822Z" fill="#FFA90F"/>
<path d="M19.6437 10.8247C19.1436 10.8247 18.7383 10.4193 18.7383 9.9193V7.33508C18.7383 6.83504 19.1436 6.42969 19.6437 6.42969C20.1437 6.42969 20.5491 6.83504 20.5491 7.33508V9.9193C20.5492 10.4193 20.1438 10.8247 19.6437 10.8247Z" fill="#FFEAC8"/>
<path d="M21.1021 9.64648H20.0314C19.6839 9.6466 19.4023 9.92832 19.4023 10.2757V18.1098C19.4023 18.4572 19.6841 18.7389 20.0315 18.7389H21.102C21.4495 18.7389 21.7312 18.4572 21.7312 18.1098V10.2757C21.7313 9.9282 21.4496 9.64648 21.1021 9.64648Z" fill="#FFDDA8"/>
<path d="M19.6451 18.1098V10.2757C19.6451 9.9282 19.9268 9.64648 20.2743 9.64648H18.1868C17.8393 9.64648 17.5576 9.9282 17.5576 10.2757V18.1098C17.5576 18.4572 17.8393 18.7389 18.1868 18.7389H20.2743C19.9268 18.7389 19.6451 18.4572 19.6451 18.1098Z" fill="#FFC365"/>
<path d="M20.7019 2.57812C20.0125 3.2775 19.585 4.23551 19.585 5.29523C19.585 6.26355 20.025 6.93375 20.6344 7.30945C21.3341 6.99023 21.87 6.31008 21.87 5.26687C21.87 4.20551 21.4206 3.24961 20.7019 2.57812Z" fill="#FFC365"/>
<path d="M19.6449 5.26822C19.6449 4.23498 20.0722 3.30275 20.758 2.63455C20.5038 2.38682 20.2152 2.17424 19.8979 2.00771C19.7395 1.92451 19.5502 1.92451 19.3919 2.00771C18.2192 2.62318 17.4189 3.85189 17.4189 5.26822C17.4189 7.29322 19.44 7.95252 20.7586 7.24811C20.12 6.90721 19.6449 6.24861 19.6449 5.26822Z" fill="#FFA90F"/>
<path d="M12.3419 10.8247C11.8419 10.8247 11.4365 10.4193 11.4365 9.9193V7.33508C11.4365 6.83504 11.8419 6.42969 12.3419 6.42969C12.842 6.42969 13.2473 6.83504 13.2473 7.33508V9.9193C13.2473 10.4193 12.842 10.8247 12.3419 10.8247Z" fill="#FFEAC8"/>
<path d="M13.8004 9.64648H12.7296C12.3822 9.6466 12.1006 9.92832 12.1006 10.2757V18.1098C12.1006 18.4572 12.3823 18.7389 12.7298 18.7389H13.8003C14.1477 18.7389 14.4295 18.4572 14.4295 18.1098V10.2757C14.4296 9.9282 14.1479 9.64648 13.8004 9.64648Z" fill="#FFDDA8"/>
<path d="M12.3423 18.1098V10.2757C12.3423 9.9282 12.6241 9.64648 12.9715 9.64648H10.8841C10.5366 9.64648 10.2549 9.9282 10.2549 10.2757V18.1098C10.2549 18.4572 10.5366 18.7389 10.8841 18.7389H12.9715C12.6241 18.7389 12.3423 18.4572 12.3423 18.1098Z" fill="#FFC365"/>
<path d="M13.4001 2.57812C12.7107 3.2775 12.2832 4.23551 12.2832 5.29523C12.2832 6.26355 12.7232 6.93375 13.3326 7.30945C14.0323 6.99023 14.5682 6.31008 14.5682 5.26687C14.5682 4.20551 14.1188 3.24961 13.4001 2.57812Z" fill="#FFC365"/>
<path d="M12.3412 5.26822C12.3412 4.23498 12.7685 3.30275 13.4543 2.63455C13.2001 2.38682 12.9114 2.17424 12.5942 2.00771C12.4358 1.92451 12.2465 1.92451 12.0882 2.00771C10.9155 2.62318 10.1152 3.85189 10.1152 5.26822C10.1152 7.29322 12.1362 7.95252 13.4548 7.24811C12.8162 6.90721 12.3412 6.24861 12.3412 5.26822Z" fill="#FFA90F"/>
<path d="M5.04016 10.8247C4.54012 10.8247 4.13477 10.4193 4.13477 9.9193V7.33508C4.13477 6.83504 4.54012 6.42969 5.04016 6.42969C5.54019 6.42969 5.94555 6.83504 5.94555 7.33508V9.9193C5.94555 10.4193 5.54019 10.8247 5.04016 10.8247Z" fill="#FFEAC8"/>
<path d="M6.49766 9.64648H5.42691C5.07945 9.6466 4.79785 9.92832 4.79785 10.2757V18.1098C4.79785 18.4572 5.07957 18.7389 5.42703 18.7389H6.49754C6.845 18.7389 7.12672 18.4572 7.12672 18.1098V10.2757C7.12684 9.9282 6.84512 9.64648 6.49766 9.64648Z" fill="#FFDDA8"/>
<path d="M5.03961 18.1098V10.2757C5.03961 9.9282 5.32133 9.64648 5.66879 9.64648H3.58133C3.23387 9.64648 2.95215 9.9282 2.95215 10.2757V18.1098C2.95215 18.4572 3.23387 18.7389 3.58133 18.7389H5.66879C5.32133 18.7389 5.03961 18.4572 5.03961 18.1098Z" fill="#FFC365"/>
<path d="M6.09738 2.57812C5.40797 3.2775 4.98047 4.23551 4.98047 5.29523C4.98047 6.26355 5.42051 6.93375 6.02988 7.30945C6.72961 6.99023 7.26551 6.31008 7.26551 5.26687C7.26562 4.20551 6.81609 3.24961 6.09738 2.57812Z" fill="#FFC365"/>
<path d="M5.03945 5.26822C5.03945 4.23498 5.46672 3.30275 6.1525 2.63455C5.89832 2.38682 5.60969 2.17424 5.29246 2.00771C5.13402 1.92451 4.94477 1.92451 4.78645 2.00771C3.61375 2.62318 2.81348 3.85189 2.81348 5.26822C2.81348 7.29322 4.83449 7.95252 6.15309 7.24811C5.51453 6.90721 5.03945 6.24861 5.03945 5.26822Z" fill="#FFA90F"/>
<path d="M30.0001 8.88133C29.5001 8.88133 29.0947 8.47598 29.0947 7.97594V5.39172C29.0947 4.89168 29.5001 4.48633 30.0001 4.48633C30.5001 4.48633 30.9055 4.89168 30.9055 5.39172V7.97594C30.9055 8.47598 30.5001 8.88133 30.0001 8.88133Z" fill="#FFEAC8"/>
<path d="M31.4586 7.70117H30.3879C30.0404 7.70129 29.7588 7.98301 29.7588 8.33035V16.1645C29.7588 16.5119 30.0405 16.7936 30.388 16.7936H31.4585C31.8059 16.7936 32.0877 16.5119 32.0877 16.1645V8.33035C32.0878 7.98289 31.8061 7.70117 31.4586 7.70117Z" fill="#FFDDA8"/>
<path d="M30.0005 16.1645V8.33035C30.0005 7.98289 30.2823 7.70117 30.6297 7.70117H28.5423C28.1948 7.70117 27.9131 7.98289 27.9131 8.33035V16.1645C27.9131 16.5119 28.1948 16.7936 28.5423 16.7936H30.6297C30.2823 16.7936 30.0005 16.5119 30.0005 16.1645Z" fill="#FFC365"/>
<path d="M31.0573 0.634766C30.3679 1.33414 29.9404 2.29215 29.9404 3.35187C29.9404 4.3202 30.3805 4.99039 30.9898 5.36609C31.6896 5.04688 32.2255 4.36672 32.2255 3.32352C32.2255 2.26227 31.7761 1.30637 31.0573 0.634766Z" fill="#FFC365"/>
<path d="M30.0004 3.32291C30.0004 2.28967 30.4277 1.35744 31.1134 0.689238C30.8593 0.441504 30.5706 0.228926 30.2534 0.0624023C30.095 -0.0208008 29.9057 -0.0208008 29.7474 0.0624023C28.5747 0.677871 27.7744 1.90658 27.7744 3.32291C27.7744 5.34791 29.7954 6.00721 31.114 5.30279C30.4753 4.96189 30.0004 4.3033 30.0004 3.32291Z" fill="#FFA90F"/>
</g>
<defs>
<clipPath id="clip0">
<rect width="60" height="60" fill="white"/>
</clipPath>
</defs>
</svg>
