<svg width="60" height="60" viewBox="0 0 60 60" fill="none" xmlns="http://www.w3.org/2000/svg">
<path d="M8.58281 24.0527C9.67839 22.9571 11.0802 22.3561 12.5127 22.2468C13.0876 22.203 13.582 22.6974 13.5382 23.2724C13.429 24.7049 12.8279 26.1067 11.7323 27.2022C10.3771 28.5575 8.55316 29.1561 6.78222 29.0028C6.62894 27.2319 7.22753 25.4081 8.58281 24.0527Z" fill="#B8EB7C"/>
<path d="M17.1836 45.2558C16.682 43.7899 16.7591 42.2666 17.2913 40.9323C17.505 40.3967 18.1665 40.1703 18.6635 40.4627C19.9018 41.1912 20.896 42.3477 21.3977 43.8137C22.0183 45.6272 21.7533 47.5283 20.8363 49.0512C19.1785 48.4093 17.8043 47.0693 17.1836 45.2558Z" fill="#B8EB7C"/>
<path d="M13.0221 13.5399C14.5031 13.0847 16.0231 13.21 17.3401 13.7842C17.8686 14.0147 18.074 14.683 17.7661 15.1705C16.9988 16.3852 15.8114 17.3424 14.3304 17.7974C12.4982 18.3604 10.6064 18.0353 9.11328 17.0707C9.80703 15.4342 11.19 14.1028 13.0221 13.5399Z" fill="#B8EB7C"/>
<path d="M11.1941 5.00475C12.212 3.83662 13.5693 3.14076 14.9909 2.93357C15.5615 2.85049 16.0886 3.30975 16.0844 3.88631C16.0737 5.32291 15.5701 6.76268 14.5524 7.9308C13.5345 9.09893 12.1773 9.79479 10.7556 10.002C10.185 10.0852 9.65792 9.6258 9.66213 9.04924C9.6728 7.61252 10.1764 6.17287 11.1941 5.00475Z" fill="#B8EB7C"/>
<path d="M33.8635 57.078C33.579 57.078 33.2982 56.9542 33.1063 56.715L29.9905 52.8192L26.8747 56.715C26.541 57.1299 25.9322 57.2008 25.5135 56.8663C25.0966 56.5316 25.0285 55.9228 25.3622 55.505L29.2343 50.6649C29.6029 50.2054 30.3781 50.2054 30.7468 50.6649L34.6189 55.505C34.9527 55.9229 34.8846 56.5317 34.4676 56.8663C34.2889 57.0091 34.0753 57.078 33.8635 57.078Z" fill="#77CC7D"/>
<path d="M25.9748 38.6842H34.8309C35.3655 38.6842 35.7989 38.2508 35.7989 37.7162V28.0359L32.8979 21.2598H25.0068V37.7162C25.0067 38.2508 25.4402 38.6842 25.9748 38.6842Z" fill="#FCDBB2"/>
<path d="M26.1187 35.7811V25.1328H24.1826V38.6852C24.1826 39.2198 24.616 39.6532 25.1506 39.6532H34.8309C35.3655 39.6532 35.7988 39.2198 35.7988 38.6852V37.7172H28.0546C26.9855 37.7171 26.1187 36.8503 26.1187 35.7811Z" fill="#F5C89D"/>
<path d="M34.8313 18.3557H30.9592V13.5156H29.0232V18.3557H26.1191L24.9062 19.3237V25.1318L26.1191 27.0679C27.1884 27.0679 28.0552 26.2011 28.0552 25.1318V24.1639C28.0552 23.0945 28.922 22.2278 29.9912 22.2278C31.0605 22.2278 31.9273 23.0945 31.9273 24.1639V28.036C31.9273 29.1052 32.7941 29.972 33.8634 29.972C34.9326 29.972 35.7994 29.1052 35.7994 28.036V19.3238C35.7993 18.7892 35.3659 18.3557 34.8313 18.3557Z" fill="#FFEAC6"/>
<path d="M25.1506 18.3555C24.616 18.3555 24.1826 18.7888 24.1826 19.3234V25.1316C24.1826 26.2008 25.0495 27.0677 26.1187 27.0677V18.3555H25.1506Z" fill="#FCDBB2"/>
<path d="M9.9994 35.9725C10.3455 34.4623 11.2137 33.2083 12.3693 32.3547C12.8331 32.0122 13.5146 32.1682 13.7829 32.6786C14.4515 33.9502 14.687 35.4571 14.341 36.9673C13.9129 38.8356 12.6857 40.3117 11.1039 41.1228C10.0333 39.7039 9.57131 37.8407 9.9994 35.9725Z" fill="#B8EB7C"/>
<path d="M55.0418 27.9258C56.1374 26.8302 57.5392 26.2291 58.9717 26.1199C59.5466 26.0761 60.041 26.5705 59.9972 27.1454C59.8879 28.5779 59.2869 29.9797 58.1913 31.0753C56.836 32.4306 55.0121 33.0292 53.2412 32.8759C53.0879 31.1048 53.6865 29.281 55.0418 27.9258Z" fill="#B8EB7C"/>
<path d="M51.0139 41.1801C52.5241 40.834 54.031 41.0696 55.3026 41.7381C55.8129 42.0065 55.9691 42.688 55.6265 43.1517C54.7729 44.3073 53.519 45.1756 52.0087 45.5216C50.1404 45.9497 48.2772 45.4879 46.8584 44.4171C47.6695 42.8353 49.1455 41.6082 51.0139 41.1801Z" fill="#B8EB7C"/>
<path d="M40.9327 50.2159C42.3986 50.7176 43.5552 51.7118 44.2836 52.9501C44.576 53.4471 44.3496 54.1086 43.8141 54.3223C42.4797 54.8546 40.9565 54.9316 39.4906 54.4299C37.6771 53.8093 36.337 52.435 35.6953 50.7772C37.218 49.8603 39.1192 49.5953 40.9327 50.2159Z" fill="#B8EB7C"/>
<path d="M51.9949 15.2654C52.4501 13.7844 53.4071 12.5969 54.6218 11.8297C55.1093 11.5218 55.7776 11.7272 56.0081 12.2557C56.5823 13.5725 56.7076 15.0927 56.2525 16.5737C55.6895 18.4058 54.3581 19.7887 52.7216 20.4825C51.757 18.9894 51.4319 17.0977 51.9949 15.2654Z" fill="#B8EB7C"/>
<path d="M48.8053 5.00475C47.7874 3.83662 46.4301 3.14076 45.0085 2.93357C44.438 2.85049 43.9108 3.30975 43.9151 3.88631C43.9257 5.32291 44.4293 6.76268 45.4471 7.9308C46.4649 9.09893 47.8221 9.79479 49.2438 10.002C49.8144 10.0852 50.3415 9.6258 50.3373 9.04924C50.3266 7.61252 49.8231 6.17287 48.8053 5.00475Z" fill="#B8EB7C"/>
<path d="M51.5882 17.107C51.4062 16.7467 51.0288 16.5483 50.6502 16.5782C49.903 15.1698 48.6224 14.0446 46.9779 13.5393C45.4969 13.0841 43.9768 13.2094 42.6599 13.7836C42.1314 14.0141 41.926 14.6824 42.2339 15.1699C43.0011 16.3846 44.1886 17.3418 45.6696 17.7968C47.0674 18.2263 48.4995 18.1376 49.7632 17.6436C49.7751 17.7586 49.8067 17.8733 49.8621 17.9824C50.9515 20.1313 51.6723 22.3977 52.0179 24.7513C51.8371 24.5075 51.6383 24.273 51.4173 24.052C50.3217 22.9564 48.9199 22.3554 47.4874 22.2462C46.9125 22.2023 46.4181 22.6968 46.4619 23.2717C46.5711 24.7042 47.1722 26.106 48.2678 27.2016C49.3725 28.3063 50.7884 28.9078 52.2333 29.0096C52.1031 32.0212 51.3718 34.8793 50.1566 37.4672C50.1646 36.9748 50.1157 36.4738 50.0008 35.9722C49.6547 34.462 48.7865 33.208 47.6309 32.3544C47.167 32.0119 46.4856 32.168 46.2172 32.6783C45.5487 33.9499 45.3131 35.4568 45.6592 36.967C46.028 38.5762 46.9903 39.8932 48.2606 40.7462C46.609 43.1132 44.5102 45.1457 42.0868 46.7198C42.3861 46.2755 42.6342 45.7862 42.8161 45.255C43.3178 43.7891 43.2407 42.2658 42.7084 40.9315C42.4948 40.3959 41.8333 40.1695 41.3363 40.4619C40.0979 41.1903 39.1037 42.3469 38.602 43.8129C38.0592 45.3989 38.194 47.0522 38.8498 48.4605C36.1335 49.6432 33.1379 50.3007 29.9912 50.3007C17.7142 50.3007 7.72665 40.3132 7.72665 28.0362C7.72665 24.4978 8.53208 21.1153 10.1202 17.9825C10.3622 17.506 10.1713 16.9228 9.69482 16.6818C9.21927 16.436 8.63509 16.6297 8.39404 17.1071C8.35325 17.1875 8.31529 17.2687 8.27556 17.3494C8.3038 16.6628 8.21849 15.9599 8.00521 15.2654C7.55005 13.7844 6.59298 12.5969 5.37833 11.8297C4.89083 11.5218 4.22251 11.7272 3.99201 12.2557C3.41779 13.5725 3.29251 15.0926 3.74767 16.5737C4.28158 18.3111 5.50689 19.6433 7.02775 20.3682C6.20568 22.8223 5.79072 25.3891 5.79072 28.0362C5.79072 28.3557 5.79892 28.6734 5.81122 28.99C5.57122 28.6128 5.28751 28.2554 4.9581 27.9261C3.86251 26.8305 2.46072 26.2295 1.02822 26.1203C0.453294 26.0764 -0.0411198 26.5709 0.00270836 27.1458C0.111927 28.5783 0.712982 29.9801 1.80857 31.0757C3.04232 32.3094 4.66431 32.9139 6.28126 32.8972C6.91759 36.0055 8.15251 38.898 9.85853 41.4501C9.57857 41.3413 9.28841 41.2493 8.98677 41.1802C7.47658 40.8341 5.96966 41.0696 4.69806 41.7382C4.18771 42.0066 4.0315 42.6881 4.37415 43.1518C5.22775 44.3074 6.48165 45.1757 7.99197 45.5217C9.61478 45.8935 11.2333 45.5933 12.5605 44.8064C14.634 46.9608 17.1019 48.7323 19.8467 50.0048C19.5861 50.0579 19.326 50.1264 19.0677 50.2148C17.6018 50.7165 16.4452 51.7107 15.7167 52.9491C15.4243 53.446 15.6508 54.1076 16.1863 54.3212C17.5207 54.8536 19.0439 54.9306 20.5098 54.4289C22.0589 53.8987 23.2609 52.8176 23.9789 51.4806C25.902 51.9741 27.9164 52.2368 29.9912 52.2368C43.3356 52.2368 54.1918 41.3805 54.1918 28.0362C54.1916 24.1904 53.3162 20.514 51.5882 17.107Z" fill="#98DB7C"/>
<path d="M32.8949 11.5801C32.8949 13.184 31.5948 14.4842 29.9909 14.4842C28.3871 14.4842 27.0869 13.184 27.0869 11.5801C27.0869 9.69167 28.3149 7.39397 29.1738 6.01772C29.5494 5.41597 30.4325 5.41597 30.8081 6.01772C31.6669 7.39397 32.8949 9.69179 32.8949 11.5801Z" fill="#FFE077"/>
<path d="M29.9914 12.5473C30.526 12.5473 30.9594 12.1139 30.9594 11.5793C30.9594 11.0447 30.526 10.6113 29.9914 10.6113C29.4568 10.6113 29.0234 11.0447 29.0234 11.5793C29.0234 12.1139 29.4568 12.5473 29.9914 12.5473Z" fill="white"/>
</svg>
