<svg width="60" height="60" viewBox="0 0 60 60" fill="none" xmlns="http://www.w3.org/2000/svg">
<g clip-path="url(#clip0)">
<path d="M28.2422 14.7578V21.5106C28.2422 22.4814 29.0292 23.2684 30 23.2684L31.1719 18.4881L30 13C29.0292 13 28.2422 13.787 28.2422 14.7578Z" fill="#FFF5F5"/>
<path d="M31.7578 21.5106V14.7578C31.7578 13.787 30.9708 13 30 13V23.2684C30.9708 23.2686 31.7578 22.4815 31.7578 21.5106Z" fill="#ECE6F2"/>
<path d="M11.499 38.3714C11.499 39.3421 12.2861 40.1292 13.2568 40.1292H29.9276L33.5604 29.5221L29.9276 19.8711C19.7593 19.9105 11.499 28.1941 11.499 38.3714Z" fill="#B46C5D"/>
<path d="M30.0004 19.8691C29.9761 19.8691 29.952 19.87 29.9277 19.8701V40.1282H46.7438C47.7146 40.1282 48.5016 39.3411 48.5016 38.3704C48.5016 28.1687 40.202 19.8691 30.0004 19.8691Z" fill="#915145"/>
<path d="M25.0107 36.4688C23.0359 36.4688 21.2564 37.3215 20.0215 38.6783C18.7866 37.3215 17.0071 36.4688 15.0322 36.4688C11.3119 36.4688 8.28516 39.4955 8.28516 43.2162C8.28516 43.4357 8.32629 43.6532 8.40633 43.8574L14.2942 58.8839C14.5581 59.5574 15.2075 60.0005 15.9308 60.0005H21.5471L23.4595 58.7114L25.1408 60.0005H28.2423L30.0001 58.8286L30.7032 48.9937L30.0001 38.6783C28.7651 37.3216 26.9857 36.4688 25.0107 36.4688Z" fill="#FFE278"/>
<path d="M44.9679 36.4688C42.993 36.4688 41.2136 37.3216 39.9786 38.6783C38.7436 37.3216 36.9642 36.4688 34.9893 36.4688C33.0144 36.4688 31.2349 37.3216 30 38.6783V58.8287L31.7578 60.0006H34.9962L36.8343 57.5396L38.5264 60.0006H44.0686C44.7919 60.0006 45.4413 59.5575 45.7052 58.8841L51.58 43.8915C51.668 43.6804 51.715 43.4512 51.715 43.2159C51.7151 39.4955 48.6882 36.4688 44.9679 36.4688Z" fill="#FFC178"/>
<path d="M28.8019 0.471094C28.3745 0.869297 24.627 4.46977 24.627 8.19879C24.627 12.5721 28.7333 15.8793 28.908 16.0179C29.2286 16.2721 29.6146 16.3985 30.0002 16.3985H30.0004L30.8207 8.19938L30.0004 0C29.5695 0 29.139 0.156914 28.8019 0.471094Z" fill="#FF8659"/>
<path d="M35.3734 8.19867C35.3734 4.2948 31.5984 0.825937 31.168 0.443203C30.8345 0.146836 30.4171 0 30 0V16.3984C30.4096 16.3984 30.8186 16.2557 31.1476 15.9721C31.5802 15.5993 35.3734 12.2142 35.3734 8.19867Z" fill="#FF405C"/>
<path d="M19.7132 41.6568C18.7609 41.8456 18.1421 42.7706 18.3307 43.7229L21.5574 60.0004H25.1414L21.7793 43.0393C21.5904 42.0869 20.6646 41.4684 19.7132 41.6568Z" fill="#FCECB9"/>
<path d="M41.6817 43.6866C41.8633 42.733 41.2373 41.8126 40.2836 41.6311C39.3297 41.4491 38.4096 42.0754 38.228 43.0291L34.9971 59.9996H38.5759L41.6817 43.6866Z" fill="#FFE278"/>
<path d="M28.2422 43.3574V59.9991H30L31.4062 50.0124L30 41.5996C29.0292 41.5996 28.2422 42.3866 28.2422 43.3574Z" fill="#FCECB9"/>
<path d="M31.7578 43.3574C31.7578 42.3866 30.9708 41.5996 30 41.5996V59.9991H31.7578V43.3574Z" fill="#FFE278"/>
</g>
<defs>
<clipPath id="clip0">
<rect width="60" height="60" fill="white"/>
</clipPath>
</defs>
</svg>
