<svg width="60" height="60" viewBox="0 0 60 60" fill="none" xmlns="http://www.w3.org/2000/svg">
<g clip-path="url(#clip0)">
<path d="M38.6327 23.6532C38.4343 23.0851 37.8094 22.7852 37.2445 22.9826C33.36 24.3381 32.5879 30.541 32.4527 39.4234C30.7198 36.7353 28.2672 34.9173 24.7917 34.9173C24.1886 34.9173 23.7012 35.4059 23.7012 36.0079C23.7012 36.6099 24.1886 37.0984 24.7917 37.0984C33.6446 37.0984 34.3328 53.7923 34.3328 58.9091C34.3328 59.511 34.8202 59.9996 35.4233 59.9996C36.0264 59.9996 36.5138 59.511 36.5138 58.9091C36.5138 55.246 36.2161 49.1172 34.54 43.9709C34.5738 43.8652 34.6065 43.7583 34.6065 43.6416C34.6065 36.286 34.6065 26.2127 37.9632 25.0415C38.5302 24.8441 38.8301 24.2214 38.6327 23.6532Z" fill="#71C285"/>
<path d="M51.9609 31.2341C44.1756 31.221 37.8646 37.7358 37.8516 45.7981L37.8756 45.773C45.6609 45.7861 51.9718 39.2713 51.9849 31.209L51.9609 31.2341Z" fill="#4C8056"/>
<path d="M52.0895 24.0067C57.4903 20.1701 60.0306 14.4728 57.7636 11.2814C55.4965 8.09001 49.2804 8.61307 43.8796 12.4497C38.4788 16.2863 35.9384 21.9836 38.2055 25.175C40.4726 28.3664 46.6887 27.8433 52.0895 24.0067Z" fill="#89769B"/>
<path d="M43.8824 12.4466C44.2477 12.1871 44.6174 11.9461 44.9882 11.716C44.7461 5.77913 41.9238 1.08984 38.469 1.08984C34.855 1.08984 31.9258 6.21644 31.9258 12.5404C31.9258 18.3366 34.3893 23.1142 37.5813 23.8732C36.6172 20.5918 39.1527 15.8066 43.8824 12.4466Z" fill="#B49ACA"/>
<path d="M49.0398 0.253957C46.9187 -0.556308 44.3287 0.622558 42.1367 3.07407C43.7442 4.99014 44.8412 8.11997 44.9885 11.7176C47.4105 10.2236 49.9264 9.38171 52.1314 9.2225C52.7596 4.90508 51.6287 1.24198 49.0398 0.253957Z" fill="#5D516B"/>
<path d="M15.6924 26.8481C9.69803 24.0271 3.48727 24.6117 1.82033 28.1539C0.153388 31.696 3.6615 36.8544 9.65591 39.6754C15.6503 42.4963 21.8611 41.9117 23.528 38.3696C25.195 34.8274 21.6869 29.6691 15.6924 26.8481Z" fill="#B49ACA"/>
<path d="M15.6909 26.8471C15.2852 26.6562 14.8784 26.4839 14.4728 26.3236C13.6603 20.4358 15.6091 15.3223 19.0094 14.7105C22.5656 14.0715 26.3563 18.5983 27.4752 24.823C28.5003 30.5276 26.9212 35.6651 23.9135 36.9781C24.2821 33.5789 20.9396 29.3171 15.6909 26.8471Z" fill="#89769B"/>
<path d="M8.45695 15.7577C10.4014 14.5854 13.1582 15.2866 15.7493 17.3117C14.5061 19.4819 13.9805 22.7568 14.4723 26.3228C11.8245 25.2813 9.19851 24.8975 6.99999 25.1309C5.61938 20.9934 6.08395 17.1885 8.45695 15.7577Z" fill="#5D516B"/>
<path d="M37.8527 45.7598L37.8467 45.7618L37.8517 45.7648L37.8527 45.7598Z" fill="#4FBA6F"/>
<path d="M54.3888 52.4831C52.4804 47.7339 47.8729 44.857 42.9186 44.8047C41.3504 45.4241 39.6546 45.7764 37.876 45.7742C40.4311 52.1352 47.8304 55.1418 54.4183 52.4951L54.3888 52.4831Z" fill="#4FBA6F"/>
</g>
<defs>
<clipPath id="clip0">
<rect width="60" height="60" fill="white"/>
</clipPath>
</defs>
</svg>
