<svg width="60" height="60" viewBox="0 0 60 60" fill="none" xmlns="http://www.w3.org/2000/svg">
<g clip-path="url(#clip0)">
<path d="M30 24.6099H28.2422V52.9689H30H31.7578V24.6099H30Z" fill="#59C36A"/>
<path d="M30 24.6099H31.7578V52.9689H30V24.6099Z" fill="#00A66C"/>
<path d="M53.7119 34.531C53.2415 34.059 52.5429 33.8924 51.9095 34.107C51.4357 34.2666 40.2212 38.0792 33.8252 44.4753C32.0401 46.2604 30.8384 48.0501 30.0006 49.7358C29.1629 48.0501 27.9611 46.2603 26.176 44.4753C19.78 38.0793 8.5655 34.2667 8.09171 34.107C7.45656 33.8924 6.7613 34.059 6.28927 34.531C5.81725 35.003 5.65412 35.7 5.86529 36.3334C6.0249 36.8072 9.83743 48.0217 16.2336 54.4177C21.0949 59.2791 26.0559 60.0001 28.569 60.0001H30.0007H31.4324C33.9454 60.0001 38.9064 59.2792 43.7679 54.4177C50.1639 48.0217 53.9764 36.8072 54.1361 36.3334C54.3471 35.6999 54.1839 35.003 53.7119 34.531Z" fill="#97DE3D"/>
<path d="M43.767 54.4177C50.163 48.0217 53.9756 36.8072 54.1353 36.3334C54.3465 35.7 54.1833 35.003 53.7113 34.531C53.2409 34.059 52.5423 33.8924 51.9089 34.107C51.4351 34.2666 40.2206 38.0792 33.8246 44.4753C32.0395 46.2604 30.8378 48.0501 30 49.7358V60.0001H31.4317C33.9447 60.0001 38.9057 59.2791 43.767 54.4177Z" fill="#59C36A"/>
<path d="M41.333 0.186173C40.569 -0.194917 39.6508 0.0248073 39.1409 0.704604L33.8486 7.76155L30 28.1255H30.8291C42.2444 28.1255 49.3357 22.3817 49.3357 13.1344C49.3357 7.61554 46.2699 2.65458 41.333 0.186173Z" fill="#CD0000"/>
<path d="M26.1512 7.76143L20.8589 0.704482C20.349 0.0246852 19.4256 -0.195039 18.6668 0.186051C13.7299 2.65446 10.6641 7.61542 10.6641 13.1343C10.6641 22.3816 17.7553 28.1253 29.1707 28.1253H29.9998L26.1512 7.76143Z" fill="#F03800"/>
<path d="M31.1733 0.448735C30.8403 0.150028 30.4206 0.000732422 30.0009 0.000732422C29.5811 0.000732422 29.1615 0.150028 28.8284 0.448735C28.5178 0.726818 21.2119 7.36658 21.2119 15.8209C21.2119 24.6802 29.0224 27.8713 29.3538 28.0018C29.5614 28.0842 29.7811 28.1254 30.0009 28.1254C30.2205 28.1254 30.4403 28.0842 30.648 28.0018C30.9793 27.8713 38.7898 24.6801 38.7898 15.8209C38.7898 7.36658 31.484 0.726818 31.1733 0.448735Z" fill="#FF641A"/>
<path d="M38.789 15.8209C38.789 7.36658 31.4831 0.726818 31.1724 0.448735C30.8394 0.150028 30.4198 0.000732422 30 0.000732422V28.1254C30.2196 28.1254 30.4394 28.0842 30.6471 28.0018C30.9784 27.8713 38.789 24.6801 38.789 15.8209Z" fill="#F03800"/>
</g>
<defs>
<clipPath id="clip0">
<rect width="60" height="60" fill="white"/>
</clipPath>
</defs>
</svg>
