<svg width="60" height="60" viewBox="0 0 60 60" fill="none" xmlns="http://www.w3.org/2000/svg">
<path d="M13.1107 8.75045C13.1107 19.1745 27.6138 27.324 29.7248 28.4095C29.8978 28.4984 30.1018 28.4984 30.2748 28.4095C32.3858 27.3241 46.8891 19.544 46.8891 8.75045C46.8892 8.75057 46.8893 8.75068 46.8894 8.75068C46.8732 8.57479 46.8533 8.3983 46.8291 8.22111C45.3328 -2.71623 32.0877 -1.63576 29.9999 5.0267C27.912 -1.63576 14.667 -2.71623 13.1707 8.22111C13.1464 8.39842 13.1265 8.57502 13.1104 8.75092C13.1105 8.75069 13.1106 8.75057 13.1107 8.75045Z" fill="#DA4A54"/>
<path d="M29.7246 27.3543C27.6136 26.2689 14.0359 18.9103 13.1105 8.75C12.0752 20.0225 27.459 28.3666 29.7232 29.531C29.8971 29.6204 30.1021 29.6204 30.2761 29.531C32.5403 28.3666 47.9241 20.0225 46.8888 8.75C45.9633 18.9103 32.3857 26.2688 30.2746 27.3543C30.1016 27.4433 29.8975 27.4433 29.7246 27.3543Z" fill="#D82E3D"/>
<path d="M8.04313 20.6146L9.3398 29.9991C9.43473 30.3369 9.79531 30.5209 10.126 30.404C10.6 30.2367 12.6917 29.2161 12.6917 29.2161V22.1087C12.6917 20.6916 11.543 19.543 10.1261 19.543C9.26668 19.543 8.5066 19.9659 8.04102 20.6146C8.0416 20.6148 8.04242 20.6146 8.04313 20.6146Z" fill="#EDBCA4"/>
<path d="M10.0304 34.3909L10.0312 34.3919C9.82004 33.4269 10.1326 32.3803 10.9353 31.6938C11.4454 31.2575 12.0688 31.0396 12.6917 31.0303V22.1086C12.6917 20.6915 11.543 19.543 10.1261 19.543C8.70922 19.543 7.56055 20.6916 7.56055 22.1086V25.6031L10.0304 34.3909Z" fill="#EDBCA4"/>
<path d="M12.692 29.2167C12.1825 29.2214 11.6809 29.3107 11.2068 29.4781C10.876 29.595 10.5154 29.411 10.4205 29.0732L8.04324 20.6152C7.74066 21.0363 7.56055 21.5512 7.56055 22.1093V27.7227L9.89094 36.4239L12.6918 31.031V29.2167H12.692Z" fill="#EAAB92"/>
<path d="M26.8251 46.5635C26.33 40.8583 20.0285 37.9663 20.0285 37.9663L14.8241 31.9815C13.8266 30.8343 12.0906 30.7061 10.9353 31.6941C10.1326 32.3807 9.82005 33.4273 10.0312 34.3924L10.0304 34.3912L6.17329 20.6686C5.76489 19.2157 4.39626 18.2839 2.93763 18.3821C1.48989 18.846 0.972394 20.1186 1.2015 21.1272L4.21193 34.3866C4.6911 36.497 5.52513 38.5108 6.67837 40.342L12.3321 49.3189C13.2784 50.8215 13.7805 52.5609 13.7805 54.3366V58.9867L14.8352 59.9993H24.1047C24.4387 59.9993 24.7095 59.7284 24.7095 59.3944V55.8738C24.7095 54.5096 25.0381 53.1656 25.6736 51.9584C26.3205 50.7296 27.0213 48.8252 26.8251 46.5635Z" fill="#FFD6BD"/>
<path d="M11.9586 33.5681C11.4328 32.9472 11.2306 32.1622 11.3299 31.4141C11.1929 31.495 11.06 31.5863 10.935 31.6932C9.77693 32.6837 9.63689 34.4239 10.6219 35.5868L15.5721 41.4313C16.5766 40.65 16.7278 39.189 15.9044 38.2187L11.9586 33.5681Z" fill="#F9C6AA"/>
<path d="M12.6577 59.3933V55.4242C12.6577 53.6485 12.1556 51.909 11.2093 50.4064L5.55559 41.4295C4.40223 39.5983 3.56833 37.5846 3.08915 35.4742L0.0787158 22.2148C-0.302612 20.5352 0.737896 18.8614 2.41274 18.4601C2.58805 18.4181 2.76336 18.3926 2.93762 18.3809C2.31149 19.1109 2.02708 20.1173 2.25618 21.126L5.26661 34.3854C5.74579 36.4958 6.57981 38.5096 7.73305 40.3407L13.3868 49.3176C14.3331 50.8202 14.8352 52.5596 14.8352 54.3354V59.9981H13.2627C12.9284 59.9981 12.6577 59.7273 12.6577 59.3933Z" fill="#F9C6AA"/>
<path d="M51.9561 20.6146L50.6594 29.9991C50.5645 30.3369 50.2039 30.5209 49.8732 30.404C49.3992 30.2367 47.3076 29.2161 47.3076 29.2161V22.1087C47.3076 20.6916 48.4563 19.543 49.8732 19.543C50.7325 19.543 51.4927 19.9659 51.9583 20.6146C51.9576 20.6148 51.9568 20.6146 51.9561 20.6146Z" fill="#EDBCA4"/>
<path d="M49.9691 34.3909L49.9681 34.3919C50.1793 33.4269 49.8668 32.3803 49.064 31.6938C48.5539 31.2575 47.9306 31.0396 47.3076 31.0303V22.1086C47.3076 20.6915 48.4563 19.543 49.8732 19.543C51.2901 19.543 52.4388 20.6916 52.4388 22.1086V25.6031L49.9691 34.3909Z" fill="#EDBCA4"/>
<path d="M47.3076 29.2167C47.817 29.2214 48.3187 29.3107 48.7927 29.4781C49.1236 29.595 49.4841 29.411 49.5791 29.0732L51.9563 20.6152C52.2589 21.0363 52.439 21.5512 52.439 22.1093V27.7227L50.1086 36.4239L47.3077 31.031V29.2167H47.3076Z" fill="#EAAB92"/>
<path d="M33.1742 46.5635C33.6693 40.8583 39.9708 37.9663 39.9708 37.9663L45.1753 31.9815C46.1729 30.8343 47.9088 30.7061 49.064 31.6941C49.8668 32.3807 50.1793 33.4273 49.9681 34.3924L49.9691 34.3912L53.8259 20.6686C54.2343 19.2157 55.603 18.2839 57.0616 18.3821C58.5093 18.846 59.0268 20.1186 58.7977 21.1272L55.7873 34.3866C55.3081 36.497 54.4741 38.5108 53.3209 40.342L47.6671 49.3189C46.7209 50.8215 46.2187 52.5609 46.2187 54.3366V58.9867L45.164 59.9993H35.8945C35.5605 59.9993 35.2897 59.7284 35.2897 59.3944V55.8738C35.2897 54.5096 34.9611 53.1656 34.3256 51.9584C33.6788 50.7296 32.9779 48.8252 33.1742 46.5635Z" fill="#FFD6BD"/>
<path d="M48.0405 33.5681C48.5664 32.9472 48.7685 32.1622 48.6692 31.4141C48.8062 31.495 48.9391 31.5863 49.0642 31.6932C50.2222 32.6837 50.3622 34.4239 49.3773 35.5868L44.4271 41.4313C43.4225 40.65 43.2714 39.189 44.0947 38.2187L48.0405 33.5681Z" fill="#F9C6AA"/>
<path d="M47.3415 59.3933V55.4242C47.3415 53.6485 47.8437 51.909 48.79 50.4064L54.4437 41.4295C55.597 39.5983 56.4309 37.5846 56.9101 35.4742L59.9206 22.2148C60.3019 20.5352 59.2614 18.8614 57.5865 18.4601C57.4112 18.4181 57.2359 18.3926 57.0617 18.3809C57.6878 19.1109 57.9722 20.1173 57.7431 21.126L54.7327 34.3854C54.2535 36.4958 53.4196 38.5096 52.2662 40.3407L46.6125 49.3176C45.6662 50.8202 45.1641 52.5596 45.1641 54.3354V59.9981H46.7366C47.0707 59.9981 47.3415 59.7273 47.3415 59.3933Z" fill="#F9C6AA"/>
</svg>
