<svg width="60" height="60" viewBox="0 0 60 60" fill="none" xmlns="http://www.w3.org/2000/svg">
<g clip-path="url(#clip0)">
<path d="M10.9196 17.2891H8.89989C8.40782 17.2891 8.00879 17.6879 8.00879 18.1802V19.7841V22.9327C8.00879 23.4248 8.40782 23.8238 8.89989 23.8238H10.9196C11.1747 23.8238 11.4179 23.7754 11.6438 23.6911C12.2084 23.4803 12.6564 23.0318 12.8669 22.4669C12.9508 22.2416 12.9988 21.9989 12.9988 21.7446C12.9988 21.3028 12.8594 20.8937 12.6236 20.5564C12.8594 20.2193 12.9988 19.81 12.9988 19.3683C12.9989 18.2218 12.0661 17.2891 10.9196 17.2891ZM10.9196 22.0415H9.79088V21.4475H10.9196C11.0834 21.4475 11.2167 21.5808 11.2167 21.7446C11.2167 21.9084 11.0834 22.0415 10.9196 22.0415ZM10.9196 19.6653H9.79088V19.0713H10.9196C11.0834 19.0713 11.2167 19.2045 11.2167 19.3683C11.2167 19.5322 11.0834 19.6653 10.9196 19.6653Z" fill="#B32834"/>
<path d="M23.2973 22.248L22.2052 21.3379C23.0258 21.0595 23.6181 20.2817 23.6181 19.3682C23.6181 18.2218 22.6853 17.2891 21.5389 17.2891H19.8755C19.8145 17.2891 19.7549 17.2953 19.6973 17.3069C19.6396 17.2953 19.5801 17.2891 19.519 17.2891C19.027 17.2891 18.6279 17.688 18.6279 18.1802V22.9327C18.6279 23.4247 19.027 23.8238 19.519 23.8238C20.0111 23.8238 20.4101 23.4247 20.4101 22.9327V22.1619L22.1566 23.6173C22.3231 23.7561 22.5254 23.8238 22.7265 23.8238C22.9817 23.8238 23.2352 23.7145 23.4116 23.5032C23.7265 23.1251 23.6754 22.563 23.2973 22.248ZM21.5388 19.6653H20.41V19.0713H21.5388C21.7025 19.0713 21.8359 19.2045 21.8359 19.3683C21.8359 19.5322 21.7025 19.6653 21.5388 19.6653Z" fill="#B32834"/>
<path d="M28.763 17.2891H25.1987C24.7066 17.2891 24.3076 17.688 24.3076 18.1802C24.3076 18.6722 24.7066 19.0713 25.1987 19.0713H26.0898V22.9327C26.0898 23.4247 26.4887 23.8238 26.9809 23.8238C27.473 23.8238 27.872 23.4247 27.872 22.9327V19.0713H28.7631C29.2552 19.0713 29.6543 18.6722 29.6543 18.1802C29.6541 17.6881 29.2552 17.2891 28.763 17.2891Z" fill="#B32834"/>
<path d="M16.8815 19.0713C17.3736 19.0713 17.7726 18.6725 17.7726 18.1802C17.7726 17.688 17.3736 17.2891 16.8815 17.2891H14.5054C14.0133 17.2891 13.6143 17.6879 13.6143 18.1802C13.6143 18.6724 14.0133 19.0713 14.5054 19.0713H14.8024V22.0415H14.5054C14.0133 22.0415 13.6143 22.4403 13.6143 22.9327C13.6143 23.4248 14.0133 23.8238 14.5054 23.8238H16.8815C17.3736 23.8238 17.7726 23.425 17.7726 22.9327C17.7726 22.4405 17.3736 22.0415 16.8815 22.0415H16.5845V19.0713H16.8815Z" fill="#B32834"/>
<path d="M34.3034 17.6195C34.2719 17.6195 34.1103 17.8947 34.1103 18.1724C34.1103 18.7213 34.109 19.2165 34.1074 19.6652H32.343C32.3749 18.0422 32.3813 17.2812 31.437 17.2812C30.9449 17.2812 30.5459 17.68 30.5459 18.1724V22.9248C30.5459 23.6433 31.353 24.0285 31.8542 23.712C32.3965 23.4242 32.3477 23.0547 32.3315 21.4474H34.1012C34.1001 22.9684 34.1285 23.4779 34.3034 23.4779C34.8165 24.1235 35.8925 23.7848 35.8925 22.925V18.1725C35.8925 17.3271 34.8251 16.9631 34.3034 17.6195Z" fill="#B32834"/>
<path d="M38.9814 17.2891H37.7934C37.3013 17.2891 36.9023 17.6879 36.9023 18.1802V22.9327C36.9023 23.4248 37.3013 23.8238 37.7934 23.8238H38.9814C40.7829 23.8238 42.2487 22.358 42.2487 20.5564C42.2487 18.7549 40.7829 17.2891 38.9814 17.2891ZM38.9814 22.0415H38.6844V19.0713H38.9814C39.8003 19.0713 40.4665 19.7375 40.4665 20.5564C40.4665 21.3754 39.8004 22.0415 38.9814 22.0415Z" fill="#B32834"/>
<path d="M52.3585 17.4337C51.9464 17.1653 51.3944 17.281 51.1253 17.6934L50.0895 19.2815L49.0537 17.6934C48.7847 17.281 48.2323 17.1653 47.8205 17.4337C47.4082 17.7026 47.292 18.2548 47.5608 18.6669L49.1983 21.1777V22.9327C49.1983 23.4249 49.5971 23.8238 50.0894 23.8238C50.5817 23.8238 50.9805 23.425 50.9805 22.9327V21.1777L52.618 18.6669C52.8869 18.2548 52.7707 17.7027 52.3585 17.4337Z" fill="#B32834"/>
<path d="M46.1425 17.8672C46.012 17.5193 45.6796 17.2891 45.3082 17.2891C44.9368 17.2891 44.6042 17.5195 44.4739 17.8672L42.6917 22.6196C42.519 23.0805 42.7524 23.5942 43.2132 23.7669C43.6383 23.9262 44.1074 23.7397 44.3134 23.3484H46.3042C46.4603 23.6443 46.7661 23.8239 47.0906 23.8239C47.1946 23.8239 47.3003 23.8056 47.4034 23.7669C47.8642 23.5942 48.0977 23.0805 47.9249 22.6196L46.1425 17.8672ZM44.99 21.5662L45.3081 20.7179L45.6261 21.5662H44.99Z" fill="#B32834"/>
<path d="M18.8181 9.88899C18.7866 9.88899 18.625 10.1643 18.625 10.4419C18.625 10.9908 18.6237 11.486 18.622 11.9348H16.8576C16.8895 10.3117 16.896 9.55078 15.9517 9.55078C15.4596 9.55078 15.0605 9.94958 15.0605 10.4419V15.1944C15.0605 15.9129 15.8676 16.2981 16.369 15.9815C16.9113 15.6937 16.8624 15.3242 16.8463 13.717H18.6159C18.6149 15.238 18.6433 15.7474 18.8182 15.7474C19.3313 16.393 20.4073 16.0543 20.4073 15.1945V10.4419C20.4071 9.5966 19.3396 9.23273 18.8181 9.88899Z" fill="#D9435B"/>
<path d="M30.4905 9.55469C29.8626 9.55469 29.3997 9.55469 28.7583 9.55469C28.2662 9.55469 27.8672 9.95348 27.8672 10.4458V15.1983C27.8672 15.6904 28.2662 16.0894 28.7583 16.0894C29.2504 16.0894 29.6494 15.6904 29.6494 15.1983V14.3764H30.4905C31.8199 14.3764 32.9014 13.2949 32.9014 11.9656C32.9014 10.6362 31.8199 9.55469 30.4905 9.55469ZM30.4905 12.5942H29.6494V11.3368H30.4905C30.8371 11.3368 31.1192 11.6189 31.1192 11.9655C31.1192 12.3122 30.8371 12.5942 30.4905 12.5942Z" fill="#D9435B"/>
<path d="M36.4318 9.55469C35.8039 9.55469 35.341 9.55469 34.6997 9.55469C34.2076 9.55469 33.8086 9.95348 33.8086 10.4458V15.1983C33.8086 15.6904 34.2076 16.0894 34.6997 16.0894C35.1918 16.0894 35.5908 15.6904 35.5908 15.1983V14.3764H36.4318C37.7611 14.3764 38.8427 13.2949 38.8427 11.9656C38.8427 10.6362 37.7613 9.55469 36.4318 9.55469ZM36.4318 12.5942H35.5908V11.3368H36.4318C36.7784 11.3368 37.0605 11.6189 37.0605 11.9655C37.0605 12.3122 36.7784 12.5942 36.4318 12.5942Z" fill="#D9435B"/>
<path d="M44.3566 9.69936C43.9444 9.43088 43.3925 9.54666 43.1234 9.95905L42.0876 11.5471L41.0517 9.95905C40.7828 9.54666 40.2304 9.43088 39.8185 9.69936C39.4063 9.96819 39.29 10.5204 39.5589 10.9325L41.1963 13.4433V15.1983C41.1963 15.6905 41.5953 16.0894 42.0875 16.0894C42.5796 16.0894 42.9786 15.6906 42.9786 15.1983V13.4433L44.616 10.9325C44.885 10.5203 44.7687 9.96819 44.3566 9.69936Z" fill="#D9435B"/>
<path d="M24.9931 10.1367C24.8626 9.78887 24.5302 9.55859 24.1588 9.55859C23.7874 9.55859 23.4548 9.78899 23.3245 10.1367L21.5423 14.8892C21.3696 15.3501 21.603 15.8637 22.0638 16.0365C22.4888 16.1957 22.9579 16.0093 23.164 15.618H25.1548C25.3109 15.9139 25.6167 16.0934 25.9412 16.0934C26.0452 16.0934 26.1509 16.0751 26.254 16.0365C26.7148 15.8637 26.9482 15.3501 26.7755 14.8892L24.9931 10.1367ZM23.8405 13.8358L24.1585 12.9874L24.4766 13.8358H23.8405Z" fill="#D9435B"/>
<path d="M58.188 27.8613H49.7162C42.6477 27.8613 35.8123 30.3899 30.4455 34.9901L20.9404 49.4256L30.4454 59.94C31.383 59.94 32.2948 59.6491 33.0702 59.122C37.959 55.7987 43.7543 53.9994 49.7161 53.9994H58.188C59.1723 53.9994 59.9703 53.2015 59.9703 52.2172V29.6434C59.9703 28.6593 59.1723 27.8613 58.188 27.8613Z" fill="#FF7C8B"/>
<path d="M58.1881 53.9994C59.1723 53.9994 59.9703 53.2015 59.9703 52.2172V29.6435C59.9703 28.6593 59.1723 27.8613 58.1881 27.8613H57.9783C57.5549 28.3343 57.2971 28.9587 57.2971 29.6435V51.3261H49.7162C43.2181 51.3261 36.9423 53.2574 31.5674 56.9112C31.2288 57.1414 30.8454 57.2642 30.4578 57.2667L30.3177 57.265C29.9339 57.2606 29.5551 57.1387 29.2221 56.9122C29.1184 56.8416 29.0136 56.7729 28.9092 56.7037L30.4456 59.94C31.3833 59.94 32.295 59.6491 33.0704 59.122C37.9592 55.7987 43.7546 53.9994 49.7163 53.9994H58.1881Z" fill="#FF6473"/>
<path d="M30.4446 34.9901L28.8362 33.7836C23.7107 29.9393 17.4764 27.8613 11.0694 27.8613H2.70213C1.71786 27.8613 0.919922 28.6593 0.919922 29.6435V52.2172C0.919922 53.2015 1.71786 53.9994 2.70213 53.9994H11.0693C17.0174 53.9994 22.8166 55.7905 27.7181 59.123C28.4775 59.6393 29.3683 59.9278 30.2863 59.9382L30.4446 59.94V34.9901Z" fill="#FFB545" stroke="#FFCF5D" stroke-miterlimit="10"/>
<path d="M11.0694 53.9995C17.0175 53.9995 22.8167 55.7906 27.7182 59.1231C28.4776 59.6393 29.3684 59.9279 30.2864 59.9383L30.4448 59.94V57.2666L30.3168 57.2651C29.933 57.2606 29.5542 57.1387 29.2212 56.9122C23.8462 53.2578 17.5696 51.3262 11.0693 51.3262H2.70213C2.01728 51.3262 1.3929 51.584 0.919922 52.0073V52.2172C0.919922 53.2014 1.71786 53.9994 2.70213 53.9994H11.0694V53.9995Z" fill="#FF983B"/>
<path d="M28.6822 28.5517L29.0106 28.6595L28.8038 28.9466C28.5162 29.3461 28.6071 29.9029 29.0064 30.1905C29.164 30.3038 29.3461 30.3585 29.5263 30.3585C29.8032 30.3585 30.0762 30.2297 30.2502 29.988L30.4449 29.7175L30.6397 29.988C30.8137 30.2298 31.0868 30.3585 31.3636 30.3585C31.5439 30.3585 31.7259 30.3039 31.8834 30.1905C32.2828 29.9029 32.3735 29.3462 32.0861 28.9466L31.8793 28.6595L32.2077 28.5517C32.6754 28.3983 32.9301 27.8948 32.7767 27.4273C32.6233 26.9594 32.1196 26.7049 31.6522 26.8582L31.3358 26.9619V26.6157C31.3358 26.1235 30.9369 25.7246 30.4447 25.7246C29.9525 25.7246 29.5536 26.1234 29.5536 26.6157V26.9619L29.2372 26.8582C28.7695 26.7053 28.2662 26.9597 28.1128 27.4273C27.9598 27.8947 28.2146 28.3983 28.6822 28.5517Z" fill="#FFCF5D"/>
<path d="M52.2863 12.7863L52.0796 12.4992L52.4081 12.3914C52.8758 12.238 53.1305 11.7346 52.9771 11.267C52.8237 10.7992 52.32 10.5446 51.8526 10.6979L51.5362 10.8016V10.4556C51.5362 9.96336 51.1372 9.56445 50.6451 9.56445C50.153 9.56445 49.754 9.96325 49.754 10.4556V10.8016L49.4376 10.6979C48.97 10.5452 48.4667 10.7994 48.3132 11.267C48.1598 11.7347 48.4147 12.238 48.8821 12.3914L49.2106 12.4992L49.0039 12.7863C48.7165 13.1858 48.8071 13.7426 49.2066 14.0302C49.6066 14.3181 50.163 14.2267 50.4505 13.8276L50.6451 13.5571C50.8324 13.8171 51.0372 14.1981 51.5638 14.1981C52.2815 14.1982 52.7129 13.3792 52.2863 12.7863Z" fill="#FFCF5D"/>
<path d="M20.9581 3.569L20.6417 3.67271V3.32665C20.6417 2.83446 20.2427 2.43555 19.7506 2.43555C19.2585 2.43555 18.8595 2.83434 18.8595 3.32665V3.67271L18.5431 3.569C18.0754 3.41619 17.572 3.67049 17.4186 4.13807C17.2652 4.60577 17.5201 5.1091 17.9876 5.2625L18.3161 5.37031L18.1094 5.65754C17.8219 6.05692 17.9126 6.61381 18.3121 6.90127C18.7121 7.18909 19.2684 7.0978 19.5559 6.69853L19.7506 6.42818C19.9445 6.6976 20.1463 7.06932 20.6692 7.06932C21.387 7.06932 21.8183 6.25029 21.3917 5.65743L21.185 5.37031L21.5135 5.2625C21.9812 5.1091 22.2358 4.60565 22.0824 4.13807C21.9293 3.67049 21.4256 3.41572 20.9581 3.569Z" fill="#FFCF5D"/>
<path d="M44.7228 36.8385L44.4064 36.9422V36.5962C44.4064 36.104 44.0073 35.7051 43.5152 35.7051C43.0232 35.7051 42.6241 36.1039 42.6241 36.5962V36.9422L42.3077 36.8385C41.84 36.6857 41.3367 36.94 41.1833 37.4076C41.0299 37.8752 41.2848 38.3786 41.7522 38.532L42.0807 38.6398L41.874 38.9272C41.4474 39.5198 41.8789 40.339 42.5965 40.339C43.1159 40.339 43.3178 39.9719 43.515 39.6978L43.7097 39.9683C43.997 40.3677 44.5537 40.4585 44.9535 40.1709C45.353 39.8833 45.4436 39.3267 45.1562 38.9271L44.9495 38.64L45.278 38.5321C45.7457 38.3787 46.0004 37.8753 45.847 37.4077C45.6939 36.9399 45.1902 36.6854 44.7228 36.8385Z" fill="#FFCF5D"/>
<path d="M30.3843 1.78221C30.8764 1.78221 31.2754 1.38325 31.2754 0.891106C31.2754 0.398962 30.8764 0 30.3843 0C29.8921 0 29.4932 0.398962 29.4932 0.891106C29.4932 1.38325 29.8921 1.78221 30.3843 1.78221Z" fill="#FFCF5D"/>
<path d="M7.8081 12.6435C8.30024 12.6435 8.6992 12.2446 8.6992 11.7524C8.6992 11.2603 8.30024 10.8613 7.8081 10.8613C7.31595 10.8613 6.91699 11.2603 6.91699 11.7524C6.91699 12.2446 7.31595 12.6435 7.8081 12.6435Z" fill="#FFCF5D"/>
<path d="M55.3364 24.5244C55.8286 24.5244 56.2275 24.1254 56.2275 23.6333C56.2275 23.1411 55.8286 22.7422 55.3364 22.7422C54.8443 22.7422 54.4453 23.1411 54.4453 23.6333C54.4453 24.1254 54.8443 24.5244 55.3364 24.5244Z" fill="#FFCF5D"/>
<path d="M46.187 15.5635C46.6792 15.5635 47.0781 15.1645 47.0781 14.6724C47.0781 14.1802 46.6792 13.7812 46.187 13.7812C45.6949 13.7812 45.2959 14.1802 45.2959 14.6724C45.2959 15.1645 45.6949 15.5635 46.187 15.5635Z" fill="#FFCF5D"/>
<path d="M12.3257 45.8623C12.8178 45.8623 13.2168 45.4633 13.2168 44.9712C13.2168 44.479 12.8178 44.0801 12.3257 44.0801C11.8335 44.0801 11.4346 44.479 11.4346 44.9712C11.4346 45.4633 11.8335 45.8623 12.3257 45.8623Z" fill="#FFCF5D"/>
<path d="M51.5366 48.2373C52.0288 48.2373 52.4277 47.8383 52.4277 47.3462C52.4277 46.854 52.0288 46.4551 51.5366 46.4551C51.0445 46.4551 50.6455 46.854 50.6455 47.3462C50.6455 47.8383 51.0445 48.2373 51.5366 48.2373Z" fill="#FFCF5D"/>
<path d="M5.19677 42.2978C5.68891 42.2978 6.08788 41.8989 6.08788 41.4067C6.08788 40.9146 5.68891 40.5156 5.19677 40.5156C4.70463 40.5156 4.30566 40.9146 4.30566 41.4067C4.30566 41.8989 4.70463 42.2978 5.19677 42.2978Z" fill="#FFCF5D"/>
<path d="M0.920403 21.7861C1.41255 21.7861 1.81151 21.3872 1.81151 20.895C1.81151 20.4029 1.41255 20.0039 0.920403 20.0039C0.428259 20.0039 0.0292969 20.4029 0.0292969 20.895C0.0292969 21.3872 0.428259 21.7861 0.920403 21.7861Z" fill="#FFCF5D"/>
<path d="M20.6516 29.0652L18.454 28.7459L17.4712 26.7546C17.1443 26.0922 16.1999 26.0922 15.8731 26.7546L14.8902 28.7459L12.6927 29.0652C11.9618 29.1714 11.67 30.0696 12.1987 30.585L13.7888 32.1351L13.4135 34.3237C13.2886 35.0516 14.0528 35.6068 14.7064 35.2631L16.2573 34.4478C16.5169 34.3113 16.827 34.3113 17.0867 34.4478L18.6375 35.2631C19.2912 35.6068 20.0553 35.0516 19.9305 34.3237L19.5551 32.1351L21.1453 30.585C21.6743 30.0696 21.3825 29.1713 20.6516 29.0652Z" fill="#FFCF5D"/>
<path d="M35.4294 41.6938L32.6771 41.2938L31.4462 38.7998C31.0369 37.9704 29.854 37.9704 29.4448 38.7998L28.2139 41.2938L25.4616 41.6938C24.5463 41.8269 24.1808 42.9518 24.8431 43.5974L26.8346 45.5387L26.3645 48.2798C26.2081 49.1914 27.165 49.8867 27.9838 49.4563L29.9261 48.4351C30.2511 48.2643 30.6396 48.2643 30.9647 48.4351L32.907 49.4563C33.7257 49.8867 34.6827 49.1914 34.5263 48.2798L34.0562 45.5387L36.0477 43.5974C36.7103 42.9518 36.3449 41.8268 35.4294 41.6938Z" fill="#FFCF5D"/>
</g>
<defs>
<clipPath id="clip0">
<rect width="60" height="60" fill="white"/>
</clipPath>
</defs>
</svg>
