<svg width="60" height="60" viewBox="0 0 60 60" fill="none" xmlns="http://www.w3.org/2000/svg">
<g clip-path="url(#clip0)">
<path d="M57.018 22.5815H55.445C56.2502 22.5815 56.9781 22.9074 57.5069 23.435C58.0441 23.9734 58.3725 24.7207 58.3592 25.5452C58.3338 27.1484 56.9805 28.4136 55.3786 28.4136H53.8055C54.6096 28.4136 55.3399 28.7395 55.8675 29.2671C56.4047 29.8055 56.7343 30.5528 56.721 31.3773C56.6944 32.9793 55.3423 34.2445 53.7404 34.2445H38.667L31.9777 40.9337L27.5557 36.5116L44.1888 19.8785C46.1928 17.8745 48.9102 16.7482 51.7436 16.7482H57.0832C57.8896 16.7482 58.6187 17.0753 59.1463 17.6029C59.6847 18.1425 60.0143 18.8922 59.9998 19.7179C59.9708 21.3187 58.6187 22.5815 57.018 22.5815Z" fill="#ECF4FF"/>
<path d="M60.0001 19.7179C59.9929 20.091 59.9144 20.4459 59.7768 20.7706C59.3265 21.839 58.246 22.5815 57.0183 22.5815H55.4453C56.2505 22.5815 56.9784 22.9074 57.5072 23.435C58.0444 23.9734 58.3728 24.7207 58.3595 25.5452C58.3535 25.9207 58.275 26.2768 58.1362 26.6027C57.6871 27.6711 56.6066 28.4136 55.3789 28.4136H53.8059C54.6099 28.4136 55.3402 28.7395 55.8678 29.2671C56.405 29.8055 56.7346 30.5528 56.7213 31.3773C56.6948 32.9793 55.3427 34.2445 53.7407 34.2445H50.2808C51.8828 34.2445 53.2348 32.9793 53.2602 31.3773C53.2735 30.5528 52.9451 29.8055 52.4067 29.2671C51.8791 28.7395 51.15 28.4136 50.3447 28.4136H50.6164C50.0777 28.4136 49.6484 27.9424 49.7184 27.3901C49.7763 26.9334 50.1866 26.6027 50.6469 26.6027H53.806C54.3917 26.6027 54.8877 26.1421 54.8994 25.5564C54.8995 25.5527 54.8995 25.5489 54.8996 25.5452C54.9129 24.7207 54.5833 23.9734 54.0461 23.435C53.5173 22.9074 52.7894 22.5815 51.9842 22.5815H50.6469C50.1866 22.5815 49.7763 22.2508 49.7184 21.7941C49.6484 21.2417 50.0777 20.7706 50.6164 20.7706H55.447C56.0305 20.7706 56.5251 20.3126 56.5388 19.7292C56.5389 19.7254 56.5389 19.7217 56.539 19.7179C56.5535 18.8922 56.2239 18.1425 55.6855 17.6029C55.158 17.0753 54.4288 16.7482 53.6236 16.7482H57.0835C57.8899 16.7482 58.6191 17.0753 59.1466 17.6029C59.685 18.1425 60.0146 18.8922 60.0001 19.7179Z" fill="#D2E5FD"/>
<path d="M32.4446 36.5116L28.0225 40.9337L25.9099 38.821L21.3333 34.2445H6.25992C4.65793 34.2445 3.30584 32.9793 3.27928 31.3773C3.266 30.5528 3.59557 29.8055 4.13279 29.2671C4.66034 28.7395 5.39071 28.4136 6.19473 28.4136H4.62171C3.39397 28.4136 2.3135 27.6711 1.86441 26.6027C1.72558 26.2768 1.64711 25.9207 1.64108 25.5452C1.6278 24.7207 1.95616 23.9734 2.49338 23.435C3.02214 22.9074 3.7501 22.5815 4.55532 22.5815H2.9823C1.75456 22.5815 0.67409 21.839 0.223795 20.7706C0.0861716 20.4459 0.00770209 20.091 0.000458744 19.7179C-0.0140279 18.8922 0.315544 18.1425 0.853966 17.6029C1.38152 17.0753 2.11069 16.7482 2.91711 16.7482H8.25666C11.09 16.7482 13.8075 17.8745 15.8115 19.8785L32.4446 36.5116Z" fill="#ECF4FF"/>
<path d="M32.4445 36.5116L28.0224 40.9337L25.9098 38.821L28.2192 36.5116L11.5861 19.8785C9.58206 17.8745 6.8646 16.7482 4.03125 16.7482H8.25653C11.0899 16.7482 13.8073 17.8745 15.8113 19.8785L32.4445 36.5116Z" fill="#D2E5FD"/>
<path d="M43.8446 34.9954L32.6669 46.1731C31.5152 47.3248 29.8046 47.5759 28.4078 46.9264C28.0191 46.7454 27.6545 46.4943 27.3334 46.1731L16.1557 34.9954C12.3155 31.1553 12.2045 24.8982 16.0169 21.0291C19.4768 17.5173 24.9105 17.1539 28.7797 19.939C29.5064 20.4617 30.4939 20.4617 31.2207 19.939C32.4545 19.0516 33.8476 18.483 35.2842 18.2344C38.3542 17.7056 41.6269 18.6364 43.9834 21.0291C47.7959 24.8982 47.6848 31.1553 43.8446 34.9954Z" fill="#FD3A48"/>
<path d="M43.844 34.9954L32.6663 46.1731C31.5146 47.3248 29.804 47.5759 28.4072 46.9264C28.7972 46.7454 29.1617 46.4943 29.4829 46.1731L40.6605 34.9954C44.5007 31.1553 44.6118 24.8982 40.7994 21.0291C39.4256 19.6347 37.4385 18.7631 35.2836 18.2344C38.3535 17.7056 41.6263 18.6364 43.9828 21.0291C47.7952 24.8982 47.6842 31.1553 43.844 34.9954Z" fill="#E93140"/>
<path d="M37.1709 5.98828H22.8291C20.8251 5.98828 19.1953 7.61803 19.1953 9.62203C19.1953 11.6248 20.8251 13.2546 22.8291 13.2546H37.1709C39.1749 13.2546 40.8046 11.6248 40.8046 9.62203C40.8046 7.61803 39.1749 5.98828 37.1709 5.98828ZM37.1709 11.4437H22.8291C21.8234 11.4437 21.0061 10.6264 21.0061 9.62203C21.0061 8.61641 21.8234 7.79912 22.8291 7.79912H37.1709C38.1765 7.79912 38.9938 8.61641 38.9938 9.62203C38.9938 10.6264 38.1765 11.4437 37.1709 11.4437Z" fill="#FEF056"/>
<path d="M15.4767 54.0117C15.245 54.0117 15.0132 53.9233 14.8365 53.7465C14.4829 53.3929 14.4829 52.8196 14.8365 52.4661L18.3364 48.9662C18.69 48.6127 19.2633 48.6127 19.6167 48.9662C19.9703 49.3198 19.9703 49.8932 19.6167 50.2466L16.1169 53.7465C15.9401 53.9232 15.7083 54.0117 15.4767 54.0117Z" fill="#FEF056"/>
<path d="M45.2295 54.0117C44.9978 54.0117 44.766 53.9233 44.5893 53.7465L41.0894 50.2466C40.7358 49.893 40.7358 49.3197 41.0894 48.9662C41.443 48.6127 42.0163 48.6127 42.3698 48.9662L45.8697 52.4661C46.2232 52.8197 46.2232 53.393 45.8697 53.7465C45.6929 53.9232 45.4611 54.0117 45.2295 54.0117Z" fill="#FEF056"/>
<path d="M50.6745 44.5808C50.5969 44.5808 50.5181 44.5708 50.4396 44.5498L45.6586 43.2688C45.1756 43.1394 44.889 42.6429 45.0183 42.1599C45.1477 41.6769 45.645 41.3903 46.1273 41.5196L50.9083 42.8005C51.3913 42.93 51.6779 43.4265 51.5486 43.9095C51.4402 44.314 51.0743 44.5808 50.6745 44.5808Z" fill="#FEF056"/>
<path d="M10.0311 44.5808C9.63124 44.5808 9.26545 44.314 9.15704 43.9094C9.02763 43.4264 9.31435 42.93 9.79736 42.8005L14.5783 41.5195C15.0611 41.3903 15.5578 41.6768 15.6873 42.1598C15.8167 42.6428 15.53 43.1392 15.047 43.2688L10.266 44.5498C10.1875 44.5708 10.1086 44.5808 10.0311 44.5808Z" fill="#FEF056"/>
<path d="M9.8597 21.6762C9.8597 22.176 9.45407 22.5816 8.95428 22.5816H2.98214C1.75439 22.5816 0.673927 21.8391 0.223633 20.7708H8.95428C9.45407 20.7708 9.8597 21.1764 9.8597 21.6762Z" fill="#D2E5FD"/>
<path d="M9.86068 27.5082C9.86068 28.008 9.45505 28.4136 8.95526 28.4136H4.62253C3.39479 28.4136 2.31432 27.6712 1.86523 26.6028H8.95526C9.45505 26.6028 9.86068 27.0084 9.86068 27.5082Z" fill="#D2E5FD"/>
</g>
<defs>
<clipPath id="clip0">
<rect width="60" height="60" fill="white"/>
</clipPath>
</defs>
</svg>
