<svg width="60" height="60" viewBox="0 0 60 60" fill="none" xmlns="http://www.w3.org/2000/svg">
<path d="M40.1484 15.8203L43.7005 9.66797C44.0146 9.1241 44.0146 8.45402 43.7005 7.91016C43.3864 7.36629 42.8062 7.03125 42.1782 7.03125H35.0741L31.522 0.878906C31.2081 0.335039 30.6278 0 29.9998 0C29.3718 0 28.7914 0.335039 28.4775 0.878906L24.9254 7.03125H17.8213C17.1933 7.03125 16.613 7.36629 16.299 7.91016C15.9851 8.45402 15.985 9.1241 16.299 9.66797L19.8511 15.8203L16.299 21.9727C15.985 22.5165 15.985 23.1866 16.299 23.7305C16.6131 24.2743 17.1933 24.6094 17.8213 24.6094H24.9254L28.4775 30.7617C28.7916 31.3056 29.3718 31.6406 29.9998 31.6406C30.6278 31.6406 31.2081 31.3056 31.522 30.7617L35.0741 24.6094H42.1782C42.8062 24.6094 43.3865 24.2743 43.7005 23.7305C44.0144 23.1866 44.0146 22.5165 43.7005 21.9727L40.1484 15.8203ZM39.1336 10.5469L38.1187 12.3047L37.1039 10.5469H39.1336ZM36.0891 15.8203L33.0444 21.0938H26.9552L23.9106 15.8203L26.9552 10.5469H33.0444L36.0891 15.8203ZM29.9998 5.27344L31.0146 7.03125H28.9849L29.9998 5.27344ZM20.8659 10.5469H22.8957L21.8809 12.3047L20.8659 10.5469ZM20.8659 21.0938L21.8808 19.3359L22.8956 21.0938H20.8659ZM29.9998 26.3672L28.9849 24.6094H31.0147L29.9998 26.3672ZM37.1039 21.0938L38.1187 19.3359L39.1336 21.0938H37.1039Z" fill="#ACCEFF"/>
<path d="M40.1487 15.8203L43.7007 9.66797C44.0148 9.1241 44.0148 8.45402 43.7007 7.91016C43.3867 7.36629 42.8065 7.03125 42.1785 7.03125H35.0743L31.5223 0.878906C31.2083 0.335039 30.628 0 30 0V5.27344L31.0148 7.03125H30V10.5469H33.0446L36.0893 15.8203L33.0446 21.0938H30V24.6094H31.0148L30 26.3672V31.6406C30.628 31.6406 31.2083 31.3056 31.5223 30.7617L35.0743 24.6094H42.1785C42.8065 24.6094 43.3868 24.2743 43.7007 23.7305C44.0147 23.1866 44.0148 22.5165 43.7007 21.9727L40.1487 15.8203ZM37.1041 21.0938L38.119 19.3359L39.1338 21.0938H37.1041ZM38.119 12.3047L37.1041 10.5469H39.1339L38.119 12.3047Z" fill="#989DEC"/>
<path d="M16.9922 41.8359L10.0848 34.9286C8.36859 33.2124 8.36859 30.4299 10.0848 28.7137C11.801 26.9975 14.5835 26.9975 16.2997 28.7137L24.9476 37.3615C26.6075 39.0215 27.5217 41.2287 27.5218 43.5765V58.2421C27.5218 59.2129 26.7348 60 25.764 60H11.7015C10.7307 60 9.94371 59.2129 9.94371 58.2421V52.9415L2.04305 41.7681C0.706406 39.878 0 37.6554 0 35.3405V16.3577C0 13.9529 1.92715 11.9983 4.32129 11.9538C6.79359 11.9078 8.81355 13.9789 8.8091 16.4515C8.80629 18.0184 8.80313 25.7385 8.8002 31.7127" fill="#FFDDCE"/>
<path d="M5.28223 31.8211C5.28223 33.934 6.105 35.9204 7.59914 37.4144L14.5064 44.3216C14.8496 44.6649 15.2995 44.8366 15.7493 44.8366C16.1991 44.8366 16.6491 44.665 16.9922 44.3216C17.6787 43.6352 17.6787 42.5222 16.9922 41.8357L10.0849 34.9284C9.25488 34.0983 8.79773 32.9948 8.79773 31.821C8.79773 31.7848 8.79949 31.7488 8.80031 31.7127C8.80137 29.6548 8.80242 27.3897 8.80336 25.2402C8.37809 25.5241 7.97402 25.8527 7.59902 26.2277C6.10512 27.7219 5.28223 29.7084 5.28223 31.8211Z" fill="#FFCBBC"/>
<path d="M43.0072 41.8359L49.9146 34.9286C51.6308 33.2124 51.6308 30.4299 49.9146 28.7137C48.1983 26.9975 45.4158 26.9975 43.6996 28.7137L35.0518 37.3615C33.3918 39.0215 32.4777 41.2287 32.4775 43.5765V58.2421C32.4775 59.2129 33.2646 60 34.2353 60H48.2978C49.2686 60 50.0556 59.2129 50.0556 58.2421V52.9415L57.9563 41.7681C59.2929 39.878 59.9993 37.6554 59.9993 35.3405V16.3577C59.9993 13.9529 58.0722 11.9983 55.6781 11.9538C53.2058 11.9078 51.1858 13.9789 51.1903 16.4515C51.1931 18.0184 51.1962 25.7385 51.1992 31.7127" fill="#FFCBBC"/>
<path d="M54.718 31.8211C54.718 33.934 53.8952 35.9204 52.4011 37.4144L45.4938 44.3216C45.1506 44.6649 44.7007 44.8366 44.2509 44.8366C43.8012 44.8366 43.3512 44.665 43.008 44.3216C42.3215 43.6352 42.3215 42.5222 43.008 41.8357L49.9153 34.9284C50.7453 34.0983 51.2025 32.9948 51.2025 31.821C51.2025 31.7848 51.2007 31.7488 51.1999 31.7127C51.1989 29.6548 51.1978 27.3897 51.1969 25.2402C51.6221 25.5241 52.0262 25.8527 52.4012 26.2277C53.8951 27.7219 54.718 29.7084 54.718 31.8211Z" fill="#FFBCA7"/>
</svg>
