<svg width="60" height="60" viewBox="0 0 60 60" fill="none" xmlns="http://www.w3.org/2000/svg">
<g clip-path="url(#clip0)">
<path d="M28.2422 16.6094H30.8789V25.6537H28.2422V16.6094Z" fill="#F9F9F9"/>
<path d="M30 16.6094H31.7578V25.6537H30V16.6094Z" fill="#E2DFF4"/>
<path d="M11.1045 23.6426L14.2945 59.9996H30.0005L32.8205 41.2727L30.0005 23.6426H11.1045Z" fill="#4D88FF"/>
<path d="M48.896 23.6426H30V59.9996H45.7061L48.896 23.6426Z" fill="#005EDF"/>
<path d="M28.1706 44.1109H24.5116L26.341 40.9422L24.5116 37.7735H28.1706L30 34.6047L31.1944 32.5251L30 30.0371H28.5776L26.1408 34.2579H20.415V37.7093L22.2816 40.9422L20.415 44.1751V47.6265H26.1408L28.5776 51.8472H30L31.1944 49.7816L30 47.2796L28.1706 44.1109Z" fill="#99DDFF"/>
<path d="M28.8612 0.969023C28.8005 1.02059 27.3573 2.2548 25.9083 4.04309C23.8392 6.59672 22.79 8.98031 22.79 11.1275C22.79 15.1034 26.0245 18.3377 30.0002 18.3377L31.7581 11.0447L30.0002 0L28.8612 0.969023Z" fill="#F1CB66"/>
<path d="M37.2102 11.1275C37.2102 8.98031 36.161 6.59672 34.092 4.04309C32.6429 2.25469 31.1996 1.02059 31.1391 0.969023L30 0V18.3377C33.9758 18.3377 37.2102 15.1034 37.2102 11.1275Z" fill="#EAA64A"/>
<path d="M39.585 34.2579H33.8592L31.4224 30.0371H30V34.6047L31.8294 37.7735H35.4885L33.6591 40.9422L35.4885 44.1109H31.8294L30 47.2796V51.8472H31.4224L33.8592 47.6265H39.585V44.1751L37.7184 40.9422L39.585 37.7093V34.2579Z" fill="#66B3FF"/>
</g>
<defs>
<clipPath id="clip0">
<rect width="60" height="60" fill="white"/>
</clipPath>
</defs>
</svg>
