<svg width="60" height="60" viewBox="0 0 60 60" fill="none" xmlns="http://www.w3.org/2000/svg">
<path d="M34.6815 50.1262C34.4484 49.611 34.0325 49.2005 33.5143 48.974C33.5612 48.9271 33.5959 48.8924 33.6123 48.877C35.6571 46.9536 38.3304 45.8376 41.1357 45.7363L42.4248 47.377C42.1717 47.3629 41.9514 47.3582 41.7779 47.3582H41.7639C39.1804 47.3347 36.6837 48.2892 34.7748 50.0301C34.7457 50.0582 34.7125 50.0943 34.6815 50.1262Z" fill="#54427F"/>
<path d="M18.6761 42.6641C18.5322 42.704 18.3873 42.7462 18.2392 42.8015C17.7744 42.9748 17.3304 43.1995 16.9155 43.4713C17.0454 42.9925 17.1218 42.5008 17.1433 42.0051C17.1433 41.968 17.1433 41.9343 17.1433 41.8982C19.7214 39.104 23.1752 38.1843 24.6977 37.9082C25.3306 38.5427 26.1049 39.0182 26.957 39.2957C26.1461 39.352 25.6539 39.4223 25.6305 39.427C25.1608 39.4762 21.4375 39.9421 18.6761 42.6641Z" fill="#54427F"/>
<path d="M12.5579 20.2795C12.8322 19.8658 13.0595 19.4229 13.2357 18.959C13.4116 19.423 13.6388 19.8659 13.9131 20.2795C14.0249 20.4476 14.1467 20.609 14.2778 20.7627C14.8065 22.8224 16.2207 24.1795 17.7029 25.5951C18.0029 25.8857 18.2982 26.167 18.5748 26.4435L21.6826 29.406L18.0076 27.0388L19.5732 29.6638L17.4311 27.6201C17.1498 27.3388 16.8592 27.0623 16.5686 26.7857C14.8675 25.1582 12.9662 23.3409 12.5153 20.3371C12.5289 20.317 12.5443 20.2982 12.5579 20.2795Z" fill="#54427F"/>
<path d="M44.9616 26.5802C45.2356 26.1665 45.4627 25.7236 45.6389 25.2598C45.8148 25.7238 46.042 26.1667 46.3163 26.5802C46.3725 26.6651 46.433 26.7382 46.4916 26.8146C46.8029 34.8513 49.4358 39.513 49.4799 39.588L50.3799 41.2943L47.2768 38.7677C45.7549 34.9328 44.9326 30.8562 44.8486 26.7312C44.8857 26.6791 44.925 26.6332 44.9616 26.5802Z" fill="#54427F"/>
<path d="M29.7453 25.987C30.0247 25.985 30.3014 25.9316 30.5614 25.8295C30.5614 25.882 30.5614 25.9363 30.5656 25.9837C30.5698 26.031 30.6219 30.179 33.9031 33.0056L34.6484 33.6524L32.1406 33.5962C30.1933 31.5415 29.0516 28.8539 28.925 26.0259C28.925 25.9959 28.9208 25.9241 28.9189 25.8262C29.1819 25.931 29.4622 25.9855 29.7453 25.987Z" fill="#54427F"/>
<path d="M17.812 8.28369C18.6621 7.97946 19.5773 7.90399 20.4658 8.06482C21.3543 8.22566 22.1849 8.61716 22.8745 9.2001C22.605 9.82024 22.1581 10.3469 21.5901 10.7137C22.2651 10.6764 22.936 10.8395 23.5186 11.1824C23.3034 12.0593 22.8616 12.8642 22.2375 13.5165C21.6133 14.1688 20.8286 14.6456 19.9621 14.8992C19.1382 15.1388 18.2742 15.2095 17.4222 15.1069C16.5703 15.0044 15.7478 14.7307 15.0042 14.3024L14.152 11.6798C14.5018 10.8964 15.0064 10.1917 15.6353 9.6081C16.2642 9.02451 17.0046 8.57403 17.812 8.28369Z" fill="#FF8FB8"/>
<path d="M12.9498 15.3787L15.1811 13.7578C16.034 13.8486 16.8598 14.1108 17.6089 14.5286C18.358 14.9464 19.015 15.5112 19.5405 16.1892C20.0924 16.9038 20.4468 17.7508 20.5684 18.6455C20.6899 19.5401 20.5742 20.451 20.2328 21.2869C19.5605 21.2213 18.9226 20.9586 18.399 20.5317C18.6427 21.1625 18.6947 21.8511 18.5486 22.5112C17.6482 22.5776 16.7462 22.4062 15.9329 22.0142C15.1196 21.6221 14.4235 21.0233 13.9145 20.2777C13.4321 19.5681 13.098 18.7685 12.9322 17.9267C12.7664 17.0848 12.7724 16.2182 12.9498 15.3787Z" fill="#FF8FB8"/>
<path d="M6.93059 16.1892C7.45602 15.5112 8.113 14.9464 8.86212 14.5286C9.61123 14.1108 10.437 13.8486 11.29 13.7578L13.5212 15.3787C13.6989 16.2183 13.705 17.0852 13.5392 17.9272C13.3735 18.7692 13.0392 19.569 12.5565 20.2786C12.0475 21.0243 11.3515 21.6231 10.5382 22.0151C9.72489 22.4071 8.82287 22.5785 7.92247 22.5122C7.77634 21.852 7.82836 21.1634 8.072 20.5327C7.54773 20.9596 6.90892 21.222 6.2359 21.2869C5.89488 20.4508 5.77955 19.5398 5.90147 18.6451C6.02339 17.7505 6.37829 16.9035 6.93059 16.1892Z" fill="#FF8FB8"/>
<path d="M4.88418 10.7139C4.31637 10.3469 3.86969 9.82034 3.60027 9.20029C4.28976 8.61722 5.12039 8.22564 6.00892 8.0648C6.89745 7.90396 7.81265 7.97951 8.66278 8.28388C9.47032 8.57427 10.2108 9.02487 10.8399 9.60863C11.4689 10.1924 11.9735 10.8973 12.3232 11.6809L11.4711 14.3036C10.7274 14.7319 9.90497 15.0055 9.05298 15.108C8.201 15.2106 7.33708 15.1399 6.51309 14.9003C5.64659 14.6467 4.86194 14.1699 4.23777 13.5176C3.61359 12.8653 3.17181 12.0604 2.95668 11.1836C3.53884 10.8404 4.20943 10.677 4.88418 10.7139Z" fill="#FF8FB8"/>
<path d="M12.195 2.95703C12.7011 3.4046 13.0638 3.99164 13.2375 4.64453C13.4111 3.99155 13.7738 3.40445 14.28 2.95703C15.0477 3.43252 15.6769 4.10136 16.1047 4.89656C16.5325 5.69175 16.7438 6.58539 16.7175 7.48797C16.6908 8.34565 16.4909 9.18907 16.1301 9.9676C15.7692 10.7461 15.2547 11.4437 14.6175 12.0184H11.8594C11.2223 11.4437 10.7078 10.7461 10.347 9.96759C9.98625 9.18905 9.78654 8.34563 9.75989 7.48797C9.73329 6.5856 9.94424 5.69207 10.3716 4.89688C10.799 4.10169 11.4278 3.43274 12.195 2.95703Z" fill="#FF8FB8"/>
<path d="M11.265 13.4276C11.265 13.8177 11.3806 14.1991 11.5974 14.5234C11.8141 14.8478 12.1222 15.1006 12.4826 15.2499C12.843 15.3992 13.2396 15.4383 13.6223 15.3622C14.0049 15.2861 14.3564 15.0982 14.6322 14.8223C14.9081 14.5465 15.0959 14.195 15.1721 13.8124C15.2482 13.4298 15.2091 13.0332 15.0598 12.6727C14.9105 12.3123 14.6577 12.0042 14.3333 11.7875C14.0089 11.5708 13.6276 11.4551 13.2375 11.4551C12.7143 11.4551 12.2126 11.6629 11.8427 12.0328C11.4728 12.4027 11.265 12.9044 11.265 13.4276Z" fill="#FFF2FB"/>
<path d="M50.2143 14.5823C51.0645 14.2782 51.9797 14.2028 52.8682 14.3637C53.7567 14.5247 54.5873 14.9162 55.2768 15.4992C55.0072 16.1192 54.5604 16.6458 53.9925 17.0128C54.6674 16.9755 55.3384 17.1386 55.9209 17.4815C55.7058 18.3583 55.2641 19.1633 54.64 19.8156C54.0159 20.468 53.2314 20.945 52.365 21.1987C51.541 21.4384 50.677 21.5091 49.8251 21.4065C48.9731 21.304 48.1506 21.0303 47.407 20.602L46.5548 17.977C46.9047 17.1939 47.4092 16.4895 48.0381 15.9061C48.6669 15.3228 49.4072 14.8725 50.2143 14.5823Z" fill="#FF8FB8"/>
<path d="M45.3526 21.6776L47.5834 20.0566C48.4364 20.1474 49.2622 20.4096 50.0113 20.8274C50.7604 21.2452 51.4174 21.8101 51.9428 22.488C52.4947 23.2025 52.8492 24.0495 52.9707 24.944C53.0922 25.8386 52.9765 26.7495 52.6351 27.5852C51.9622 27.5204 51.3234 27.2582 50.799 26.8315C51.043 27.4622 51.095 28.1509 50.9486 28.811C50.0487 28.8771 49.1472 28.7057 48.3344 28.3139C47.5216 27.9222 46.8258 27.3239 46.3169 26.5788C45.8341 25.869 45.4999 25.0689 45.3342 24.2267C45.1685 23.3844 45.1748 22.5174 45.3526 21.6776Z" fill="#FF8FB8"/>
<path d="M39.3342 22.488C39.86 21.8098 40.5174 21.2447 41.267 20.8269C42.0167 20.4091 42.843 20.1471 43.6964 20.0566L45.9272 21.6776C46.1051 22.5174 46.1113 23.3844 45.9456 24.2267C45.78 25.0689 45.4457 25.869 44.963 26.5788C44.454 27.3245 43.7579 27.9233 42.9446 28.3153C42.1313 28.7073 41.2293 28.8788 40.3289 28.8124C40.1825 28.1523 40.2345 27.4636 40.4784 26.8329C39.9539 27.2596 39.315 27.5218 38.6419 27.5866C38.3004 26.7507 38.1845 25.8396 38.3061 24.9447C38.4276 24.0499 38.7821 23.2027 39.3342 22.488Z" fill="#FF8FB8"/>
<path d="M37.2875 17.0128C36.7196 16.6458 36.2727 16.1192 36.0031 15.4992C36.6926 14.9162 37.5232 14.5247 38.4117 14.3637C39.3002 14.2028 40.2154 14.2782 41.0656 14.5823C41.873 14.8729 42.6134 15.3235 43.2423 15.9073C43.8712 16.491 44.3758 17.1958 44.7256 17.9793L43.8734 20.6044C43.1296 21.0324 42.307 21.3058 41.4549 21.408C40.6028 21.5102 39.7389 21.4392 38.915 21.1992C38.0485 20.9455 37.2638 20.4686 36.6396 19.8162C36.0155 19.1638 35.5737 18.3589 35.3586 17.482C35.9412 17.1389 36.6123 16.9757 37.2875 17.0128Z" fill="#FF8FB8"/>
<path d="M44.5964 9.25586C45.1025 9.70342 45.4651 10.2905 45.6389 10.9434C45.8126 10.2905 46.1753 9.70342 46.6814 9.25586C47.4491 9.73113 48.0784 10.3999 48.5062 11.195C48.934 11.9902 49.1453 12.8838 49.1189 13.7863C49.0923 14.6441 48.8925 15.4877 48.5316 16.2663C48.1708 17.0449 47.6562 17.7425 47.0189 18.3173H44.2612C43.624 17.7425 43.1096 17.0448 42.7488 16.2662C42.388 15.4876 42.1883 14.6441 42.1617 13.7863C42.135 12.8841 42.3458 11.9906 42.7731 11.1955C43.2004 10.4004 43.8292 9.73148 44.5964 9.25586Z" fill="#FF8FB8"/>
<path d="M43.6673 19.7264C43.6673 20.1165 43.783 20.4979 43.9997 20.8223C44.2165 21.1466 44.5245 21.3995 44.885 21.5488C45.2454 21.6981 45.642 21.7371 46.0246 21.661C46.4072 21.5849 46.7587 21.397 47.0346 21.1212C47.3104 20.8453 47.4983 20.4939 47.5744 20.1112C47.6505 19.7286 47.6114 19.332 47.4622 18.9716C47.3129 18.6111 47.06 18.3031 46.7357 18.0863C46.4113 17.8696 46.0299 17.7539 45.6398 17.7539C45.1167 17.7539 44.6149 17.9617 44.245 18.3316C43.8751 18.7016 43.6673 19.2033 43.6673 19.7264Z" fill="#FFF2FB"/>
<path d="M18.2402 42.8013C19.0904 42.497 20.0055 42.4216 20.894 42.5824C21.7826 42.7432 22.6132 43.1347 23.3027 43.7177C23.0332 44.3378 22.5864 44.8644 22.0184 45.2313C22.6935 45.1939 23.3646 45.357 23.9473 45.7C23.732 46.5768 23.2901 47.3816 22.666 48.0339C22.0418 48.6861 21.2573 49.163 20.3909 49.4167C19.5669 49.6564 18.7029 49.7271 17.851 49.6245C16.999 49.522 16.1765 49.2484 15.4329 48.82L14.5807 46.1974C14.9305 45.414 15.4349 44.7093 16.0638 44.1258C16.6927 43.5422 17.4329 43.0917 18.2402 42.8013Z" fill="#FF8FB8"/>
<path d="M13.3792 49.8963L15.6091 48.2754C16.4624 48.366 17.2887 48.6281 18.0383 49.0459C18.7879 49.4637 19.4454 50.0286 19.9713 50.7068C20.5231 51.4214 20.8775 52.2684 20.999 53.163C21.1205 54.0577 21.0049 54.9686 20.6636 55.8044C19.9905 55.7396 19.3516 55.4774 18.827 55.0507C19.0709 55.6812 19.123 56.3698 18.9766 57.0298C18.0765 57.0961 17.1747 56.9248 16.3616 56.533C15.5485 56.1413 14.8526 55.5428 14.3435 54.7976C13.8607 54.0878 13.5265 53.2877 13.3608 52.4454C13.1951 51.6032 13.2014 50.7361 13.3792 49.8963Z" fill="#FF8FB8"/>
<path d="M7.35843 50.7068C7.88433 50.0286 8.5418 49.4637 9.29139 49.0459C10.041 48.6281 10.8672 48.366 11.7206 48.2754L13.9514 49.8963C14.1294 50.736 14.1358 51.6031 13.9703 52.4453C13.8048 53.2876 13.4707 54.0877 12.9881 54.7976C12.4791 55.5433 11.7831 56.1421 10.9698 56.5341C10.1565 56.9261 9.25445 57.0975 8.35405 57.0312C8.20766 56.3712 8.25968 55.6826 8.50358 55.0521C7.9792 55.4788 7.34043 55.741 6.66749 55.8059C6.32573 54.9699 6.20967 54.0588 6.33094 53.1639C6.4522 52.269 6.80653 51.4216 7.35843 50.7068Z" fill="#FF8FB8"/>
<path d="M5.31383 45.2313C4.74581 44.8644 4.29895 44.3378 4.02945 43.7177C4.719 43.1347 5.54964 42.7432 6.43814 42.5824C7.32664 42.4216 8.24181 42.497 9.09195 42.8013C9.89946 43.0916 10.6399 43.5422 11.2689 44.126C11.8979 44.7097 12.4023 45.4146 12.752 46.1983L11.8998 48.8209C11.1562 49.2493 10.3337 49.5229 9.4817 49.6255C8.62971 49.728 7.76579 49.6573 6.94179 49.4177C6.07543 49.164 5.29093 48.6871 4.66685 48.0348C4.04278 47.3825 3.60103 46.5777 3.38586 45.701C3.96812 45.3577 4.63891 45.1942 5.31383 45.2313Z" fill="#FF8FB8"/>
<path d="M12.6237 37.4746C13.1298 37.9222 13.4925 38.5092 13.6662 39.1621C13.84 38.5092 14.2026 37.9222 14.7087 37.4746C15.4764 37.95 16.1057 38.6189 16.5335 39.4141C16.9613 40.2093 17.1726 41.103 17.1462 42.0055C17.1196 42.8632 16.9199 43.7066 16.5591 44.4852C16.1983 45.2637 15.6839 45.9613 15.0467 46.536H12.2886C11.6514 45.9613 11.137 45.2637 10.7762 44.4852C10.4154 43.7066 10.2157 42.8632 10.189 42.0055C10.1624 41.1032 10.3733 40.2097 10.8006 39.4145C11.2279 38.6194 11.8566 37.9504 12.6237 37.4746Z" fill="#FF8FB8"/>
<path d="M11.6937 47.9447C11.6936 48.3348 11.8092 48.7162 12.0259 49.0407C12.2426 49.3651 12.5506 49.618 12.911 49.7674C13.2714 49.9167 13.668 49.9559 14.0507 49.8798C14.4334 49.8038 14.7849 49.6159 15.0608 49.3401C15.3367 49.0643 15.5246 48.7128 15.6007 48.3301C15.6769 47.9475 15.6378 47.5509 15.4886 47.1904C15.3393 46.83 15.0865 46.5219 14.7621 46.3051C14.4377 46.0884 14.0563 45.9727 13.6662 45.9727C13.1431 45.9727 12.6415 46.1804 12.2716 46.5502C11.9017 46.92 11.6938 47.4216 11.6937 47.9447Z" fill="#FFF2FB"/>
<path d="M57.043 46.7158L43.0494 35.3252C41.8382 34.339 40.3331 33.7842 38.7716 33.7483L28.8448 33.5209C28.327 33.5091 27.8226 33.3545 27.387 33.0742L18.012 27.0391L23.8587 36.8294C24.2591 37.4995 24.7946 38.079 25.4311 38.5309C26.0675 38.9828 26.7911 39.2973 27.5558 39.4544L37.0227 41.3992C37.5655 41.5107 38.0513 41.811 38.3937 42.2467L50.0244 57.0438H57.043V46.7158Z" fill="#66518E"/>
<path d="M18.0082 27.0371L19.5738 29.6621L23.8582 36.8293C24.0912 37.2227 24.3731 37.585 24.6973 37.9074C25.3302 38.5419 26.1045 39.0174 26.9566 39.2949C27.1534 39.3595 27.3537 39.4127 27.5566 39.4543L37.0207 41.3996C37.5643 41.5114 38.0508 41.812 38.3941 42.248L41.1363 45.7355L42.4254 47.3762L50.0238 57.0418H57.041V46.7152L50.3801 41.2918L47.277 38.7652L43.0488 35.3246C41.8376 34.3368 40.3317 33.781 38.7691 33.7449L34.6488 33.6512L32.141 33.5949L28.8457 33.5199C28.3284 33.5061 27.8246 33.3522 27.3879 33.0746L21.6832 29.4043L18.0082 27.0371Z" fill="#66518E"/>
<path d="M27.4627 23.7032C27.4627 24.1548 27.5966 24.5962 27.8475 24.9717C28.0984 25.3472 28.455 25.6399 28.8722 25.8127C29.2895 25.9855 29.7485 26.0307 30.1915 25.9426C30.6344 25.8545 31.0412 25.637 31.3605 25.3177C31.6799 24.9984 31.8973 24.5916 31.9854 24.1486C32.0735 23.7057 32.0283 23.2466 31.8555 22.8294C31.6827 22.4122 31.39 22.0556 31.0145 21.8047C30.6391 21.5538 30.1976 21.4199 29.746 21.4199C29.1404 21.4199 28.5597 21.6605 28.1315 22.0887C27.7033 22.5169 27.4627 23.0976 27.4627 23.7032Z" fill="#FE534E"/>
<path d="M30.3241 51.0665C30.3241 51.5181 30.458 51.9595 30.7089 52.335C30.9598 52.7105 31.3164 53.0031 31.7336 53.176C32.1508 53.3488 32.6099 53.394 33.0528 53.3059C33.4957 53.2178 33.9025 53.0003 34.2219 52.681C34.5412 52.3617 34.7587 51.9548 34.8468 51.5119C34.9349 51.069 34.8896 50.6099 34.7168 50.1927C34.544 49.7755 34.2514 49.4189 33.8759 49.168C33.5004 48.9171 33.0589 48.7832 32.6073 48.7832C32.3075 48.7831 32.0105 48.8422 31.7335 48.9569C31.4564 49.0716 31.2047 49.2398 30.9927 49.4518C30.7806 49.6639 30.6125 49.9156 30.4977 50.1926C30.383 50.4697 30.324 50.7666 30.3241 51.0665Z" fill="#FE534E"/>
</svg>
