<svg width="60" height="60" viewBox="0 0 60 60" fill="none" xmlns="http://www.w3.org/2000/svg">
<g clip-path="url(#clip0)">
<path d="M15.3438 33.5684V56.5229C15.3438 57.5243 16.1689 58.3364 17.187 58.3364H42.8106C43.8288 58.3364 44.6541 57.5243 44.6541 56.5229V33.5684H15.3438Z" fill="#DDB185"/>
<path d="M12.3903 14.9841C16.2216 14.9841 19.3274 11.9288 19.3274 8.16C19.3274 4.39117 16.2216 1.33594 12.3903 1.33594C8.55899 1.33594 5.45312 4.39117 5.45312 8.16C5.45312 11.9288 8.55899 14.9841 12.3903 14.9841Z" fill="#DDB185"/>
<path d="M12.3903 11.4848C10.5267 11.4848 9.01074 9.99334 9.01074 8.1603C9.01074 6.32702 10.5268 4.83557 12.3903 4.83557C14.2537 4.83557 15.7698 6.32713 15.7698 8.1603C15.7699 9.99334 14.2538 11.4848 12.3903 11.4848Z" fill="white"/>
<path d="M47.6091 14.9841C51.4405 14.9841 54.5464 11.9288 54.5464 8.16C54.5464 4.39117 51.4405 1.33594 47.6091 1.33594C43.7778 1.33594 40.6719 4.39117 40.6719 8.16C40.6719 11.9288 43.7778 14.9841 47.6091 14.9841Z" fill="#DDB185"/>
<path d="M47.6102 11.4848C45.7465 11.4848 44.2305 9.99334 44.2305 8.1603C44.2305 6.32702 45.7465 4.83557 47.6102 4.83557C49.4739 4.83557 50.99 6.32713 50.99 8.1603C50.9901 9.99334 49.474 11.4848 47.6102 11.4848Z" fill="white"/>
<path d="M30.0004 41.8898C41.7594 41.8898 51.2919 32.5125 51.2919 20.9449C51.2919 9.37736 41.7594 0 30.0004 0C18.2415 0 8.70898 9.37736 8.70898 20.9449C8.70898 32.5125 18.2415 41.8898 30.0004 41.8898Z" fill="#EDD7BE"/>
<path opacity="0.1" d="M12.6797 20.9449C12.6797 10.0362 21.1577 1.07695 31.9852 0.0914062C31.3312 0.0319922 30.6692 0 29.9992 0C18.2404 0 8.70801 9.37734 8.70801 20.9449C8.70801 32.5123 18.2404 41.8897 29.9993 41.8897C30.6693 41.8897 31.3312 41.8577 31.9852 41.7982C21.1577 40.8128 12.6797 31.8536 12.6797 20.9449Z" fill="black"/>
<path d="M38.1105 33.1852C38.1105 37.5919 34.4793 41.1641 29.9997 41.1641C25.5198 41.1641 21.8887 37.5919 21.8887 33.1852V29.0143C21.8887 24.6075 25.5198 21.0353 29.9997 21.0353C34.4793 21.0353 38.1105 24.6075 38.1105 29.0143V33.1852Z" fill="white"/>
<path d="M30.0005 57.2245C29.5177 57.2245 29.0553 57.032 28.715 56.6909L16.1672 44.1286C14.393 42.3555 13.416 39.9959 13.416 37.4872C13.416 34.9774 14.393 32.6183 16.1672 30.8431C17.9407 29.0692 20.2996 28.092 22.8081 28.092C25.3164 28.092 27.6753 29.069 29.4493 30.8431L30.0004 31.3951L30.5518 30.8431C32.3253 29.0692 34.6837 28.092 37.1932 28.092C39.7006 28.092 42.0595 29.069 43.8332 30.8431C45.6071 32.6183 46.5846 34.9774 46.5846 37.4872C46.5846 39.9959 45.6073 42.3555 43.8332 44.1299L31.2866 56.6912C30.9453 57.0321 30.4831 57.2245 30.0005 57.2245Z" fill="#F03800"/>
<path d="M20.119 42.7987C18.3448 41.0257 17.3678 38.6661 17.3678 36.1572C17.3678 33.6476 18.3448 31.2885 20.119 29.5132C20.6507 28.9814 21.2357 28.5228 21.861 28.1392C19.7098 28.3528 17.7149 29.2939 16.1662 30.843C14.392 32.6182 13.415 34.9773 13.415 37.4871C13.415 39.9958 14.392 42.3554 16.1662 44.1285L28.714 56.691C29.0544 57.0319 29.5167 57.2245 29.9995 57.2245C30.4821 57.2245 30.9442 57.032 31.2857 56.691L32.6404 55.3347L20.119 42.7987Z" fill="#F03800"/>
<path d="M42.4639 39.0316C42.4639 41.0849 44.1555 42.749 46.2427 42.749C48.3298 42.749 50.0219 41.0848 50.0219 39.0316V36.4928C50.0219 34.4395 48.3299 32.7755 46.2427 32.7755C44.1556 32.7755 42.4639 34.4396 42.4639 36.4928V39.0316Z" fill="#EDD7BE"/>
<path d="M9.48633 39.0316C9.48633 41.0849 11.1782 42.749 13.2654 42.749C15.3525 42.749 17.0446 41.0848 17.0446 39.0316V36.4928C17.0446 34.4395 15.3526 32.7755 13.2654 32.7755C11.1783 32.7755 9.48633 34.4396 9.48633 36.4928V39.0316Z" fill="#EDD7BE"/>
<path d="M32.9494 22.9396C32.9494 24.2916 31.8352 25.3875 30.4609 25.3875H29.5393C28.1645 25.3875 27.0508 24.2916 27.0508 22.9396C27.0508 21.5873 28.1646 20.4913 29.5393 20.4913H30.4609C31.8352 20.4913 32.9494 21.5873 32.9494 22.9396Z" fill="#8C6239"/>
<path d="M22.7076 53.761C22.7076 57.2068 19.8681 60.0001 16.365 60.0001C12.8623 60.0001 10.0225 57.2069 10.0225 53.761V50.943C10.0225 47.4973 12.862 44.7037 16.365 44.7037C19.8678 44.7037 22.7076 47.4971 22.7076 50.943V53.761Z" fill="#EDD7BE"/>
<path opacity="0.1" d="M12.0829 39.0317V36.4929C12.0829 34.8884 13.1161 33.5214 14.5637 33.0005C14.1589 32.855 13.7216 32.7754 13.2654 32.7754C11.1783 32.7754 9.48633 34.4395 9.48633 36.4927V39.0314C9.48633 41.0848 11.1782 42.7489 13.2654 42.7489C13.7216 42.7489 14.1589 42.6693 14.5637 42.5235C13.1161 42.003 12.0829 40.6361 12.0829 39.0317Z" fill="black"/>
<path opacity="0.1" d="M12.6192 53.761V50.943C12.6192 47.9351 14.7834 45.4247 17.6632 44.835C17.244 44.7493 16.81 44.7037 16.365 44.7037C12.8623 44.7037 10.0225 47.4971 10.0225 50.943V53.761C10.0225 57.2068 12.862 60.0001 16.365 60.0001C16.8101 60.0001 17.2441 59.9545 17.6632 59.8688C14.7833 59.2795 12.6192 56.769 12.6192 53.761Z" fill="black"/>
<path d="M13.5078 50.6146C12.9845 50.6146 12.5605 50.1906 12.5605 49.6674V49.5344C12.5605 49.0111 12.9845 48.587 13.5078 48.587C14.031 48.587 14.4551 49.0113 14.4551 49.5344V49.6674C14.4552 50.1905 14.0311 50.6146 13.5078 50.6146Z" fill="#8C6239"/>
<path d="M19.2226 50.6146C18.6994 50.6146 18.2754 50.1906 18.2754 49.6674V49.5344C18.2754 49.0111 18.6994 48.587 19.2226 48.587C19.7459 48.587 20.17 49.0113 20.17 49.5344V49.6674C20.1701 50.1905 19.746 50.6146 19.2226 50.6146Z" fill="#8C6239"/>
<path d="M16.3867 49.4912C15.8634 49.4912 15.4395 49.067 15.4395 48.5439V48.4112C15.4395 47.888 15.8634 47.464 16.3867 47.464C16.9099 47.464 17.334 47.888 17.334 48.4112V48.5439C17.3341 49.067 16.9099 49.4912 16.3867 49.4912Z" fill="#8C6239"/>
<path d="M16.3643 56.573C17.716 56.573 18.8117 55.4951 18.8117 54.1653C18.8117 52.8355 17.716 51.7576 16.3643 51.7576C15.0127 51.7576 13.917 52.8355 13.917 54.1653C13.917 55.4951 15.0127 56.573 16.3643 56.573Z" fill="#8C6239"/>
<path d="M50.612 53.761C50.612 57.2068 47.7725 60.0001 44.2693 60.0001C40.7664 60.0001 37.9268 57.2069 37.9268 53.761V50.943C37.9268 47.4973 40.7663 44.7037 44.2693 44.7037C47.7723 44.7037 50.612 47.4971 50.612 50.943V53.761Z" fill="#EDD7BE"/>
<path d="M41.4122 50.6146C40.8889 50.6146 40.4648 50.1906 40.4648 49.6674V49.5344C40.4648 49.0111 40.8891 48.587 41.4122 48.587C41.9354 48.587 42.3594 49.0113 42.3594 49.5344V49.6674C42.3595 50.1905 41.9355 50.6146 41.4122 50.6146Z" fill="#8C6239"/>
<path d="M47.1269 50.6146C46.6037 50.6146 46.1797 50.1906 46.1797 49.6674V49.5344C46.1797 49.0111 46.6037 48.587 47.1269 48.587C47.6502 48.587 48.0743 49.0113 48.0743 49.5344V49.6674C48.0743 50.1905 47.6503 50.6146 47.1269 50.6146Z" fill="#8C6239"/>
<path d="M44.291 49.4912C43.7677 49.4912 43.3438 49.067 43.3438 48.5439V48.4112C43.3438 47.888 43.7677 47.464 44.291 47.464C44.8142 47.464 45.2383 47.888 45.2383 48.4112V48.5439C45.2383 49.067 44.8141 49.4912 44.291 49.4912Z" fill="#8C6239"/>
<path d="M44.2696 56.573C45.6212 56.573 46.7169 55.4951 46.7169 54.1653C46.7169 52.8355 45.6212 51.7576 44.2696 51.7576C42.918 51.7576 41.8223 52.8355 41.8223 54.1653C41.8223 55.4951 42.918 56.573 44.2696 56.573Z" fill="#8C6239"/>
<path d="M21.2151 20.4846C22.2022 20.4846 23.0024 19.6858 23.0024 18.7004C23.0024 17.7151 22.2022 16.9163 21.2151 16.9163C20.228 16.9163 19.4277 17.7151 19.4277 18.7004C19.4277 19.6858 20.228 20.4846 21.2151 20.4846Z" fill="#603813"/>
<path d="M39.1534 20.4846C40.1405 20.4846 40.9407 19.6858 40.9407 18.7004C40.9407 17.7151 40.1405 16.9163 39.1534 16.9163C38.1664 16.9163 37.3662 17.7151 37.3662 18.7004C37.3662 19.6858 38.1664 20.4846 39.1534 20.4846Z" fill="#603813"/>
<path d="M24.1825 40.595H22.116V37.004C22.116 36.646 21.8354 36.3656 21.4773 36.3656C21.1194 36.3656 20.8389 36.646 20.8389 37.004V41.1288C20.8389 41.4869 21.1194 41.7674 21.4773 41.7674H24.1825C24.5113 41.7674 24.7687 41.51 24.7687 41.1812C24.7687 40.8526 24.5113 40.595 24.1825 40.595Z" fill="white"/>
<path d="M27.4099 36.3208C25.8116 36.3208 24.5596 37.5369 24.5596 39.0891V39.1041C24.5596 40.6735 25.7787 41.8572 27.395 41.8572C28.9936 41.8572 30.2455 40.6413 30.2455 39.089V39.0739C30.2456 37.5045 29.0266 36.3208 27.4099 36.3208ZM25.8891 39.074C25.8891 38.1813 26.5365 37.5081 27.395 37.5081C28.2622 37.5081 28.9163 38.1878 28.9163 39.0891V39.104C28.9163 39.9966 28.2688 40.6697 27.41 40.6697C26.543 40.6697 25.8891 39.9903 25.8891 39.089V39.074Z" fill="white"/>
<path d="M34.6213 36.3656C34.311 36.3656 34.0904 36.5694 34.0095 36.772L32.7458 40.042L31.497 36.8094C31.3877 36.5273 31.1539 36.3656 30.8554 36.3656C30.4972 36.3656 30.2168 36.6429 30.2168 36.9965C30.2168 37.1083 30.2514 37.2071 30.2889 37.2972L31.9853 41.3552C32.1214 41.6788 32.3664 41.8496 32.6936 41.8496H32.7683C33.0955 41.8496 33.3404 41.6786 33.4766 41.355L35.1873 37.2614C35.2069 37.2174 35.2526 37.1018 35.2526 36.9815C35.2525 36.6362 34.9753 36.3656 34.6213 36.3656Z" fill="white"/>
<path d="M39.21 40.6176H36.9045V39.6455H38.8363C39.1554 39.6455 39.4151 39.3892 39.4151 39.0742C39.4151 38.755 39.1555 38.4955 38.8363 38.4955H36.9045V37.5606H39.1727C39.4918 37.5606 39.7514 37.3043 39.7514 36.9893C39.7514 36.6703 39.4919 36.4105 39.1727 36.4105H36.2733C35.9153 36.4105 35.6348 36.6911 35.6348 37.0491V41.1291C35.6348 41.4872 35.9153 41.7676 36.2733 41.7676H39.21C39.5291 41.7676 39.7888 41.5115 39.7888 41.1965C39.7887 40.8772 39.5291 40.6176 39.21 40.6176Z" fill="white"/>
<path d="M17.0812 27.4285C18.5014 27.4285 19.6527 26.2773 19.6527 24.8571C19.6527 23.4369 18.5014 22.2856 17.0812 22.2856C15.661 22.2856 14.5098 23.4369 14.5098 24.8571C14.5098 26.2773 15.661 27.4285 17.0812 27.4285Z" fill="#FFAA99"/>
<path d="M42.9181 27.4285C44.3383 27.4285 45.4896 26.2773 45.4896 24.8571C45.4896 23.4369 44.3383 22.2856 42.9181 22.2856C41.498 22.2856 40.3467 23.4369 40.3467 24.8571C40.3467 26.2773 41.498 27.4285 42.9181 27.4285Z" fill="#FFAA99"/>
</g>
<defs>
<clipPath id="clip0">
<rect width="60" height="60" fill="white"/>
</clipPath>
</defs>
</svg>
