<svg width="16" height="8" viewBox="0 0 16 8" fill="none" xmlns="http://www.w3.org/2000/svg">
<path d="M0.624989 3.37499H13.8612L11.6686 1.193C11.4239 0.949497 11.423 0.553779 11.6665 0.309123C11.91 0.0644353 12.3057 0.0635293 12.5504 0.306998L15.8161 3.55699C15.8163 3.55718 15.8165 3.5574 15.8167 3.55759C16.0607 3.80109 16.0615 4.19809 15.8167 4.4424C15.8165 4.44259 15.8164 4.44281 15.8162 4.44299L12.5504 7.69299C12.3058 7.93643 11.9101 7.93558 11.6665 7.69087C11.423 7.44621 11.424 7.05049 11.6686 6.80699L13.8612 4.62499H0.624989C0.279801 4.62499 -1.14441e-05 4.34518 -1.14441e-05 3.99999C-1.14441e-05 3.65481 0.279801 3.37499 0.624989 3.37499Z" fill="#fff"/>
</svg>
