<svg width="295" height="102" fill="none" xmlns="http://www.w3.org/2000/svg"><g filter="url(#filter0_d)" fill="#8E8E8D"><path d="M44.052 89.988c0 .356.09.672.268.948.188.277.416.519.683.726.267.208.629.46 1.085.756.495.316.891.592 1.188.83.297.236.55.528.758.873.208.336.312.726.312 1.17 0 .514-.139.974-.416 1.379-.277.395-.664.706-1.159.933a3.957 3.957 0 01-1.634.326c-.446 0-.912-.06-1.397-.178-.485-.128-.812-.267-.98-.415-.05-.04-.09-.074-.12-.103a.412.412 0 01-.029-.178l-.045-2.356v-.015c0-.04.025-.059.075-.059.05-.01.079.005.089.045.297.602.555 1.09.772 1.466.228.376.51.706.847.993.347.286.738.43 1.174.43.396 0 .723-.104.98-.312.258-.217.387-.582.387-1.096 0-.434-.1-.815-.297-1.14a2.997 2.997 0 00-.699-.83 13.423 13.423 0 00-1.143-.815 12.938 12.938 0 01-1.115-.785 3.228 3.228 0 01-.668-.785c-.189-.307-.283-.667-.283-1.082 0-.523.149-.963.446-1.318a2.654 2.654 0 011.174-.8 4.25 4.25 0 011.5-.267c.347 0 .699.035 1.055.104.357.059.644.133.862.222a.38.38 0 01.178.133c.03.04.045.094.045.163v2.178c0 .03-.025.054-.074.074-.05.01-.08 0-.09-.03l-.118-.281a6.493 6.493 0 00-.877-1.585c-.327-.435-.788-.652-1.382-.652-.396 0-.723.114-.98.34-.248.228-.372.559-.372.993zm16.075 5.715c0-.017.018-.026.052-.026.026 0 .047.008.065.026.026.008.038.017.038.025a14.48 14.48 0 00-.129 1.83.26.26 0 01-.038.154c-.026.026-.078.039-.156.039h-5.71c-.026 0-.039-.026-.039-.077 0-.052.013-.078.039-.078.276 0 .474-.021.594-.064a.388.388 0 00.259-.245c.043-.129.064-.322.064-.58v-5.964c0-.258-.021-.447-.064-.567a.388.388 0 00-.259-.245c-.129-.051-.327-.077-.594-.077-.026 0-.039-.025-.039-.077s.013-.077.039-.077h5.478c.086 0 .13.038.13.116l.025 1.713c0 .017-.026.03-.078.038-.043.01-.069 0-.077-.025-.138-.498-.37-.868-.698-1.108-.327-.24-.758-.36-1.292-.36h-.387c-.259 0-.448.055-.569.167-.12.111-.18.283-.18.515v2.628h1.072c.5 0 .883-.086 1.15-.258a.812.812 0 00.4-.721c0-.026.022-.039.065-.039.051 0 .077.013.077.039l-.013 1.16.013.618c.017.292.026.523.026.695 0 .017-.026.026-.078.026-.051 0-.077-.009-.077-.026a.957.957 0 00-.413-.824c-.267-.206-.655-.31-1.163-.31H56.6v2.912c0 .249.048.434.142.554.095.12.246.18.453.18h.426c.672 0 1.21-.137 1.615-.412.405-.275.702-.7.891-1.275zM74 97.596c.017 0 .026.026.026.078 0 .051-.009.077-.026.077h-2.3c-.19 0-.542-.352-1.06-1.056-.516-.713-1.14-1.705-1.872-2.976a2.579 2.579 0 01-.298.013c-.335 0-.572-.004-.71-.013v2.989c0 .266.021.459.064.58.044.12.125.201.246.244.13.043.332.064.607.064.017 0 .026.026.026.078 0 .051-.009.077-.026.077-.284 0-.508-.004-.672-.013l-.982-.013-.943.013c-.172.009-.404.013-.697.013-.026 0-.04-.026-.04-.077 0-.052.014-.078.04-.078.275 0 .473-.021.594-.064a.387.387 0 00.258-.245c.052-.129.078-.322.078-.58v-5.964c0-.258-.022-.447-.065-.567a.388.388 0 00-.258-.245c-.13-.051-.327-.077-.594-.077-.018 0-.026-.025-.026-.077s.008-.077.026-.077l.684.013c.397.017.71.025.943.025.25 0 .526-.013.827-.038a9.95 9.95 0 01.904-.039c.793 0 1.405.146 1.835.438.44.283.66.683.66 1.198 0 .395-.121.773-.363 1.134-.24.36-.555.652-.943.876.69 1.082 1.266 1.928 1.731 2.537.474.61.892 1.057 1.254 1.34.37.275.728.412 1.072.412zm-6.24-4.25c.207.034.456.05.75.05.31 0 .555-.046.736-.14.18-.095.31-.258.387-.49.086-.232.13-.559.13-.98 0-.704-.104-1.189-.31-1.455-.207-.266-.505-.4-.892-.4-.293 0-.5.065-.62.194s-.181.343-.181.644v2.576zM85.562 89.7c.026 0 .039.025.039.077s-.013.077-.039.077c-.31 0-.607.138-.891.412-.284.275-.513.645-.685 1.108l-2.39 6.364c-.009.034-.056.052-.142.052s-.134-.018-.142-.052l-3.295-6.97c-.155-.308-.31-.536-.465-.682a.717.717 0 00-.517-.232c-.026 0-.038-.025-.038-.077s.012-.077.038-.077c.13 0 .22.004.272.013.172.017.396.025.671.025.741 0 1.37-.008 1.887-.025.138-.01.31-.013.517-.013.025 0 .038.025.038.077s-.013.077-.038.077c-.259 0-.461.056-.608.168-.138.103-.207.253-.207.45 0 .147.048.323.143.529l2.235 4.753 1.68-4.418c.085-.24.129-.447.129-.619 0-.266-.082-.476-.246-.63-.155-.156-.383-.233-.685-.233-.025 0-.038-.025-.038-.077s.013-.077.038-.077l.633.013c.362.017.685.025.97.025.163 0 .365-.008.607-.025l.53-.013zm6.876 7.007c0 .267.021.46.064.58.043.12.125.202.246.245.129.043.331.064.607.064.026 0 .039.026.039.078 0 .051-.013.077-.04.077-.283 0-.507-.004-.671-.013l-.982-.013-.956.013c-.172.009-.405.013-.698.013-.017 0-.025-.026-.025-.077 0-.052.008-.078.025-.078.276 0 .478-.021.608-.064a.387.387 0 00.258-.245c.052-.129.078-.322.078-.58v-5.964c0-.258-.026-.447-.078-.567a.387.387 0 00-.258-.245c-.13-.051-.332-.077-.608-.077-.017 0-.025-.025-.025-.077s.008-.077.025-.077l.698.013c.396.017.715.025.956.025.267 0 .599-.008.995-.025l.659-.013c.026 0 .039.025.039.077s-.013.077-.04.077c-.266 0-.464.026-.593.078a.425.425 0 00-.259.27c-.043.12-.064.31-.064.567v5.938zm14.829-7.007c.017 0 .026.025.026.077s-.009.077-.026.077a.949.949 0 00-.814.412c-.198.267-.297.627-.297 1.083v6.595c0 .026-.022.043-.065.052-.034.008-.06.004-.077-.013l-6.06-6.88v5.012c0 .455.095.816.284 1.082.19.266.453.4.789.4.017 0 .025.025.025.077 0 .051-.008.077-.025.077a8.98 8.98 0 01-.556-.013l-.698-.013-.8.013c-.147.009-.358.013-.634.013-.026 0-.038-.026-.038-.077 0-.052.012-.078.038-.078.38 0 .676-.133.892-.399.224-.266.336-.627.336-1.082v-5.45c-.285-.308-.53-.519-.737-.63a1.178 1.178 0 00-.62-.18c-.017 0-.026-.026-.026-.078 0-.052.009-.077.026-.077l.543.013c.112.008.275.012.49.012l.983-.012c.12-.01.267-.013.439-.013.069 0 .12.017.155.051.034.034.095.108.181.22.146.197.249.33.31.398l4.47 5.14v-4.16c0-.464-.095-.83-.284-1.095a.914.914 0 00-.788-.4c-.018 0-.026-.025-.026-.077s.008-.077.026-.077l.555.013c.276.017.508.025.698.025.172 0 .413-.008.723-.025l.582-.013zm9.449 8.206c-.948 0-1.775-.18-2.481-.541-.706-.361-1.245-.85-1.615-1.47a4.03 4.03 0 01-.555-2.086c0-.824.211-1.559.633-2.203a4.228 4.228 0 011.757-1.507c.749-.36 1.584-.541 2.506-.541.405 0 .814.034 1.227.103.414.06.745.142.995.245.078.025.125.06.142.103a.407.407 0 01.052.193l.168 1.79c0 .026-.022.044-.065.052-.043.009-.073-.004-.09-.038-.301-.662-.719-1.177-1.253-1.546a3.07 3.07 0 00-1.809-.554c-.879 0-1.55.305-2.015.914-.457.61-.685 1.443-.685 2.5 0 .85.146 1.61.439 2.28.293.66.698 1.176 1.215 1.546.525.36 1.111.54 1.757.54.353 0 .624-.038.814-.115.189-.078.327-.228.413-.451.086-.224.129-.554.129-.992 0-.447-.026-.756-.077-.928a.509.509 0 00-.336-.36c-.164-.06-.452-.09-.866-.09-.052 0-.077-.035-.077-.104 0-.025.004-.047.013-.064.017-.026.034-.039.051-.039a31.57 31.57 0 001.77.065c.439 0 .896-.013 1.37-.039.017 0 .03.013.038.039.018.017.026.034.026.051 0 .06-.021.09-.064.09-.155-.008-.263.022-.323.09-.061.06-.099.19-.117.387-.017.189-.025.532-.025 1.03 0 .387.012.662.038.825.035.163.052.266.052.31 0 .05-.013.085-.039.102a.295.295 0 01-.116.052c-1.111.24-2.11.36-2.997.36zm26.748-.333c.049 0 .074.03.074.09 0 .058-.025.088-.074.088-.198 0-.506-.01-.922-.03-.435-.02-.747-.03-.936-.03-.247 0-.549.01-.906.03-.337.02-.604.03-.802.03-.04 0-.06-.03-.06-.089 0-.06.02-.089.06-.089.257 0 .441-.024.55-.074a.307.307 0 00.178-.296c0-.168-.099-.45-.297-.845l-1.546-3.037h-2.644l-1.055 2.326a1.958 1.958 0 00-.193.8c0 .356.124.632.371.83.258.197.599.296 1.025.296.05 0 .075.03.075.09 0 .058-.025.088-.075.088-.178 0-.435-.01-.772-.03a18.82 18.82 0 00-.981-.03c-.267 0-.589.01-.966.03-.336.02-.609.03-.817.03-.039 0-.059-.03-.059-.089 0-.06.02-.089.059-.089.278 0 .51-.054.699-.163.188-.118.376-.32.564-.607.188-.296.411-.731.669-1.304l3.224-7.066c.02-.03.064-.045.134-.045.079 0 .123.015.133.045l3.715 7.288c.346.702.634 1.186.861 1.452.228.267.466.4.714.4zm-7.132-4.666h2.243l-1.188-2.341-1.055 2.34zm14.472 3.749c0 .223.017.386.052.49a.308.308 0 00.193.193c.104.034.267.051.491.051h.44c.671 0 1.253-.176 1.744-.528.491-.36.818-.846.982-1.456 0-.017.017-.025.051-.025.018 0 .035.008.052.025.026.009.039.018.039.026-.078.85-.117 1.559-.117 2.126 0 .068-.017.12-.051.154-.026.026-.073.039-.142.039h-6.098c-.018 0-.026-.026-.026-.077 0-.052.008-.078.026-.078.275 0 .473-.021.594-.064a.387.387 0 00.258-.245c.052-.129.078-.322.078-.58v-5.964c0-.258-.026-.447-.078-.567a.387.387 0 00-.258-.245c-.129-.051-.327-.077-.594-.077-.018 0-.026-.025-.026-.077s.008-.077.026-.077l.658.013c.397.017.724.025.982.025.259 0 .586-.008.982-.025l.659-.013c.026 0 .039.025.039.077s-.013.077-.039.077c-.267 0-.465.026-.594.078a.39.39 0 00-.259.257c-.043.12-.064.31-.064.567v5.9zm11.045 0c0 .223.017.386.052.49a.308.308 0 00.194.193c.103.034.267.051.491.051h.439c.672 0 1.253-.176 1.744-.528.491-.36.818-.846.982-1.456 0-.017.017-.025.052-.025.017 0 .034.008.051.025.026.009.039.018.039.026-.077.85-.116 1.559-.116 2.126 0 .068-.017.12-.052.154-.026.026-.073.039-.142.039h-6.098c-.017 0-.026-.026-.026-.077 0-.052.009-.078.026-.078.276 0 .474-.021.594-.064a.389.389 0 00.259-.245c.051-.129.077-.322.077-.58v-5.964c0-.258-.026-.447-.077-.567a.389.389 0 00-.259-.245c-.129-.051-.327-.077-.594-.077-.017 0-.026-.025-.026-.077s.009-.077.026-.077l.659.013c.396.017.723.025.982.025.258 0 .585-.008.982-.025l.658-.013c.026 0 .039.025.039.077s-.013.077-.039.077c-.267 0-.465.026-.594.078a.387.387 0 00-.258.257c-.043.12-.065.31-.065.567v5.9zm23.469-6.06c0 .02-.03.034-.089.044-.05.01-.08 0-.089-.03-.159-.572-.426-.997-.803-1.274-.376-.276-.871-.414-1.485-.414h-.446c-.297 0-.515.064-.654.192-.139.129-.208.326-.208.593v3.2h1.07c.574 0 1.01-.1 1.307-.297.307-.207.461-.489.461-.844 0-.02.03-.03.089-.03s.089.01.089.03l-.015 1.348c0 .316.005.553.015.711l.015.785c0 .03-.03.045-.089.045-.06 0-.089-.015-.089-.045 0-.395-.159-.706-.476-.933-.307-.237-.748-.356-1.322-.356h-1.055v3.17c0 .307.04.534.119.682.079.148.228.252.446.311.218.06.559.09 1.025.09.02 0 .03.029.03.088 0 .06-.01.089-.03.089-.406 0-.723-.005-.951-.015l-1.516-.015-1.114.015c-.198.01-.47.015-.817.015-.03 0-.045-.03-.045-.089 0-.06.015-.089.045-.089.347 0 .599-.024.758-.074a.451.451 0 00.312-.281c.059-.148.089-.37.089-.667v-6.86c0-.295-.025-.513-.074-.65a.447.447 0 00-.298-.282c-.148-.06-.376-.09-.683-.09-.03 0-.045-.029-.045-.088 0-.06.015-.09.045-.09h6.3c.099 0 .148.045.148.134l.03 1.97zm14.545 7c.043 0 .064.026.064.078 0 .051-.021.077-.064.077-.173 0-.44-.009-.801-.026a20.517 20.517 0 00-.814-.026c-.216 0-.478.009-.788.026a12.57 12.57 0 01-.698.026c-.035 0-.052-.026-.052-.077 0-.052.017-.078.052-.078.224 0 .383-.021.478-.064a.267.267 0 00.155-.258c0-.146-.086-.39-.258-.734l-1.344-2.64h-2.3l-.917 2.022c-.112.249-.168.48-.168.695 0 .31.108.55.323.722.224.171.521.257.891.257.043 0 .065.026.065.078 0 .051-.022.077-.065.077-.155 0-.379-.009-.671-.026a16.575 16.575 0 00-.853-.026 16.6 16.6 0 00-.84.026c-.293.017-.53.026-.71.026-.035 0-.052-.026-.052-.077 0-.052.017-.078.052-.078.241 0 .443-.047.607-.141.163-.103.327-.28.491-.528.163-.258.357-.636.581-1.134l2.804-6.145c.017-.026.056-.038.116-.038.069 0 .108.012.116.038l3.23 6.338c.302.61.551 1.03.749 1.263.199.232.405.347.621.347zm-6.202-4.058h1.951l-1.034-2.035-.917 2.035zm13.124 3.169c0 .267.022.46.065.58.043.12.125.202.245.245.13.043.332.064.608.064.025 0 .038.026.038.078 0 .051-.013.077-.038.077-.285 0-.509-.004-.672-.013l-.982-.013-.956.013c-.173.009-.405.013-.698.013-.017 0-.026-.026-.026-.077 0-.052.009-.078.026-.078.276 0 .478-.021.607-.064a.387.387 0 00.259-.245c.051-.129.077-.322.077-.58v-5.964c0-.258-.026-.447-.077-.567a.387.387 0 00-.259-.245c-.129-.051-.331-.077-.607-.077-.017 0-.026-.025-.026-.077s.009-.077.026-.077l.698.013c.396.017.715.025.956.025.267 0 .598-.008.995-.025l.659-.013c.025 0 .038.025.038.077s-.013.077-.038.077c-.267 0-.466.026-.595.078a.425.425 0 00-.258.27c-.043.12-.065.31-.065.567v5.938zm8.357-6.711c-1.025 0-1.762.666-2.21 1.997-.008.025-.034.038-.077.038-.043-.008-.065-.026-.065-.051.035-.344.073-.786.117-1.327.043-.55.064-.962.064-1.237 0-.043.022-.064.065-.064.051 0 .077.021.077.064 0 .19.246.284.737.284.74.025 1.606.038 2.597.038.508 0 1.046-.008 1.614-.025l.879-.013c.327 0 .564-.022.711-.065.155-.043.254-.129.297-.257.008-.035.034-.052.077-.052.052 0 .078.017.078.052-.026.257-.056.67-.091 1.236a32.626 32.626 0 00-.038 1.366c0 .025-.022.038-.065.038-.043 0-.069-.013-.077-.038-.13-.662-.371-1.155-.724-1.482-.353-.335-.788-.502-1.305-.502-.25 0-.418.056-.504.167-.077.103-.116.305-.116.606v5.938c0 .267.026.46.077.58.052.12.151.202.298.245.146.043.379.064.697.064.026 0 .039.026.039.078 0 .051-.013.077-.039.077-.31 0-.555-.004-.736-.013l-1.072-.013-1.047.013c-.181.009-.431.013-.749.013-.026 0-.039-.026-.039-.077 0-.052.013-.078.039-.078.31 0 .538-.021.684-.064.155-.043.259-.124.311-.245.06-.129.09-.322.09-.58v-5.964c0-.292-.039-.49-.116-.593-.078-.103-.237-.154-.478-.154zm18.896 7.6c.026 0 .038.026.038.078 0 .051-.012.077-.038.077a16 16 0 01-.724-.013l-.995-.013-1.162.013c-.155.009-.366.013-.633.013-.026 0-.039-.026-.039-.077 0-.052.013-.078.039-.078.318 0 .551-.021.697-.064a.43.43 0 00.297-.245c.052-.12.078-.313.078-.58v-2.962h-4.173v2.962c0 .258.026.451.077.58.052.12.151.202.298.245.146.043.378.064.697.064.017 0 .026.026.026.078 0 .051-.009.077-.026.077-.301 0-.542-.004-.723-.013l-1.124-.013-.969.013a14.57 14.57 0 01-.711.013c-.017 0-.026-.026-.026-.077 0-.052.009-.078.026-.078.302 0 .521-.021.659-.064a.428.428 0 00.284-.245c.052-.129.078-.322.078-.58v-5.964c0-.258-.026-.447-.078-.567a.428.428 0 00-.284-.245c-.129-.051-.34-.077-.633-.077-.026 0-.039-.025-.039-.077s.013-.077.039-.077l.698.013c.396.017.714.025.956.025.327 0 .706-.008 1.137-.025l.71-.013c.017 0 .026.025.026.077s-.009.077-.026.077c-.31 0-.538.026-.685.078a.516.516 0 00-.31.27c-.051.12-.077.31-.077.567v2.615h4.173v-2.615c0-.258-.026-.447-.078-.567a.464.464 0 00-.297-.27c-.146-.052-.379-.078-.697-.078-.026 0-.039-.025-.039-.077s.013-.077.039-.077l.633.013c.43.017.818.025 1.162.025.233 0 .565-.008.995-.025l.724-.013c.026 0 .038.025.038.077s-.012.077-.038.077c-.293 0-.513.026-.659.078a.428.428 0 00-.284.244c-.043.12-.065.31-.065.567v5.965c0 .257.022.45.065.58.051.12.146.201.284.244.138.043.357.064.659.064zM240.7 91c0 .31.078.585.233.825.163.24.361.451.594.631.232.18.547.4.943.657.431.275.775.516 1.034.722.258.206.478.46.659.76a1.9 1.9 0 01.271 1.017c0 .447-.121.847-.362 1.199a2.44 2.44 0 01-1.008.811 3.439 3.439 0 01-1.421.284c-.387 0-.792-.052-1.214-.155-.422-.112-.707-.232-.853-.36a1.148 1.148 0 01-.103-.09.346.346 0 01-.026-.156l-.039-2.048v-.013c0-.034.022-.051.065-.051.043-.009.069.004.077.038.259.524.483.95.672 1.276.198.326.444.614.736.863.302.249.642.374 1.021.374.345 0 .629-.09.853-.271.224-.189.336-.507.336-.953 0-.378-.086-.709-.259-.992a2.598 2.598 0 00-.607-.722 11.679 11.679 0 00-.995-.708 11.428 11.428 0 01-.969-.683 2.814 2.814 0 01-.581-.683 1.757 1.757 0 01-.246-.94c0-.455.13-.837.388-1.147.267-.317.607-.55 1.021-.695a3.692 3.692 0 011.305-.232c.301 0 .607.03.917.09.31.052.56.116.749.193a.33.33 0 01.155.116.23.23 0 01.039.142v1.894c0 .025-.022.047-.065.064-.043.009-.069 0-.077-.026l-.103-.245c-.216-.54-.47-1-.763-1.378-.284-.378-.684-.567-1.201-.567-.345 0-.629.1-.853.297-.215.197-.323.485-.323.863z"/></g><g filter="url(#filter1_d)" fill="#fff"><path d="M53.509 62.215c0 .053-.052.088-.154.105-.086 0-.137-.026-.155-.078-.12-.963-.453-1.69-1.001-2.18-.548-.507-1.268-.76-2.158-.76h-1.31c-.736 0-1.242.104-1.516.314-.256.21-.385.613-.385 1.208v5.724h2.363c.925 0 1.601-.158 2.03-.473.445-.315.667-.788.667-1.418 0-.035.052-.052.154-.052.103 0 .155.017.155.052l-.026 2.206c0 .525.008.918.026 1.181l.025 1.313c0 .035-.051.052-.154.052-.103 0-.154-.017-.154-.052 0-.753-.222-1.304-.668-1.654-.445-.368-1.156-.552-2.132-.552H46.83v5.698c0 .56.069.971.206 1.234.154.245.436.42.847.525.411.105 1.062.157 1.953.157.034 0 .05.053.05.158 0 .105-.016.157-.05.157-.703 0-1.25-.008-1.644-.026l-2.415-.026-1.798.026c-.325.018-.779.026-1.361.026-.035 0-.052-.052-.052-.157 0-.105.017-.158.052-.158.633 0 1.096-.043 1.387-.13.308-.089.514-.255.616-.5.103-.262.154-.656.154-1.181V60.798c0-.525-.051-.91-.154-1.156-.102-.245-.3-.41-.59-.498-.274-.105-.711-.158-1.31-.158-.052 0-.077-.052-.077-.157 0-.105.025-.158.077-.158H53.2c.17 0 .256.079.256.236l.052 3.308zm17.251 1.84c0-.736-.163-1.292-.488-1.668-.311-.39-.777-.584-1.399-.584-.042 0-.064-.044-.064-.13 0-.087.022-.13.064-.13l.954.021c.508.03.91.044 1.208.044.254 0 .621-.015 1.102-.044l.91-.021c.029 0 .043.043.043.13 0 .086-.014.13-.042.13-1.145 0-1.717.75-1.717 2.252v6.108c0 1.618-.466 2.889-1.398 3.813-.919.924-2.148 1.386-3.688 1.386-1.045 0-1.963-.202-2.754-.606a4.51 4.51 0 01-1.844-1.777c-.438-.78-.657-1.69-.657-2.729v-6.953c0-.433-.042-.75-.127-.953-.085-.202-.247-.34-.487-.412-.226-.086-.594-.13-1.102-.13-.043 0-.064-.043-.064-.13 0-.086.021-.13.064-.13l1.06.022c.62.03 1.115.044 1.483.044.395 0 .904-.015 1.525-.044l1.017-.021c.043 0 .064.043.064.13 0 .086-.021.13-.064.13-.494 0-.861.043-1.101.13a.774.774 0 00-.467.454c-.084.203-.127.52-.127.953v6.152c0 1.704.36 2.996 1.08 3.877.736.867 1.76 1.3 3.074 1.3 1.229 0 2.19-.39 2.882-1.17.706-.794 1.06-1.899 1.06-3.314v-6.13zm20.94-2.512c.042 0 .063.043.063.13 0 .086-.02.13-.063.13-1.159 0-1.738.75-1.738 2.252v11.307c0 .029-.035.05-.106.065-.056.014-.099.007-.127-.022L79.79 63.362v9.227c0 .766.135 1.329.403 1.69.283.361.707.541 1.272.541.042 0 .063.044.063.13 0 .087-.021.13-.063.13-.368 0-.65-.007-.848-.021l-1.08-.022-1.145.022c-.212.014-.523.021-.932.021-.029 0-.043-.043-.043-.13 0-.086.014-.13.043-.13.607 0 1.052-.18 1.335-.541.296-.361.445-.924.445-1.69v-9.833c-.622-.636-1.237-.953-1.844-.953-.042 0-.064-.044-.064-.13 0-.087.022-.13.064-.13l.826.021c.17.015.41.022.72.022l1.103-.022c.127-.014.29-.021.487-.021.113 0 .19.029.233.086.057.044.142.152.255.325.127.202.303.44.53.715l7.882 9.725v-8.339c0-.765-.134-1.328-.402-1.69-.269-.375-.685-.562-1.25-.562-.029 0-.043-.044-.043-.13 0-.087.014-.13.043-.13l.847.021c.424.03.784.044 1.08.044.255 0 .622-.015 1.103-.044l.89-.021zm13.826 10.245c0-.029.028-.043.085-.043.042 0 .078.014.106.043.042.014.063.029.063.043a21.822 21.822 0 00-.211 2.924.44.44 0 01-.064.26c-.042.044-.127.065-.254.065h-9.028c-.042 0-.063-.043-.063-.13 0-.086.021-.13.063-.13.509 0 .876-.036 1.102-.108a.71.71 0 00.466-.411c.085-.217.128-.542.128-.975V63.297c0-.433-.043-.75-.127-.953-.085-.202-.248-.34-.488-.412-.226-.086-.586-.13-1.08-.13-.043 0-.064-.043-.064-.13 0-.086.021-.13.063-.13h8.646c.142 0 .212.066.212.196l.043 2.729c0 .043-.043.072-.128.087-.07 0-.113-.022-.127-.066-.099-.794-.374-1.393-.826-1.797-.452-.42-1.046-.629-1.78-.629h-1.081c-.622 0-1.038.094-1.25.282-.212.173-.318.52-.318 1.04v4.397h2.331c.72 0 1.25-.123 1.589-.368.339-.26.509-.657.509-1.192 0-.029.035-.043.106-.043.085 0 .127.014.127.043l-.021 1.82.021.975c.028.462.042.823.042 1.082 0 .03-.042.044-.127.044-.085 0-.127-.015-.127-.043 0-.621-.177-1.076-.53-1.365-.339-.303-.89-.455-1.653-.455h-2.267v4.96c0 .52.092.874.275 1.062.198.187.587.281 1.166.281h1.377c.806 0 1.47-.238 1.992-.715.537-.49.904-1.184 1.102-2.079zm19.093 3.032c.028 0 .042.044.042.13 0 .087-.014.13-.042.13h-3.073c-.339 0-.982-.613-1.928-1.84-.933-1.243-2.049-2.94-3.348-5.09a4.303 4.303 0 01-.933.107c-.268 0-.614-.014-1.038-.043v5.112c0 .433.042.758.127.975a.71.71 0 00.466.411c.24.072.615.108 1.123.108.043 0 .064.044.064.13 0 .087-.021.13-.064.13-.438 0-.784-.007-1.038-.021l-1.526-.022-1.483.022a21.82 21.82 0 01-1.081.021c-.042 0-.063-.043-.063-.13 0-.086.021-.13.063-.13.509 0 .883-.036 1.123-.108.241-.072.403-.21.488-.411.085-.217.127-.542.127-.975V63.297c0-.433-.042-.75-.127-.953-.085-.202-.247-.34-.488-.412-.226-.086-.593-.13-1.102-.13-.028 0-.042-.043-.042-.13 0-.086.014-.13.042-.13l1.06.022c.622.03 1.116.044 1.483.044.255 0 .495-.008.721-.022.226-.014.424-.029.593-.043a14.21 14.21 0 011.314-.065c1.201 0 2.126.245 2.776.736.65.477.975 1.14.975 1.993 0 .679-.198 1.321-.594 1.928a4.63 4.63 0 01-1.546 1.473c1.186 1.834 2.175 3.27 2.966 4.31.805 1.025 1.519 1.769 2.141 2.231.621.448 1.229.671 1.822.671zm-10.32-7.17c.537.059.954.087 1.25.087.904 0 1.547-.202 1.929-.606.395-.419.593-1.133.593-2.144 0-1.141-.212-1.95-.636-2.426-.424-.477-1.01-.715-1.759-.715-.367 0-.649.036-.847.108-.184.072-.318.217-.403.433-.085.203-.127.52-.127.953v4.31zm28.219 7.17c.057 0 .085.044.085.13 0 .087-.028.13-.085.13-.268 0-.699-.014-1.293-.043a27.1 27.1 0 00-1.25-.043c-.325 0-.727.014-1.208.043-.48.029-.84.043-1.08.043-.057 0-.085-.043-.085-.13 0-.086.028-.13.085-.13.48 0 .826-.043 1.038-.13.212-.1.318-.274.318-.52 0-.245-.106-.584-.318-1.017l-2.373-5.026h-3.9l-1.737 4.094c-.198.477-.297.874-.297 1.191 0 .94.685 1.408 2.056 1.408.07 0 .106.044.106.13 0 .087-.036.13-.106.13-.255 0-.622-.014-1.102-.043a26.479 26.479 0 00-1.399-.043c-.367 0-.805.014-1.314.043a17.87 17.87 0 01-1.102.043c-.056 0-.084-.043-.084-.13 0-.086.028-.13.084-.13.396 0 .728-.079.996-.238.283-.159.551-.433.806-.823.254-.39.543-.967.868-1.733l4.514-10.635c.014-.043.064-.065.148-.065.085-.014.135.007.149.065l5.107 10.722c.48 1.054.89 1.769 1.229 2.144.339.376.72.563 1.144.563zm-9.875-7.19h3.475l-1.822-3.9-1.653 3.9zm17.187 5.61c0 .404.035.7.106.887a.729.729 0 00.445.369c.212.057.544.086.996.086h1.801c.89 0 1.625-.267 2.204-.801.593-.549.989-1.285 1.187-2.21 0-.043.035-.057.106-.043.084 0 .127.022.127.065-.127 1.27-.191 2.325-.191 3.162 0 .116-.028.203-.085.26-.042.044-.12.065-.233.065h-9.875c-.028 0-.042-.043-.042-.13 0-.086.014-.13.042-.13.509 0 .876-.036 1.102-.108.24-.072.403-.21.488-.411.084-.217.127-.542.127-.975V63.297c0-.433-.043-.75-.127-.953-.085-.202-.248-.34-.488-.412-.226-.086-.593-.13-1.102-.13-.028 0-.042-.043-.042-.13 0-.086.014-.13.042-.13l1.06.022a33.84 33.84 0 001.504.044c.382 0 .883-.015 1.505-.044l1.06-.021c.028 0 .042.043.042.13 0 .086-.014.13-.042.13-.495 0-.862.043-1.102.13a.71.71 0 00-.488.433c-.085.202-.127.52-.127.953v9.92zm38.945 1.525c.051 0 .077.053.077.158 0 .105-.026.157-.077.157-.548 0-.985-.008-1.31-.026l-1.85-.026-2.029.026c-.291.018-.693.026-1.207.026-.051 0-.077-.052-.077-.157 0-.105.026-.158.077-.158.651 0 1.13-.043 1.438-.13.309-.089.514-.255.617-.5.103-.262.154-.656.154-1.181v-6.118h-9.35v6.118c0 .525.052.919.154 1.181.103.245.309.411.617.5.308.087.788.13 1.438.13.035 0 .052.053.052.158 0 .105-.017.157-.052.157-.548 0-.984-.008-1.31-.026l-1.978-.026-1.823.026c-.326.018-.771.026-1.336.026-.034 0-.051-.052-.051-.157 0-.105.017-.158.051-.158.634 0 1.096-.043 1.387-.13.308-.089.514-.255.617-.5.119-.262.179-.656.179-1.181V60.798c0-.525-.051-.91-.154-1.156-.102-.245-.299-.41-.59-.498-.292-.105-.754-.158-1.388-.158-.051 0-.077-.052-.077-.157 0-.105.026-.158.077-.158l1.31.026c.72.035 1.319.053 1.798.053.548 0 1.216-.018 2.004-.053l1.284-.026c.035 0 .052.053.052.158 0 .105-.017.157-.052.157-.633 0-1.104.053-1.412.158-.309.105-.523.288-.643.551-.102.245-.154.63-.154 1.155v5.383h9.35V60.85c0-.525-.06-.91-.18-1.155-.103-.263-.308-.446-.616-.551-.291-.105-.762-.158-1.413-.158-.051 0-.077-.052-.077-.157 0-.105.026-.158.077-.158l1.207.026c.788.035 1.464.053 2.029.053.48 0 1.096-.018 1.85-.053l1.31-.026c.051 0 .077.053.077.158 0 .105-.026.157-.077.157-.634 0-1.096.053-1.387.158-.291.087-.497.253-.617.498-.103.245-.154.63-.154 1.156v12.156c0 .525.051.919.154 1.181.12.245.326.411.617.5.291.087.753.13 1.387.13zm12.527.575c-1.314 0-2.487-.31-3.518-.931a6.604 6.604 0 01-2.374-2.556 7.686 7.686 0 01-.826-3.53c0-1.488.367-2.759 1.102-3.813a6.934 6.934 0 012.818-2.404c1.159-.535 2.338-.802 3.539-.802 1.342 0 2.522.325 3.539.975a6.325 6.325 0 012.331 2.534 7.146 7.146 0 01.827 3.358 6.75 6.75 0 01-1.018 3.617 7.351 7.351 0 01-2.733 2.6 7.4 7.4 0 01-3.687.952zm.741-.476c.904 0 1.717-.239 2.437-.715.721-.477 1.286-1.17 1.695-2.08.424-.924.636-2.021.636-3.292 0-1.343-.233-2.541-.699-3.595-.452-1.055-1.109-1.878-1.971-2.47-.848-.592-1.836-.888-2.967-.888-1.469 0-2.613.513-3.433 1.538-.819 1.01-1.229 2.412-1.229 4.202 0 1.372.233 2.614.7 3.726.466 1.112 1.116 1.985 1.949 2.62a4.684 4.684 0 002.882.954zm28.261-.044c.028 0 .042.044.042.13 0 .087-.014.13-.042.13-.452 0-.812-.007-1.081-.021l-1.504-.022-1.42.022c-.24.014-.572.021-.996.021-.043 0-.064-.043-.064-.13 0-.086.021-.13.064-.13.621 0 1.038-.072 1.25-.216.226-.144.339-.448.339-.91l-.021-.368-.403-9.53-4.683 11.133c-.028.058-.085.086-.169.086-.085 0-.142-.028-.17-.086l-5.276-11.047-.17 8.708c-.014.765.12 1.328.403 1.689.282.361.741.541 1.377.541.042 0 .064.044.064.13 0 .087-.022.13-.064.13-.381 0-.678-.007-.89-.021l-1.165-.022-1.166.022c-.198.014-.487.021-.869.021-.028 0-.042-.043-.042-.13 0-.086.014-.13.042-.13 1.173 0 1.766-.743 1.78-2.23l.191-9.704c-.452-.722-1.06-1.083-1.822-1.083-.029 0-.043-.044-.043-.13 0-.087.014-.13.043-.13l.847.021c.17.015.389.022.657.022.311 0 .565-.007.763-.022.198-.014.353-.021.466-.021a.56.56 0 01.445.195c.113.13.29.44.53.931l4.704 9.769 4.429-10.354c.141-.36.353-.541.636-.541.085 0 .198.007.339.021.141.015.325.022.551.022l1.081-.022c.169-.014.416-.021.741-.021.043 0 .064.043.064.13 0 .086-.021.13-.064.13-.692 0-1.193.115-1.504.346-.297.231-.438.636-.424 1.213l.466 9.964c.028.448.085.773.17.975.084.202.24.339.466.411.226.072.593.108 1.102.108zm13.876-3.032c0-.029.028-.043.084-.043a.14.14 0 01.106.043c.043.014.064.029.064.043a21.83 21.83 0 00-.212 2.924c0 .116-.021.203-.064.26-.042.044-.127.065-.254.065h-9.027c-.043 0-.064-.043-.064-.13 0-.086.021-.13.064-.13.508 0 .876-.036 1.102-.108a.71.71 0 00.466-.411c.085-.217.127-.542.127-.975V63.297c0-.433-.042-.75-.127-.953-.085-.202-.247-.34-.488-.412-.226-.086-.586-.13-1.08-.13-.043 0-.064-.043-.064-.13 0-.086.021-.13.064-.13h8.646c.141 0 .212.066.212.196l.042 2.729c0 .043-.042.072-.127.087-.071 0-.113-.022-.127-.066-.099-.794-.375-1.393-.827-1.797-.452-.42-1.045-.629-1.78-.629h-1.081c-.621 0-1.038.094-1.25.282-.212.173-.318.52-.318 1.04v4.397h2.331c.721 0 1.251-.123 1.59-.368.339-.26.508-.657.508-1.192 0-.029.035-.043.106-.043.085 0 .127.014.127.043l-.021 1.82.021.975c.029.462.043.823.043 1.082 0 .03-.043.044-.127.044-.085 0-.128-.015-.128-.043 0-.621-.176-1.076-.529-1.365-.339-.303-.89-.455-1.653-.455h-2.268v4.96c0 .52.092.874.276 1.062.198.187.586.281 1.165.281h1.378c.805 0 1.469-.238 1.992-.715.536-.49.904-1.184 1.102-2.079z"/></g><g filter="url(#filter2_d)"><path d="M21.102 40.325c0-.064.064-.096.191-.096.096 0 .175.032.239.096.095.032.143.064.143.096-.318 2.311-.477 4.478-.477 6.5 0 .257-.048.45-.143.578-.096.096-.287.144-.573.144H.143c-.095 0-.143-.096-.143-.289 0-.192.048-.288.143-.288 1.146 0 1.974-.08 2.483-.241.51-.16.86-.466 1.05-.915.191-.481.287-1.204.287-2.166V21.451c0-.963-.096-1.669-.287-2.118-.19-.45-.557-.755-1.098-.915-.51-.193-1.32-.289-2.435-.289-.095 0-.143-.096-.143-.289 0-.192.048-.289.143-.289h19.48c.317 0 .477.145.477.434l.095 6.066c0 .096-.095.16-.286.193-.16 0-.255-.049-.287-.145-.223-1.765-.843-3.097-1.862-3.996-1.018-.93-2.355-1.396-4.01-1.396h-2.435c-1.4 0-2.34.209-2.817.626-.477.385-.716 1.155-.716 2.31v9.774h5.252c1.623 0 2.816-.273 3.58-.818.764-.578 1.146-1.46 1.146-2.648 0-.064.08-.097.239-.097.19 0 .286.033.286.097l-.047 4.044.047 2.167c.064 1.027.096 1.83.096 2.407 0 .064-.096.096-.287.096-.19 0-.286-.032-.286-.096 0-1.38-.398-2.391-1.194-3.033-.764-.674-2.005-1.011-3.724-1.011H7.782V43.55c0 1.155.207 1.942.62 2.359.446.417 1.322.626 2.627.626h3.103c1.814 0 3.31-.53 4.488-1.589 1.21-1.091 2.037-2.632 2.482-4.622z" fill="url(#paint0_linear)"/><path d="M53.702 20.399c.087 0 .13.087.13.261 0 .175-.043.262-.13.262-2.363 0-3.544 1.511-3.544 4.533V48.21c0 .058-.072.102-.217.13-.115.03-.201.015-.259-.043L29.41 24.06v18.57c0 1.54.274 2.674.821 3.4.577.727 1.441 1.09 2.594 1.09.086 0 .13.087.13.262 0 .174-.044.261-.13.261-.75 0-1.326-.014-1.73-.043l-2.204-.044-2.334.044c-.432.029-1.066.043-1.902.043-.058 0-.086-.087-.086-.261 0-.175.028-.262.086-.262 1.24 0 2.147-.363 2.723-1.09.606-.726.908-1.86.908-3.4V22.84c-1.268-1.279-2.521-1.918-3.76-1.918-.087 0-.13-.087-.13-.262 0-.174.043-.261.13-.261l1.685.043c.346.03.836.044 1.47.044l2.248-.044c.26-.029.59-.043.994-.043.23 0 .389.058.475.174.116.087.289.305.52.654.258.407.619.886 1.08 1.439l16.08 19.572V25.455c0-1.54-.274-2.673-.821-3.4-.548-.755-1.398-1.133-2.55-1.133-.058 0-.087-.087-.087-.262 0-.174.029-.261.086-.261l1.73.043c.864.058 1.599.087 2.204.087.519 0 1.268-.029 2.248-.087l1.815-.043z" fill="url(#paint1_linear)"/><path d="M71.272 48.166c-3.14 0-5.878-.61-8.213-1.83-2.334-1.221-4.12-2.877-5.36-4.97-1.239-2.092-1.858-4.432-1.858-7.018 0-2.819.706-5.318 2.118-7.498 1.44-2.18 3.4-3.88 5.878-5.1 2.508-1.22 5.317-1.83 8.43-1.83 1.383 0 2.723.13 4.02.392 1.325.261 2.406.61 3.242 1.046.23.145.374.276.432.392.058.116.1.32.13.61l.562 5.275c0 .087-.087.145-.26.174-.144 0-.23-.043-.26-.13-.748-2.151-1.973-3.807-3.673-4.97-1.7-1.162-3.747-1.744-6.139-1.744-3.4 0-6.022 1.047-7.867 3.139-1.844 2.092-2.766 4.97-2.766 8.631 0 2.848.547 5.39 1.642 7.629 1.095 2.208 2.594 3.937 4.496 5.187 1.93 1.25 4.106 1.874 6.527 1.874 1.383 0 2.45-.13 3.199-.392.75-.262 1.297-.77 1.642-1.526.346-.755.52-1.874.52-3.356 0-1.511-.102-2.558-.303-3.139-.173-.61-.577-1.017-1.21-1.22-.606-.204-1.672-.306-3.2-.306-.172 0-.259-.116-.259-.348a.49.49 0 01.043-.218c.058-.087.116-.13.173-.13 2.306.144 4.179.217 5.62.217 1.354 0 2.795-.044 4.322-.13.058 0 .101.043.13.13.058.058.086.116.086.174 0 .204-.072.306-.216.306-.634-.03-1.08.072-1.34.305-.26.203-.432.639-.518 1.307-.058.669-.087 1.831-.087 3.488 0 1.307.043 2.237.13 2.79.115.552.173.9.173 1.046 0 .174-.043.29-.13.349a9.647 9.647 0 01-.389.174c-3.545.814-6.7 1.22-9.467 1.22z" fill="url(#paint2_linear)"/><path d="M92.186 43.938c0 .814.072 1.41.216 1.787.173.349.476.596.908.741.432.117 1.11.175 2.032.175h3.674c1.815 0 3.314-.538 4.495-1.613 1.211-1.105 2.018-2.587 2.421-4.447 0-.087.072-.116.216-.087.173 0 .26.044.26.131-.26 2.557-.389 4.679-.389 6.364 0 .233-.058.407-.173.524-.087.087-.245.13-.476.13H85.227c-.058 0-.087-.087-.087-.261 0-.175.03-.262.087-.262 1.037 0 1.786-.072 2.248-.218.49-.145.82-.421.994-.828.173-.436.26-1.09.26-1.962V23.93c0-.872-.087-1.511-.26-1.918-.173-.407-.505-.683-.994-.829-.462-.174-1.21-.261-2.248-.261-.058 0-.087-.087-.087-.262 0-.174.03-.261.087-.261l2.161.043c1.268.058 2.291.087 3.07.087.777 0 1.8-.029 3.068-.087l2.162-.043c.057 0 .086.087.086.261 0 .175-.029.262-.087.262-1.008 0-1.757.087-2.247.261-.49.146-.822.436-.995.872-.172.407-.259 1.046-.259 1.918v19.965z" fill="url(#paint3_linear)"/><path d="M115.144 44.112c0 .872.087 1.526.259 1.962.173.407.49.683.951.828.49.145 1.254.218 2.291.218.058 0 .087.087.087.262 0 .174-.029.261-.087.261-.922 0-1.642-.014-2.161-.043l-3.112-.044-3.026.044c-.548.029-1.297.043-2.248.043-.057 0-.086-.087-.086-.261 0-.175.029-.262.086-.262 1.038 0 1.801-.072 2.291-.218.49-.145.822-.421.994-.828.173-.436.26-1.09.26-1.962V23.93c0-.872-.087-1.511-.26-1.918-.172-.407-.504-.683-.994-.829-.49-.174-1.253-.261-2.291-.261-.057 0-.086-.087-.086-.262 0-.174.029-.261.086-.261l2.248.043a69.77 69.77 0 003.026.087c.836 0 1.887-.029 3.155-.087l2.118-.043c.058 0 .087.087.087.261 0 .175-.029.262-.087.262-1.008 0-1.757.087-2.247.261-.49.175-.822.48-.995.916-.172.407-.259 1.046-.259 1.918v20.095z" fill="url(#paint4_linear)"/><path d="M126.425 25.281c0 1.104.273 2.078.821 2.92a9.283 9.283 0 001.988 2.137c.778.58 1.859 1.293 3.242 2.136 1.441.9 2.579 1.685 3.415 2.354a8.763 8.763 0 012.205 2.397c.605.959.907 2.092.907 3.4 0 1.424-.374 2.717-1.124 3.88-.72 1.133-1.772 2.034-3.155 2.702-1.354.64-2.939.96-4.755.96a13.57 13.57 0 01-3.415-.437c-1.124-.261-2.104-.653-2.939-1.176a.768.768 0 01-.303-.306c-.057-.116-.086-.29-.086-.523l-.433-6.233c-.028-.116.029-.19.173-.218.173-.03.274.014.303.13.692 2.21 1.657 4.084 2.896 5.624 1.239 1.54 2.853 2.31 4.841 2.31 1.355 0 2.479-.363 3.372-1.09.922-.755 1.383-1.976 1.383-3.661 0-1.279-.288-2.398-.864-3.357a8.481 8.481 0 00-2.118-2.397c-.807-.669-1.902-1.424-3.285-2.267-1.355-.872-2.436-1.613-3.242-2.223a9.045 9.045 0 01-1.989-2.31c-.547-.93-.821-2.006-.821-3.226 0-1.482.389-2.747 1.167-3.793a7.107 7.107 0 013.112-2.31 10.766 10.766 0 014.064-.785c1.93 0 3.674.334 5.23 1.003.432.174.648.436.648.784l.216 5.45c0 .116-.072.188-.216.217-.144.03-.23-.014-.259-.13-.317-1.57-.994-3.052-2.032-4.447-1.037-1.424-2.507-2.136-4.409-2.136-1.441 0-2.564.436-3.371 1.308-.778.872-1.167 1.976-1.167 3.313z" fill="url(#paint5_linear)"/><path d="M171.813 47.12c.087 0 .13.087.13.262 0 .174-.043.261-.13.261-.922 0-1.657-.014-2.204-.043l-3.113-.044-3.415.044c-.489.029-1.167.043-2.031.043-.087 0-.13-.087-.13-.261 0-.175.043-.262.13-.262 1.095 0 1.902-.072 2.42-.218.519-.145.865-.421 1.038-.828.173-.436.259-1.09.259-1.962V33.956h-15.734v10.156c0 .872.086 1.526.259 1.962.173.407.519.683 1.038.828.518.145 1.325.218 2.42.218.058 0 .087.087.087.262 0 .174-.029.261-.087.261-.922 0-1.657-.014-2.204-.043l-3.329-.044-3.069.044a44.89 44.89 0 01-2.247.043c-.058 0-.087-.087-.087-.261 0-.175.029-.262.087-.262 1.066 0 1.844-.072 2.334-.218.518-.145.864-.421 1.037-.828.202-.436.303-1.09.303-1.962V23.93c0-.872-.087-1.511-.26-1.918-.172-.407-.504-.683-.994-.829-.49-.174-1.268-.261-2.334-.261-.086 0-.13-.087-.13-.262 0-.174.044-.261.13-.261l2.205.043c1.21.058 2.218.087 3.025.087.923 0 2.046-.029 3.372-.087l2.161-.043c.058 0 .087.087.087.261 0 .175-.029.262-.087.262-1.066 0-1.858.087-2.377.261-.519.175-.879.48-1.081.916-.173.407-.259 1.046-.259 1.918v8.936h15.734v-8.936c0-.872-.101-1.511-.302-1.918-.173-.436-.519-.741-1.038-.916-.49-.174-1.282-.261-2.377-.261-.087 0-.13-.087-.13-.262 0-.174.043-.261.13-.261l2.031.043a79.78 79.78 0 003.415.087c.807 0 1.845-.029 3.113-.087l2.204-.043c.087 0 .13.087.13.261 0 .175-.043.262-.13.262-1.066 0-1.844.087-2.334.261-.49.146-.836.422-1.037.829-.173.407-.26 1.046-.26 1.918v20.182c0 .872.087 1.526.26 1.962.201.407.547.683 1.037.828.49.145 1.268.218 2.334.218z" fill="url(#paint6_linear)"/><path d="M199.009 30.696c2.546.225 4.599 1.091 6.158 2.6 1.56 1.508 2.34 3.354 2.34 5.537 0 1.7-.446 3.241-1.337 4.622-.859 1.348-2.053 2.423-3.581 3.225-1.496.77-3.182 1.156-5.06 1.156a42.32 42.32 0 01-3.342-.145 85.21 85.21 0 00-1.576-.096 39.124 39.124 0 00-2.053-.048l-3.342.048c-.604.032-1.416.048-2.435.048-.095 0-.143-.096-.143-.289 0-.192.048-.288.143-.288 1.114 0 1.926-.08 2.435-.241.541-.193.923-.514 1.146-.963.223-.45.334-1.156.334-2.119v-22.29c0-.964-.111-1.67-.334-2.12-.191-.449-.557-.754-1.098-.914-.509-.193-1.321-.289-2.435-.289-.064 0-.095-.096-.095-.289 0-.192.031-.289.095-.289l2.387.049c1.401.064 2.515.096 3.342.096.86 0 1.799-.048 2.817-.145.35-.032.764-.064 1.241-.096.51-.032 1.051-.048 1.624-.048 2.737 0 4.822.578 6.254 1.733 1.432 1.124 2.148 2.648 2.148 4.574 0 1.54-.493 2.937-1.48 4.189-.986 1.22-2.371 2.15-4.153 2.792zm-3.676-12.47c-.764 0-1.353.08-1.767.241-.382.16-.668.482-.859.963-.159.45-.239 1.155-.239 2.118v9.148l2.101.048c2.1 0 3.676-.61 4.726-1.83 1.05-1.219 1.576-2.824 1.576-4.814 0-1.83-.462-3.258-1.385-4.285-.891-1.059-2.276-1.589-4.153-1.589zm1.432 28.647c2.26 0 3.931-.594 5.013-1.781 1.114-1.188 1.671-2.89 1.671-5.104 0-2.44-.669-4.397-2.005-5.874-1.337-1.476-3.231-2.23-5.682-2.262-.859-.032-1.957 0-3.294.096v11.795c0 .803.111 1.429.334 1.878.223.417.637.738 1.241.963.605.193 1.512.289 2.722.289z" fill="url(#paint7_linear)"/><path d="M238.871 47.12c.058 0 .087.087.087.262 0 .174-.029.261-.087.261h-6.268c-.691 0-2.002-1.235-3.933-3.705-1.902-2.5-4.179-5.914-6.83-10.244a8.887 8.887 0 01-1.902.218c-.548 0-1.254-.029-2.118-.087v10.287c0 .872.086 1.526.259 1.962.173.407.49.683.951.828.49.145 1.254.218 2.291.218.087 0 .13.087.13.262 0 .174-.043.261-.13.261-.893 0-1.599-.014-2.118-.043l-3.112-.044-3.026.044c-.547.029-1.282.043-2.204.043-.087 0-.13-.087-.13-.261 0-.175.043-.262.13-.262 1.037 0 1.801-.072 2.29-.218.49-.145.822-.421.995-.828.173-.436.259-1.09.259-1.962V23.93c0-.872-.086-1.511-.259-1.918-.173-.407-.505-.683-.995-.829-.461-.174-1.21-.261-2.247-.261-.058 0-.087-.087-.087-.262 0-.174.029-.261.087-.261l2.161.043a69.77 69.77 0 003.026.087c.519 0 1.008-.014 1.47-.043.461-.03.864-.058 1.21-.087a29.508 29.508 0 012.68-.131c2.449 0 4.337.494 5.663 1.482 1.325.96 1.988 2.296 1.988 4.01 0 1.366-.403 2.66-1.21 3.88a9.392 9.392 0 01-3.156 2.964c2.421 3.691 4.438 6.583 6.052 8.675 1.642 2.063 3.098 3.56 4.366 4.49 1.268.9 2.507 1.351 3.717 1.351zM217.82 32.692c1.095.116 1.945.174 2.55.174 1.845 0 3.156-.407 3.934-1.22.807-.844 1.21-2.282 1.21-4.316 0-2.296-.432-3.923-1.297-4.882-.864-.96-2.06-1.439-3.587-1.439-.75 0-1.326.073-1.729.218-.375.145-.649.436-.822.872-.173.407-.259 1.046-.259 1.918v8.674z" fill="url(#paint8_linear)"/><path d="M251.354 48.166c-2.68 0-5.071-.624-7.175-1.874a13.336 13.336 0 01-4.841-5.144c-1.124-2.18-1.686-4.548-1.686-7.105 0-2.993.749-5.55 2.248-7.672 1.498-2.15 3.414-3.764 5.749-4.839 2.363-1.075 4.769-1.613 7.218-1.613 2.738 0 5.144.654 7.219 1.962 2.075 1.279 3.66 2.979 4.755 5.1a14.226 14.226 0 011.686 6.757c0 2.644-.692 5.07-2.075 7.28-1.383 2.208-3.242 3.952-5.576 5.23-2.306 1.279-4.813 1.918-7.522 1.918zm1.513-.959c1.845 0 3.502-.48 4.971-1.438 1.47-.96 2.623-2.354 3.459-4.185.864-1.86 1.296-4.068 1.296-6.626 0-2.702-.475-5.114-1.426-7.236-.922-2.121-2.262-3.778-4.02-4.97-1.729-1.19-3.746-1.787-6.052-1.787-2.997 0-5.331 1.032-7.003 3.095-1.671 2.035-2.507 4.854-2.507 8.457 0 2.76.476 5.26 1.427 7.498.951 2.237 2.276 3.996 3.977 5.274 1.729 1.279 3.688 1.918 5.878 1.918z" fill="url(#paint9_linear)"/><path d="M274.421 25.281c0 1.104.274 2.078.821 2.92a9.309 9.309 0 001.989 2.137c.778.58 1.859 1.293 3.242 2.136 1.441.9 2.579 1.685 3.415 2.354a8.76 8.76 0 012.204 2.397c.605.959.908 2.092.908 3.4 0 1.424-.375 2.717-1.124 3.88-.72 1.133-1.772 2.034-3.155 2.702-1.355.64-2.94.96-4.755.96a13.57 13.57 0 01-3.415-.437c-1.124-.261-2.104-.653-2.94-1.176a.759.759 0 01-.302-.306c-.058-.116-.087-.29-.087-.523l-.432-6.233c-.029-.116.029-.19.173-.218.173-.03.274.014.303.13.691 2.21 1.657 4.084 2.896 5.624 1.239 1.54 2.853 2.31 4.841 2.31 1.355 0 2.478-.363 3.372-1.09.922-.755 1.383-1.976 1.383-3.661 0-1.279-.288-2.398-.864-3.357a8.484 8.484 0 00-2.119-2.397c-.806-.669-1.902-1.424-3.285-2.267-1.354-.872-2.435-1.613-3.242-2.223a9.022 9.022 0 01-1.988-2.31c-.548-.93-.821-2.006-.821-3.226 0-1.482.389-2.747 1.167-3.793a7.107 7.107 0 013.112-2.31 10.76 10.76 0 014.063-.785c1.931 0 3.674.334 5.231 1.003.432.174.648.436.648.784l.216 5.45c0 .116-.072.188-.216.217-.144.03-.231-.014-.259-.13-.317-1.57-.995-3.052-2.032-4.447-1.037-1.424-2.507-2.136-4.409-2.136-1.441 0-2.565.436-3.372 1.308-.778.872-1.167 1.976-1.167 3.313z" fill="url(#paint10_linear)"/></g><g filter="url(#filter3_d)" fill="#8E8E8D"><path d="M49.186 2.267c0 .02-.03.034-.089.044-.05.01-.079 0-.089-.03-.158-.572-.425-.997-.801-1.274-.376-.276-.871-.414-1.485-.414h-.445c-.297 0-.514.064-.653.192-.138.129-.208.326-.208.593v3.2h1.069c.574 0 1.01-.1 1.306-.297.307-.207.46-.488.46-.844 0-.02.03-.03.09-.03.059 0 .088.01.088.03l-.014 1.348c0 .316.005.553.014.711l.015.785c0 .03-.03.045-.089.045-.06 0-.089-.015-.089-.045 0-.395-.158-.706-.475-.933-.307-.237-.747-.356-1.32-.356h-1.055v3.17c0 .307.04.534.119.682.08.148.228.252.445.311.218.06.56.09 1.025.09.02 0 .03.029.03.088 0 .06-.01.089-.03.089-.406 0-.723-.005-.95-.015l-1.514-.015-1.114.015c-.198.01-.47.015-.816.015-.03 0-.045-.03-.045-.089 0-.06.015-.089.045-.089.346 0 .599-.024.757-.074a.448.448 0 00.312-.281c.059-.148.089-.37.089-.667v-6.86c0-.295-.025-.513-.075-.65a.445.445 0 00-.296-.282c-.149-.06-.376-.09-.683-.09-.03 0-.045-.029-.045-.088 0-.06.015-.089.045-.089h6.293c.1 0 .149.044.149.133l.03 1.97zm20.32 7c.043 0 .064.026.064.078 0 .051-.021.077-.064.077-.172 0-.44-.009-.8-.026-.38-.017-.65-.026-.814-.026-.215 0-.477.01-.787.026-.293.017-.525.026-.697.026-.034 0-.052-.026-.052-.077 0-.052.018-.078.052-.078.224 0 .383-.021.478-.064a.266.266 0 00.154-.258c0-.146-.086-.39-.258-.734l-1.342-2.64h-2.297l-.917 2.022c-.112.249-.168.48-.168.695 0 .31.108.55.323.722.224.172.52.257.89.257.044 0 .065.026.065.078 0 .051-.021.077-.064.077-.155 0-.379-.009-.672-.026a16.536 16.536 0 00-.851-.026c-.233 0-.512.01-.84.026-.292.017-.529.026-.71.026-.034 0-.05-.026-.05-.077 0-.052.016-.078.05-.078.242 0 .444-.047.607-.141.164-.103.327-.28.49-.528.164-.258.358-.636.582-1.134l2.8-6.145c.018-.026.056-.039.117-.039.069 0 .107.013.116.04l3.227 6.337c.3.61.55 1.03.748 1.263.198.231.405.347.62.347zM63.31 5.21h1.95l-1.033-2.036-.917 2.036zm25.967 4.057c.017 0 .026.026.026.078 0 .051-.009.077-.026.077-.293 0-.525-.004-.697-.013l-.955-.013-.968.013c-.164.009-.387.013-.671.013-.026 0-.039-.026-.039-.077 0-.052.013-.078.039-.078.361 0 .606-.043.735-.128.13-.086.194-.267.194-.541l-.013-.22-.27-5.268-2.66 6.222c-.017.034-.051.051-.103.051s-.086-.017-.103-.051L80.5 3.136l-.103 4.65c-.009.464.082.829.271 1.095.198.258.473.386.826.386.026 0 .039.026.039.078 0 .051-.013.077-.039.077a8.7 8.7 0 01-.542-.013l-.71-.013-.813.013a9.373 9.373 0 01-.555.013c-.026 0-.039-.026-.039-.077 0-.052.013-.078.039-.078.353 0 .632-.133.839-.399.206-.266.314-.627.323-1.082l.116-5.333-.013-.013c-.172-.318-.353-.55-.542-.696a.976.976 0 00-.633-.219c-.025 0-.038-.026-.038-.077 0-.052.013-.077.038-.077l.607.013c.12.008.275.012.465.012l.684-.012c.077-.01.176-.013.296-.013.112 0 .198.038.259.116.06.077.172.262.335.554l2.814 5.268 2.452-5.616a.667.667 0 01.155-.245.345.345 0 01.232-.077c.078 0 .164.004.259.013.103.008.22.012.348.012l.762-.012c.12-.01.292-.013.516-.013.026 0 .039.025.039.077 0 .051-.013.077-.039.077-.404 0-.697.082-.878.245-.18.163-.262.417-.245.76l.31 5.849c.017.266.047.459.09.58.052.12.138.201.258.244.13.043.327.064.594.064zm12.28-.888c0 .266.022.459.065.58.043.12.124.201.245.244.129.043.331.064.606.064.026 0 .039.026.039.078 0 .051-.013.077-.039.077-.283 0-.507-.004-.671-.013l-.981-.013-.955.013a14.73 14.73 0 01-.697.013c-.017 0-.025-.026-.025-.077 0-.052.008-.078.025-.078.276 0 .478-.021.607-.064a.387.387 0 00.258-.245c.052-.129.078-.322.078-.58V2.415c0-.258-.026-.446-.078-.567a.387.387 0 00-.258-.244c-.13-.052-.331-.078-.607-.078-.017 0-.025-.026-.025-.077 0-.052.008-.077.025-.077l.697.013c.396.017.714.025.955.025.267 0 .598-.008.994-.025l.658-.013c.026 0 .039.025.039.077 0 .051-.013.077-.039.077-.266 0-.464.026-.593.078a.425.425 0 00-.258.27c-.043.12-.065.31-.065.567V8.38zm13.266-.052c0 .223.017.386.052.49a.309.309 0 00.193.193c.103.034.267.051.491.051h.438c.672 0 1.252-.176 1.743-.528.49-.36.817-.846.981-1.456 0-.017.017-.025.051-.025.018 0 .035.008.052.025.026.009.039.018.039.026-.078.85-.116 1.559-.116 2.126 0 .068-.018.12-.052.154-.026.026-.073.039-.142.039h-6.092c-.017 0-.026-.026-.026-.077 0-.052.009-.078.026-.078.275 0 .473-.021.594-.064a.387.387 0 00.258-.245c.051-.129.077-.322.077-.58V2.415c0-.258-.026-.446-.077-.567a.387.387 0 00-.258-.244c-.129-.052-.327-.078-.594-.078-.017 0-.026-.026-.026-.077 0-.052.009-.077.026-.077l.658.013c.396.017.723.025.981.025s.585-.008.981-.025l.658-.013c.026 0 .039.025.039.077 0 .051-.013.077-.039.077-.266 0-.464.026-.593.078a.389.389 0 00-.259.257c-.043.12-.064.31-.064.567v5.9zm21.083-6.957c.018 0 .026.026.026.078 0 .051-.008.077-.026.077-.266 0-.593.168-.981.503a4.938 4.938 0 00-1.032 1.236l-1.342 2.242v2.873c0 .266.021.459.064.58.043.12.125.201.245.244.129.043.332.064.607.064.026 0 .039.026.039.078 0 .051-.013.077-.039.077-.284 0-.508-.004-.671-.013l-.968-.013-.955.013a14.18 14.18 0 01-.697.013c-.018 0-.026-.026-.026-.077 0-.052.008-.078.026-.078.275 0 .477-.021.606-.064a.387.387 0 00.258-.245c.052-.129.078-.322.078-.58V5.777l-1.885-2.924c-.318-.498-.585-.842-.8-1.03-.206-.198-.383-.297-.529-.297-.026 0-.039-.026-.039-.077 0-.052.013-.077.039-.077l.4.013c.189.017.323.025.4.025.301 0 .736-.008 1.304-.025l.852-.013c.017 0 .026.025.026.077 0 .051-.009.077-.026.077a.543.543 0 00-.349.103.346.346 0 00-.116.27c0 .138.06.301.181.49l1.768 2.783 1.188-2.023c.232-.386.348-.717.348-.992 0-.206-.065-.36-.194-.463-.12-.112-.296-.168-.529-.168-.026 0-.039-.026-.039-.077 0-.052.013-.077.039-.077l.684.013c.396.017.749.025 1.059.025.146 0 .322-.008.529-.025l.477-.013zm28.261 8.23c-.92 0-1.741-.213-2.464-.637a4.558 4.558 0 01-1.662-1.748 5.147 5.147 0 01-.579-2.415c0-1.017.257-1.886.772-2.607a4.824 4.824 0 011.974-1.645A5.981 5.981 0 01164.687 0c.94 0 1.766.222 2.479.667a4.367 4.367 0 011.632 1.733 4.79 4.79 0 01.579 2.296c0 .899-.237 1.724-.712 2.474a5.097 5.097 0 01-1.915 1.778 5.283 5.283 0 01-2.583.652zm.49-.37c.554 0 1.049-.159 1.484-.475.446-.326.792-.795 1.039-1.407.248-.622.372-1.363.372-2.222 0-.909-.139-1.719-.416-2.43-.277-.72-.678-1.284-1.202-1.689-.525-.405-1.138-.607-1.841-.607-.9 0-1.593.34-2.078 1.022-.485.672-.727 1.615-.727 2.83 0 .958.143 1.817.43 2.577.297.751.698 1.339 1.203 1.763a2.655 2.655 0 001.736.637zm27.668-7.86c.017 0 .026.026.026.078 0 .051-.009.077-.026.077-.318 0-.62.138-.904.412-.275.267-.503.636-.684 1.108L188.35 9.41c-.009.034-.056.052-.142.052s-.134-.018-.142-.052l-1.652-3.491-1.304 3.491c-.009.034-.056.052-.142.052s-.133-.018-.142-.052l-3.291-6.97a4.071 4.071 0 00-.323-.592.606.606 0 00-.271-.244.816.816 0 00-.387-.078c-.026 0-.039-.026-.039-.077 0-.052.013-.077.039-.077.129 0 .219.004.271.013.172.017.396.025.671.025.576 0 1.063-.008 1.458-.025.112-.01.25-.013.413-.013.026 0 .039.025.039.077 0 .051-.013.077-.039.077-.215 0-.37.022-.464.065-.086.043-.129.12-.129.232 0 .146.099.429.297.85l2.323 4.92.813-2.125-1.433-3.027c-.146-.31-.284-.537-.413-.683-.129-.154-.266-.232-.413-.232-.026 0-.038-.026-.038-.077 0-.052.012-.077.038-.077a2 2 0 01.297.025c.121.009.288.013.504.013.49 0 .899-.008 1.226-.025a3.51 3.51 0 01.335-.013c.026 0 .039.025.039.077 0 .051-.013.077-.039.077a.562.562 0 00-.271.052c-.051.026-.077.077-.077.154 0 .146.116.46.348.94l.568 1.199.323-.863c.189-.49.284-.86.284-1.108 0-.25-.108-.374-.323-.374-.026 0-.039-.026-.039-.077 0-.052.013-.077.039-.077.069 0 .142.008.22.025a8.596 8.596 0 001.148-.012l.478-.013c.017 0 .026.025.026.077 0 .051-.009.077-.026.077-.577 0-1.054.507-1.433 1.52l-.477 1.276 1.548 3.259 1.665-4.444c.104-.275.155-.524.155-.748 0-.266-.069-.476-.206-.63a.653.653 0 00-.529-.233c-.026 0-.039-.026-.039-.077 0-.052.013-.077.039-.077l.593.013c.31.017.594.025.852.025.172 0 .37-.008.594-.025l.555-.013zm18.291 0c.017 0 .026.026.026.078 0 .051-.009.077-.026.077a.948.948 0 00-.813.412c-.198.267-.297.627-.297 1.083v6.595c0 .026-.022.043-.065.052-.034.008-.06.004-.077-.013l-6.053-6.88v5.012c0 .455.094.816.284 1.082.189.266.451.4.787.4.017 0 .026.025.026.077 0 .051-.009.077-.026.077-.241 0-.426-.004-.555-.013l-.697-.013-.8.013a11.64 11.64 0 01-.633.013c-.026 0-.039-.026-.039-.077 0-.052.013-.078.039-.078.379 0 .676-.133.891-.399.223-.266.335-.627.335-1.082v-5.45c-.284-.308-.529-.519-.735-.63a1.178 1.178 0 00-.62-.18c-.017 0-.026-.027-.026-.078 0-.052.009-.077.026-.077l.542.013c.112.008.276.012.491.012l.981-.012a6.28 6.28 0 01.438-.013c.069 0 .121.017.155.051.035.035.095.108.181.22.146.197.25.33.31.399l4.466 5.14V3.02c0-.464-.095-.83-.284-1.095a.914.914 0 00-.788-.4c-.017 0-.025-.026-.025-.077 0-.052.008-.077.025-.077l.555.013c.276.017.508.025.697.025.172 0 .413-.008.723-.025l.581-.013zm15.596 6.004c0-.017.017-.026.052-.026.026 0 .047.009.064.026.026.008.039.017.039.026-.086.67-.129 1.28-.129 1.829 0 .068-.013.12-.039.154-.026.026-.077.039-.155.039h-5.705c-.025 0-.038-.026-.038-.077 0-.052.013-.078.038-.078.276 0 .474-.021.594-.064a.387.387 0 00.258-.245c.043-.129.065-.322.065-.58V2.415c0-.258-.022-.446-.065-.567a.387.387 0 00-.258-.244c-.129-.052-.327-.078-.594-.078-.025 0-.038-.026-.038-.077 0-.052.013-.077.038-.077h5.473c.086 0 .129.038.129.116l.026 1.713c0 .017-.026.03-.077.039-.043.008-.069 0-.078-.026-.138-.498-.37-.868-.697-1.108-.327-.24-.757-.36-1.291-.36h-.387c-.258 0-.447.055-.568.167-.12.111-.18.283-.18.515v2.628h1.071c.499 0 .882-.086 1.149-.258a.814.814 0 00.4-.721c0-.026.021-.039.064-.039.052 0 .078.013.078.039l-.013 1.16.013.618c.017.292.025.524.025.695 0 .017-.025.026-.077.026s-.077-.009-.077-.026a.958.958 0 00-.413-.824c-.267-.206-.654-.31-1.162-.31h-1.058v2.912c0 .25.047.434.142.554.094.12.245.18.451.18h.426c.671 0 1.209-.137 1.614-.412.404-.275.701-.7.89-1.275zm13.963 2.1c-.276 0-.603-.013-.981-.04-.138-.008-.31-.016-.517-.025a15.627 15.627 0 00-.671-.013l-.955.013c-.172.009-.404.013-.697.013-.017 0-.026-.026-.026-.077 0-.052.009-.078.026-.078.275 0 .478-.021.607-.064a.387.387 0 00.258-.245c.051-.129.077-.322.077-.58V2.415c0-.258-.026-.446-.077-.567a.387.387 0 00-.258-.244c-.121-.052-.314-.078-.581-.078-.026 0-.039-.026-.039-.077 0-.052.013-.077.039-.077l.684.013a16.082 16.082 0 002.026-.013c.448-.018.749-.026.904-.026.869 0 1.639.172 2.31.515.68.344 1.205.812 1.575 1.404.37.593.555 1.258.555 1.997 0 .833-.194 1.572-.581 2.216a3.952 3.952 0 01-1.549 1.481 4.458 4.458 0 01-2.129.516zm-.13-.297c.551 0 1.037-.137 1.459-.412.422-.283.749-.7.981-1.25.241-.55.361-1.206.361-1.97 0-.73-.112-1.392-.335-1.984-.224-.602-.542-1.074-.955-1.417a2.176 2.176 0 00-1.433-.516c-.534 0-.899.052-1.097.155-.198.103-.297.322-.297.657v5.797c0 .343.09.588.271.734.181.138.529.206 1.045.206z"/></g><defs><linearGradient id="paint10_linear" x1="143.713" y1="2.751" x2="143.713" y2="61.306" gradientUnits="userSpaceOnUse"><stop stop-color="#FBE7AD"/><stop offset="1" stop-color="#9E815D"/></linearGradient><linearGradient id="paint7_linear" x1="143.713" y1="2.751" x2="143.713" y2="61.306" gradientUnits="userSpaceOnUse"><stop stop-color="#FBE7AD"/><stop offset="1" stop-color="#9E815D"/></linearGradient><linearGradient id="paint9_linear" x1="143.713" y1="2.751" x2="143.713" y2="61.306" gradientUnits="userSpaceOnUse"><stop stop-color="#FBE7AD"/><stop offset="1" stop-color="#9E815D"/></linearGradient><linearGradient id="paint8_linear" x1="143.713" y1="2.751" x2="143.713" y2="61.306" gradientUnits="userSpaceOnUse"><stop stop-color="#FBE7AD"/><stop offset="1" stop-color="#9E815D"/></linearGradient><linearGradient id="paint0_linear" x1="143.713" y1="2.751" x2="143.713" y2="61.306" gradientUnits="userSpaceOnUse"><stop stop-color="#FBE7AD"/><stop offset="1" stop-color="#9E815D"/></linearGradient><linearGradient id="paint1_linear" x1="143.713" y1="2.751" x2="143.713" y2="61.306" gradientUnits="userSpaceOnUse"><stop stop-color="#FBE7AD"/><stop offset="1" stop-color="#9E815D"/></linearGradient><linearGradient id="paint2_linear" x1="143.713" y1="2.751" x2="143.713" y2="61.306" gradientUnits="userSpaceOnUse"><stop stop-color="#FBE7AD"/><stop offset="1" stop-color="#9E815D"/></linearGradient><linearGradient id="paint3_linear" x1="143.713" y1="2.751" x2="143.713" y2="61.306" gradientUnits="userSpaceOnUse"><stop stop-color="#FBE7AD"/><stop offset="1" stop-color="#9E815D"/></linearGradient><linearGradient id="paint4_linear" x1="143.713" y1="2.751" x2="143.713" y2="61.306" gradientUnits="userSpaceOnUse"><stop stop-color="#FBE7AD"/><stop offset="1" stop-color="#9E815D"/></linearGradient><linearGradient id="paint5_linear" x1="143.713" y1="2.751" x2="143.713" y2="61.306" gradientUnits="userSpaceOnUse"><stop stop-color="#FBE7AD"/><stop offset="1" stop-color="#9E815D"/></linearGradient><linearGradient id="paint6_linear" x1="143.713" y1="2.751" x2="143.713" y2="61.306" gradientUnits="userSpaceOnUse"><stop stop-color="#FBE7AD"/><stop offset="1" stop-color="#9E815D"/></linearGradient><filter id="filter1_d" x="42.566" y="58.671" width="205.867" height="20.763" filterUnits="userSpaceOnUse" color-interpolation-filters="sRGB"><feFlood flood-opacity="0" result="BackgroundImageFix"/><feColorMatrix in="SourceAlpha" values="0 0 0 0 0 0 0 0 0 0 0 0 0 0 0 0 0 0 127 0" result="hardAlpha"/><feOffset dx="2" dy="2"/><feGaussianBlur stdDeviation="1"/><feComposite in2="hardAlpha" operator="out"/><feColorMatrix values="0 0 0 0 0 0 0 0 0 0 0 0 0 0 0 0 0 0 0.2 0"/><feBlend in2="BackgroundImageFix" result="effect1_dropShadow"/><feBlend in="SourceGraphic" in2="effect1_dropShadow" result="shape"/></filter><filter id="filter3_d" x="42.566" y="0" width="205.867" height="13.671" filterUnits="userSpaceOnUse" color-interpolation-filters="sRGB"><feFlood flood-opacity="0" result="BackgroundImageFix"/><feColorMatrix in="SourceAlpha" values="0 0 0 0 0 0 0 0 0 0 0 0 0 0 0 0 0 0 127 0" result="hardAlpha"/><feOffset dx="2" dy="2"/><feGaussianBlur stdDeviation="1"/><feComposite in2="hardAlpha" operator="out"/><feColorMatrix values="0 0 0 0 0 0 0 0 0 0 0 0 0 0 0 0 0 0 0.2 0"/><feBlend in2="BackgroundImageFix" result="effect1_dropShadow"/><feBlend in="SourceGraphic" in2="effect1_dropShadow" result="shape"/></filter><filter id="filter2_d" x="0" y="17.408" width="295" height="38.947" filterUnits="userSpaceOnUse" color-interpolation-filters="sRGB"><feFlood flood-opacity="0" result="BackgroundImageFix"/><feColorMatrix in="SourceAlpha" values="0 0 0 0 0 0 0 0 0 0 0 0 0 0 0 0 0 0 127 0" result="hardAlpha"/><feOffset dx="4" dy="4"/><feGaussianBlur stdDeviation="2"/><feComposite in2="hardAlpha" operator="out"/><feColorMatrix values="0 0 0 0 0.3 0 0 0 0 0.24442 0 0 0 0 0.1525 0 0 0 0.2 0"/><feBlend in2="BackgroundImageFix" result="effect1_dropShadow"/><feBlend in="SourceGraphic" in2="effect1_dropShadow" result="shape"/></filter><filter id="filter0_d" x="42.566" y="88.329" width="205.867" height="13.671" filterUnits="userSpaceOnUse" color-interpolation-filters="sRGB"><feFlood flood-opacity="0" result="BackgroundImageFix"/><feColorMatrix in="SourceAlpha" values="0 0 0 0 0 0 0 0 0 0 0 0 0 0 0 0 0 0 127 0" result="hardAlpha"/><feOffset dx="2" dy="2"/><feGaussianBlur stdDeviation="1"/><feComposite in2="hardAlpha" operator="out"/><feColorMatrix values="0 0 0 0 0 0 0 0 0 0 0 0 0 0 0 0 0 0 0.2 0"/><feBlend in2="BackgroundImageFix" result="effect1_dropShadow"/><feBlend in="SourceGraphic" in2="effect1_dropShadow" result="shape"/></filter></defs></svg>