<svg width="30" height="30" viewBox="0 0 30 30" fill="none" xmlns="http://www.w3.org/2000/svg">
<path d="M30 15C30 6.71875 23.2812 0 15 0C6.71875 0 0 6.71875 0 15C0 23.2812 6.71875 30 15 30C23.2812 30 30 23.2812 30 15Z" fill="#39373C"/>
<path d="M22.8526 9H21.5678C21.3876 9 21.2167 9.08387 21.1064 9.22738L13.5277 18.9619L9.8936 14.2932C9.83863 14.2224 9.76856 14.1652 9.68865 14.1258C9.60874 14.0864 9.52107 14.0659 9.43223 14.0658H8.14735C8.02419 14.0658 7.95618 14.2093 8.03155 14.3062L13.0663 20.7735C13.3016 21.0755 13.7537 21.0755 13.9909 20.7735L22.9685 9.23856C23.0438 9.14351 22.9758 9 22.8526 9Z" fill="white"/>
</svg>
