<svg width="30" height="30" viewBox="0 0 30 30" fill="none" xmlns="http://www.w3.org/2000/svg">
<path d="M15 0C6.72923 0 0 6.72865 0 15C0 23.2713 6.72923 30 15 30C23.2708 30 30 23.2713 30 15C30 6.72865 23.2708 0 15 0ZM15 28.8462C7.36558 28.8462 1.15385 22.6344 1.15385 15C1.15385 7.36558 7.36558 1.15385 15 1.15385C22.6344 1.15385 28.8462 7.36558 28.8462 15C28.8462 22.6344 22.6344 28.8462 15 28.8462Z" fill="#FECB62"/>
<path d="M20.601 9.39965C20.3754 9.17407 20.0108 9.17407 19.7852 9.39965L15.0008 14.1841L10.2164 9.39965C9.99082 9.17407 9.6262 9.17407 9.40063 9.39965C9.17505 9.62523 9.17505 9.98984 9.40063 10.2154L14.1851 14.9998L9.40063 19.7843C9.17505 20.0098 9.17505 20.3745 9.40063 20.6C9.51313 20.7125 9.66082 20.7691 9.80851 20.7691C9.95621 20.7691 10.1039 20.7125 10.2164 20.6L15.0008 15.8156L19.7852 20.6C19.8977 20.7125 20.0454 20.7691 20.1931 20.7691C20.3408 20.7691 20.4885 20.7125 20.601 20.6C20.8266 20.3745 20.8266 20.0098 20.601 19.7843L15.8166 14.9998L20.601 10.2154C20.8266 9.98984 20.8266 9.62523 20.601 9.39965Z" fill="#FECB62"/>
</svg>
