<svg width="60" height="60" viewBox="0 0 60 60" fill="none" xmlns="http://www.w3.org/2000/svg">
<path d="M36.4453 60H14.0625C8.89297 60 4.6875 55.7945 4.6875 50.625V18.8672C4.6875 13.6977 8.89297 9.49219 14.0625 9.49219H36.4453C41.6148 9.49219 45.8203 13.6977 45.8203 18.8672V50.625C45.8203 55.7945 41.6148 60 36.4453 60ZM14.0625 14.1797C11.478 14.1797 9.375 16.2827 9.375 18.8672V50.625C9.375 53.2095 11.478 55.3125 14.0625 55.3125H36.4453C39.0298 55.3125 41.1328 53.2095 41.1328 50.625V18.8672C41.1328 16.2827 39.0298 14.1797 36.4453 14.1797H14.0625ZM55.1953 44.7656V9.375C55.1953 4.20547 50.9898 0 45.8203 0H19.8047C18.5101 0 17.4609 1.04919 17.4609 2.34375C17.4609 3.63831 18.5101 4.6875 19.8047 4.6875H45.8203C48.4048 4.6875 50.5078 6.79047 50.5078 9.375V44.7656C50.5078 46.0602 51.557 47.1094 52.8516 47.1094C54.1461 47.1094 55.1953 46.0602 55.1953 44.7656Z" fill="black"/>
</svg>
