<svg width="60" height="60" viewBox="0 0 60 60" fill="none" xmlns="http://www.w3.org/2000/svg">
<path d="M30 60C46.56 60 60 46.56 60 30C60 13.44 46.56 0 30 0C13.44 0 0 13.44 0 30C0 46.56 13.44 60 30 60ZM40.7075 27.8575H45.0025V23.565H49.2975V27.86H53.555V32.155H49.2975V36.45H45.0025V32.155H40.7075V27.8575ZM21.4475 14.9975C25.2325 14.9975 28.7175 16.33 31.49 18.905L27.425 22.85C25.8275 21.2875 23.64 20.54 21.4475 20.54C16.2575 20.54 12.1075 24.835 12.1075 29.9875C12.1075 35.14 16.245 39.435 21.4475 39.435C25.39 39.435 29.2975 37.125 29.9275 32.9875H21.4475V27.835H35.59C35.7475 28.6575 35.82 29.48 35.82 30.3375C35.82 38.9025 30.0725 44.9975 21.4475 44.9975V45C13.125 45 6.445 38.285 6.445 29.9975C6.445 21.71 13.125 14.9975 21.4475 14.9975Z" fill="#39373C"/>
</svg>
