<svg width="30" height="30" viewBox="0 0 30 30" fill="none" xmlns="http://www.w3.org/2000/svg">
<path d="M15 30C23.28 30 30 23.28 30 15C30 6.72 23.28 0 15 0C6.72 0 0 6.72 0 15C0 23.28 6.72 30 15 30ZM20.3538 13.9287H22.5012V11.7825H24.6488V13.93H26.7775V16.0775H24.6488V18.225H22.5012V16.0775H20.3538V13.9287ZM10.7238 7.49875C12.6163 7.49875 14.3587 8.165 15.745 9.4525L13.7125 11.425C12.9138 10.6438 11.82 10.27 10.7238 10.27C8.12875 10.27 6.05375 12.4175 6.05375 14.9937C6.05375 17.57 8.1225 19.7175 10.7238 19.7175C12.695 19.7175 14.6487 18.5625 14.9637 16.4937H10.7238V13.9175H17.795C17.8738 14.3287 17.91 14.74 17.91 15.1688C17.91 19.4513 15.0363 22.4988 10.7238 22.4988V22.5C6.5625 22.5 3.2225 19.1425 3.2225 14.9987C3.2225 10.855 6.5625 7.49875 10.7238 7.49875Z" fill="white"/>
</svg>
