<svg width="40" height="40" viewBox="0 0 40 40" fill="none" xmlns="http://www.w3.org/2000/svg">
<g clip-path="url(#clip0)">
<path d="M8.86484 24.1724L7.4725 29.3703L2.38352 29.4779C0.862656 26.657 0 23.4296 0 19.9999C0 16.6835 0.806563 13.556 2.23625 10.8021H2.23734L6.76797 11.6327L8.75266 16.1362C8.33727 17.3472 8.11086 18.6472 8.11086 19.9999C8.11102 21.4681 8.37695 22.8747 8.86484 24.1724Z" fill="#FBBB00"/>
<path d="M39.6523 16.2637C39.882 17.4735 40.0017 18.723 40.0017 19.9999C40.0017 21.4318 39.8512 22.8285 39.5644 24.1758C38.5908 28.7604 36.0468 32.7637 32.5227 35.5966L32.5216 35.5955L26.815 35.3044L26.0073 30.2626C28.3458 28.8912 30.1733 26.745 31.1359 24.1758H20.4414V16.2637H31.292H39.6523Z" fill="#518EF8"/>
<path d="M32.5191 35.5957L32.5202 35.5967C29.0927 38.3517 24.7388 40 19.9993 40C12.3828 40 5.76086 35.7429 2.38281 29.4781L8.86414 24.1726C10.5531 28.6803 14.9015 31.8891 19.9993 31.8891C22.1905 31.8891 24.2433 31.2967 26.0048 30.2627L32.5191 35.5957Z" fill="#28B446"/>
<path d="M32.768 4.60437L26.2888 9.90875C24.4658 8.76922 22.3108 8.11094 20.002 8.11094C14.7888 8.11094 10.3591 11.467 8.75477 16.1362L2.23937 10.8022H2.23828C5.56688 4.38461 12.2723 0 20.002 0C24.8548 0 29.3042 1.72859 32.768 4.60437Z" fill="#F14336"/>
</g>
<defs>
<clipPath id="clip0">
<rect width="40" height="40" fill="white"/>
</clipPath>
</defs>
</svg>
