<svg width="60" height="60" viewBox="0 0 60 60" fill="none" xmlns="http://www.w3.org/2000/svg">
<path d="M35.7422 30C35.7422 33.1714 33.1714 35.7422 30 35.7422C26.8286 35.7422 24.2578 33.1714 24.2578 30C24.2578 26.8286 26.8286 24.2578 30 24.2578C33.1714 24.2578 35.7422 26.8286 35.7422 30Z" fill="#39373C"/>
<path d="M43.4288 19.8403C43.1528 19.0923 42.7124 18.4153 42.1402 17.8596C41.5845 17.2874 40.9079 16.847 40.1595 16.571C39.5525 16.3352 38.6406 16.0546 36.9611 15.9781C35.1442 15.8953 34.5995 15.8774 29.9999 15.8774C25.3998 15.8774 24.8551 15.8948 23.0387 15.9777C21.3591 16.0546 20.4468 16.3352 19.8403 16.571C19.0918 16.847 18.4148 17.2874 17.8595 17.8596C17.2873 18.4153 16.847 19.0919 16.5705 19.8403C16.3347 20.4473 16.0541 21.3596 15.9777 23.0392C15.8948 24.8556 15.877 25.4003 15.877 30.0004C15.877 34.6 15.8948 35.1447 15.9777 36.9616C16.0541 38.6411 16.3347 39.553 16.5705 40.16C16.847 40.9084 17.2869 41.585 17.8591 42.1407C18.4148 42.7129 19.0914 43.1533 19.8398 43.4293C20.4468 43.6655 21.3591 43.9461 23.0387 44.0226C24.8551 44.1054 25.3994 44.1228 29.9994 44.1228C34.5999 44.1228 35.1447 44.1054 36.9606 44.0226C38.6402 43.9461 39.5525 43.6655 40.1595 43.4293C41.6619 42.8498 42.8493 41.6624 43.4288 40.16C43.6646 39.553 43.9452 38.6411 44.0221 36.9616C44.1049 35.1447 44.1223 34.6 44.1223 30.0004C44.1223 25.4003 44.1049 24.8556 44.0221 23.0392C43.9456 21.3596 43.665 20.4473 43.4288 19.8403ZM29.9999 38.8457C25.1142 38.8457 21.1536 34.8856 21.1536 29.9999C21.1536 25.1142 25.1142 21.1541 29.9999 21.1541C34.8851 21.1541 38.8457 25.1142 38.8457 29.9999C38.8457 34.8856 34.8851 38.8457 29.9999 38.8457ZM39.1954 22.8716C38.0538 22.8716 37.1282 21.946 37.1282 20.8044C37.1282 19.6627 38.0538 18.7371 39.1954 18.7371C40.3371 18.7371 41.2627 19.6627 41.2627 20.8044C41.2622 21.946 40.3371 22.8716 39.1954 22.8716Z" fill="#39373C"/>
<path d="M30 0C13.434 0 0 13.434 0 30C0 46.566 13.434 60 30 60C46.566 60 60 46.566 60 30C60 13.434 46.566 0 30 0ZM47.1227 37.1022C47.0393 38.936 46.7477 40.188 46.322 41.2839C45.4271 43.5979 43.5979 45.4271 41.2839 46.322C40.1884 46.7477 38.936 47.0389 37.1027 47.1227C35.2657 47.2064 34.6788 47.2266 30.0005 47.2266C25.3217 47.2266 24.7353 47.2064 22.8978 47.1227C21.0645 47.0389 19.812 46.7477 18.7166 46.322C17.5667 45.8894 16.5257 45.2115 15.6651 44.3349C14.789 43.4747 14.111 42.4333 13.6784 41.2839C13.2527 40.1884 12.9611 38.936 12.8778 37.1027C12.7931 35.2652 12.7734 34.6783 12.7734 30C12.7734 25.3217 12.7931 24.7348 12.8773 22.8978C12.9607 21.064 13.2518 19.812 13.6775 18.7161C14.1101 17.5667 14.7885 16.5253 15.6651 15.6651C16.5253 14.7885 17.5667 14.1106 18.7161 13.678C19.812 13.2523 21.064 12.9611 22.8978 12.8773C24.7348 12.7936 25.3217 12.7734 30 12.7734C34.6783 12.7734 35.2652 12.7936 37.1022 12.8778C38.936 12.9611 40.188 13.2523 41.2839 13.6775C42.4333 14.1101 43.4747 14.7885 44.3353 15.6651C45.2115 16.5257 45.8899 17.5667 46.322 18.7161C46.7482 19.812 47.0393 21.064 47.1231 22.8978C47.2069 24.7348 47.2266 25.3217 47.2266 30C47.2266 34.6783 47.2069 35.2652 47.1227 37.1022Z" fill="#39373C"/>
</svg>
