<svg width="20" height="20" viewBox="0 0 20 20" fill="none" xmlns="http://www.w3.org/2000/svg">
<path d="M17.6562 0H2.34375C1.05141 0 0 1.05141 0 2.34375V5.46875H1.5625V2.34375C1.5625 1.91297 1.91297 1.5625 2.34375 1.5625H17.6562C18.087 1.5625 18.4375 1.91297 18.4375 2.34375V17.6562C18.4375 18.087 18.087 18.4375 17.6562 18.4375H2.34375C1.91297 18.4375 1.5625 18.087 1.5625 17.6562V14.5312H0V17.6562C0 18.9486 1.05141 20 2.34375 20H17.6562C18.9486 20 20 18.9486 20 17.6562V2.34375C20 1.05141 18.9486 0 17.6562 0Z" fill="#39373C"/>
<path d="M9.375 5.14516L8.27016 6.25L11.2389 9.21875H0V10.7812H11.2389L8.27016 13.75L9.375 14.8548L14.2298 10L9.375 5.14516Z" fill="#39373C"/>
</svg>
