<svg width="521" height="102" viewBox="0 0 521 102" fill="none" xmlns="http://www.w3.org/2000/svg">
<path fill-rule="evenodd" clip-rule="evenodd" d="M0.649902 100.62H15.4699L14.0699 84.4401H1.8199L0.649902 100.62ZM34.6599 100.62H40.7499V0.620117H25.0099L34.6599 100.62ZM12.5299 68.4901H3.3499L7.1299 17.6201H8.0699L12.5299 68.4901ZM88.0699 0.620117H71.2699L79.6599 61.6201L88.0699 0.620117ZM71.0699 100.62H58.8099V28.5601L71.0699 100.62ZM100.51 100.62H88.9799L100.51 28.5601V100.62Z" fill="#39373C"/>
<path d="M153.47 34.3399H131.54L127.22 44.4899H118.82L138.56 0.629883H146.56L166.36 44.4899H157.84L153.47 34.3399ZM150.78 27.9999L142.51 8.76988L134.3 27.9999H150.78Z" fill="#39373C"/>
<path d="M206.92 44.4899L197.92 31.6399C197.54 31.6399 196.98 31.6999 196.22 31.6999H186.32V44.4899H178.18V0.629904H196.18C199.589 0.548706 202.976 1.18939 206.12 2.5099C208.77 3.619 211.027 5.49633 212.6 7.8999C214.149 10.3968 214.935 13.2923 214.86 16.2299C214.939 19.25 214.095 22.2225 212.44 24.7499C210.745 27.2043 208.325 29.0678 205.52 30.0799L215.61 44.4899H206.92ZM203.97 9.76991C202.13 8.26991 199.436 7.5199 195.89 7.5199H186.36V24.9999H195.89C199.443 24.9999 202.136 24.2366 203.97 22.7099C204.898 21.9154 205.63 20.9172 206.109 19.7931C206.587 18.6691 206.8 17.4496 206.73 16.2299C206.801 15.013 206.588 13.7963 206.109 12.6753C205.63 11.5544 204.898 10.5598 203.97 9.76991Z" fill="#39373C"/>
<path d="M238.59 42.2C235.104 40.3379 232.198 37.553 230.19 34.15C228.157 30.6302 227.12 26.6239 227.19 22.5599C227.124 18.502 228.172 14.5037 230.22 10.9999C232.245 7.59688 235.159 4.81029 238.65 2.93995C242.339 0.97047 246.468 -0.0307652 250.65 0.0299494C254.023 -0.0104146 257.369 0.628965 260.49 1.90995C263.387 3.11499 265.963 4.98142 268.01 7.35995L262.74 12.3099C261.279 10.662 259.481 9.34739 257.467 8.45536C255.454 7.56334 253.272 7.11473 251.07 7.13995C248.246 7.09937 245.459 7.78825 242.98 9.13995C240.644 10.4059 238.714 12.3054 237.41 14.6199C236.043 17.0611 235.353 19.8228 235.41 22.6199C235.351 25.4173 236.041 28.1795 237.41 30.6199C238.722 32.889 240.636 34.7509 242.94 36C245.433 37.3541 248.233 38.0429 251.07 38C253.282 38.0352 255.476 37.5883 257.498 36.6903C259.52 35.7923 261.322 34.4648 262.78 32.7999L268.05 37.7999C265.995 40.1837 263.409 42.0506 260.5 43.25C257.37 44.5338 254.013 45.1733 250.63 45.13C246.433 45.1913 242.289 44.183 238.59 42.2Z" fill="#39373C"/>
<path d="M309.61 34.3399H287.68L283.36 44.4899H274.96L294.7 0.629883H302.7L322.5 44.4899H313.98L309.61 34.3399ZM306.92 27.9999L298.65 8.76988L290.44 27.9999H306.92Z" fill="#39373C"/>
<path d="M334.36 0.629801H353.53C357.842 0.549348 362.113 1.48094 366 3.3498C369.504 5.05037 372.442 7.72788 374.46 11.0598C376.503 14.5423 377.542 18.5229 377.46 22.5598C377.541 26.5934 376.502 30.5706 374.46 34.0498C372.445 37.3839 369.506 40.0621 366 41.7598C362.115 43.6367 357.843 44.572 353.53 44.4898H334.36V0.629801ZM353.16 37.6298C356.095 37.6922 359.004 37.0618 361.65 35.7898C364.009 34.6288 365.972 32.795 367.29 30.5198C368.649 28.1045 369.339 25.3706 369.29 22.5998C369.339 19.8258 368.649 17.0888 367.29 14.6698C365.974 12.3953 364.01 10.5641 361.65 9.4098C359.005 8.13435 356.096 7.50054 353.16 7.5598H342.5V37.5898L353.16 37.6298Z" fill="#39373C"/>
<path d="M392.38 0.629883H400.52V44.4899H392.38V0.629883Z" fill="#39373C"/>
<path d="M447.07 34.3399H425.15L420.82 44.4899H412.43L432.17 0.629883H440.17L459.96 44.4899H451.44L447.07 34.3399ZM444.38 27.9999L436.07 8.76988L427.9 27.9999H444.38Z" fill="#39373C"/>
<path d="M159.07 100.61V71.54L144.64 95.6H141L126.59 71.91V100.61H118.82V56.75H125.53L142.94 85.82L160.07 56.75H166.77L166.84 100.61H159.07Z" fill="#39373C"/>
<path d="M217.82 93.78V100.61H184.92V56.75H216.92V63.58H193.07V75H214.25V81.71H193.07V93.78H217.82Z" fill="#39373C"/>
<path d="M273.46 100.61L273.4 71.54L258.98 95.6H255.35L240.94 71.91V100.61H233.17V56.75H239.87L257.29 85.82L274.4 56.75H281.07L281.13 100.61H273.46Z" fill="#39373C"/>
<path d="M307.67 98.3199C304.157 96.4603 301.229 93.6634 299.21 90.2399C297.198 86.7194 296.14 82.7347 296.14 78.6799C296.14 74.6251 297.198 70.6405 299.21 67.1199C301.223 63.6817 304.152 60.8704 307.67 58.9999C311.411 57.0809 315.555 56.0801 319.76 56.0801C323.965 56.0801 328.109 57.0809 331.85 58.9999C335.359 60.8513 338.287 63.6375 340.31 67.0499C342.322 70.5812 343.38 74.5756 343.38 78.6399C343.38 82.7043 342.322 86.6986 340.31 90.2299C338.28 93.624 335.352 96.3922 331.85 98.2299C328.109 100.149 323.965 101.15 319.76 101.15C315.555 101.15 311.411 100.149 307.67 98.2299V98.3199ZM327.67 92.1199C329.982 90.8248 331.889 88.914 333.18 86.5999C334.493 84.1647 335.18 81.4415 335.18 78.6749C335.18 75.9084 334.493 73.1851 333.18 70.7499C331.889 68.4386 329.981 66.5311 327.67 65.2399C325.239 63.9468 322.528 63.2706 319.775 63.2706C317.022 63.2706 314.311 63.9468 311.88 65.2399C309.564 66.5279 307.652 68.436 306.36 70.7499C305.047 73.1851 304.36 75.9084 304.36 78.6749C304.36 81.4415 305.047 84.1647 306.36 86.5999C307.652 88.9166 309.563 90.8279 311.88 92.1199C314.311 93.413 317.022 94.0893 319.775 94.0893C322.528 94.0893 325.239 93.413 327.67 92.1199Z" fill="#39373C"/>
<path d="M386.99 100.61L377.99 87.7601C377.429 87.8171 376.864 87.8405 376.3 87.8301H366.4V100.61H358.25V56.7501H376.25C379.655 56.6748 383.038 57.3153 386.18 58.6301C388.861 59.7211 391.154 61.5918 392.76 64.0001C394.305 66.4986 395.087 69.3936 395.01 72.3301C395.092 75.3492 394.252 78.3215 392.6 80.8501C390.901 83.3004 388.483 85.1627 385.68 86.1801L395.76 100.59L386.99 100.61ZM384.07 65.9001C382.23 64.3868 379.533 63.6334 375.98 63.6401H366.46V81.1201H375.98C379.533 81.1201 382.23 80.3601 384.07 78.8401C384.994 78.0401 385.722 77.0393 386.198 75.9143C386.675 74.7893 386.888 73.57 386.82 72.3501C386.891 71.1356 386.68 69.921 386.203 68.8019C385.726 67.6828 384.996 66.6895 384.07 65.9001Z" fill="#39373C"/>
<path d="M410.36 56.75H418.51V100.61H410.36V56.75Z" fill="#39373C"/>
<path d="M465.07 90.46H443.13L438.81 100.61H430.41L450.15 56.75H458.15L477.95 100.61H469.43L465.07 90.46ZM462.38 84.07L454.07 64.89L445.86 84.07H462.38Z" fill="#39373C"/>
<path d="M489.81 56.75H497.96V93.75H520.89V100.64H489.81V56.75Z" fill="#39373C"/>
</svg>
