<svg width="20" height="10" viewBox="0 0 20 10" fill="none" xmlns="http://www.w3.org/2000/svg">
<path d="M0.758272 4.19355H17.4051L14.7449 1.37806C14.4481 1.06387 14.447 0.553264 14.7424 0.237578C15.0378 -0.0781481 15.518 -0.0793172 15.8148 0.234836L19.7769 4.42839L19.7776 4.42915C20.0737 4.74335 20.0746 5.25561 19.7777 5.57085L19.777 5.57161L15.8149 9.76517C15.5181 10.0793 15.0379 10.0782 14.7425 9.76242C14.447 9.44674 14.4482 8.93613 14.745 8.62194L17.4051 5.80645H0.758272C0.339478 5.80645 0 5.44541 0 5C0 4.5546 0.339478 4.19355 0.758272 4.19355Z" fill="white"/>
</svg>
