<svg width="30" height="30" viewBox="0 0 30 30" fill="none" xmlns="http://www.w3.org/2000/svg">
<path d="M15 0C6.72923 0 0 6.72865 0 15C0 23.2713 6.72923 30 15 30C23.2708 30 30 23.2713 30 15C30 6.72865 23.2708 0 15 0ZM15 28.8462C7.36558 28.8462 1.15385 22.6344 1.15385 15C1.15385 7.36558 7.36558 1.15385 15 1.15385C22.6344 1.15385 28.8462 7.36558 28.8462 15C28.8462 22.6344 22.6344 28.8462 15 28.8462Z" fill="#D2D2D2"/>
<path d="M22.2119 14.4231H15.5773V8.07692C15.5773 7.75788 15.3188 7.5 15.0004 7.5C14.6819 7.5 14.4235 7.75788 14.4235 8.07692V14.4231H7.78884C7.47038 14.4231 7.21191 14.681 7.21191 15C7.21191 15.319 7.47038 15.5769 7.78884 15.5769H14.4235V22.5C14.4235 22.819 14.6819 23.0769 15.0004 23.0769C15.3188 23.0769 15.5773 22.819 15.5773 22.5V15.5769H22.2119C22.5304 15.5769 22.7888 15.319 22.7888 15C22.7888 14.681 22.5304 14.4231 22.2119 14.4231Z" fill="#D2D2D2"/>
</svg>
