<svg width="20" height="10" viewBox="0 0 20 10" fill="none" xmlns="http://www.w3.org/2000/svg">
<path d="M19.2417 4.19355H2.5949L5.25506 1.37806C5.55189 1.06387 5.55303 0.553264 5.2576 0.237578C4.96218 -0.0781481 4.48204 -0.0793172 4.18522 0.234836L0.223098 4.42839L0.222415 4.42915C-0.0736517 4.74335 -0.0745995 5.25561 0.22234 5.57085L0.223022 5.57161L4.18514 9.76517C4.48193 10.0793 4.96207 10.0782 5.25753 9.76242C5.55295 9.44674 5.55181 8.93613 5.25499 8.62194L2.5949 5.80645H19.2417C19.6605 5.80645 20 5.44541 20 5C20 4.5546 19.6605 4.19355 19.2417 4.19355Z" fill="white"/>
</svg>
