<svg width="80" height="80" viewBox="0 0 80 80" fill="none" xmlns="http://www.w3.org/2000/svg">
<g clip-path="url(#clip0)">
<path d="M40.0006 41.5429C44.7411 41.5429 49.3702 38.6666 53.0351 33.4437C56.2696 28.8346 58.2004 23.136 58.2004 18.1998C58.2006 8.16447 50.0359 0 40.0006 0C29.9653 0 21.8008 8.16447 21.8008 18.1998C21.8008 23.136 23.7316 28.8346 26.966 33.4437C30.631 38.6666 35.2601 41.5429 40.0006 41.5429ZM40.0006 2.96775C48.3995 2.96775 55.2327 9.80088 55.2327 18.1998C55.2327 22.4842 53.4597 27.6721 50.6059 31.7391C47.5573 36.0834 43.6919 38.5752 40.0006 38.5752C36.3093 38.5752 32.4439 36.0834 29.3952 31.7391C26.5415 27.6721 24.7685 22.4842 24.7685 18.1998C24.7685 9.80088 31.6017 2.96775 40.0006 2.96775Z" fill="#D2D2D2"/>
<path d="M66.6719 49.6832C63.4651 44.7065 58.9508 40.7338 53.6164 38.1944C53.0497 37.9248 52.3751 38.0405 51.9307 38.4835C48.3553 42.0489 44.2304 43.9333 40.0017 43.9333C35.7725 43.9333 31.6481 42.0489 28.0749 38.4837C27.6306 38.0403 26.9555 37.9244 26.3891 38.1942C21.0546 40.7336 16.5397 44.7065 13.3326 49.683C10.0382 54.7948 8.29688 60.7256 8.29688 66.8338V66.8595C8.29688 67.2782 8.47375 67.6774 8.78378 67.9588C17.3459 75.7238 28.4326 80.0001 40.0015 80.0001C51.5704 80.0001 62.6569 75.7238 71.2193 67.9588C71.5293 67.6774 71.7062 67.2784 71.7062 66.8595V66.8338C71.7066 60.7256 69.9657 54.7948 66.6719 49.6832ZM40.0017 77.0326C29.3928 77.0326 19.2166 73.1909 11.2715 66.2017C11.3869 60.8884 12.956 55.7459 15.8272 51.2907C18.551 47.0644 22.3143 43.6367 26.7539 41.3276C30.7198 44.9785 35.28 46.901 40.0017 46.901C44.7226 46.901 49.2837 44.9781 53.2515 41.3274C57.6907 43.6363 61.454 47.0642 64.1772 51.2905C67.0478 55.7455 68.6166 60.8878 68.7319 66.2015C60.7868 73.1907 50.6106 77.0326 40.0017 77.0326Z" fill="#D2D2D2"/>
</g>
<defs>
<clipPath id="clip0">
<rect width="80" height="80" fill="white"/>
</clipPath>
</defs>
</svg>
