<svg width="20" height="20" viewBox="0 0 20 20" fill="none" xmlns="http://www.w3.org/2000/svg">
<path d="M19.3603 18.2168L14.6002 13.2662C15.8241 11.8113 16.4947 9.98069 16.4947 8.07499C16.4947 3.62251 12.8722 0 8.41972 0C3.96724 0 0.344727 3.62251 0.344727 8.07499C0.344727 12.5275 3.96724 16.15 8.41972 16.15C10.0912 16.15 11.6841 15.6458 13.046 14.6888L17.8422 19.677C18.0427 19.8852 18.3123 20 18.6012 20C18.8747 20 19.1342 19.8957 19.3311 19.7061C19.7496 19.3034 19.763 18.6357 19.3603 18.2168ZM8.41972 2.10652C11.7108 2.10652 14.3882 4.78391 14.3882 8.07499C14.3882 11.3661 11.7108 14.0435 8.41972 14.0435C5.12863 14.0435 2.45125 11.3661 2.45125 8.07499C2.45125 4.78391 5.12863 2.10652 8.41972 2.10652Z" fill="white"/>
</svg>
