<svg width="295" height="102" viewBox="0 0 295 102" fill="none" xmlns="http://www.w3.org/2000/svg">
<g filter="url(#filter0_d)">
<path d="M44.0522 89.9882C44.0522 90.3437 44.1413 90.6598 44.3196 90.9363C44.5078 91.2129 44.7356 91.4548 45.0031 91.6622C45.2705 91.8696 45.632 92.1215 46.0877 92.4178C46.5829 92.7338 46.9791 93.0103 47.2763 93.2474C47.5734 93.4844 47.826 93.7758 48.034 94.1214C48.242 94.4572 48.346 94.8473 48.346 95.2918C48.346 95.8053 48.2074 96.2646 47.93 96.6695C47.6527 97.0646 47.2664 97.3757 46.7711 97.6028C46.2858 97.8201 45.741 97.9287 45.1368 97.9287C44.691 97.9287 44.2255 97.8695 43.7402 97.751C43.2548 97.6226 42.9279 97.4843 42.7596 97.3362C42.71 97.2967 42.6704 97.2621 42.6407 97.2325C42.6209 97.193 42.611 97.1337 42.611 97.0547L42.5664 94.6992V94.6844C42.5664 94.6449 42.5912 94.6251 42.6407 94.6251C42.6902 94.6152 42.7199 94.6301 42.7298 94.6696C43.027 95.272 43.2845 95.7609 43.5024 96.1362C43.7303 96.5115 44.0126 96.8424 44.3493 97.1288C44.696 97.4152 45.0873 97.5584 45.5231 97.5584C45.9193 97.5584 46.2462 97.4547 46.5037 97.2473C46.7612 97.03 46.89 96.6646 46.89 96.151C46.89 95.7165 46.7909 95.3362 46.5928 95.0103C46.4046 94.6844 46.1719 94.4078 45.8945 94.1807C45.6172 93.9535 45.2358 93.6819 44.7505 93.3659C44.275 93.0597 43.9036 92.798 43.6362 92.5807C43.3786 92.3635 43.1558 92.1017 42.9676 91.7956C42.7794 91.4894 42.6853 91.1289 42.6853 90.7141C42.6853 90.1907 42.8338 89.7512 43.131 89.3956C43.4381 89.0302 43.8293 88.7635 44.3048 88.5956C44.7802 88.4179 45.2804 88.329 45.8054 88.329C46.1521 88.329 46.5037 88.3635 46.8603 88.4327C47.2168 88.4919 47.5041 88.566 47.722 88.6549C47.8112 88.6944 47.8706 88.7388 47.9003 88.7882C47.93 88.8277 47.9449 88.8821 47.9449 88.9512V91.1289C47.9449 91.1585 47.9201 91.1832 47.8706 91.203C47.8211 91.2129 47.7913 91.203 47.7814 91.1734L47.6626 90.8919C47.415 90.2697 47.1228 89.7413 46.786 89.3067C46.4591 88.8722 45.9985 88.6549 45.4042 88.6549C45.008 88.6549 44.6811 88.7685 44.4236 88.9956C44.176 89.2228 44.0522 89.5536 44.0522 89.9882Z" fill="#8E8E8D"/>
<path d="M60.1274 95.7027C60.1274 95.6855 60.1447 95.677 60.1791 95.677C60.205 95.677 60.2265 95.6855 60.2437 95.7027C60.2696 95.7113 60.2825 95.7199 60.2825 95.7285C60.1963 96.3984 60.1533 97.0081 60.1533 97.5577C60.1533 97.6264 60.1404 97.678 60.1145 97.7123C60.0887 97.7381 60.037 97.751 59.9595 97.751H54.249C54.2231 97.751 54.2102 97.7252 54.2102 97.6737C54.2102 97.6222 54.2231 97.5964 54.249 97.5964C54.5246 97.5964 54.7227 97.5749 54.8433 97.532C54.9725 97.489 55.0586 97.4075 55.1017 97.2872C55.1447 97.1584 55.1663 96.9652 55.1663 96.7075V90.7431C55.1663 90.4854 55.1447 90.2965 55.1017 90.1763C55.0586 90.056 54.9725 89.9745 54.8433 89.9315C54.7141 89.88 54.516 89.8542 54.249 89.8542C54.2231 89.8542 54.2102 89.8285 54.2102 89.7769C54.2102 89.7254 54.2231 89.6996 54.249 89.6996H59.7269C59.8131 89.6996 59.8561 89.7383 59.8561 89.8156L59.882 91.5289C59.882 91.5461 59.8561 91.559 59.8045 91.5675C59.7614 91.5761 59.7355 91.5675 59.7269 91.5418C59.5891 91.0437 59.3566 90.6744 59.0293 90.4339C58.702 90.1935 58.2713 90.0732 57.7373 90.0732H57.3497C57.0913 90.0732 56.9018 90.129 56.7812 90.2407C56.6607 90.3523 56.6004 90.5241 56.6004 90.756V93.3839H57.6727C58.1723 93.3839 58.5555 93.2981 58.8226 93.1263C59.0896 92.9545 59.2231 92.7141 59.2231 92.4049C59.2231 92.3791 59.2446 92.3662 59.2877 92.3662C59.3393 92.3662 59.3652 92.3791 59.3652 92.4049L59.3523 93.5643L59.3652 94.1826C59.3824 94.4746 59.391 94.7065 59.391 94.8783C59.391 94.8954 59.3652 94.904 59.3135 94.904C59.2618 94.904 59.236 94.8954 59.236 94.8783C59.236 94.5261 59.0982 94.2513 58.8226 94.0538C58.5555 93.8477 58.168 93.7446 57.6598 93.7446H56.6004V96.656C56.6004 96.905 56.6477 97.0897 56.7425 97.2099C56.8372 97.3302 56.988 97.3903 57.1947 97.3903H57.621C58.2928 97.3903 58.8312 97.2529 59.236 96.978C59.6408 96.7032 59.938 96.2781 60.1274 95.7027Z" fill="#8E8E8D"/>
<path d="M74.0001 97.5964C74.0173 97.5964 74.0259 97.6222 74.0259 97.6737C74.0259 97.7252 74.0173 97.751 74.0001 97.751H71.7004C71.5109 97.751 71.1577 97.3989 70.6409 96.6946C70.1242 95.9818 69.4997 94.9899 68.7676 93.7189C68.6987 93.7275 68.5996 93.7317 68.4704 93.7317C68.1345 93.7317 67.8977 93.7275 67.7599 93.7189V96.7075C67.7599 96.9738 67.7814 97.167 67.8245 97.2872C67.8675 97.4075 67.9493 97.489 68.0699 97.532C68.1991 97.5749 68.4015 97.5964 68.6772 97.5964C68.6944 97.5964 68.703 97.6222 68.703 97.6737C68.703 97.7252 68.6944 97.751 68.6772 97.751C68.3929 97.751 68.169 97.7467 68.0053 97.7381L67.0234 97.7252L66.0803 97.7381C65.908 97.7467 65.6755 97.751 65.3826 97.751C65.3568 97.751 65.3439 97.7252 65.3439 97.6737C65.3439 97.6222 65.3568 97.5964 65.3826 97.5964C65.6583 97.5964 65.8564 97.5749 65.9769 97.532C66.1061 97.489 66.1923 97.4075 66.2353 97.2872C66.287 97.1584 66.3128 96.9652 66.3128 96.7075V90.7431C66.3128 90.4854 66.2913 90.2965 66.2483 90.1763C66.2052 90.056 66.1191 89.9745 65.9899 89.9315C65.8607 89.88 65.6626 89.8542 65.3956 89.8542C65.3783 89.8542 65.3697 89.8285 65.3697 89.7769C65.3697 89.7254 65.3783 89.6996 65.3956 89.6996L66.0803 89.7125C66.4765 89.7297 66.7909 89.7383 67.0234 89.7383C67.2732 89.7383 67.5488 89.7254 67.8503 89.6996C67.945 89.6911 68.0656 89.6825 68.212 89.6739C68.3671 89.6653 68.548 89.661 68.7547 89.661C69.5471 89.661 70.1586 89.807 70.5893 90.099C71.0285 90.3824 71.2482 90.7817 71.2482 91.297C71.2482 91.6921 71.1276 92.07 70.8864 92.4307C70.6453 92.7914 70.3309 93.0833 69.9433 93.3066C70.6323 94.3887 71.2094 95.2347 71.6745 95.8444C72.1482 96.4542 72.566 96.9008 72.9277 97.1842C73.2981 97.459 73.6555 97.5964 74.0001 97.5964ZM67.7599 93.3453C67.9666 93.3796 68.2164 93.3968 68.5092 93.3968C68.8193 93.3968 69.0647 93.3496 69.2456 93.2551C69.4265 93.1606 69.5557 92.9975 69.6332 92.7656C69.7193 92.5337 69.7624 92.2074 69.7624 91.7865C69.7624 91.0823 69.659 90.5971 69.4523 90.3309C69.2456 90.0646 68.9485 89.9315 68.5609 89.9315C68.268 89.9315 68.0613 89.9959 67.9407 90.1247C67.8201 90.2536 67.7599 90.4683 67.7599 90.7689V93.3453Z" fill="#8E8E8D"/>
<path d="M85.5623 89.6996C85.5881 89.6996 85.601 89.7254 85.601 89.7769C85.601 89.8285 85.5881 89.8542 85.5623 89.8542C85.2522 89.8542 84.9551 89.9916 84.6708 90.2665C84.3866 90.5413 84.1583 90.9106 83.9861 91.3743L81.5959 97.7381C81.5873 97.7724 81.5399 97.7896 81.4538 97.7896C81.3677 97.7896 81.3203 97.7724 81.3117 97.7381L78.0172 90.7689C77.8621 90.4597 77.7071 90.2321 77.5521 90.0861C77.397 89.9315 77.2248 89.8542 77.0353 89.8542C77.0094 89.8542 76.9965 89.8285 76.9965 89.7769C76.9965 89.7254 77.0094 89.6996 77.0353 89.6996C77.1645 89.6996 77.2549 89.7039 77.3066 89.7125C77.4789 89.7297 77.7028 89.7383 77.9784 89.7383C78.7192 89.7383 79.3479 89.7297 79.8647 89.7125C80.0025 89.7039 80.1748 89.6996 80.3815 89.6996C80.4073 89.6996 80.4202 89.7254 80.4202 89.7769C80.4202 89.8285 80.4073 89.8542 80.3815 89.8542C80.1231 89.8542 79.9207 89.91 79.7743 90.0217C79.6364 90.1248 79.5675 90.275 79.5675 90.4726C79.5675 90.6186 79.6149 90.7946 79.7097 91.0007L81.9448 95.7542L83.6243 91.3357C83.7105 91.0952 83.7535 90.8891 83.7535 90.7173C83.7535 90.4511 83.6717 90.2407 83.5081 90.0861C83.353 89.9315 83.1248 89.8542 82.8233 89.8542C82.7975 89.8542 82.7845 89.8285 82.7845 89.7769C82.7845 89.7254 82.7975 89.6996 82.8233 89.6996L83.4564 89.7125C83.8181 89.7297 84.1411 89.7383 84.4253 89.7383C84.589 89.7383 84.7914 89.7297 85.0326 89.7125L85.5623 89.6996Z" fill="#8E8E8D"/>
<path d="M92.4376 96.7075C92.4376 96.9738 92.4591 97.167 92.5022 97.2872C92.5452 97.4075 92.6271 97.489 92.7476 97.532C92.8768 97.5749 93.0792 97.5964 93.3549 97.5964C93.3807 97.5964 93.3936 97.6222 93.3936 97.6737C93.3936 97.7252 93.3807 97.751 93.3549 97.751C93.0706 97.751 92.8467 97.7467 92.683 97.7381L91.7012 97.7252L90.7451 97.7381C90.5728 97.7467 90.3403 97.751 90.0474 97.751C90.0302 97.751 90.0216 97.7252 90.0216 97.6737C90.0216 97.6222 90.0302 97.5964 90.0474 97.5964C90.323 97.5964 90.5255 97.5749 90.6547 97.532C90.7839 97.489 90.87 97.4075 90.913 97.2872C90.9647 97.1584 90.9906 96.9652 90.9906 96.7075V90.7431C90.9906 90.4854 90.9647 90.2965 90.913 90.1763C90.87 90.056 90.7839 89.9745 90.6547 89.9315C90.5255 89.88 90.323 89.8542 90.0474 89.8542C90.0302 89.8542 90.0216 89.8285 90.0216 89.7769C90.0216 89.7254 90.0302 89.6996 90.0474 89.6996L90.7451 89.7125C91.1413 89.7297 91.46 89.7383 91.7012 89.7383C91.9682 89.7383 92.2998 89.7297 92.696 89.7125L93.3549 89.6996C93.3807 89.6996 93.3936 89.7254 93.3936 89.7769C93.3936 89.8285 93.3807 89.8542 93.3549 89.8542C93.0879 89.8542 92.8898 89.88 92.7606 89.9315C92.6314 89.983 92.5452 90.0732 92.5022 90.202C92.4591 90.3223 92.4376 90.5112 92.4376 90.7689V96.7075Z" fill="#8E8E8D"/>
<path d="M107.267 89.6996C107.284 89.6996 107.293 89.7254 107.293 89.7769C107.293 89.8285 107.284 89.8542 107.267 89.8542C106.922 89.8542 106.651 89.9916 106.453 90.2665C106.255 90.5327 106.156 90.8934 106.156 91.3486V97.9442C106.156 97.97 106.134 97.9871 106.091 97.9957C106.057 98.0043 106.031 98 106.014 97.9829L99.9542 91.1038V96.1149C99.9542 96.5701 100.049 96.9308 100.238 97.197C100.428 97.4633 100.691 97.5964 101.027 97.5964C101.044 97.5964 101.052 97.6222 101.052 97.6737C101.052 97.7252 101.044 97.751 101.027 97.751C100.785 97.751 100.6 97.7467 100.471 97.7381L99.7733 97.7252L98.9723 97.7381C98.8259 97.7467 98.6149 97.751 98.3392 97.751C98.3134 97.751 98.3005 97.7252 98.3005 97.6737C98.3005 97.6222 98.3134 97.5964 98.3392 97.5964C98.7182 97.5964 99.0154 97.4633 99.2307 97.197C99.4546 96.9308 99.5666 96.5701 99.5666 96.1149V90.6658C99.2824 90.3566 99.0369 90.1462 98.8302 90.0346C98.6321 89.9143 98.4254 89.8542 98.2101 89.8542C98.1928 89.8542 98.1842 89.8285 98.1842 89.7769C98.1842 89.7254 98.1928 89.6996 98.2101 89.6996L98.7527 89.7125C98.8647 89.7211 99.0283 89.7254 99.2436 89.7254L100.226 89.7125C100.346 89.7039 100.493 89.6996 100.665 89.6996C100.734 89.6996 100.785 89.7168 100.82 89.7512C100.854 89.7855 100.915 89.8585 101.001 89.9702C101.147 90.1677 101.25 90.3008 101.311 90.3695L105.781 95.5095V91.3486C105.781 90.8848 105.686 90.5198 105.497 90.2536C105.307 89.9873 105.045 89.8542 104.709 89.8542C104.691 89.8542 104.683 89.8285 104.683 89.7769C104.683 89.7254 104.691 89.6996 104.709 89.6996L105.264 89.7125C105.54 89.7297 105.772 89.7383 105.962 89.7383C106.134 89.7383 106.375 89.7297 106.685 89.7125L107.267 89.6996Z" fill="#8E8E8D"/>
<path d="M116.716 97.9056C115.768 97.9056 114.941 97.7252 114.235 97.3645C113.529 97.0038 112.99 96.5143 112.62 95.8959C112.25 95.269 112.065 94.5734 112.065 93.809C112.065 92.9846 112.276 92.2503 112.698 91.6062C113.128 90.9535 113.714 90.4511 114.455 90.099C115.204 89.7383 116.039 89.5579 116.961 89.5579C117.366 89.5579 117.775 89.5923 118.188 89.661C118.602 89.7211 118.933 89.8027 119.183 89.9058C119.261 89.9315 119.308 89.9659 119.325 90.0088C119.351 90.0432 119.368 90.1076 119.377 90.202L119.545 91.9927C119.545 92.0184 119.523 92.0356 119.48 92.0442C119.437 92.0528 119.407 92.0399 119.39 92.0055C119.089 91.3443 118.671 90.829 118.137 90.4597C117.611 90.0904 117.008 89.9058 116.328 89.9058C115.449 89.9058 114.778 90.2106 114.313 90.8204C113.856 91.4301 113.628 92.2632 113.628 93.3195C113.628 94.1697 113.774 94.9298 114.067 95.5997C114.36 96.2609 114.765 96.7762 115.282 97.1455C115.807 97.5062 116.393 97.6866 117.039 97.6866C117.392 97.6866 117.663 97.6479 117.853 97.5706C118.042 97.4933 118.18 97.343 118.266 97.1198C118.352 96.8965 118.395 96.5658 118.395 96.1278C118.395 95.6812 118.369 95.3721 118.318 95.2003C118.266 95.02 118.154 94.8997 117.982 94.8396C117.818 94.7795 117.53 94.7494 117.116 94.7494C117.064 94.7494 117.039 94.7151 117.039 94.6464C117.039 94.6206 117.043 94.5991 117.052 94.582C117.069 94.5562 117.086 94.5433 117.103 94.5433C117.835 94.5863 118.425 94.6077 118.873 94.6077C119.312 94.6077 119.769 94.5949 120.243 94.5691C120.26 94.5691 120.273 94.582 120.281 94.6077C120.299 94.6249 120.307 94.6421 120.307 94.6593C120.307 94.7194 120.286 94.7494 120.243 94.7494C120.088 94.7408 119.98 94.7709 119.92 94.8396C119.859 94.8997 119.821 95.0286 119.803 95.2261C119.786 95.415 119.778 95.7585 119.778 96.2566C119.778 96.6431 119.79 96.9179 119.816 97.0811C119.851 97.2443 119.868 97.3473 119.868 97.3903C119.868 97.4418 119.855 97.4762 119.829 97.4933C119.812 97.5105 119.773 97.5277 119.713 97.5449C118.602 97.7853 117.603 97.9056 116.716 97.9056Z" fill="#8E8E8D"/>
<path d="M143.464 97.5732C143.513 97.5732 143.538 97.6028 143.538 97.6621C143.538 97.7213 143.513 97.751 143.464 97.751C143.266 97.751 142.958 97.7411 142.542 97.7213C142.107 97.7016 141.795 97.6917 141.606 97.6917C141.359 97.6917 141.057 97.7016 140.7 97.7213C140.363 97.7411 140.096 97.751 139.898 97.751C139.858 97.751 139.838 97.7213 139.838 97.6621C139.838 97.6028 139.858 97.5732 139.898 97.5732C140.155 97.5732 140.339 97.5485 140.448 97.4991C140.566 97.4399 140.626 97.3411 140.626 97.2028C140.626 97.0349 140.527 96.7535 140.329 96.3584L138.783 93.3215H136.139L135.084 95.6473C134.955 95.9337 134.891 96.2004 134.891 96.4473C134.891 96.8029 135.015 97.0794 135.262 97.2769C135.52 97.4744 135.861 97.5732 136.287 97.5732C136.337 97.5732 136.362 97.6028 136.362 97.6621C136.362 97.7213 136.337 97.751 136.287 97.751C136.109 97.751 135.852 97.7411 135.515 97.7213C135.138 97.7016 134.812 97.6917 134.534 97.6917C134.267 97.6917 133.945 97.7016 133.568 97.7213C133.232 97.7411 132.959 97.751 132.751 97.751C132.712 97.751 132.692 97.7213 132.692 97.6621C132.692 97.6028 132.712 97.5732 132.751 97.5732C133.029 97.5732 133.261 97.5189 133.45 97.4102C133.638 97.2917 133.826 97.0893 134.014 96.8029C134.202 96.5066 134.425 96.072 134.683 95.4992L137.907 88.4327C137.927 88.4031 137.971 88.3882 138.041 88.3882C138.12 88.3882 138.164 88.4031 138.174 88.4327L141.889 95.7214C142.235 96.4226 142.523 96.9066 142.75 97.1732C142.978 97.4399 143.216 97.5732 143.464 97.5732ZM136.332 92.9066H138.575L137.387 90.566L136.332 92.9066Z" fill="#8E8E8D"/>
<path d="M150.804 96.656C150.804 96.8793 150.821 97.0425 150.856 97.1455C150.89 97.24 150.955 97.3044 151.049 97.3387C151.153 97.3731 151.316 97.3903 151.54 97.3903H151.98C152.651 97.3903 153.233 97.2142 153.724 96.8621C154.215 96.5014 154.542 96.0162 154.706 95.4064C154.706 95.3893 154.723 95.3807 154.757 95.3807C154.775 95.3807 154.792 95.3893 154.809 95.4064C154.835 95.415 154.848 95.4236 154.848 95.4322C154.77 96.2824 154.731 96.9909 154.731 97.5577C154.731 97.6264 154.714 97.678 154.68 97.7123C154.654 97.7381 154.607 97.751 154.538 97.751H148.44C148.422 97.751 148.414 97.7252 148.414 97.6737C148.414 97.6222 148.422 97.5964 148.44 97.5964C148.715 97.5964 148.913 97.5749 149.034 97.532C149.163 97.489 149.249 97.4075 149.292 97.2872C149.344 97.1584 149.37 96.9652 149.37 96.7075V90.7431C149.37 90.4854 149.344 90.2965 149.292 90.1763C149.249 90.056 149.163 89.9745 149.034 89.9315C148.905 89.88 148.707 89.8542 148.44 89.8542C148.422 89.8542 148.414 89.8285 148.414 89.7769C148.414 89.7254 148.422 89.6996 148.44 89.6996L149.098 89.7125C149.495 89.7297 149.822 89.7383 150.08 89.7383C150.339 89.7383 150.666 89.7297 151.062 89.7125L151.721 89.6996C151.747 89.6996 151.76 89.7254 151.76 89.7769C151.76 89.8285 151.747 89.8542 151.721 89.8542C151.454 89.8542 151.256 89.88 151.127 89.9315C150.998 89.9745 150.912 90.0603 150.868 90.1892C150.825 90.3094 150.804 90.4983 150.804 90.756V96.656Z" fill="#8E8E8D"/>
<path d="M161.849 96.656C161.849 96.8793 161.866 97.0425 161.901 97.1455C161.935 97.24 162 97.3044 162.095 97.3387C162.198 97.3731 162.362 97.3903 162.586 97.3903H163.025C163.697 97.3903 164.278 97.2142 164.769 96.8621C165.26 96.5014 165.587 96.0162 165.751 95.4064C165.751 95.3893 165.768 95.3807 165.803 95.3807C165.82 95.3807 165.837 95.3893 165.854 95.4064C165.88 95.415 165.893 95.4236 165.893 95.4322C165.816 96.2824 165.777 96.9909 165.777 97.5577C165.777 97.6264 165.76 97.678 165.725 97.7123C165.699 97.7381 165.652 97.751 165.583 97.751H159.485C159.468 97.751 159.459 97.7252 159.459 97.6737C159.459 97.6222 159.468 97.5964 159.485 97.5964C159.761 97.5964 159.959 97.5749 160.079 97.532C160.208 97.489 160.295 97.4075 160.338 97.2872C160.389 97.1584 160.415 96.9652 160.415 96.7075V90.7431C160.415 90.4854 160.389 90.2965 160.338 90.1763C160.295 90.056 160.208 89.9745 160.079 89.9315C159.95 89.88 159.752 89.8542 159.485 89.8542C159.468 89.8542 159.459 89.8285 159.459 89.7769C159.459 89.7254 159.468 89.6996 159.485 89.6996L160.144 89.7125C160.54 89.7297 160.867 89.7383 161.126 89.7383C161.384 89.7383 161.711 89.7297 162.108 89.7125L162.766 89.6996C162.792 89.6996 162.805 89.7254 162.805 89.7769C162.805 89.8285 162.792 89.8542 162.766 89.8542C162.499 89.8542 162.301 89.88 162.172 89.9315C162.043 89.9745 161.957 90.0603 161.914 90.1892C161.871 90.3094 161.849 90.4983 161.849 90.756V96.656Z" fill="#8E8E8D"/>
<path d="M185.318 90.5956C185.318 90.6153 185.288 90.6302 185.229 90.64C185.179 90.6499 185.149 90.64 185.14 90.6104C184.981 90.0376 184.714 89.6129 184.337 89.3364C183.961 89.0598 183.466 88.9216 182.852 88.9216H182.406C182.109 88.9216 181.891 88.9858 181.752 89.1141C181.613 89.2425 181.544 89.4401 181.544 89.7067V92.9066H182.614C183.188 92.9066 183.624 92.8079 183.921 92.6104C184.228 92.403 184.382 92.1215 184.382 91.7659C184.382 91.7462 184.412 91.7363 184.471 91.7363C184.53 91.7363 184.56 91.7462 184.56 91.7659L184.545 93.1141C184.545 93.4301 184.55 93.6671 184.56 93.8251L184.575 94.6103C184.575 94.6399 184.545 94.6548 184.486 94.6548C184.426 94.6548 184.397 94.6399 184.397 94.6103C184.397 94.2153 184.238 93.9042 183.921 93.677C183.614 93.44 183.173 93.3215 182.599 93.3215H181.544V96.4917C181.544 96.7979 181.584 97.0251 181.663 97.1732C181.742 97.3214 181.891 97.4251 182.109 97.4843C182.327 97.5436 182.668 97.5732 183.134 97.5732C183.154 97.5732 183.164 97.6028 183.164 97.6621C183.164 97.7213 183.154 97.751 183.134 97.751C182.728 97.751 182.411 97.746 182.183 97.7362L180.667 97.7213L179.553 97.7362C179.355 97.746 179.083 97.751 178.736 97.751C178.706 97.751 178.691 97.7213 178.691 97.6621C178.691 97.6028 178.706 97.5732 178.736 97.5732C179.083 97.5732 179.335 97.5485 179.494 97.4991C179.652 97.4497 179.756 97.3559 179.806 97.2177C179.865 97.0695 179.895 96.8473 179.895 96.551V89.6919C179.895 89.3956 179.87 89.1783 179.821 89.0401C179.771 88.9018 179.672 88.808 179.523 88.7586C179.375 88.6993 179.147 88.6697 178.84 88.6697C178.81 88.6697 178.795 88.6401 178.795 88.5808C178.795 88.5216 178.81 88.4919 178.84 88.4919H185.14C185.239 88.4919 185.288 88.5364 185.288 88.6253L185.318 90.5956Z" fill="#8E8E8D"/>
<path d="M199.863 97.5964C199.906 97.5964 199.927 97.6222 199.927 97.6737C199.927 97.7252 199.906 97.751 199.863 97.751C199.69 97.751 199.423 97.7424 199.062 97.7252C198.683 97.708 198.411 97.6994 198.248 97.6994C198.032 97.6994 197.77 97.708 197.46 97.7252C197.167 97.7424 196.934 97.751 196.762 97.751C196.727 97.751 196.71 97.7252 196.71 97.6737C196.71 97.6222 196.727 97.5964 196.762 97.5964C196.986 97.5964 197.145 97.5749 197.24 97.532C197.343 97.4805 197.395 97.3946 197.395 97.2743C197.395 97.1283 197.309 96.8836 197.137 96.5401L195.793 93.8992H193.493L192.576 95.9217C192.464 96.1708 192.408 96.4026 192.408 96.6173C192.408 96.9265 192.516 97.167 192.731 97.3387C192.955 97.5105 193.252 97.5964 193.622 97.5964C193.665 97.5964 193.687 97.6222 193.687 97.6737C193.687 97.7252 193.665 97.751 193.622 97.751C193.467 97.751 193.243 97.7424 192.951 97.7252C192.623 97.708 192.339 97.6994 192.098 97.6994C191.865 97.6994 191.585 97.708 191.258 97.7252C190.965 97.7424 190.728 97.751 190.548 97.751C190.513 97.751 190.496 97.7252 190.496 97.6737C190.496 97.6222 190.513 97.5964 190.548 97.5964C190.789 97.5964 190.991 97.5492 191.155 97.4547C191.318 97.3516 191.482 97.1756 191.646 96.9265C191.809 96.6689 192.003 96.291 192.227 95.7929L195.031 89.6481C195.048 89.6223 195.087 89.6095 195.147 89.6095C195.216 89.6095 195.255 89.6223 195.263 89.6481L198.493 95.9861C198.795 96.5959 199.044 97.0167 199.242 97.2486C199.441 97.4805 199.647 97.5964 199.863 97.5964ZM193.661 93.5385H195.612L194.578 91.5031L193.661 93.5385Z" fill="#8E8E8D"/>
<path d="M206.785 96.7075C206.785 96.9738 206.807 97.167 206.85 97.2872C206.893 97.4075 206.975 97.489 207.095 97.532C207.225 97.5749 207.427 97.5964 207.703 97.5964C207.728 97.5964 207.741 97.6222 207.741 97.6737C207.741 97.7252 207.728 97.751 207.703 97.751C207.418 97.751 207.194 97.7467 207.031 97.7381L206.049 97.7252L205.093 97.7381C204.92 97.7467 204.688 97.751 204.395 97.751C204.378 97.751 204.369 97.7252 204.369 97.6737C204.369 97.6222 204.378 97.5964 204.395 97.5964C204.671 97.5964 204.873 97.5749 205.002 97.532C205.132 97.489 205.218 97.4075 205.261 97.2872C205.312 97.1584 205.338 96.9652 205.338 96.7075V90.7431C205.338 90.4854 205.312 90.2965 205.261 90.1763C205.218 90.056 205.132 89.9745 205.002 89.9315C204.873 89.88 204.671 89.8542 204.395 89.8542C204.378 89.8542 204.369 89.8285 204.369 89.7769C204.369 89.7254 204.378 89.6996 204.395 89.6996L205.093 89.7125C205.489 89.7297 205.808 89.7383 206.049 89.7383C206.316 89.7383 206.647 89.7297 207.044 89.7125L207.703 89.6996C207.728 89.6996 207.741 89.7254 207.741 89.7769C207.741 89.8285 207.728 89.8542 207.703 89.8542C207.436 89.8542 207.237 89.88 207.108 89.9315C206.979 89.983 206.893 90.0732 206.85 90.202C206.807 90.3223 206.785 90.5112 206.785 90.7689V96.7075Z" fill="#8E8E8D"/>
<path d="M215.142 89.9959C214.117 89.9959 213.38 90.6615 212.932 91.9927C212.924 92.0184 212.898 92.0313 212.855 92.0313C212.812 92.0227 212.79 92.0055 212.79 91.9798C212.825 91.6363 212.863 91.194 212.907 90.6529C212.95 90.1033 212.971 89.6911 212.971 89.4162C212.971 89.3733 212.993 89.3518 213.036 89.3518C213.087 89.3518 213.113 89.3733 213.113 89.4162C213.113 89.6052 213.359 89.6996 213.85 89.6996C214.59 89.7254 215.456 89.7383 216.447 89.7383C216.955 89.7383 217.493 89.7297 218.061 89.7125L218.94 89.6996C219.267 89.6996 219.504 89.6782 219.651 89.6352C219.806 89.5923 219.905 89.5064 219.948 89.3776C219.956 89.3432 219.982 89.3261 220.025 89.3261C220.077 89.3261 220.103 89.3432 220.103 89.3776C220.077 89.6352 220.047 90.0475 220.012 90.6143C219.987 91.1811 219.974 91.6363 219.974 91.9798C219.974 92.0055 219.952 92.0184 219.909 92.0184C219.866 92.0184 219.84 92.0055 219.832 91.9798C219.702 91.3185 219.461 90.8247 219.108 90.4983C218.755 90.1634 218.32 89.9959 217.803 89.9959C217.553 89.9959 217.385 90.0518 217.299 90.1634C217.222 90.2665 217.183 90.4683 217.183 90.7689V96.7075C217.183 96.9738 217.209 97.167 217.26 97.2872C217.312 97.4075 217.411 97.489 217.558 97.532C217.704 97.5749 217.937 97.5964 218.255 97.5964C218.281 97.5964 218.294 97.6222 218.294 97.6737C218.294 97.7252 218.281 97.751 218.255 97.751C217.945 97.751 217.7 97.7467 217.519 97.7381L216.447 97.7252L215.4 97.7381C215.219 97.7467 214.969 97.751 214.651 97.751C214.625 97.751 214.612 97.7252 214.612 97.6737C214.612 97.6222 214.625 97.5964 214.651 97.5964C214.961 97.5964 215.189 97.5749 215.335 97.532C215.49 97.489 215.594 97.4075 215.646 97.2872C215.706 97.1584 215.736 96.9652 215.736 96.7075V90.7431C215.736 90.4511 215.697 90.2536 215.62 90.1505C215.542 90.0475 215.383 89.9959 215.142 89.9959Z" fill="#8E8E8D"/>
<path d="M234.038 97.5964C234.064 97.5964 234.076 97.6222 234.076 97.6737C234.076 97.7252 234.064 97.751 234.038 97.751C233.736 97.751 233.495 97.7467 233.314 97.7381L232.319 97.7252L231.157 97.7381C231.002 97.7467 230.791 97.751 230.524 97.751C230.498 97.751 230.485 97.7252 230.485 97.6737C230.485 97.6222 230.498 97.5964 230.524 97.5964C230.842 97.5964 231.075 97.5749 231.221 97.532C231.368 97.489 231.467 97.4075 231.518 97.2872C231.57 97.167 231.596 96.9738 231.596 96.7075V93.7446H227.423V96.7075C227.423 96.9652 227.449 97.1584 227.5 97.2872C227.552 97.4075 227.651 97.489 227.798 97.532C227.944 97.5749 228.176 97.5964 228.495 97.5964C228.512 97.5964 228.521 97.6222 228.521 97.6737C228.521 97.7252 228.512 97.751 228.495 97.751C228.194 97.751 227.953 97.7467 227.772 97.7381L226.648 97.7252L225.679 97.7381C225.506 97.7467 225.27 97.751 224.968 97.751C224.951 97.751 224.942 97.7252 224.942 97.6737C224.942 97.6222 224.951 97.5964 224.968 97.5964C225.27 97.5964 225.489 97.5749 225.627 97.532C225.765 97.489 225.86 97.4075 225.911 97.2872C225.963 97.1584 225.989 96.9652 225.989 96.7075V90.7431C225.989 90.4854 225.963 90.2965 225.911 90.1763C225.86 90.056 225.765 89.9745 225.627 89.9315C225.498 89.88 225.287 89.8542 224.994 89.8542C224.968 89.8542 224.955 89.8285 224.955 89.7769C224.955 89.7254 224.968 89.6996 224.994 89.6996L225.692 89.7125C226.088 89.7297 226.406 89.7383 226.648 89.7383C226.975 89.7383 227.354 89.7297 227.785 89.7125L228.495 89.6996C228.512 89.6996 228.521 89.7254 228.521 89.7769C228.521 89.8285 228.512 89.8542 228.495 89.8542C228.185 89.8542 227.957 89.88 227.81 89.9315C227.664 89.983 227.561 90.0732 227.5 90.202C227.449 90.3223 227.423 90.5112 227.423 90.7689V93.3839H231.596V90.7689C231.596 90.5112 231.57 90.3223 231.518 90.202C231.467 90.0732 231.368 89.983 231.221 89.9315C231.075 89.88 230.842 89.8542 230.524 89.8542C230.498 89.8542 230.485 89.8285 230.485 89.7769C230.485 89.7254 230.498 89.6996 230.524 89.6996L231.157 89.7125C231.587 89.7297 231.975 89.7383 232.319 89.7383C232.552 89.7383 232.884 89.7297 233.314 89.7125L234.038 89.6996C234.064 89.6996 234.076 89.7254 234.076 89.7769C234.076 89.8285 234.064 89.8542 234.038 89.8542C233.745 89.8542 233.525 89.88 233.379 89.9315C233.241 89.9745 233.146 90.056 233.095 90.1763C233.052 90.2965 233.03 90.4854 233.03 90.7431V96.7075C233.03 96.9652 233.052 97.1584 233.095 97.2872C233.146 97.4075 233.241 97.489 233.379 97.532C233.517 97.5749 233.736 97.5964 234.038 97.5964Z" fill="#8E8E8D"/>
<path d="M240.7 91.0007C240.7 91.3099 240.778 91.5847 240.933 91.8252C241.096 92.0657 241.294 92.2761 241.527 92.4564C241.759 92.6368 242.074 92.8558 242.47 93.1134C242.901 93.3882 243.245 93.6287 243.504 93.8348C243.762 94.0409 243.982 94.2943 244.163 94.5949C244.343 94.8868 244.434 95.2261 244.434 95.6125C244.434 96.0591 244.313 96.4585 244.072 96.8106C243.831 97.1541 243.495 97.4246 243.064 97.6222C242.642 97.8111 242.169 97.9056 241.643 97.9056C241.256 97.9056 240.851 97.854 240.429 97.751C240.007 97.6393 239.722 97.5191 239.576 97.3903C239.533 97.3559 239.498 97.3259 239.473 97.3001C239.455 97.2657 239.447 97.2142 239.447 97.1455L239.408 95.0973V95.0844C239.408 95.05 239.43 95.0328 239.473 95.0328C239.516 95.0243 239.542 95.0371 239.55 95.0715C239.809 95.5954 240.033 96.0205 240.222 96.3468C240.42 96.6732 240.666 96.9609 240.958 97.2099C241.26 97.459 241.6 97.5835 241.979 97.5835C242.324 97.5835 242.608 97.4933 242.832 97.313C243.056 97.124 243.168 96.8063 243.168 96.3597C243.168 95.9818 243.082 95.6512 242.909 95.3678C242.746 95.0844 242.543 94.8439 242.302 94.6464C242.061 94.4489 241.729 94.2127 241.307 93.9379C240.894 93.6716 240.571 93.444 240.338 93.2551C240.114 93.0662 239.921 92.8386 239.757 92.5724C239.593 92.3061 239.511 91.9927 239.511 91.632C239.511 91.1768 239.641 90.7946 239.899 90.4854C240.166 90.1677 240.506 89.9358 240.92 89.7898C241.333 89.6352 241.768 89.5579 242.225 89.5579C242.526 89.5579 242.832 89.588 243.142 89.6481C243.452 89.6996 243.702 89.764 243.891 89.8413C243.969 89.8757 244.02 89.9143 244.046 89.9573C244.072 89.9916 244.085 90.0389 244.085 90.099V91.9927C244.085 92.0184 244.063 92.0399 244.02 92.0571C243.977 92.0657 243.951 92.0571 243.943 92.0313L243.84 91.7865C243.624 91.2455 243.37 90.786 243.077 90.4082C242.793 90.0303 242.393 89.8413 241.876 89.8413C241.531 89.8413 241.247 89.9401 241.023 90.1376C240.808 90.3352 240.7 90.6229 240.7 91.0007Z" fill="#8E8E8D"/>
</g>
<g filter="url(#filter1_d)">
<path d="M53.5086 62.2154C53.5086 62.268 53.4572 62.303 53.3545 62.3205C53.2689 62.3205 53.2175 62.2942 53.2004 62.2417C53.0805 61.279 52.7466 60.5526 52.1986 60.0625C51.6506 59.5549 50.9314 59.3011 50.041 59.3011H48.731C47.9947 59.3011 47.4895 59.4062 47.2155 59.6162C46.9587 59.8262 46.8303 60.2288 46.8303 60.8239V66.5475H49.1934C50.1181 66.5475 50.7944 66.39 51.2225 66.0749C51.6678 65.7599 51.8904 65.2873 51.8904 64.6572C51.8904 64.6222 51.9417 64.6046 52.0445 64.6046C52.1472 64.6046 52.1986 64.6222 52.1986 64.6572L52.1729 66.8626C52.1729 67.3877 52.1815 67.7815 52.1986 68.0441L52.2243 69.3568C52.2243 69.3918 52.1729 69.4093 52.0702 69.4093C51.9674 69.4093 51.9161 69.3918 51.9161 69.3568C51.9161 68.6042 51.6935 68.0528 51.2482 67.7027C50.803 67.3352 50.0924 67.1514 49.1163 67.1514H46.8303V72.8487C46.8303 73.4088 46.8988 73.8202 47.0357 74.0827C47.1899 74.3278 47.4724 74.5028 47.8834 74.6078C48.2944 74.7128 48.9451 74.7653 49.8355 74.7653C49.8698 74.7653 49.8869 74.8178 49.8869 74.9229C49.8869 75.0279 49.8698 75.0804 49.8355 75.0804C49.1334 75.0804 48.5855 75.0716 48.1916 75.0541L45.7771 75.0279L43.9791 75.0541C43.6538 75.0716 43.2 75.0804 42.6178 75.0804C42.5835 75.0804 42.5664 75.0279 42.5664 74.9229C42.5664 74.8178 42.5835 74.7653 42.6178 74.7653C43.2514 74.7653 43.7137 74.7216 44.0048 74.6341C44.313 74.5465 44.5185 74.3803 44.6213 74.1352C44.724 73.8727 44.7754 73.4788 44.7754 72.9537V60.7977C44.7754 60.2726 44.724 59.8875 44.6213 59.6425C44.5185 59.3974 44.3216 59.2311 44.0305 59.1436C43.7565 59.0386 43.3199 58.9861 42.7205 58.9861C42.6691 58.9861 42.6435 58.9336 42.6435 58.8286C42.6435 58.7235 42.6691 58.671 42.7205 58.671H53.2004C53.3716 58.671 53.4572 58.7498 53.4572 58.9073L53.5086 62.2154Z" fill="white"/>
<path d="M70.7591 64.0553C70.7591 63.3188 70.5966 62.7629 70.2717 62.3874C69.9609 61.9975 69.4947 61.8026 68.8731 61.8026C68.8307 61.8026 68.8095 61.7593 68.8095 61.6726C68.8095 61.586 68.8307 61.5427 68.8731 61.5427L69.8267 61.5643C70.3353 61.5932 70.7379 61.6076 71.0346 61.6076C71.2889 61.6076 71.6562 61.5932 72.1365 61.5643L73.0477 61.5427C73.076 61.5427 73.0901 61.586 73.0901 61.6726C73.0901 61.7593 73.076 61.8026 73.0477 61.8026C71.9034 61.8026 71.3312 62.5535 71.3312 64.0553V70.1635C71.3312 71.7808 70.865 73.0515 69.9327 73.9757C69.0144 74.8999 67.7853 75.362 66.2454 75.362C65.2 75.362 64.2818 75.1598 63.4906 74.7555C62.6995 74.3367 62.085 73.7447 61.647 72.9793C61.2091 72.1996 60.9901 71.2898 60.9901 70.2501V63.2972C60.9901 62.8639 60.9477 62.5463 60.863 62.3441C60.7782 62.1419 60.6157 62.0047 60.3756 61.9325C60.1495 61.8459 59.7822 61.8026 59.2737 61.8026C59.2313 61.8026 59.2101 61.7593 59.2101 61.6726C59.2101 61.586 59.2313 61.5427 59.2737 61.5427L60.3332 61.5643C60.9548 61.5932 61.4493 61.6076 61.8166 61.6076C62.2121 61.6076 62.7207 61.5932 63.3423 61.5643L64.3595 61.5427C64.4018 61.5427 64.423 61.586 64.423 61.6726C64.423 61.7593 64.4018 61.8026 64.3595 61.8026C63.865 61.8026 63.4977 61.8459 63.2575 61.9325C63.0315 62.0192 62.8761 62.1708 62.7913 62.3874C62.7066 62.5896 62.6642 62.9073 62.6642 63.3405V69.492C62.6642 71.196 63.0244 72.4884 63.7449 73.3692C64.4795 74.2356 65.5038 74.6688 66.8176 74.6688C68.0467 74.6688 69.0073 74.279 69.6996 73.4992C70.4059 72.705 70.7591 71.6003 70.7591 70.1852V64.0553Z" fill="white"/>
<path d="M91.6998 61.5427C91.7422 61.5427 91.7634 61.586 91.7634 61.6726C91.7634 61.7593 91.7422 61.8026 91.6998 61.8026C90.5414 61.8026 89.9621 62.5535 89.9621 64.0553V75.362C89.9621 75.3909 89.9268 75.4125 89.8562 75.427C89.7997 75.4414 89.7573 75.4342 89.729 75.4053L79.7905 63.3621V72.5895C79.7905 73.3548 79.9247 73.918 80.1932 74.279C80.4757 74.64 80.8995 74.8205 81.4646 74.8205C81.507 74.8205 81.5282 74.8638 81.5282 74.9504C81.5282 75.0371 81.507 75.0804 81.4646 75.0804C81.0973 75.0804 80.8148 75.0732 80.617 75.0587L79.5362 75.0371L78.3919 75.0587C78.18 75.0732 77.8692 75.0804 77.4595 75.0804C77.4313 75.0804 77.4172 75.0371 77.4172 74.9504C77.4172 74.8638 77.4313 74.8205 77.4595 74.8205C78.067 74.8205 78.512 74.64 78.7946 74.279C79.0912 73.918 79.2396 73.3548 79.2396 72.5895V62.7556C78.618 62.1203 78.0034 61.8026 77.396 61.8026C77.3536 61.8026 77.3324 61.7593 77.3324 61.6726C77.3324 61.586 77.3536 61.5427 77.396 61.5427L78.2224 61.5643C78.3919 61.5788 78.6321 61.586 78.9429 61.586L80.0448 61.5643C80.172 61.5499 80.3344 61.5427 80.5322 61.5427C80.6452 61.5427 80.7229 61.5715 80.7653 61.6293C80.8218 61.6726 80.9066 61.7809 81.0196 61.9542C81.1467 62.1564 81.3233 62.3946 81.5494 62.669L89.4324 72.3945V64.0553C89.4324 63.2899 89.2982 62.7268 89.0297 62.3658C88.7613 61.9903 88.3446 61.8026 87.7795 61.8026C87.7512 61.8026 87.7371 61.7593 87.7371 61.6726C87.7371 61.586 87.7512 61.5427 87.7795 61.5427L88.6271 61.5643C89.0509 61.5932 89.4112 61.6076 89.7078 61.6076C89.9621 61.6076 90.3294 61.5932 90.8098 61.5643L91.6998 61.5427Z" fill="white"/>
<path d="M105.526 71.788C105.526 71.7591 105.554 71.7447 105.611 71.7447C105.653 71.7447 105.689 71.7591 105.717 71.788C105.759 71.8025 105.78 71.8169 105.78 71.8313C105.639 72.871 105.569 73.8458 105.569 74.7555C105.569 74.871 105.547 74.9577 105.505 75.0154C105.463 75.0587 105.378 75.0804 105.251 75.0804H96.2234C96.181 75.0804 96.1598 75.0371 96.1598 74.9504C96.1598 74.8638 96.181 74.8205 96.2234 74.8205C96.7319 74.8205 97.0993 74.7844 97.3253 74.7122C97.5513 74.64 97.7067 74.5028 97.7915 74.3006C97.8763 74.084 97.9186 73.7591 97.9186 73.3259V63.2972C97.9186 62.8639 97.8763 62.5463 97.7915 62.3441C97.7067 62.1419 97.5443 62.0047 97.3041 61.9325C97.0781 61.8459 96.7178 61.8026 96.2234 61.8026C96.181 61.8026 96.1598 61.7593 96.1598 61.6726C96.1598 61.586 96.181 61.5427 96.2234 61.5427H104.869C105.011 61.5427 105.081 61.6076 105.081 61.7376L105.124 64.4668C105.124 64.5101 105.081 64.539 104.996 64.5535C104.926 64.5535 104.883 64.5318 104.869 64.4885C104.77 63.6943 104.495 63.095 104.043 62.6907C103.591 62.2719 102.997 62.0625 102.263 62.0625H101.182C100.56 62.0625 100.144 62.1564 99.9318 62.3441C99.7199 62.5174 99.6139 62.8639 99.6139 63.3838V67.7808H101.945C102.665 67.7808 103.195 67.6581 103.534 67.4126C103.873 67.1527 104.043 66.7556 104.043 66.2213C104.043 66.1924 104.078 66.178 104.149 66.178C104.234 66.178 104.276 66.1924 104.276 66.2213L104.255 68.0408L104.276 69.0155C104.304 69.4776 104.318 69.8386 104.318 70.0985C104.318 70.1274 104.276 70.1418 104.191 70.1418C104.106 70.1418 104.064 70.1274 104.064 70.0985C104.064 69.4776 103.887 69.0227 103.534 68.7339C103.195 68.4307 102.644 68.279 101.881 68.279H99.6139V73.2393C99.6139 73.7591 99.7057 74.1129 99.8894 74.3006C100.087 74.4883 100.476 74.5822 101.055 74.5822H102.432C103.238 74.5822 103.902 74.3439 104.424 73.8674C104.961 73.3764 105.328 72.6833 105.526 71.788Z" fill="white"/>
<path d="M124.619 74.8205C124.647 74.8205 124.661 74.8638 124.661 74.9504C124.661 75.0371 124.647 75.0804 124.619 75.0804H121.546C121.207 75.0804 120.564 74.4667 119.618 73.2393C118.685 71.9974 117.569 70.3007 116.27 68.1491C115.945 68.2213 115.634 68.2574 115.337 68.2574C115.069 68.2574 114.723 68.2429 114.299 68.2141V73.3259C114.299 73.7591 114.341 74.084 114.426 74.3006C114.511 74.5028 114.666 74.64 114.892 74.7122C115.132 74.7844 115.507 74.8205 116.015 74.8205C116.058 74.8205 116.079 74.8638 116.079 74.9504C116.079 75.0371 116.058 75.0804 116.015 75.0804C115.577 75.0804 115.231 75.0732 114.977 75.0587L113.451 75.0371L111.968 75.0587C111.7 75.0732 111.339 75.0804 110.887 75.0804C110.845 75.0804 110.824 75.0371 110.824 74.9504C110.824 74.8638 110.845 74.8205 110.887 74.8205C111.396 74.8205 111.77 74.7844 112.01 74.7122C112.251 74.64 112.413 74.5028 112.498 74.3006C112.583 74.084 112.625 73.7591 112.625 73.3259V63.2972C112.625 62.8639 112.583 62.5463 112.498 62.3441C112.413 62.1419 112.251 62.0047 112.01 61.9325C111.784 61.8459 111.417 61.8026 110.908 61.8026C110.88 61.8026 110.866 61.7593 110.866 61.6726C110.866 61.586 110.88 61.5427 110.908 61.5427L111.968 61.5643C112.59 61.5932 113.084 61.6076 113.451 61.6076C113.706 61.6076 113.946 61.6004 114.172 61.586C114.398 61.5715 114.596 61.5571 114.765 61.5427C115.231 61.4993 115.669 61.4777 116.079 61.4777C117.28 61.4777 118.205 61.7232 118.855 62.2141C119.505 62.6907 119.83 63.3549 119.83 64.2069C119.83 64.8856 119.632 65.5282 119.236 66.1347C118.841 66.7412 118.325 67.2321 117.69 67.6076C118.876 69.4415 119.865 70.8783 120.656 71.918C121.461 72.9432 122.175 73.6869 122.797 74.149C123.418 74.5966 124.026 74.8205 124.619 74.8205ZM114.299 67.6509C114.836 67.7086 115.253 67.7375 115.549 67.7375C116.453 67.7375 117.096 67.5354 117.478 67.131C117.873 66.7123 118.071 65.9975 118.071 64.9867C118.071 63.8459 117.859 63.0372 117.435 62.5607C117.011 62.0842 116.425 61.8459 115.676 61.8459C115.309 61.8459 115.027 61.882 114.829 61.9542C114.645 62.0264 114.511 62.1708 114.426 62.3874C114.341 62.5896 114.299 62.9073 114.299 63.3405V67.6509Z" fill="white"/>
<path d="M142.518 74.8205C142.575 74.8205 142.603 74.8638 142.603 74.9504C142.603 75.0371 142.575 75.0804 142.518 75.0804C142.25 75.0804 141.819 75.066 141.225 75.0371C140.66 75.0082 140.244 74.9938 139.975 74.9938C139.65 74.9938 139.248 75.0082 138.767 75.0371C138.287 75.066 137.927 75.0804 137.687 75.0804C137.63 75.0804 137.602 75.0371 137.602 74.9504C137.602 74.8638 137.63 74.8205 137.687 74.8205C138.167 74.8205 138.513 74.7771 138.725 74.6905C138.937 74.5894 139.043 74.4161 139.043 74.1707C139.043 73.9252 138.937 73.5858 138.725 73.1526L136.352 68.1274H132.452L130.715 72.2212C130.517 72.6978 130.418 73.0949 130.418 73.4125C130.418 74.3512 131.103 74.8205 132.474 74.8205C132.544 74.8205 132.58 74.8638 132.58 74.9504C132.58 75.0371 132.544 75.0804 132.474 75.0804C132.219 75.0804 131.852 75.066 131.372 75.0371C130.835 75.0082 130.369 74.9938 129.973 74.9938C129.606 74.9938 129.168 75.0082 128.659 75.0371C128.207 75.066 127.84 75.0804 127.557 75.0804C127.501 75.0804 127.473 75.0371 127.473 74.9504C127.473 74.8638 127.501 74.8205 127.557 74.8205C127.953 74.8205 128.285 74.7411 128.553 74.5822C128.836 74.4234 129.104 74.149 129.359 73.7591C129.613 73.3692 129.902 72.7916 130.227 72.0263L134.741 61.391C134.755 61.3477 134.805 61.3261 134.889 61.3261C134.974 61.3116 135.024 61.3333 135.038 61.391L140.145 72.1129C140.625 73.1671 141.035 73.8819 141.374 74.2573C141.713 74.6327 142.094 74.8205 142.518 74.8205ZM132.643 67.6292H136.118L134.296 63.7304L132.643 67.6292Z" fill="white"/>
<path d="M149.83 73.2393C149.83 73.6436 149.865 73.9396 149.936 74.1273C150.021 74.3006 150.169 74.4234 150.381 74.4956C150.593 74.5533 150.925 74.5822 151.377 74.5822H153.178C154.068 74.5822 154.803 74.3151 155.382 73.7808C155.975 73.232 156.371 72.4956 156.569 71.5714C156.569 71.5281 156.604 71.5137 156.675 71.5281C156.759 71.5281 156.802 71.5498 156.802 71.5931C156.675 72.8638 156.611 73.918 156.611 74.7555C156.611 74.871 156.583 74.9577 156.526 75.0154C156.484 75.0587 156.406 75.0804 156.293 75.0804H146.418C146.39 75.0804 146.376 75.0371 146.376 74.9504C146.376 74.8638 146.39 74.8205 146.418 74.8205C146.927 74.8205 147.294 74.7844 147.52 74.7122C147.76 74.64 147.923 74.5028 148.008 74.3006C148.092 74.084 148.135 73.7591 148.135 73.3259V63.2972C148.135 62.8639 148.092 62.5463 148.008 62.3441C147.923 62.1419 147.76 62.0047 147.52 61.9325C147.294 61.8459 146.927 61.8026 146.418 61.8026C146.39 61.8026 146.376 61.7593 146.376 61.6726C146.376 61.586 146.39 61.5427 146.418 61.5427L147.478 61.5643C148.099 61.5932 148.601 61.6076 148.982 61.6076C149.364 61.6076 149.865 61.5932 150.487 61.5643L151.547 61.5427C151.575 61.5427 151.589 61.586 151.589 61.6726C151.589 61.7593 151.575 61.8026 151.547 61.8026C151.052 61.8026 150.685 61.8459 150.445 61.9325C150.204 62.0047 150.042 62.1492 149.957 62.3658C149.872 62.5679 149.83 62.8856 149.83 63.3188V73.2393Z" fill="white"/>
<path d="M188.775 74.7653C188.826 74.7653 188.852 74.8178 188.852 74.9229C188.852 75.0279 188.826 75.0804 188.775 75.0804C188.227 75.0804 187.79 75.0716 187.465 75.0541L185.615 75.0279L183.586 75.0541C183.295 75.0716 182.893 75.0804 182.379 75.0804C182.328 75.0804 182.302 75.0279 182.302 74.9229C182.302 74.8178 182.328 74.7653 182.379 74.7653C183.03 74.7653 183.509 74.7216 183.817 74.6341C184.126 74.5465 184.331 74.3803 184.434 74.1352C184.537 73.8727 184.588 73.4788 184.588 72.9537V66.8363H175.238V72.9537C175.238 73.4788 175.29 73.8727 175.392 74.1352C175.495 74.3803 175.701 74.5465 176.009 74.6341C176.317 74.7216 176.797 74.7653 177.447 74.7653C177.482 74.7653 177.499 74.8178 177.499 74.9229C177.499 75.0279 177.482 75.0804 177.447 75.0804C176.899 75.0804 176.463 75.0716 176.137 75.0541L174.159 75.0279L172.336 75.0541C172.01 75.0716 171.565 75.0804 171 75.0804C170.966 75.0804 170.949 75.0279 170.949 74.9229C170.949 74.8178 170.966 74.7653 171 74.7653C171.634 74.7653 172.096 74.7216 172.387 74.6341C172.695 74.5465 172.901 74.3803 173.004 74.1352C173.123 73.8727 173.183 73.4788 173.183 72.9537V60.7977C173.183 60.2726 173.132 59.8875 173.029 59.6425C172.927 59.3974 172.73 59.2311 172.439 59.1436C172.147 59.0386 171.685 58.9861 171.051 58.9861C171 58.9861 170.974 58.9336 170.974 58.8286C170.974 58.7235 171 58.671 171.051 58.671L172.361 58.6973C173.081 58.7323 173.68 58.7498 174.159 58.7498C174.707 58.7498 175.375 58.7323 176.163 58.6973L177.447 58.671C177.482 58.671 177.499 58.7235 177.499 58.8286C177.499 58.9336 177.482 58.9861 177.447 58.9861C176.814 58.9861 176.343 59.0386 176.035 59.1436C175.726 59.2486 175.512 59.4324 175.392 59.695C175.29 59.94 175.238 60.3251 175.238 60.8502V66.2325H184.588V60.8502C184.588 60.3251 184.528 59.94 184.408 59.695C184.305 59.4324 184.1 59.2486 183.792 59.1436C183.501 59.0386 183.03 58.9861 182.379 58.9861C182.328 58.9861 182.302 58.9336 182.302 58.8286C182.302 58.7235 182.328 58.671 182.379 58.671L183.586 58.6973C184.374 58.7323 185.05 58.7498 185.615 58.7498C186.095 58.7498 186.711 58.7323 187.465 58.6973L188.775 58.671C188.826 58.671 188.852 58.7235 188.852 58.8286C188.852 58.9336 188.826 58.9861 188.775 58.9861C188.141 58.9861 187.679 59.0386 187.388 59.1436C187.097 59.2311 186.891 59.3974 186.771 59.6425C186.668 59.8875 186.617 60.2726 186.617 60.7977V72.9537C186.617 73.4788 186.668 73.8727 186.771 74.1352C186.891 74.3803 187.097 74.5465 187.388 74.6341C187.679 74.7216 188.141 74.7653 188.775 74.7653Z" fill="white"/>
<path d="M201.302 75.3403C199.988 75.3403 198.815 75.0299 197.784 74.4089C196.767 73.7736 195.976 72.9216 195.41 71.853C194.86 70.77 194.584 69.5931 194.584 68.3224C194.584 66.835 194.951 65.5643 195.686 64.5101C196.421 63.4416 197.36 62.6401 198.504 62.1058C199.663 61.5715 200.842 61.3044 202.043 61.3044C203.385 61.3044 204.565 61.6293 205.582 62.2791C206.599 62.9145 207.376 63.7592 207.913 64.8134C208.464 65.8675 208.74 66.9866 208.74 68.1707C208.74 69.4848 208.4 70.6906 207.722 71.788C207.044 72.8855 206.133 73.7519 204.989 74.3873C203.859 75.0226 202.629 75.3403 201.302 75.3403ZM202.043 74.8638C202.947 74.8638 203.76 74.6255 204.48 74.149C205.201 73.6725 205.766 72.9793 206.175 72.0696C206.599 71.1454 206.811 70.048 206.811 68.7772C206.811 67.4343 206.578 66.2357 206.112 65.1816C205.66 64.1275 205.003 63.3044 204.141 62.7123C203.293 62.1203 202.305 61.8242 201.174 61.8242C199.705 61.8242 198.561 62.3369 197.741 63.3621C196.922 64.3729 196.512 65.7737 196.512 67.5642C196.512 68.9361 196.745 70.1779 197.212 71.2898C197.678 72.4017 198.328 73.2754 199.161 73.9107C200.009 74.5461 200.97 74.8638 202.043 74.8638Z" fill="white"/>
<path d="M230.304 74.8205C230.332 74.8205 230.346 74.8638 230.346 74.9504C230.346 75.0371 230.332 75.0804 230.304 75.0804C229.852 75.0804 229.492 75.0732 229.223 75.0587L227.719 75.0371L226.299 75.0587C226.059 75.0732 225.727 75.0804 225.303 75.0804C225.26 75.0804 225.239 75.0371 225.239 74.9504C225.239 74.8638 225.26 74.8205 225.303 74.8205C225.924 74.8205 226.341 74.7483 226.553 74.6039C226.779 74.4595 226.892 74.1562 226.892 73.6941L226.871 73.3259L226.468 63.7953L221.785 74.9288C221.757 74.9865 221.7 75.0154 221.616 75.0154C221.531 75.0154 221.474 74.9865 221.446 74.9288L216.17 63.882L216 72.5895C215.986 73.3548 216.12 73.918 216.403 74.279C216.685 74.64 217.144 74.8205 217.78 74.8205C217.822 74.8205 217.844 74.8638 217.844 74.9504C217.844 75.0371 217.822 75.0804 217.78 75.0804C217.399 75.0804 217.102 75.0732 216.89 75.0587L215.725 75.0371L214.559 75.0587C214.361 75.0732 214.072 75.0804 213.69 75.0804C213.662 75.0804 213.648 75.0371 213.648 74.9504C213.648 74.8638 213.662 74.8205 213.69 74.8205C214.863 74.8205 215.456 74.0768 215.47 72.5895L215.661 62.8856C215.209 62.1636 214.601 61.8026 213.839 61.8026C213.81 61.8026 213.796 61.7593 213.796 61.6726C213.796 61.586 213.81 61.5427 213.839 61.5427L214.686 61.5643C214.856 61.5788 215.075 61.586 215.343 61.586C215.654 61.586 215.908 61.5788 216.106 61.5643C216.304 61.5499 216.459 61.5427 216.572 61.5427C216.756 61.5427 216.904 61.6076 217.017 61.7376C217.13 61.8676 217.307 62.178 217.547 62.669L222.251 72.4378L226.68 62.0842C226.821 61.7232 227.033 61.5427 227.316 61.5427C227.401 61.5427 227.514 61.5499 227.655 61.5643C227.796 61.5788 227.98 61.586 228.206 61.586L229.287 61.5643C229.456 61.5499 229.703 61.5427 230.028 61.5427C230.071 61.5427 230.092 61.586 230.092 61.6726C230.092 61.7593 230.071 61.8026 230.028 61.8026C229.336 61.8026 228.835 61.9181 228.524 62.1492C228.227 62.3802 228.086 62.7845 228.1 63.3621L228.566 73.3259C228.594 73.7736 228.651 74.0985 228.736 74.3006C228.82 74.5028 228.976 74.64 229.202 74.7122C229.428 74.7844 229.795 74.8205 230.304 74.8205Z" fill="white"/>
<path d="M244.18 71.788C244.18 71.7591 244.208 71.7447 244.264 71.7447C244.307 71.7447 244.342 71.7591 244.37 71.788C244.413 71.8025 244.434 71.8169 244.434 71.8313C244.293 72.871 244.222 73.8458 244.222 74.7555C244.222 74.871 244.201 74.9577 244.158 75.0154C244.116 75.0587 244.031 75.0804 243.904 75.0804H234.877C234.834 75.0804 234.813 75.0371 234.813 74.9504C234.813 74.8638 234.834 74.8205 234.877 74.8205C235.385 74.8205 235.753 74.7844 235.979 74.7122C236.205 74.64 236.36 74.5028 236.445 74.3006C236.53 74.084 236.572 73.7591 236.572 73.3259V63.2972C236.572 62.8639 236.53 62.5463 236.445 62.3441C236.36 62.1419 236.198 62.0047 235.957 61.9325C235.731 61.8459 235.371 61.8026 234.877 61.8026C234.834 61.8026 234.813 61.7593 234.813 61.6726C234.813 61.586 234.834 61.5427 234.877 61.5427H243.523C243.664 61.5427 243.735 61.6076 243.735 61.7376L243.777 64.4668C243.777 64.5101 243.735 64.539 243.65 64.5535C243.579 64.5535 243.537 64.5318 243.523 64.4885C243.424 63.6943 243.148 63.095 242.696 62.6907C242.244 62.2719 241.651 62.0625 240.916 62.0625H239.835C239.214 62.0625 238.797 62.1564 238.585 62.3441C238.373 62.5174 238.267 62.8639 238.267 63.3838V67.7808H240.598C241.319 67.7808 241.849 67.6581 242.188 67.4126C242.527 67.1527 242.696 66.7556 242.696 66.2213C242.696 66.1924 242.731 66.178 242.802 66.178C242.887 66.178 242.929 66.1924 242.929 66.2213L242.908 68.0408L242.929 69.0155C242.958 69.4776 242.972 69.8386 242.972 70.0985C242.972 70.1274 242.929 70.1418 242.845 70.1418C242.76 70.1418 242.717 70.1274 242.717 70.0985C242.717 69.4776 242.541 69.0227 242.188 68.7339C241.849 68.4307 241.298 68.279 240.535 68.279H238.267V73.2393C238.267 73.7591 238.359 74.1129 238.543 74.3006C238.741 74.4883 239.129 74.5822 239.708 74.5822H241.086C241.891 74.5822 242.555 74.3439 243.078 73.8674C243.614 73.3764 243.982 72.6833 244.18 71.788Z" fill="white"/>
</g>
<g filter="url(#filter2_d)">
<path d="M21.1022 40.3252C21.1022 40.261 21.1659 40.2289 21.2932 40.2289C21.3887 40.2289 21.4682 40.261 21.5319 40.3252C21.6274 40.3573 21.6751 40.3894 21.6751 40.4214C21.3568 42.7324 21.1977 44.899 21.1977 46.9211C21.1977 47.1779 21.1499 47.3704 21.0545 47.4988C20.959 47.5951 20.768 47.6433 20.4815 47.6433H0.143228C0.0477425 47.6433 0 47.547 0 47.3544C0 47.1618 0.0477425 47.0655 0.143228 47.0655C1.28905 47.0655 2.11659 46.9853 2.62584 46.8248C3.13509 46.6643 3.48521 46.3594 3.67618 45.91C3.86715 45.4286 3.96263 44.7064 3.96263 43.7435V21.4521C3.96263 20.4892 3.86715 19.7831 3.67618 19.3337C3.48521 18.8844 3.11918 18.5794 2.5781 18.419C2.06884 18.2264 1.25722 18.1301 0.143228 18.1301C0.0477425 18.1301 0 18.0338 0 17.8412C0 17.6486 0.0477425 17.5523 0.143228 17.5523H19.6222C19.9405 17.5523 20.0996 17.6968 20.0996 17.9856L20.1951 24.052C20.1951 24.1483 20.0996 24.2125 19.9086 24.2446C19.7495 24.2446 19.654 24.1964 19.6222 24.1001C19.3994 22.3348 18.7787 21.0028 17.7602 20.104C16.7417 19.1732 15.4049 18.7078 13.7499 18.7078H11.315C9.91453 18.7078 8.9756 18.9165 8.49817 19.3337C8.02075 19.7189 7.78203 20.4892 7.78203 21.6447V31.4182H13.0337C14.657 31.4182 15.8505 31.1454 16.6144 30.5998C17.3783 30.022 17.7602 29.1394 17.7602 27.9518C17.7602 27.8876 17.8398 27.8555 17.9989 27.8555C18.1899 27.8555 18.2854 27.8876 18.2854 27.9518L18.2376 31.996L18.2854 34.1625C18.349 35.1896 18.3809 35.9921 18.3809 36.5698C18.3809 36.634 18.2854 36.6661 18.0944 36.6661C17.9035 36.6661 17.808 36.634 17.808 36.5698C17.808 35.1896 17.4101 34.1786 16.6144 33.5366C15.8505 32.8626 14.6092 32.5256 12.8905 32.5256H7.78203V43.5509C7.78203 44.7064 7.98892 45.4928 8.40269 45.91C8.84828 46.3273 9.72356 46.5359 11.0285 46.5359H14.1318C15.946 46.5359 17.4419 46.0063 18.6196 44.9471C19.8291 43.8558 20.6566 42.3152 21.1022 40.3252Z" fill="url(#paint0_linear)"/>
<path d="M53.7022 20.3988C53.7887 20.3988 53.8319 20.486 53.8319 20.6603C53.8319 20.8347 53.7887 20.9219 53.7022 20.9219C51.3392 20.9219 50.1577 22.433 50.1577 25.4554V48.21C50.1577 48.2681 50.0856 48.3117 49.9415 48.3407C49.8263 48.3698 49.7398 48.3553 49.6822 48.2971L29.409 24.0604V42.6303C29.409 44.1705 29.6828 45.3039 30.2303 46.0304C30.8067 46.7569 31.6712 47.1202 32.8239 47.1202C32.9104 47.1202 32.9536 47.2074 32.9536 47.3817C32.9536 47.5561 32.9104 47.6433 32.8239 47.6433C32.0747 47.6433 31.4983 47.6287 31.0949 47.5997L28.8903 47.5561L26.5561 47.5997C26.1238 47.6287 25.4898 47.6433 24.6541 47.6433C24.5965 47.6433 24.5677 47.5561 24.5677 47.3817C24.5677 47.2074 24.5965 47.1202 24.6541 47.1202C25.8933 47.1202 26.801 46.7569 27.3774 46.0304C27.9826 45.3039 28.2851 44.1705 28.2851 42.6303V22.8399C27.0172 21.5612 25.7636 20.9219 24.5245 20.9219C24.438 20.9219 24.3948 20.8347 24.3948 20.6603C24.3948 20.486 24.438 20.3988 24.5245 20.3988L26.2103 20.4424C26.5561 20.4714 27.046 20.486 27.68 20.486L29.9277 20.4424C30.1871 20.4133 30.5185 20.3988 30.922 20.3988C31.1525 20.3988 31.311 20.4569 31.3974 20.5731C31.5127 20.6603 31.6856 20.8783 31.9162 21.227C32.1755 21.6339 32.5357 22.1134 32.9968 22.6655L49.077 42.238V25.4554C49.077 23.9151 48.8033 22.7818 48.2557 22.0552C47.7082 21.2997 46.8581 20.9219 45.7054 20.9219C45.6477 20.9219 45.6189 20.8347 45.6189 20.6603C45.6189 20.486 45.6477 20.3988 45.7054 20.3988L47.4344 20.4424C48.2989 20.5005 49.0338 20.5295 49.639 20.5295C50.1577 20.5295 50.9069 20.5005 51.8867 20.4424L53.7022 20.3988Z" fill="url(#paint1_linear)"/>
<path d="M71.2724 48.1664C68.1313 48.1664 65.3936 47.5561 63.0594 46.3355C60.7252 45.115 58.9385 43.4585 57.6993 41.3661C56.4602 39.2738 55.8406 36.9344 55.8406 34.348C55.8406 31.5291 56.5466 29.0298 57.9587 26.8503C59.3996 24.6707 61.3592 22.9707 63.8375 21.7501C66.3446 20.5295 69.1543 19.9193 72.2666 19.9193C73.6499 19.9193 74.9899 20.05 76.2867 20.3116C77.6123 20.5731 78.6929 20.9219 79.5286 21.3578C79.7592 21.5031 79.9033 21.6339 79.9609 21.7501C80.0185 21.8663 80.0618 22.0698 80.0906 22.3604L80.6525 27.6349C80.6525 27.7221 80.5661 27.7802 80.3932 27.8093C80.2491 27.8093 80.1626 27.7657 80.1338 27.6785C79.3845 25.528 78.1598 23.8715 76.4596 22.7091C74.7593 21.5467 72.7133 20.9655 70.3214 20.9655C66.9209 20.9655 64.2986 22.0116 62.4542 24.104C60.6099 26.1964 59.6877 29.0734 59.6877 32.7351C59.6877 35.583 60.2353 38.1259 61.3303 40.3635C62.4254 42.5722 63.9239 44.3013 65.8259 45.5509C67.7567 46.8005 69.9324 47.4253 72.3531 47.4253C73.7363 47.4253 74.8026 47.2945 75.5518 47.033C76.3011 46.7714 76.8486 46.2629 77.1944 45.5073C77.5402 44.7517 77.7131 43.6329 77.7131 42.1508C77.7131 40.6396 77.6123 39.5934 77.4105 39.0122C77.2376 38.4019 76.8342 37.9951 76.2002 37.7917C75.595 37.5882 74.5288 37.4865 73.0015 37.4865C72.8286 37.4865 72.7421 37.3703 72.7421 37.1378C72.7421 37.0506 72.7565 36.978 72.7853 36.9198C72.843 36.8327 72.9006 36.7891 72.9582 36.7891C75.2636 36.9344 77.1368 37.007 78.5777 37.007C79.9321 37.007 81.373 36.9634 82.9003 36.8762C82.9579 36.8762 83.0012 36.9198 83.03 37.007C83.0876 37.0651 83.1164 37.1233 83.1164 37.1814C83.1164 37.3848 83.0444 37.4865 82.9003 37.4865C82.2663 37.4575 81.8196 37.5592 81.5603 37.7917C81.3009 37.9951 81.128 38.431 81.0416 39.0994C80.9839 39.7678 80.9551 40.9302 80.9551 42.5867C80.9551 43.8944 80.9983 44.8244 81.0848 45.3765C81.2001 45.9287 81.2577 46.2774 81.2577 46.4227C81.2577 46.5971 81.2145 46.7133 81.128 46.7715C81.0704 46.8005 80.9407 46.8586 80.739 46.9458C77.1944 47.7595 74.0389 48.1664 71.2724 48.1664Z" fill="url(#paint2_linear)"/>
<path d="M92.1862 43.938C92.1862 44.7517 92.2582 45.3475 92.4023 45.7253C92.5752 46.074 92.8778 46.321 93.3101 46.4663C93.7423 46.5826 94.4195 46.6407 95.3417 46.6407H99.0159C100.831 46.6407 102.33 46.1031 103.511 45.0278C104.722 43.9235 105.529 42.4414 105.932 40.5815C105.932 40.4943 106.004 40.4653 106.148 40.4943C106.321 40.4943 106.408 40.5379 106.408 40.6251C106.148 43.1824 106.019 45.3039 106.019 46.9894C106.019 47.2219 105.961 47.3963 105.846 47.5125C105.759 47.5997 105.601 47.6433 105.37 47.6433H85.2267C85.1691 47.6433 85.1403 47.5561 85.1403 47.3817C85.1403 47.2074 85.1691 47.1202 85.2267 47.1202C86.2642 47.1202 87.0134 47.0475 87.4745 46.9022C87.9644 46.7569 88.2958 46.4808 88.4687 46.074C88.6416 45.6381 88.7281 44.9842 88.7281 44.1124V23.9297C88.7281 23.0578 88.6416 22.4185 88.4687 22.0117C88.2958 21.6048 87.9644 21.3287 87.4745 21.1834C87.0134 21.0091 86.2642 20.9219 85.2267 20.9219C85.1691 20.9219 85.1403 20.8347 85.1403 20.6603C85.1403 20.486 85.1691 20.3988 85.2267 20.3988L87.3881 20.4424C88.656 20.5005 89.6791 20.5295 90.4571 20.5295C91.2352 20.5295 92.2582 20.5005 93.5262 20.4424L95.6875 20.3988C95.7452 20.3988 95.774 20.486 95.774 20.6603C95.774 20.8347 95.7452 20.9219 95.6875 20.9219C94.6789 20.9219 93.9296 21.0091 93.4397 21.1834C92.9498 21.3287 92.6184 21.6193 92.4455 22.0552C92.2726 22.4621 92.1862 23.1014 92.1862 23.9733V43.938Z" fill="url(#paint3_linear)"/>
<path d="M115.144 44.1124C115.144 44.9842 115.231 45.6381 115.403 46.074C115.576 46.4808 115.893 46.7569 116.354 46.9022C116.844 47.0475 117.608 47.1202 118.645 47.1202C118.703 47.1202 118.732 47.2074 118.732 47.3817C118.732 47.5561 118.703 47.6433 118.645 47.6433C117.723 47.6433 117.003 47.6287 116.484 47.5997L113.372 47.5561L110.346 47.5997C109.798 47.6287 109.049 47.6433 108.098 47.6433C108.041 47.6433 108.012 47.5561 108.012 47.3817C108.012 47.2074 108.041 47.1202 108.098 47.1202C109.136 47.1202 109.899 47.0475 110.389 46.9022C110.879 46.7569 111.211 46.4808 111.383 46.074C111.556 45.6381 111.643 44.9842 111.643 44.1124V23.9297C111.643 23.0578 111.556 22.4185 111.383 22.0117C111.211 21.6048 110.879 21.3287 110.389 21.1834C109.899 21.0091 109.136 20.9219 108.098 20.9219C108.041 20.9219 108.012 20.8347 108.012 20.6603C108.012 20.486 108.041 20.3988 108.098 20.3988L110.346 20.4424C111.614 20.5005 112.623 20.5295 113.372 20.5295C114.208 20.5295 115.259 20.5005 116.527 20.4424L118.645 20.3988C118.703 20.3988 118.732 20.486 118.732 20.6603C118.732 20.8347 118.703 20.9219 118.645 20.9219C117.637 20.9219 116.888 21.0091 116.398 21.1834C115.908 21.3578 115.576 21.6629 115.403 22.0988C115.231 22.5057 115.144 23.145 115.144 24.0168V44.1124Z" fill="url(#paint4_linear)"/>
<path d="M126.425 25.281C126.425 26.3853 126.698 27.3588 127.246 28.2016C127.793 29.0153 128.456 29.7273 129.234 30.3376C130.012 30.9188 131.093 31.6308 132.476 32.4735C133.917 33.3744 135.055 34.1591 135.891 34.8275C136.756 35.4668 137.49 36.266 138.096 37.225C138.701 38.184 139.003 39.3174 139.003 40.6251C139.003 42.0491 138.629 43.3423 137.879 44.5047C137.159 45.6381 136.107 46.539 134.724 47.2074C133.37 47.8467 131.785 48.1664 129.969 48.1664C128.816 48.1664 127.678 48.0211 126.554 47.7305C125.43 47.4689 124.45 47.0766 123.615 46.5535C123.471 46.4663 123.37 46.3646 123.312 46.2484C123.255 46.1321 123.226 45.9577 123.226 45.7253L122.793 39.4917C122.765 39.3755 122.822 39.3028 122.966 39.2738C123.139 39.2447 123.24 39.2883 123.269 39.4045C123.961 41.6132 124.926 43.4876 126.165 45.0278C127.404 46.568 129.018 47.3381 131.006 47.3381C132.361 47.3381 133.485 46.9749 134.378 46.2484C135.3 45.4928 135.761 44.2722 135.761 42.5867C135.761 41.308 135.473 40.1892 134.897 39.2302C134.321 38.2712 133.614 37.472 132.779 36.8327C131.972 36.1643 130.877 35.4087 129.494 34.5659C128.139 33.6941 127.058 32.953 126.252 32.3428C125.474 31.7034 124.811 30.9333 124.263 30.0324C123.716 29.1025 123.442 28.0272 123.442 26.8067C123.442 25.3246 123.831 24.0604 124.609 23.0142C125.416 21.9681 126.453 21.1979 127.721 20.7039C129.018 20.1808 130.373 19.9193 131.785 19.9193C133.715 19.9193 135.459 20.2535 137.015 20.9219C137.447 21.0962 137.663 21.3578 137.663 21.7065L137.879 27.1554C137.879 27.2717 137.807 27.3443 137.663 27.3734C137.519 27.4024 137.433 27.3588 137.404 27.2426C137.087 25.6733 136.41 24.1912 135.372 22.7963C134.335 21.3723 132.865 20.6603 130.963 20.6603C129.522 20.6603 128.399 21.0962 127.592 21.9681C126.814 22.8399 126.425 23.9442 126.425 25.281Z" fill="url(#paint5_linear)"/>
<path d="M171.813 47.1202C171.9 47.1202 171.943 47.2074 171.943 47.3817C171.943 47.5561 171.9 47.6433 171.813 47.6433C170.891 47.6433 170.156 47.6287 169.609 47.5997L166.496 47.5561L163.081 47.5997C162.592 47.6287 161.914 47.6433 161.05 47.6433C160.963 47.6433 160.92 47.5561 160.92 47.3817C160.92 47.2074 160.963 47.1202 161.05 47.1202C162.145 47.1202 162.952 47.0475 163.47 46.9022C163.989 46.7569 164.335 46.4808 164.508 46.074C164.681 45.6381 164.767 44.9842 164.767 44.1124V33.9556H149.033V44.1124C149.033 44.9842 149.119 45.6381 149.292 46.074C149.465 46.4808 149.811 46.7569 150.33 46.9022C150.848 47.0475 151.655 47.1202 152.75 47.1202C152.808 47.1202 152.837 47.2074 152.837 47.3817C152.837 47.5561 152.808 47.6433 152.75 47.6433C151.828 47.6433 151.093 47.6287 150.546 47.5997L147.217 47.5561L144.148 47.5997C143.601 47.6287 142.852 47.6433 141.901 47.6433C141.843 47.6433 141.814 47.5561 141.814 47.3817C141.814 47.2074 141.843 47.1202 141.901 47.1202C142.967 47.1202 143.745 47.0475 144.235 46.9022C144.753 46.7569 145.099 46.4808 145.272 46.074C145.474 45.6381 145.575 44.9842 145.575 44.1124V23.9297C145.575 23.0578 145.488 22.4185 145.315 22.0117C145.143 21.6048 144.811 21.3287 144.321 21.1834C143.831 21.0091 143.053 20.9219 141.987 20.9219C141.901 20.9219 141.857 20.8347 141.857 20.6603C141.857 20.486 141.901 20.3988 141.987 20.3988L144.192 20.4424C145.402 20.5005 146.41 20.5295 147.217 20.5295C148.14 20.5295 149.263 20.5005 150.589 20.4424L152.75 20.3988C152.808 20.3988 152.837 20.486 152.837 20.6603C152.837 20.8347 152.808 20.9219 152.75 20.9219C151.684 20.9219 150.892 21.0091 150.373 21.1834C149.854 21.3578 149.494 21.6629 149.292 22.0988C149.119 22.5057 149.033 23.145 149.033 24.0168V32.953H164.767V24.0168C164.767 23.145 164.666 22.5057 164.465 22.0988C164.292 21.6629 163.946 21.3578 163.427 21.1834C162.937 21.0091 162.145 20.9219 161.05 20.9219C160.963 20.9219 160.92 20.8347 160.92 20.6603C160.92 20.486 160.963 20.3988 161.05 20.3988L163.081 20.4424C164.407 20.5005 165.545 20.5295 166.496 20.5295C167.303 20.5295 168.341 20.5005 169.609 20.4424L171.813 20.3988C171.9 20.3988 171.943 20.486 171.943 20.6603C171.943 20.8347 171.9 20.9219 171.813 20.9219C170.747 20.9219 169.969 21.0091 169.479 21.1834C168.989 21.3287 168.643 21.6048 168.442 22.0117C168.269 22.4185 168.182 23.0578 168.182 23.9297V44.1124C168.182 44.9842 168.269 45.6381 168.442 46.074C168.643 46.4808 168.989 46.7569 169.479 46.9022C169.969 47.0475 170.747 47.1202 171.813 47.1202Z" fill="url(#paint6_linear)"/>
<path d="M199.009 30.6961C201.555 30.9207 203.608 31.7874 205.167 33.2959C206.727 34.8045 207.507 36.6501 207.507 38.8326C207.507 40.5338 207.061 42.0744 206.17 43.4546C205.311 44.8027 204.117 45.8779 202.589 46.6804C201.093 47.4507 199.407 47.8359 197.529 47.8359C196.51 47.8359 195.396 47.7877 194.187 47.6914C193.741 47.6593 193.216 47.6272 192.611 47.5951C192.006 47.563 191.322 47.547 190.558 47.547L187.216 47.5951C186.612 47.6272 185.8 47.6433 184.781 47.6433C184.686 47.6433 184.638 47.547 184.638 47.3544C184.638 47.1618 184.686 47.0655 184.781 47.0655C185.895 47.0655 186.707 46.9853 187.216 46.8248C187.757 46.6322 188.139 46.3112 188.362 45.8619C188.585 45.4125 188.696 44.7064 188.696 43.7435V21.4521C188.696 20.4892 188.585 19.7831 188.362 19.3337C188.171 18.8844 187.805 18.5794 187.264 18.419C186.755 18.2264 185.943 18.1301 184.829 18.1301C184.765 18.1301 184.734 18.0338 184.734 17.8412C184.734 17.6486 184.765 17.5523 184.829 17.5523L187.216 17.6005C188.617 17.6647 189.731 17.6968 190.558 17.6968C191.418 17.6968 192.357 17.6486 193.375 17.5523C193.725 17.5202 194.139 17.4881 194.616 17.456C195.126 17.4239 195.667 17.4079 196.24 17.4079C198.977 17.4079 201.062 17.9856 202.494 19.1411C203.926 20.2645 204.642 21.7891 204.642 23.715C204.642 25.2556 204.149 26.6518 203.162 27.9036C202.176 29.1233 200.791 30.0541 199.009 30.6961ZM195.333 18.2264C194.569 18.2264 193.98 18.3066 193.566 18.4671C193.184 18.6276 192.898 18.9486 192.707 19.43C192.548 19.8794 192.468 20.5855 192.468 21.5484V30.6961L194.569 30.7442C196.669 30.7442 198.245 30.1344 199.295 28.9147C200.345 27.695 200.871 26.0901 200.871 24.1001C200.871 22.2706 200.409 20.8423 199.486 19.8152C198.595 18.756 197.21 18.2264 195.333 18.2264ZM196.765 46.8729C199.025 46.8729 200.696 46.2792 201.778 45.0916C202.892 43.904 203.449 42.2028 203.449 39.9881C203.449 37.5488 202.78 35.5908 201.444 34.1144C200.107 32.6379 198.213 31.8836 195.762 31.8516C194.903 31.8195 193.805 31.8515 192.468 31.9478V43.7435C192.468 44.5459 192.579 45.1718 192.802 45.6212C193.025 46.0384 193.439 46.3594 194.043 46.5841C194.648 46.7767 195.555 46.8729 196.765 46.8729Z" fill="url(#paint7_linear)"/>
<path d="M238.871 47.1202C238.929 47.1202 238.958 47.2074 238.958 47.3817C238.958 47.5561 238.929 47.6433 238.871 47.6433H232.603C231.912 47.6433 230.601 46.4082 228.67 43.938C226.768 41.4388 224.491 38.0241 221.84 33.6941C221.177 33.8394 220.543 33.912 219.938 33.912C219.39 33.912 218.684 33.883 217.82 33.8249V44.1124C217.82 44.9842 217.906 45.6381 218.079 46.074C218.252 46.4808 218.569 46.7569 219.03 46.9022C219.52 47.0475 220.284 47.1202 221.321 47.1202C221.408 47.1202 221.451 47.2074 221.451 47.3817C221.451 47.5561 221.408 47.6433 221.321 47.6433C220.428 47.6433 219.722 47.6287 219.203 47.5997L216.091 47.5561L213.065 47.5997C212.518 47.6287 211.783 47.6433 210.861 47.6433C210.774 47.6433 210.731 47.5561 210.731 47.3817C210.731 47.2074 210.774 47.1202 210.861 47.1202C211.898 47.1202 212.662 47.0475 213.151 46.9022C213.641 46.7569 213.973 46.4808 214.146 46.074C214.319 45.6381 214.405 44.9842 214.405 44.1124V23.9297C214.405 23.0578 214.319 22.4185 214.146 22.0117C213.973 21.6048 213.641 21.3287 213.151 21.1834C212.69 21.0091 211.941 20.9219 210.904 20.9219C210.846 20.9219 210.817 20.8347 210.817 20.6603C210.817 20.486 210.846 20.3988 210.904 20.3988L213.065 20.4424C214.333 20.5005 215.342 20.5295 216.091 20.5295C216.61 20.5295 217.099 20.515 217.561 20.486C218.022 20.4569 218.425 20.4278 218.771 20.3988C219.722 20.3116 220.615 20.268 221.451 20.268C223.9 20.268 225.788 20.762 227.114 21.7501C228.439 22.7091 229.102 24.0459 229.102 25.7605C229.102 27.1264 228.699 28.4196 227.892 29.6401C227.085 30.8607 226.033 31.8487 224.736 32.6043C227.157 36.295 229.174 39.1866 230.788 41.279C232.43 43.3423 233.886 44.8389 235.154 45.7689C236.422 46.6697 237.661 47.1202 238.871 47.1202ZM217.82 32.6915C218.915 32.8077 219.765 32.8659 220.37 32.8659C222.215 32.8659 223.526 32.459 224.304 31.6453C225.111 30.8025 225.514 29.364 225.514 27.3298C225.514 25.034 225.082 23.4066 224.217 22.4476C223.353 21.4886 222.157 21.0091 220.63 21.0091C219.88 21.0091 219.304 21.0817 218.901 21.227C218.526 21.3723 218.252 21.6629 218.079 22.0988C217.906 22.5057 217.82 23.145 217.82 24.0168V32.6915Z" fill="url(#paint8_linear)"/>
<path d="M251.354 48.1664C248.674 48.1664 246.283 47.5416 244.179 46.2919C242.104 45.0133 240.49 43.2987 239.338 41.1482C238.214 38.9686 237.652 36.6002 237.652 34.0428C237.652 31.0496 238.401 28.4922 239.9 26.3708C241.398 24.2203 243.314 22.6074 245.649 21.5321C248.012 20.4569 250.418 19.9193 252.867 19.9193C255.605 19.9193 258.011 20.5731 260.086 21.8809C262.161 23.1595 263.746 24.8596 264.841 26.981C265.965 29.1025 266.527 31.3547 266.527 33.7377C266.527 36.3822 265.835 38.8088 264.452 41.0174C263.069 43.226 261.21 44.9697 258.876 46.2484C256.57 47.527 254.063 48.1664 251.354 48.1664ZM252.867 47.2074C254.712 47.2074 256.369 46.7279 257.838 45.7689C259.308 44.8098 260.461 43.4149 261.297 41.5841C262.161 39.7242 262.593 37.5156 262.593 34.9582C262.593 32.2556 262.118 29.8435 261.167 27.7221C260.245 25.6007 258.905 23.9442 257.147 22.7527C255.418 21.5612 253.401 20.9655 251.095 20.9655C248.098 20.9655 245.764 21.9971 244.092 24.0604C242.421 26.0947 241.585 28.9136 241.585 32.5171C241.585 35.2779 242.061 37.7771 243.012 40.0148C243.963 42.2525 245.288 44.0107 246.989 45.2893C248.718 46.568 250.677 47.2074 252.867 47.2074Z" fill="url(#paint9_linear)"/>
<path d="M274.421 25.281C274.421 26.3853 274.695 27.3588 275.242 28.2016C275.79 29.0153 276.453 29.7273 277.231 30.3376C278.009 30.9188 279.09 31.6308 280.473 32.4735C281.914 33.3744 283.052 34.1591 283.888 34.8275C284.752 35.4668 285.487 36.266 286.092 37.225C286.697 38.184 287 39.3174 287 40.6251C287 42.0491 286.625 43.3423 285.876 44.5047C285.156 45.6381 284.104 46.539 282.721 47.2074C281.366 47.8467 279.781 48.1664 277.966 48.1664C276.813 48.1664 275.675 48.0211 274.551 47.7305C273.427 47.4689 272.447 47.0766 271.611 46.5535C271.467 46.4663 271.366 46.3646 271.309 46.2484C271.251 46.1321 271.222 45.9577 271.222 45.7253L270.79 39.4917C270.761 39.3755 270.819 39.3028 270.963 39.2738C271.136 39.2447 271.237 39.2883 271.266 39.4045C271.957 41.6132 272.923 43.4876 274.162 45.0278C275.401 46.568 277.015 47.3381 279.003 47.3381C280.358 47.3381 281.481 46.9749 282.375 46.2484C283.297 45.4928 283.758 44.2722 283.758 42.5867C283.758 41.308 283.47 40.1892 282.894 39.2302C282.317 38.2712 281.611 37.472 280.775 36.8327C279.969 36.1643 278.873 35.4087 277.49 34.5659C276.136 33.6941 275.055 32.953 274.248 32.3428C273.47 31.7034 272.807 30.9333 272.26 30.0324C271.712 29.1025 271.439 28.0272 271.439 26.8067C271.439 25.3246 271.828 24.0604 272.606 23.0142C273.413 21.9681 274.45 21.1979 275.718 20.7039C277.015 20.1808 278.369 19.9193 279.781 19.9193C281.712 19.9193 283.455 20.2535 285.012 20.9219C285.444 21.0962 285.66 21.3578 285.66 21.7065L285.876 27.1554C285.876 27.2717 285.804 27.3443 285.66 27.3734C285.516 27.4024 285.429 27.3588 285.401 27.2426C285.084 25.6733 284.406 24.1912 283.369 22.7963C282.332 21.3723 280.862 20.6603 278.96 20.6603C277.519 20.6603 276.395 21.0962 275.588 21.9681C274.81 22.8399 274.421 23.9442 274.421 25.281Z" fill="url(#paint10_linear)"/>
</g>
<g filter="url(#filter3_d)">
<path d="M49.1864 2.26661C49.1864 2.28637 49.1567 2.30118 49.0974 2.31106C49.0479 2.32093 49.0182 2.31106 49.0083 2.28143C48.85 1.7086 48.5828 1.28392 48.2068 1.00738C47.8308 0.730847 47.336 0.592579 46.7225 0.592579H46.2772C45.9803 0.592579 45.7626 0.656775 45.6241 0.785167C45.4856 0.913558 45.4163 1.11108 45.4163 1.37774V4.57767H46.485C47.0589 4.57767 47.4943 4.47891 47.7912 4.28138C48.0979 4.07398 48.2513 3.7925 48.2513 3.43695C48.2513 3.4172 48.281 3.40733 48.3404 3.40733C48.3997 3.40733 48.4294 3.4172 48.4294 3.43695L48.4146 4.78507C48.4146 5.10111 48.4195 5.33814 48.4294 5.49617L48.4443 6.28133C48.4443 6.31096 48.4146 6.32578 48.3552 6.32578C48.2958 6.32578 48.2662 6.31096 48.2662 6.28133C48.2662 5.88628 48.1078 5.57518 47.7912 5.34802C47.4844 5.11099 47.0441 4.99247 46.4701 4.99247H45.4163V8.16277C45.4163 8.46893 45.4559 8.69609 45.535 8.84423C45.6142 8.99238 45.7626 9.09608 45.9803 9.15534C46.198 9.21459 46.5394 9.24422 47.0045 9.24422C47.0243 9.24422 47.0342 9.27385 47.0342 9.33311C47.0342 9.39237 47.0243 9.422 47.0045 9.422C46.5988 9.422 46.2821 9.41706 46.0545 9.40718L44.5405 9.39237L43.4273 9.40718C43.2294 9.41706 42.9573 9.422 42.6109 9.422C42.5812 9.422 42.5664 9.39237 42.5664 9.33311C42.5664 9.27385 42.5812 9.24422 42.6109 9.24422C42.9573 9.24422 43.2096 9.21953 43.3679 9.17015C43.5263 9.12077 43.6302 9.02695 43.6796 8.88868C43.739 8.74053 43.7687 8.51831 43.7687 8.22203V1.36293C43.7687 1.06664 43.744 0.849363 43.6945 0.711094C43.645 0.572826 43.5461 0.479 43.3976 0.429619C43.2492 0.370361 43.0216 0.340732 42.7148 0.340732C42.6852 0.340732 42.6703 0.311104 42.6703 0.251846C42.6703 0.192588 42.6852 0.16296 42.7148 0.16296H49.0083C49.1073 0.16296 49.1567 0.207403 49.1567 0.296289L49.1864 2.26661Z" fill="#8E8E8D"/>
<path d="M69.5058 9.26741C69.5488 9.26741 69.5703 9.29318 69.5703 9.3447C69.5703 9.39623 69.5488 9.422 69.5058 9.422C69.3337 9.422 69.0669 9.41341 68.7055 9.39623C68.3269 9.37906 68.0559 9.37047 67.8924 9.37047C67.6773 9.37047 67.4148 9.37906 67.105 9.39623C66.8125 9.41341 66.5802 9.422 66.4081 9.422C66.3736 9.422 66.3564 9.39623 66.3564 9.3447C66.3564 9.29318 66.3736 9.26741 66.4081 9.26741C66.6318 9.26741 66.791 9.24594 66.8856 9.203C66.9889 9.15147 67.0405 9.06559 67.0405 8.94536C67.0405 8.79936 66.9545 8.5546 66.7824 8.21108L65.44 5.57024H63.1426L62.2262 7.59273C62.1143 7.84179 62.0584 8.07367 62.0584 8.28837C62.0584 8.59754 62.1659 8.83801 62.3811 9.00977C62.6048 9.18153 62.9016 9.26741 63.2716 9.26741C63.3147 9.26741 63.3362 9.29318 63.3362 9.3447C63.3362 9.39623 63.3147 9.422 63.2716 9.422C63.1168 9.422 62.893 9.41341 62.6005 9.39623C62.2735 9.37906 61.9895 9.37047 61.7486 9.37047C61.5163 9.37047 61.2366 9.37906 60.9097 9.39623C60.6171 9.41341 60.3805 9.422 60.1998 9.422C60.1653 9.422 60.1481 9.39623 60.1481 9.3447C60.1481 9.29318 60.1653 9.26741 60.1998 9.26741C60.4407 9.26741 60.6429 9.22018 60.8064 9.12571C60.9699 9.02265 61.1334 8.84659 61.2969 8.59754C61.4604 8.3399 61.654 7.96202 61.8777 7.46391L64.6785 1.31913C64.6957 1.29337 64.7344 1.28048 64.7947 1.28048C64.8635 1.28048 64.9022 1.29337 64.9108 1.31913L68.1376 7.65714C68.4388 8.2669 68.6883 8.68771 68.8862 8.91959C69.0841 9.15147 69.2906 9.26741 69.5058 9.26741ZM63.3104 5.20954H65.2593L64.2268 3.17416L63.3104 5.20954Z" fill="#8E8E8D"/>
<path d="M89.277 9.26741C89.2943 9.26741 89.3029 9.29318 89.3029 9.3447C89.3029 9.39623 89.2943 9.422 89.277 9.422C88.9845 9.422 88.7522 9.4177 88.5801 9.40911L87.6249 9.39623L86.6569 9.40911C86.4934 9.4177 86.2697 9.422 85.9857 9.422C85.9599 9.422 85.947 9.39623 85.947 9.3447C85.947 9.29318 85.9599 9.26741 85.9857 9.26741C86.3471 9.26741 86.5924 9.22447 86.7214 9.13859C86.8505 9.05271 86.9151 8.87236 86.9151 8.59754L86.9021 8.37854L86.6311 3.10975L83.9722 9.33182C83.955 9.36617 83.9206 9.38335 83.869 9.38335C83.8174 9.38335 83.7829 9.36617 83.7657 9.33182L80.5002 3.13551L80.397 7.78596C80.3884 8.24972 80.4787 8.61472 80.668 8.88095C80.8659 9.13859 81.1413 9.26741 81.4941 9.26741C81.5199 9.26741 81.5328 9.29318 81.5328 9.3447C81.5328 9.39623 81.5199 9.422 81.4941 9.422C81.2618 9.422 81.0811 9.4177 80.952 9.40911L80.2421 9.39623L79.429 9.40911C79.2913 9.4177 79.1063 9.422 78.874 9.422C78.8481 9.422 78.8352 9.39623 78.8352 9.3447C78.8352 9.29318 78.8481 9.26741 78.874 9.26741C79.2267 9.26741 79.5064 9.1343 79.7129 8.86806C79.9194 8.60183 80.027 8.24113 80.0356 7.78596L80.1518 2.45276L80.1388 2.43988C79.9668 2.12212 79.7861 1.89024 79.5967 1.74424C79.416 1.59824 79.2052 1.52525 78.9643 1.52525C78.9385 1.52525 78.9256 1.49948 78.9256 1.44795C78.9256 1.39642 78.9385 1.37066 78.9643 1.37066L79.5709 1.38354C79.6914 1.39213 79.8463 1.39642 80.0356 1.39642L80.7197 1.38354C80.7971 1.37495 80.8961 1.37066 81.0165 1.37066C81.1284 1.37066 81.2144 1.40931 81.2747 1.4866C81.3349 1.56389 81.4468 1.74854 81.6102 2.04053L84.424 7.30933L86.8763 1.69271C86.928 1.57248 86.9796 1.49089 87.0312 1.44795C87.0914 1.39642 87.1689 1.37066 87.2635 1.37066C87.341 1.37066 87.427 1.37495 87.5217 1.38354C87.6249 1.39213 87.7411 1.39642 87.8702 1.39642L88.6317 1.38354C88.7522 1.37495 88.9242 1.37066 89.148 1.37066C89.1738 1.37066 89.1867 1.39642 89.1867 1.44795C89.1867 1.49948 89.1738 1.52525 89.148 1.52525C88.7435 1.52525 88.451 1.60683 88.2703 1.77001C88.0896 1.93318 88.0078 2.18653 88.0251 2.53005L88.3348 8.37854C88.352 8.64477 88.3822 8.83801 88.4252 8.95824C88.4768 9.07847 88.5629 9.16006 88.6833 9.203C88.8124 9.24594 89.0103 9.26741 89.277 9.26741Z" fill="#8E8E8D"/>
<path d="M101.557 8.37854C101.557 8.64477 101.579 8.83801 101.622 8.95824C101.665 9.07847 101.746 9.16006 101.867 9.203C101.996 9.24594 102.198 9.26741 102.473 9.26741C102.499 9.26741 102.512 9.29318 102.512 9.3447C102.512 9.39623 102.499 9.422 102.473 9.422C102.19 9.422 101.966 9.4177 101.802 9.40911L100.821 9.39623L99.8663 9.40911C99.6942 9.4177 99.4618 9.422 99.1693 9.422C99.1521 9.422 99.1435 9.39623 99.1435 9.3447C99.1435 9.29318 99.1521 9.26741 99.1693 9.26741C99.4446 9.26741 99.6469 9.24594 99.7759 9.203C99.905 9.16006 99.991 9.07847 100.034 8.95824C100.086 8.82942 100.112 8.63619 100.112 8.37854V2.41411C100.112 2.15647 100.086 1.96753 100.034 1.8473C99.991 1.72707 99.905 1.64548 99.7759 1.60254C99.6469 1.55101 99.4446 1.52525 99.1693 1.52525C99.1521 1.52525 99.1435 1.49948 99.1435 1.44795C99.1435 1.39642 99.1521 1.37066 99.1693 1.37066L99.8663 1.38354C100.262 1.40072 100.58 1.40931 100.821 1.40931C101.088 1.40931 101.419 1.40072 101.815 1.38354L102.473 1.37066C102.499 1.37066 102.512 1.39642 102.512 1.44795C102.512 1.49948 102.499 1.52525 102.473 1.52525C102.207 1.52525 102.009 1.55101 101.88 1.60254C101.751 1.65407 101.665 1.74424 101.622 1.87306C101.579 1.9933 101.557 2.18223 101.557 2.43988V8.37854Z" fill="#8E8E8D"/>
<path d="M114.823 8.32701C114.823 8.55031 114.84 8.71348 114.875 8.81654C114.909 8.91101 114.974 8.97542 115.068 9.00977C115.171 9.04412 115.335 9.0613 115.559 9.0613H115.997C116.669 9.0613 117.249 8.88524 117.74 8.53313C118.23 8.17243 118.557 7.6872 118.721 7.07745C118.721 7.06027 118.738 7.05168 118.772 7.05168C118.79 7.05168 118.807 7.06027 118.824 7.07745C118.85 7.08604 118.863 7.09462 118.863 7.10321C118.785 7.95343 118.747 8.66195 118.747 9.22877C118.747 9.29747 118.729 9.349 118.695 9.38335C118.669 9.40912 118.622 9.422 118.553 9.422H112.461C112.444 9.422 112.435 9.39623 112.435 9.3447C112.435 9.29318 112.444 9.26741 112.461 9.26741C112.736 9.26741 112.934 9.24594 113.055 9.203C113.184 9.16006 113.27 9.07847 113.313 8.95824C113.364 8.82942 113.39 8.63619 113.39 8.37854V2.41411C113.39 2.15647 113.364 1.96753 113.313 1.8473C113.27 1.72707 113.184 1.64548 113.055 1.60254C112.926 1.55101 112.728 1.52525 112.461 1.52525C112.444 1.52525 112.435 1.49948 112.435 1.44795C112.435 1.39642 112.444 1.37066 112.461 1.37066L113.119 1.38354C113.515 1.40072 113.842 1.40931 114.1 1.40931C114.358 1.40931 114.685 1.40072 115.081 1.38354L115.739 1.37066C115.765 1.37066 115.778 1.39642 115.778 1.44795C115.778 1.49948 115.765 1.52525 115.739 1.52525C115.473 1.52525 115.275 1.55101 115.146 1.60254C115.017 1.64548 114.93 1.73136 114.887 1.86018C114.844 1.98041 114.823 2.16935 114.823 2.427V8.32701Z" fill="#8E8E8D"/>
<path d="M135.906 1.37066C135.924 1.37066 135.932 1.39642 135.932 1.44795C135.932 1.49948 135.924 1.52525 135.906 1.52525C135.64 1.52525 135.313 1.69271 134.925 2.02765C134.538 2.354 134.194 2.76623 133.893 3.26433L132.551 5.50583V8.37854C132.551 8.64477 132.572 8.83801 132.615 8.95824C132.658 9.07847 132.74 9.16006 132.86 9.203C132.989 9.24594 133.192 9.26741 133.467 9.26741C133.493 9.26741 133.506 9.29318 133.506 9.3447C133.506 9.39623 133.493 9.422 133.467 9.422C133.183 9.422 132.959 9.4177 132.796 9.40911L131.828 9.39623L130.873 9.40911C130.701 9.4177 130.468 9.422 130.176 9.422C130.158 9.422 130.15 9.39623 130.15 9.3447C130.15 9.29318 130.158 9.26741 130.176 9.26741C130.451 9.26741 130.653 9.24594 130.782 9.203C130.911 9.16006 130.997 9.07847 131.04 8.95824C131.092 8.82942 131.118 8.63619 131.118 8.37854V5.77635L129.233 2.85211C128.915 2.354 128.648 2.01047 128.433 1.82153C128.227 1.62401 128.05 1.52525 127.904 1.52525C127.878 1.52525 127.865 1.49948 127.865 1.44795C127.865 1.39642 127.878 1.37066 127.904 1.37066L128.304 1.38354C128.493 1.40072 128.627 1.40931 128.704 1.40931C129.005 1.40931 129.44 1.40072 130.008 1.38354L130.86 1.37066C130.877 1.37066 130.886 1.39642 130.886 1.44795C130.886 1.49948 130.877 1.52525 130.86 1.52525C130.713 1.52525 130.597 1.5596 130.511 1.6283C130.434 1.69701 130.395 1.78718 130.395 1.89883C130.395 2.03624 130.455 2.19941 130.576 2.38835L132.344 5.17089L133.532 3.14839C133.764 2.76193 133.88 2.43129 133.88 2.15647C133.88 1.95036 133.815 1.79577 133.686 1.69271C133.566 1.58107 133.39 1.52525 133.157 1.52525C133.131 1.52525 133.118 1.49948 133.118 1.44795C133.118 1.39642 133.131 1.37066 133.157 1.37066L133.841 1.38354C134.237 1.40072 134.59 1.40931 134.9 1.40931C135.046 1.40931 135.222 1.40072 135.429 1.38354L135.906 1.37066Z" fill="#8E8E8D"/>
<path d="M164.167 9.59977C163.247 9.59977 162.426 9.38743 161.703 8.96275C160.991 8.52819 160.437 7.94549 160.041 7.21464C159.655 6.47392 159.462 5.669 159.462 4.79989C159.462 3.78263 159.719 2.91351 160.234 2.19254C160.748 1.46169 161.407 0.913558 162.208 0.548135C163.019 0.182712 163.846 0 164.687 0C165.627 0 166.453 0.222217 167.166 0.666651C167.878 1.10121 168.422 1.67897 168.798 2.39994C169.184 3.12091 169.377 3.88633 169.377 4.69618C169.377 5.59493 169.14 6.4196 168.665 7.1702C168.19 7.9208 167.552 8.51338 166.75 8.94793C165.958 9.38249 165.097 9.59977 164.167 9.59977ZM164.657 9.22941C165.211 9.22941 165.706 9.07139 166.141 8.75535C166.587 8.42943 166.933 7.9603 167.18 7.34797C167.428 6.72577 167.552 5.98504 167.552 5.1258C167.552 4.21718 167.413 3.40733 167.136 2.69623C166.859 1.97526 166.458 1.41231 165.934 1.00738C165.409 0.602455 164.796 0.399991 164.093 0.399991C163.193 0.399991 162.5 0.740723 162.015 1.42219C161.53 2.09378 161.288 3.03696 161.288 4.25175C161.288 5.20975 161.431 6.06899 161.718 6.82947C162.015 7.58007 162.416 8.16771 162.921 8.59239C163.435 9.01707 164.014 9.22941 164.657 9.22941Z" fill="#8E8E8D"/>
<path d="M192.325 1.37066C192.342 1.37066 192.351 1.39642 192.351 1.44795C192.351 1.49948 192.342 1.52525 192.325 1.52525C192.007 1.52525 191.705 1.66265 191.421 1.93747C191.146 2.2037 190.918 2.57299 190.737 3.04534L188.35 9.40911C188.341 9.44347 188.294 9.46064 188.208 9.46064C188.122 9.46064 188.074 9.44347 188.066 9.40911L186.414 5.91805L185.11 9.40911C185.101 9.44347 185.054 9.46064 184.968 9.46064C184.882 9.46064 184.835 9.44347 184.826 9.40911L181.535 2.43988C181.406 2.16506 181.298 1.96753 181.212 1.8473C181.135 1.72707 181.044 1.64548 180.941 1.60254C180.846 1.55101 180.717 1.52525 180.554 1.52525C180.528 1.52525 180.515 1.49948 180.515 1.44795C180.515 1.39642 180.528 1.37066 180.554 1.37066C180.683 1.37066 180.773 1.37495 180.825 1.38354C180.997 1.40072 181.221 1.40931 181.496 1.40931C182.072 1.40931 182.559 1.40072 182.954 1.38354C183.066 1.37495 183.204 1.37066 183.367 1.37066C183.393 1.37066 183.406 1.39642 183.406 1.44795C183.406 1.49948 183.393 1.52525 183.367 1.52525C183.152 1.52525 182.997 1.54672 182.903 1.58966C182.817 1.6326 182.774 1.70989 182.774 1.82153C182.774 1.96753 182.873 2.25094 183.071 2.67176L185.394 7.59273L186.207 5.46718L184.774 2.43988C184.628 2.13071 184.49 1.90312 184.361 1.75712C184.232 1.60254 184.095 1.52525 183.948 1.52525C183.922 1.52525 183.91 1.49948 183.91 1.44795C183.91 1.39642 183.922 1.37066 183.948 1.37066C184.034 1.37066 184.133 1.37925 184.245 1.39642C184.366 1.40501 184.533 1.40931 184.749 1.40931C185.239 1.40931 185.648 1.40072 185.975 1.38354C186.061 1.37495 186.173 1.37066 186.31 1.37066C186.336 1.37066 186.349 1.39642 186.349 1.44795C186.349 1.49948 186.336 1.52525 186.31 1.52525C186.19 1.52525 186.099 1.54242 186.039 1.57677C185.988 1.60254 185.962 1.65407 185.962 1.73136C185.962 1.87736 186.078 2.19082 186.31 2.67176L186.878 3.86979L187.201 3.00669C187.39 2.51717 187.485 2.14788 187.485 1.89883C187.485 1.64977 187.377 1.52525 187.162 1.52525C187.136 1.52525 187.123 1.49948 187.123 1.44795C187.123 1.39642 187.136 1.37066 187.162 1.37066C187.231 1.37066 187.304 1.37925 187.382 1.39642C187.468 1.40501 187.674 1.40931 188.001 1.40931C188.147 1.40931 188.324 1.40072 188.53 1.38354L189.008 1.37066C189.025 1.37066 189.034 1.39642 189.034 1.44795C189.034 1.49948 189.025 1.52525 189.008 1.52525C188.431 1.52525 187.954 2.03194 187.575 3.04534L187.098 4.32067L188.646 7.57985L190.311 3.13551C190.415 2.86069 190.466 2.61164 190.466 2.38835C190.466 2.12212 190.397 1.91171 190.26 1.75712C190.131 1.60254 189.954 1.52525 189.731 1.52525C189.705 1.52525 189.692 1.49948 189.692 1.44795C189.692 1.39642 189.705 1.37066 189.731 1.37066L190.324 1.38354C190.634 1.40072 190.918 1.40931 191.176 1.40931C191.348 1.40931 191.546 1.40072 191.77 1.38354L192.325 1.37066Z" fill="#8E8E8D"/>
<path d="M210.616 1.37066C210.633 1.37066 210.642 1.39642 210.642 1.44795C210.642 1.49948 210.633 1.52525 210.616 1.52525C210.272 1.52525 210.001 1.66265 209.803 1.93747C209.605 2.2037 209.506 2.5644 209.506 3.01957V9.61523C209.506 9.64099 209.484 9.65817 209.441 9.66676C209.407 9.67535 209.381 9.67105 209.364 9.65388L203.311 2.77481V7.78596C203.311 8.24113 203.405 8.60183 203.595 8.86806C203.784 9.1343 204.046 9.26741 204.382 9.26741C204.399 9.26741 204.408 9.29318 204.408 9.3447C204.408 9.39623 204.399 9.422 204.382 9.422C204.141 9.422 203.956 9.4177 203.827 9.40911L203.13 9.39623L202.33 9.40911C202.183 9.4177 201.973 9.422 201.697 9.422C201.671 9.422 201.658 9.39623 201.658 9.3447C201.658 9.29318 201.671 9.26741 201.697 9.26741C202.076 9.26741 202.373 9.1343 202.588 8.86806C202.811 8.60183 202.923 8.24113 202.923 7.78596V2.33682C202.639 2.02765 202.394 1.81724 202.188 1.7056C201.99 1.58536 201.783 1.52525 201.568 1.52525C201.551 1.52525 201.542 1.49948 201.542 1.44795C201.542 1.39642 201.551 1.37066 201.568 1.37066L202.11 1.38354C202.222 1.39213 202.386 1.39642 202.601 1.39642L203.582 1.38354C203.702 1.37495 203.848 1.37066 204.02 1.37066C204.089 1.37066 204.141 1.38784 204.175 1.42219C204.21 1.45654 204.27 1.52954 204.356 1.64118C204.502 1.83871 204.606 1.97183 204.666 2.04053L209.132 7.18051V3.01957C209.132 2.55582 209.037 2.19082 208.848 1.92459C208.658 1.65836 208.396 1.52525 208.06 1.52525C208.043 1.52525 208.035 1.49948 208.035 1.44795C208.035 1.39642 208.043 1.37066 208.06 1.37066L208.615 1.38354C208.891 1.40072 209.123 1.40931 209.312 1.40931C209.484 1.40931 209.725 1.40072 210.035 1.38354L210.616 1.37066Z" fill="#8E8E8D"/>
<path d="M226.212 7.37374C226.212 7.35656 226.229 7.34797 226.264 7.34797C226.29 7.34797 226.311 7.35656 226.328 7.37374C226.354 7.38232 226.367 7.39091 226.367 7.3995C226.281 8.06937 226.238 8.67913 226.238 9.22877C226.238 9.29747 226.225 9.349 226.199 9.38335C226.173 9.40912 226.122 9.422 226.044 9.422H220.339C220.314 9.422 220.301 9.39623 220.301 9.3447C220.301 9.29318 220.314 9.26741 220.339 9.26741C220.615 9.26741 220.813 9.24594 220.933 9.203C221.062 9.16006 221.148 9.07847 221.191 8.95824C221.234 8.82942 221.256 8.63619 221.256 8.37854V2.41411C221.256 2.15647 221.234 1.96753 221.191 1.8473C221.148 1.72707 221.062 1.64548 220.933 1.60254C220.804 1.55101 220.606 1.52525 220.339 1.52525C220.314 1.52525 220.301 1.49948 220.301 1.44795C220.301 1.39642 220.314 1.37066 220.339 1.37066H225.812C225.898 1.37066 225.941 1.40931 225.941 1.4866L225.967 3.19992C225.967 3.2171 225.941 3.22998 225.89 3.23857C225.847 3.24716 225.821 3.23857 225.812 3.21281C225.674 2.7147 225.442 2.34541 225.115 2.10494C224.788 1.86448 224.358 1.74424 223.824 1.74424H223.437C223.179 1.74424 222.99 1.80006 222.869 1.91171C222.749 2.02335 222.689 2.19512 222.689 2.427V5.05495H223.76C224.259 5.05495 224.642 4.96907 224.909 4.79731C225.175 4.62555 225.309 4.38508 225.309 4.07591C225.309 4.05015 225.33 4.03726 225.373 4.03726C225.425 4.03726 225.451 4.05015 225.451 4.07591L225.438 5.2353L225.451 5.85365C225.468 6.14564 225.476 6.37752 225.476 6.54928C225.476 6.56646 225.451 6.57504 225.399 6.57504C225.347 6.57504 225.322 6.56646 225.322 6.54928C225.322 6.19717 225.184 5.92235 224.909 5.72482C224.642 5.51871 224.255 5.41565 223.747 5.41565H222.689V8.32701C222.689 8.57607 222.736 8.76071 222.831 8.88095C222.925 9.00118 223.076 9.0613 223.282 9.0613H223.708C224.379 9.0613 224.917 8.92389 225.322 8.64907C225.726 8.37425 226.023 7.94914 226.212 7.37374Z" fill="#8E8E8D"/>
<path d="M240.175 9.47353C239.899 9.47353 239.572 9.46064 239.194 9.43488C239.056 9.42629 238.884 9.4177 238.677 9.40911C238.479 9.40053 238.256 9.39623 238.006 9.39623L237.051 9.40911C236.879 9.4177 236.647 9.422 236.354 9.422C236.337 9.422 236.328 9.39623 236.328 9.3447C236.328 9.29318 236.337 9.26741 236.354 9.26741C236.629 9.26741 236.832 9.24594 236.961 9.203C237.09 9.16006 237.176 9.07847 237.219 8.95824C237.27 8.82942 237.296 8.63619 237.296 8.37854V2.41411C237.296 2.15647 237.27 1.96753 237.219 1.8473C237.176 1.72707 237.09 1.64548 236.961 1.60254C236.84 1.55101 236.647 1.52525 236.38 1.52525C236.354 1.52525 236.341 1.49948 236.341 1.44795C236.341 1.39642 236.354 1.37066 236.38 1.37066L237.064 1.38354C237.46 1.40072 237.774 1.40931 238.006 1.40931C238.359 1.40931 238.72 1.39642 239.09 1.37066C239.538 1.35348 239.839 1.3449 239.994 1.3449C240.863 1.3449 241.633 1.51666 242.304 1.86018C242.984 2.2037 243.509 2.67176 243.879 3.26433C244.249 3.85691 244.434 4.52249 244.434 5.26107C244.434 6.09411 244.24 6.83269 243.853 7.47679C243.474 8.11231 242.958 8.60613 242.304 8.95824C241.659 9.30176 240.949 9.47353 240.175 9.47353ZM240.045 9.17724C240.596 9.17724 241.082 9.03983 241.504 8.76501C241.926 8.4816 242.253 8.06508 242.485 7.51544C242.726 6.9658 242.846 6.30881 242.846 5.54447C242.846 4.81449 242.734 4.1532 242.511 3.56062C242.287 2.95946 241.969 2.48711 241.556 2.14359C241.143 1.80006 240.665 1.6283 240.123 1.6283C239.589 1.6283 239.224 1.67983 239.026 1.78289C238.828 1.88595 238.729 2.10494 238.729 2.43988V8.23684C238.729 8.58036 238.819 8.82512 239 8.97112C239.181 9.10853 239.529 9.17724 240.045 9.17724Z" fill="#8E8E8D"/>
</g>
<defs>
<filter id="filter0_d" x="42.5664" y="88.329" width="205.867" height="13.671" filterUnits="userSpaceOnUse" color-interpolation-filters="sRGB">
<feFlood flood-opacity="0" result="BackgroundImageFix"/>
<feColorMatrix in="SourceAlpha" type="matrix" values="0 0 0 0 0 0 0 0 0 0 0 0 0 0 0 0 0 0 127 0" result="hardAlpha"/>
<feOffset dx="2" dy="2"/>
<feGaussianBlur stdDeviation="1"/>
<feComposite in2="hardAlpha" operator="out"/>
<feColorMatrix type="matrix" values="0 0 0 0 0 0 0 0 0 0 0 0 0 0 0 0 0 0 0.2 0"/>
<feBlend mode="normal" in2="BackgroundImageFix" result="effect1_dropShadow"/>
<feBlend mode="normal" in="SourceGraphic" in2="effect1_dropShadow" result="shape"/>
</filter>
<filter id="filter1_d" x="42.5664" y="58.671" width="205.867" height="20.7632" filterUnits="userSpaceOnUse" color-interpolation-filters="sRGB">
<feFlood flood-opacity="0" result="BackgroundImageFix"/>
<feColorMatrix in="SourceAlpha" type="matrix" values="0 0 0 0 0 0 0 0 0 0 0 0 0 0 0 0 0 0 127 0" result="hardAlpha"/>
<feOffset dx="2" dy="2"/>
<feGaussianBlur stdDeviation="1"/>
<feComposite in2="hardAlpha" operator="out"/>
<feColorMatrix type="matrix" values="0 0 0 0 0 0 0 0 0 0 0 0 0 0 0 0 0 0 0.2 0"/>
<feBlend mode="normal" in2="BackgroundImageFix" result="effect1_dropShadow"/>
<feBlend mode="normal" in="SourceGraphic" in2="effect1_dropShadow" result="shape"/>
</filter>
<filter id="filter2_d" x="0" y="17.4079" width="295" height="38.9474" filterUnits="userSpaceOnUse" color-interpolation-filters="sRGB">
<feFlood flood-opacity="0" result="BackgroundImageFix"/>
<feColorMatrix in="SourceAlpha" type="matrix" values="0 0 0 0 0 0 0 0 0 0 0 0 0 0 0 0 0 0 127 0" result="hardAlpha"/>
<feOffset dx="4" dy="4"/>
<feGaussianBlur stdDeviation="2"/>
<feComposite in2="hardAlpha" operator="out"/>
<feColorMatrix type="matrix" values="0 0 0 0 0.3 0 0 0 0 0.24442 0 0 0 0 0.1525 0 0 0 0.2 0"/>
<feBlend mode="normal" in2="BackgroundImageFix" result="effect1_dropShadow"/>
<feBlend mode="normal" in="SourceGraphic" in2="effect1_dropShadow" result="shape"/>
</filter>
<filter id="filter3_d" x="42.5664" y="0" width="205.867" height="13.6711" filterUnits="userSpaceOnUse" color-interpolation-filters="sRGB">
<feFlood flood-opacity="0" result="BackgroundImageFix"/>
<feColorMatrix in="SourceAlpha" type="matrix" values="0 0 0 0 0 0 0 0 0 0 0 0 0 0 0 0 0 0 127 0" result="hardAlpha"/>
<feOffset dx="2" dy="2"/>
<feGaussianBlur stdDeviation="1"/>
<feComposite in2="hardAlpha" operator="out"/>
<feColorMatrix type="matrix" values="0 0 0 0 0 0 0 0 0 0 0 0 0 0 0 0 0 0 0.2 0"/>
<feBlend mode="normal" in2="BackgroundImageFix" result="effect1_dropShadow"/>
<feBlend mode="normal" in="SourceGraphic" in2="effect1_dropShadow" result="shape"/>
</filter>
<linearGradient id="paint0_linear" x1="143.713" y1="2.75083" x2="143.713" y2="61.3062" gradientUnits="userSpaceOnUse">
<stop stop-color="#FBE7AD"/>
<stop offset="1" stop-color="#9E815D"/>
</linearGradient>
<linearGradient id="paint1_linear" x1="143.713" y1="2.75083" x2="143.713" y2="61.3062" gradientUnits="userSpaceOnUse">
<stop stop-color="#FBE7AD"/>
<stop offset="1" stop-color="#9E815D"/>
</linearGradient>
<linearGradient id="paint2_linear" x1="143.713" y1="2.75083" x2="143.713" y2="61.3062" gradientUnits="userSpaceOnUse">
<stop stop-color="#FBE7AD"/>
<stop offset="1" stop-color="#9E815D"/>
</linearGradient>
<linearGradient id="paint3_linear" x1="143.713" y1="2.75083" x2="143.713" y2="61.3062" gradientUnits="userSpaceOnUse">
<stop stop-color="#FBE7AD"/>
<stop offset="1" stop-color="#9E815D"/>
</linearGradient>
<linearGradient id="paint4_linear" x1="143.713" y1="2.75083" x2="143.713" y2="61.3062" gradientUnits="userSpaceOnUse">
<stop stop-color="#FBE7AD"/>
<stop offset="1" stop-color="#9E815D"/>
</linearGradient>
<linearGradient id="paint5_linear" x1="143.713" y1="2.75083" x2="143.713" y2="61.3062" gradientUnits="userSpaceOnUse">
<stop stop-color="#FBE7AD"/>
<stop offset="1" stop-color="#9E815D"/>
</linearGradient>
<linearGradient id="paint6_linear" x1="143.713" y1="2.75083" x2="143.713" y2="61.3062" gradientUnits="userSpaceOnUse">
<stop stop-color="#FBE7AD"/>
<stop offset="1" stop-color="#9E815D"/>
</linearGradient>
<linearGradient id="paint7_linear" x1="143.713" y1="2.75083" x2="143.713" y2="61.3062" gradientUnits="userSpaceOnUse">
<stop stop-color="#FBE7AD"/>
<stop offset="1" stop-color="#9E815D"/>
</linearGradient>
<linearGradient id="paint8_linear" x1="143.713" y1="2.75083" x2="143.713" y2="61.3062" gradientUnits="userSpaceOnUse">
<stop stop-color="#FBE7AD"/>
<stop offset="1" stop-color="#9E815D"/>
</linearGradient>
<linearGradient id="paint9_linear" x1="143.713" y1="2.75083" x2="143.713" y2="61.3062" gradientUnits="userSpaceOnUse">
<stop stop-color="#FBE7AD"/>
<stop offset="1" stop-color="#9E815D"/>
</linearGradient>
<linearGradient id="paint10_linear" x1="143.713" y1="2.75083" x2="143.713" y2="61.3062" gradientUnits="userSpaceOnUse">
<stop stop-color="#FBE7AD"/>
<stop offset="1" stop-color="#9E815D"/>
</linearGradient>
</defs>
</svg>
