<svg width="30" height="30" fill="none" xmlns="http://www.w3.org/2000/svg"><path d="M15 0C6.73 0 0 6.729 0 15s6.73 15 15 15 15-6.729 15-15S23.27 0 15 0zm0 28.846C7.366 28.846 1.154 22.634 1.154 15S7.366 1.154 15 1.154 28.846 7.366 28.846 15 22.634 28.846 15 28.846z" fill="#39373C"/><path d="M20.6 9.4a.576.576 0 00-.816 0L15 14.184 10.215 9.4a.576.576 0 10-.815.815L14.184 15 9.4 19.784a.576.576 0 10.815.816L15 15.816l4.784 4.784a.575.575 0 00.816 0 .576.576 0 000-.816L15.816 15l4.784-4.785a.576.576 0 000-.815z" fill="#39373C"/></svg>