<svg width="40" height="40" viewBox="0 0 40 40" fill="none" xmlns="http://www.w3.org/2000/svg">
<g clip-path="url(#clip0)">
<path d="M8.08106 39.0557C7.93285 39.0557 7.78464 39.0098 7.66006 38.9189C7.43954 38.7585 7.32927 38.4872 7.37581 38.2187L9.58893 25.318L0.21595 16.1828C0.0212019 15.9923 -0.0489648 15.7081 0.0348056 15.4496C0.119292 15.1904 0.343396 15.0014 0.613322 14.962L13.5655 13.0797L19.3586 1.34251C19.4788 1.09765 19.728 0.942993 20.0001 0.942993C20.2729 0.942993 20.522 1.09765 20.6416 1.34251L26.4339 13.0797L39.3868 14.962C39.6568 15.0014 39.8802 15.1897 39.9654 15.4496C40.0491 15.7081 39.9797 15.993 39.7842 16.1828L30.4112 25.3195L32.6236 38.2194C32.6695 38.4879 32.5592 38.7592 32.3394 38.9196C32.1189 39.0814 31.826 39.1022 31.5847 38.974L20.0001 32.8839L8.41399 38.974C8.30946 39.0284 8.1949 39.0557 8.08106 39.0557ZM2.25436 16.1699L10.8577 24.5562C11.0259 24.7202 11.1032 24.9579 11.0631 25.1899L9.03189 37.0308L19.6671 31.4404C19.8755 31.3302 20.1239 31.3302 20.3337 31.4404L30.9676 37.0308L28.937 25.1899C28.8969 24.9579 28.9743 24.7209 29.1425 24.5562L37.7458 16.1699L25.8568 14.4422C25.6234 14.4085 25.4222 14.2618 25.3177 14.0506L20.0001 3.27782L14.6825 14.0513C14.5779 14.2625 14.3767 14.4093 14.1433 14.4429L2.25436 16.1699Z" fill="#39373C"/>
</g>
<defs>
<clipPath id="clip0">
<rect width="40" height="40" fill="white"/>
</clipPath>
</defs>
</svg>
