<svg width="40" height="40" viewBox="0 0 40 40" fill="none" xmlns="http://www.w3.org/2000/svg">
<g clip-path="url(#clip0)">
<path d="M22.5 40H4.16667C1.87 40 0 38.13 0 35.8333V4.16667C0 1.87 1.87 0 4.16667 0H22.5C24.7967 0 26.6667 1.87 26.6667 4.16667V14.1667C26.6667 14.6267 26.2933 15 25.8333 15C25.3733 15 25 14.6267 25 14.1667V4.16667C25 2.78833 23.8783 1.66667 22.5 1.66667H4.16667C2.78833 1.66667 1.66667 2.78833 1.66667 4.16667V35.8333C1.66667 37.2117 2.78833 38.3333 4.16667 38.3333H22.5C23.8783 38.3333 25 37.2117 25 35.8333V25.8333C25 25.3733 25.3733 25 25.8333 25C26.2933 25 26.6667 25.3733 26.6667 25.8333V35.8333C26.6667 38.13 24.7967 40 22.5 40Z" fill="#39373C"/>
<path d="M39.1654 20.8333H14.1654C13.7054 20.8333 13.332 20.46 13.332 20C13.332 19.54 13.7054 19.1666 14.1654 19.1666H39.1654C39.6254 19.1666 39.9987 19.54 39.9987 20C39.9987 20.46 39.6254 20.8333 39.1654 20.8333Z" fill="#39373C"/>
<path d="M32.5017 27.5C32.2884 27.5 32.0751 27.4183 31.9117 27.2566C31.5867 26.9316 31.5867 26.4033 31.9117 26.0783L37.99 20L31.9134 13.9233C31.5884 13.5983 31.5884 13.07 31.9134 12.745C32.2384 12.42 32.7667 12.42 33.0917 12.745L39.7584 19.4116C40.0834 19.7366 40.0834 20.265 39.7584 20.59L33.0917 27.2566C32.9284 27.4183 32.715 27.5 32.5017 27.5Z" fill="#39373C"/>
</g>
<defs>
<clipPath id="clip0">
<rect width="40" height="40" fill="white"/>
</clipPath>
</defs>
</svg>
