<svg width="40" height="40" viewBox="0 0 40 40" fill="none" xmlns="http://www.w3.org/2000/svg">
<path d="M39.9967 39.265L38.6634 25.9328C38.6291 25.5909 38.3405 25.3311 37.9968 25.3329H37.3302V0.668259C37.3302 0.300123 37.0317 0.00164795 36.6636 0.00164795H0.666611C0.298475 0.00164795 0 0.300123 0 0.668259V36.6653C0 37.0334 0.298475 37.3319 0.666611 37.3319H24.198L24.0047 39.265C23.9678 39.6313 24.235 39.9582 24.6013 39.995C24.6224 39.9971 24.6434 39.9982 24.6646 39.9983H39.3301C39.6982 40.0001 39.9982 39.7032 40 39.335C40.0001 39.3117 39.999 39.2883 39.9967 39.265ZM1.33322 1.33487H35.997V4.00131H1.33322V1.33487ZM24.328 35.9986H1.33322V5.33454H35.997V25.3329H35.3304C35.3304 23.4921 33.8381 21.9998 31.9973 21.9998C30.1566 21.9998 28.6643 23.4921 28.6643 25.3329H25.9978C25.6554 25.3329 25.3688 25.5922 25.3346 25.9328L24.328 35.9986ZM33.9972 25.3329H29.9975C29.9975 24.2284 30.8928 23.333 31.9973 23.333C33.1018 23.333 33.9972 24.2284 33.9972 25.3329ZM25.3979 38.6651L26.5978 26.6661H28.6643V27.9993C28.6643 28.3675 28.9628 28.6659 29.3309 28.6659C29.699 28.6659 29.9975 28.3675 29.9975 27.9993V26.6661H33.9972V27.9993C33.9972 28.3675 34.2956 28.6659 34.6638 28.6659C35.0319 28.6659 35.3304 28.3675 35.3304 27.9993V26.6661H37.3969L38.5968 38.6651H25.3979Z" fill="#39373C"/>
<path d="M10.7707 10.3675L9.82807 9.42487L6.52835 12.7246L5.11446 11.3107L4.17188 12.2533L6.52835 14.6098L10.7707 10.3675Z" fill="#39373C"/>
<path d="M10.7707 15.7003L9.82807 14.7578L6.52835 18.0575L5.11446 16.6436L4.17188 17.5862L6.52835 19.9427L10.7707 15.7003Z" fill="#39373C"/>
<path d="M10.7707 21.0332L9.82807 20.0906L6.52835 23.3904L5.11446 21.9765L4.17188 22.9191L6.52835 25.2755L10.7707 21.0332Z" fill="#39373C"/>
<path d="M27.3307 12.0007H11.332V13.3339H27.3307V12.0007Z" fill="#39373C"/>
<path d="M27.3307 17.3336H11.332V18.6668H27.3307V17.3336Z" fill="#39373C"/>
<path d="M27.3307 22.6664H11.332V23.9997H27.3307V22.6664Z" fill="#39373C"/>
</svg>
