<svg width="40" height="40" viewBox="0 0 40 40" fill="none" xmlns="http://www.w3.org/2000/svg">
<path d="M20.0023 20.7715C22.3725 20.7715 24.687 19.3333 26.5195 16.7219C28.1368 14.4173 29.1022 11.568 29.1022 9.0999C29.1023 4.08223 25.0199 0 20.0023 0C14.9846 0 10.9023 4.08223 10.9023 9.0999C10.9023 11.568 11.8678 14.4173 13.485 16.7219C15.3175 19.3333 17.632 20.7715 20.0023 20.7715ZM20.0023 1.48387C24.2017 1.48387 27.6183 4.90044 27.6183 9.0999C27.6183 11.2421 26.7318 13.836 25.3049 15.8695C23.7806 18.0417 21.8479 19.2876 20.0023 19.2876C18.1566 19.2876 16.2239 18.0417 14.6996 15.8695C13.2727 13.836 12.3862 11.2421 12.3862 9.0999C12.3862 4.90044 15.8028 1.48387 20.0023 1.48387Z" fill="#39373C"/>
<path d="M33.3359 24.8416C31.7326 22.3532 29.4754 20.3669 26.8082 19.0972C26.5249 18.9624 26.1875 19.0202 25.9653 19.2417C24.1777 21.0245 22.1152 21.9666 20.0009 21.9666C17.8862 21.9666 15.8241 21.0245 14.0375 19.2418C13.8153 19.0201 13.4778 18.9622 13.1945 19.0971C10.5273 20.3668 8.26985 22.3532 6.66627 24.8415C5.01908 27.3974 4.14844 30.3628 4.14844 33.4169V33.4298C4.14844 33.6391 4.23688 33.8387 4.39189 33.9794C8.67297 37.8619 14.2163 40.0001 20.0008 40.0001C25.7852 40.0001 31.3285 37.8619 35.6096 33.9794C35.7646 33.8387 35.8531 33.6392 35.8531 33.4298V33.4169C35.8533 30.3628 34.9828 27.3974 33.3359 24.8416ZM20.0009 38.5163C14.6964 38.5163 9.6083 36.5955 5.63577 33.1008C5.69345 30.4442 6.47802 27.8729 7.91362 25.6454C9.27552 23.5322 11.1572 21.8183 13.3769 20.6638C15.3599 22.4893 17.64 23.4505 20.0009 23.4505C22.3613 23.4505 24.6418 22.4891 26.6258 20.6637C28.8453 21.8181 30.727 23.5321 32.0886 25.6453C33.5239 27.8728 34.3083 30.4439 34.3659 33.1007C30.3934 36.5954 25.3053 38.5163 20.0009 38.5163Z" fill="#39373C"/>
</svg>
