<svg width="40" height="40" fill="none" xmlns="http://www.w3.org/2000/svg"><g clip-path="url(#clip0)"><path d="M8.081 39.056a.714.714 0 01-.705-.837l2.213-12.901-9.373-9.135a.717.717 0 01.397-1.221l12.953-1.882 5.793-11.737a.715.715 0 011.283 0l5.792 11.737 12.953 1.882a.717.717 0 01.397 1.22l-9.373 9.138 2.213 12.9a.717.717 0 01-1.04.754L20 32.884l-11.586 6.09a.722.722 0 01-.333.082zM2.254 16.17l8.604 8.386a.716.716 0 01.205.634L9.032 37.03l10.635-5.59a.713.713 0 01.667 0l10.634 5.59-2.031-11.84a.717.717 0 01.205-.634l8.604-8.386-11.89-1.728a.716.716 0 01-.538-.391L20 3.278 14.682 14.05a.716.716 0 01-.539.392L2.254 16.17z" fill="#39373C"/></g><defs><clipPath id="clip0"><path fill="#fff" d="M0 0h40v40H0z"/></clipPath></defs></svg>