<svg width="40" height="40" fill="none" xmlns="http://www.w3.org/2000/svg"><g clip-path="url(#clip0)" fill="#39373C"><path d="M22.5 40H4.167A4.172 4.172 0 010 35.833V4.167A4.172 4.172 0 014.167 0H22.5a4.172 4.172 0 014.167 4.167v10a.834.834 0 01-1.667 0v-10c0-1.379-1.122-2.5-2.5-2.5H4.167a2.503 2.503 0 00-2.5 2.5v31.666c0 1.379 1.121 2.5 2.5 2.5H22.5c1.378 0 2.5-1.121 2.5-2.5v-10a.834.834 0 011.667 0v10A4.172 4.172 0 0122.5 40z"/><path d="M39.165 20.833h-25a.834.834 0 010-1.666h25a.834.834 0 010 1.666z"/><path d="M32.502 27.5a.834.834 0 01-.59-1.422L37.99 20l-6.077-6.077a.834.834 0 011.179-1.178l6.666 6.667a.834.834 0 010 1.178l-6.666 6.667a.837.837 0 01-.59.243z"/></g><defs><clipPath id="clip0"><path fill="#fff" d="M0 0h40v40H0z"/></clipPath></defs></svg>