<svg width="40" height="40" fill="none" xmlns="http://www.w3.org/2000/svg"><path d="M33.288 5.543C29.735 2.372 25.016.625 20 .625S10.265 2.372 6.713 5.543C3.14 8.733 1.171 12.979 1.171 17.5c0 3.59 1.234 7.005 3.573 9.894L2.59 38.632a.625.625 0 00.891.678l11.296-5.594c1.706.44 3.462.661 5.224.659 5.016 0 9.735-1.747 13.288-4.918 3.572-3.19 5.54-7.436 5.54-11.957 0-4.521-1.968-8.767-5.54-11.957zM20 33.125a19.604 19.604 0 01-5.128-.676.624.624 0 00-.44.043l-10.378 5.14 1.974-10.29a.626.626 0 00-.135-.52c-2.271-2.71-3.471-5.933-3.471-9.322C2.422 8.884 10.307 1.875 20 1.875S37.578 8.885 37.578 17.5c0 8.616-7.885 15.625-17.578 15.625z" fill="#39373C"/><path d="M20.078 19.375a1.875 1.875 0 110-3.751 1.875 1.875 0 010 3.751zm0-2.5a.626.626 0 100 1.251.626.626 0 000-1.251zm-6.25 2.5a1.875 1.875 0 110-3.751 1.875 1.875 0 010 3.751zm0-2.5a.626.626 0 100 1.251.626.626 0 000-1.251zm12.5-1.25a1.875 1.875 0 100 3.751 1.875 1.875 0 000-3.751zm0 2.5a.626.626 0 110-1.251.626.626 0 010 1.251z" fill="#39373C"/></svg>