<svg width="40" height="40" fill="none" xmlns="http://www.w3.org/2000/svg"><path d="M39.997 39.265l-1.334-13.332a.666.666 0 00-.666-.6h-.667V.668a.667.667 0 00-.666-.666H.667A.667.667 0 000 .668v35.997c0 .368.298.667.667.667h23.531l-.193 1.933a.667.667 0 00.66.733H39.33a.667.667 0 00.667-.733zM1.333 1.335h34.664V4H1.333V1.335zm22.995 34.664H1.333V5.335h34.664v19.998h-.667a3.333 3.333 0 00-6.666 0h-2.666a.666.666 0 00-.663.6l-1.007 10.066zm9.67-10.666h-4a2 2 0 114 0zm-8.6 13.332l1.2-11.999h2.066V28a.667.667 0 001.333 0v-1.333h4V28a.667.667 0 101.333 0v-1.333h2.067l1.2 12h-13.2z" fill="#39373C"/><path d="M10.77 10.367l-.942-.942-3.3 3.3-1.414-1.414-.942.942 2.356 2.357 4.243-4.242zm0 5.333l-.942-.942-3.3 3.3-1.414-1.414-.942.942 2.356 2.357 4.243-4.243zm0 5.333l-.942-.942-3.3 3.3-1.414-1.414-.942.942 2.356 2.357 4.243-4.243zM27.33 12H11.333v1.334h15.999V12zm0 5.334H11.333v1.333h15.999v-1.333zm0 5.332H11.333V24h15.999v-1.334z" fill="#39373C"/></svg>