<svg width="40" height="40" fill="none" xmlns="http://www.w3.org/2000/svg"><path d="M20.002 20.771c2.37 0 4.685-1.438 6.518-4.05 1.617-2.304 2.582-5.153 2.582-7.621 0-5.018-4.082-9.1-9.1-9.1-5.017 0-9.1 4.082-9.1 9.1 0 2.468.966 5.317 2.583 7.622 1.833 2.611 4.147 4.05 6.517 4.05zm0-19.287c4.2 0 7.616 3.416 7.616 7.616 0 2.142-.886 4.736-2.313 6.77-1.524 2.172-3.457 3.418-5.303 3.418-1.845 0-3.778-1.246-5.302-3.418-1.427-2.034-2.314-4.628-2.314-6.77 0-4.2 3.417-7.616 7.616-7.616z" fill="#39373C"/><path d="M33.336 24.842a15.882 15.882 0 00-6.528-5.745.742.742 0 00-.843.145c-1.787 1.782-3.85 2.725-5.964 2.725-2.115 0-4.177-.942-5.964-2.725a.742.742 0 00-.843-.145 15.886 15.886 0 00-6.528 5.744 15.795 15.795 0 00-2.518 8.576v.013c0 .21.089.409.244.55A23.19 23.19 0 0020 40a23.189 23.189 0 0015.609-6.02.742.742 0 00.243-.55v-.013c0-3.054-.87-6.02-2.517-8.575zM20 38.516a21.708 21.708 0 01-14.365-5.415 14.307 14.307 0 012.278-7.456 14.406 14.406 0 015.463-4.981C15.36 22.489 17.64 23.45 20 23.45c2.36 0 4.64-.962 6.625-2.787a14.403 14.403 0 015.463 4.981 14.308 14.308 0 012.277 7.456A21.707 21.707 0 0120 38.516z" fill="#39373C"/></svg>