<svg width="30" height="30" fill="none" xmlns="http://www.w3.org/2000/svg"><path d="M29 18.552V2a.5.5 0 00-.5-.5H.5A.5.5 0 000 2v22a.5.5 0 00.5.5h17.002c.981 2.346 3.3 4 5.998 4 3.584 0 6.5-2.916 6.5-6.5 0-1.267-.37-2.448-1-3.448zM17.18 23.5H1v-21h27v14.811c-.085-.082-.177-.155-.266-.233-.044-.037-.086-.077-.13-.113a6.443 6.443 0 00-.364-.273c-.046-.032-.091-.067-.138-.099a6.41 6.41 0 00-.377-.229c-.055-.032-.107-.065-.163-.095l-.116-.061a.494.494 0 00-.109-.577l-6-5.5a.5.5 0 00-.707.031l-4.896 5.364-2.372-2.371a.501.501 0 00-.684-.022l-8.509 7.492a.5.5 0 00.661.75l8.156-7.18 5.151 5.15a.494.494 0 00.369.143 6.465 6.465 0 00-.462 3.24c.004.037.011.074.017.112.027.214.065.425.113.631.003.01.003.02.006.029zm7.21-7.932c-.082-.011-.161-.027-.243-.035a6.498 6.498 0 00-6.248 3.186c-.018-.027-.03-.058-.054-.082l-2.403-2.403 4.59-5.027 4.847 4.443c-.034-.007-.067-.016-.1-.022-.128-.026-.26-.042-.39-.06zM23.5 27.5a5.504 5.504 0 01-5.183-3.679 5.663 5.663 0 01-.125-.403l-.023-.087a5.575 5.575 0 01-.078-.357c-.012-.067-.02-.134-.03-.201-.013-.09-.027-.18-.035-.27A5.58 5.58 0 0118 22c0-3.032 2.468-5.5 5.5-5.5.213 0 .424.015.633.04.063.007.125.019.187.028a5.61 5.61 0 01.642.135c.134.037.265.08.396.127.067.024.134.047.2.073.148.06.291.128.433.2.041.02.085.038.126.06.171.093.335.197.496.307.066.045.128.095.191.143a5.445 5.445 0 01.479.404c.096.092.189.189.279.288.047.051.095.1.14.154A5.47 5.47 0 0129 22a5.505 5.505 0 01-5.499 5.5z" fill="#646464"/><path d="M26.5 21.5H24V19a.5.5 0 10-1 0v2.5h-2.5a.5.5 0 100 1H23V25a.5.5 0 101 0v-2.5h2.5a.5.5 0 100-1zM8 12.569a2.787 2.787 0 002.785-2.784A2.788 2.788 0 008 7a2.787 2.787 0 00-2.784 2.784A2.787 2.787 0 008 12.57zM8 8c.984 0 1.785.801 1.785 1.784A1.786 1.786 0 118 8z" fill="#646464"/></svg>