<svg width="60" height="60" fill="none" xmlns="http://www.w3.org/2000/svg"><path d="M52.888 37.888l1.752 1.752a1.32 1.32 0 002.185-1.351l-2.033-6.099a1.832 1.832 0 00-2.754-.945l-2.35 1.567v3.75c1.2 0 2.351.477 3.2 1.326z" fill="#FDC8A2"/><path d="M57.188 2.813H48.93a13.804 13.804 0 00-13.3 10.11 13.804 13.804 0 01-8.454 9.23l-.926.347v8.438h13.125a4.688 4.688 0 004.688-4.688 4.688 4.688 0 004.687-4.688 4.687 4.687 0 004.688-4.687h-2.813a4.688 4.688 0 004.688-4.688H52.5A4.688 4.688 0 0057.188 7.5H52.5a4.688 4.688 0 004.688-4.688z" fill="#DFDFDD"/><path d="M50.625 10.313a.938.938 0 00-.938-.938h-1.436a5.602 5.602 0 001.437-3.75.938.938 0 00-.938-.938h-2.813v1.875h1.757a3.757 3.757 0 01-3.632 2.813H41.25v1.875h7.381A3.757 3.757 0 0145 14.063h-5.625v1.874h5.506a3.757 3.757 0 01-3.631 2.813h-4.688v1.875h2.694a3.757 3.757 0 01-3.631 2.813h-2.813v1.875h2.813a5.633 5.633 0 005.545-4.688h.08a5.632 5.632 0 005.59-4.998 5.634 5.634 0 003.785-5.315z" fill="#D5D5D3"/><path d="M48.75 6.563h4.688v1.875H48.75V6.562zm.938 4.687h3.75v1.875h-3.75V11.25zm-3.75 4.688h5.624v1.874h-5.624v-1.875zm-6.563 4.687h9.375V22.5h-9.375v-1.875zm-.937 4.688h5.624v1.875h-5.624v-1.875z" fill="#D5D5D3"/><path d="M7.5 22.5v-9.375l-.938-6.563h3.75l.938 5.625v9.376l12.188-.817 2.77-.03a2.766 2.766 0 11.089 5.534H11.25A3.75 3.75 0 017.5 22.5z" fill="#FDC8A2"/><path d="M12.379 8.842a9.79 9.79 0 01-4.92-5.606l-.853-.424-3.793 7.612.853.424a9.822 9.822 0 017.448.532l9.184 4.557 1.265-2.537-9.184-4.558z" fill="#FFB431"/><path d="M30 10.781a4.219 4.219 0 00-4.219-4.219h-.312a4.218 4.218 0 00-3.971 2.796l-.423 1.18-2.325.712 1.538 1.988-.423 1.901a.938.938 0 00.59 1.083l2.397.887-.938 8.555 5.273-4.102.88-6.796.287-.21a3.876 3.876 0 001.58-2.852L30 10.78z" fill="#FDC8A2"/><path d="M17.862 29.654a3.532 3.532 0 003.279 2.22h1.36l.937 1.875L30 30.936l-.937-5.625v-1.369a3.05 3.05 0 00-4.922-2.407l-5.168 4.02a3.53 3.53 0 00-1.11 4.099z" fill="#95C2DA"/><path d="M30.938 34.688L24.375 37.5l-.938-3.75L30 30.937l.938 3.75z" fill="#8CB8CE"/><path d="M53.438 53.438l1.554 3.109a1.16 1.16 0 002.196-.518v-6.12a1.16 1.16 0 00-1.16-1.159h-4.465v3.75l1.874.938z" fill="#FDC8A2"/><path d="M46.875 42.188h1.875v15h-1.875v-15zm0-3.75h1.875v1.874h-1.875v-1.874z" fill="#000"/><path d="M14.395 30.938c.4 0 .796-.077 1.167-.225l11.743-4.697a2.794 2.794 0 00-1.038-5.391h-.295c-.434 0-.862.101-1.25.295l-8.785 4.392L15 15l.938-4.688-1.876-1.874L11.25 7.5v20.293a3.145 3.145 0 003.145 3.145z" fill="#FFD4B5"/><path d="M28.066 14.764l-.272 2.11H30a5.31 5.31 0 005.269-4.652l.356-2.848h-.538a4.548 4.548 0 01-3.64-1.82l-.077-.104a4.552 4.552 0 00-3.627-1.826 6.868 6.868 0 00-4.34 1.477l3.784 4.147.343-.036a1.635 1.635 0 011.313 2.797l-.777.755z" fill="#FFB431"/><path d="M24.375 37.5l.006-.002c.02-.044.02-.045-.006.002z" fill="#95C2DA"/><path d="M51.563 40.755v16.432h-26.75a6.351 6.351 0 01-5.677-9.199c1.839-3.664 4.971-9.911 5.24-10.48a.056.056 0 010-.008l.004.001.001-.003 6.557-2.81a6.462 6.462 0 015.61 3.255s.695 1.254 1.108 1.786c.18.23.6.655.63.684l1.648-1.098 9.754-6.502a17.762 17.762 0 011.875 7.942z" fill="#8CB8CE"/><path d="M23.512 12.225l.525-1.8 1.8.525-.525 1.8-1.8-.525z" fill="#FCB079"/><path d="M14.317 55.66l-.383-.957a11.315 11.315 0 01.615-9.697l1.639.91a9.441 9.441 0 00-.513 8.09l.383.958-1.741.696zm1.008-12.037l1.043-1.875 1.638.912-1.042 1.874-1.639-.911zM35.59 6.814l-1.806-.504.034-.12c.561-2.011 2.185-3.609 4.343-4.274l.552 1.792c-1.545.476-2.7 1.593-3.09 2.986l-.033.12zm4.81 28.372c-.054 0-.11 0-.165-.002l.043-1.875c1.618.037 3.066-.657 3.875-1.856l.07-.103 1.554 1.049-.07.103c-1.14 1.688-3.114 2.684-5.306 2.684zM9.648 2.54l1.326-1.327L15.661 5.9l-1.326 1.326-4.687-4.687zM1.875 16.875h2.813v1.875H1.874v-1.875z" fill="#F1F1F1"/><path d="M23.325 51.07l-1.65-.89 5.151-9.528 1.65.89-5.151 9.527zm1.642 2.2l-.95-1.617 5.925-3.43.95 1.617-5.925 3.43z" fill="#7DA9C1"/><path d="M51.563 40.755v16.432H41.5c-3.88 0-7.616-1.578-10.247-4.431-5.65-6.127-6.838-14.94-6.878-15.248a.045.045 0 01-.001-.008l.006-.002 6.556-2.81a6.462 6.462 0 015.611 3.255s.694 1.254 1.108 1.786c.18.23.6.655.63.684l1.648-1.098 9.754-6.502a17.762 17.762 0 011.874 7.942z" fill="#95C2DA"/><path d="M44.576 49.08c-8.072-1.666-12.846-7.661-14.974-11.087l1.592-.99c1.97 3.17 6.376 8.716 13.761 10.242l-.379 1.836zm-.362 4.805a22.582 22.582 0 01-6.774-2.69l.961-1.61a20.712 20.712 0 006.212 2.468l-.4 1.832zm1.583-12.423l-.484 1.812-3.684-.984a7.871 7.871 0 01-3.343-1.877l1.648-1.098a5.862 5.862 0 002.18 1.163l3.683.984zm-18.491-5.22l-1.776.76c.243.631 3.313 8.197 10.338 13.168l1.083-1.53c-6.64-4.7-9.573-12.208-9.645-12.398z" fill="#8CB8CE"/></svg>