<svg width="60" height="60" fill="none" xmlns="http://www.w3.org/2000/svg"><path d="M39.492 14.297a11.06 11.06 0 00-7.873 3.261A11.206 11.206 0 0030 19.605a11.216 11.216 0 00-1.62-2.047 11.06 11.06 0 00-7.872-3.261C9.2 14.297 0 23.497 0 34.805v23.437C0 59.213.787 60 1.758 60a8.742 8.742 0 005.202-1.71l1.758-8.837 1.758 2.88 5.78-2.89 1.759-4.677 1.757 3.745c2.867-1.45 4.837-4.422 4.837-7.847v-3.516a5.28 5.28 0 015.274-5.273h.234a5.28 5.28 0 015.274 5.273v3.516c0 3.425 1.97 6.397 4.837 7.847l1.758-3.745 1.757 4.677 5.781 2.89 1.758-2.88 1.758 8.837A8.742 8.742 0 0058.242 60c.971 0 1.758-.787 1.758-1.758V34.805c0-11.308-9.2-20.508-20.508-20.508z" fill="#F9F9F9"/><path d="M39.492 14.297a11.06 11.06 0 00-7.873 3.261A11.206 11.206 0 0030 19.605v12.27h.117a5.28 5.28 0 015.274 5.273v3.516c0 3.425 1.97 6.397 4.837 7.847l1.758-3.745 1.757 4.677 5.781 2.89 1.758-2.88 1.758 8.837A8.742 8.742 0 0058.242 60c.971 0 1.758-.787 1.758-1.758V34.805c0-11.308-9.2-20.508-20.508-20.508zM18.015 35.39c-.971 0-1.758.788-1.758 1.758v12.294a8.725 8.725 0 003.515-.931V37.148c0-.97-.787-1.757-1.757-1.757zm-9.297 4.688c-.971 0-1.758.787-1.758 1.758V58.29a8.795 8.795 0 003.516-5.958V41.836c0-.97-.787-1.758-1.758-1.758z" fill="#EAF1FF"/><path d="M41.985 35.39c.971 0 1.758.788 1.758 1.758v12.294a8.725 8.725 0 01-3.516-.931V37.148c0-.97.788-1.757 1.758-1.757zm9.297 4.688c.971 0 1.758.787 1.758 1.758V58.29a8.795 8.795 0 01-3.516-5.958V41.836c0-.97.787-1.758 1.758-1.758z" fill="#D5E7FF"/><path d="M30 11.719c-2.741 0-5.346-.48-7.334-1.349-3.305-1.446-3.799-3.447-3.799-4.51 0-1.064.494-3.065 3.8-4.511C24.653.479 27.258 0 30 0c2.741 0 5.346.479 7.334 1.349 3.305 1.446 3.799 3.447 3.799 4.51 0 1.064-.494 3.065-3.8 4.511-1.987.87-4.592 1.349-7.333 1.349zm0-8.203c-2.234 0-4.394.384-5.925 1.053-1.291.566-1.692 1.144-1.692 1.29 0 .147.4.725 1.692 1.29 1.531.67 3.69 1.054 5.925 1.054 2.234 0 4.394-.384 5.925-1.054 1.291-.565 1.692-1.143 1.692-1.29 0-.146-.4-.724-1.692-1.29-1.531-.67-3.69-1.053-5.925-1.053z" fill="#FFDD54"/><path d="M41.133 5.86c0-1.064-.494-3.065-3.8-4.511C35.347.479 32.742 0 30 0v3.516c2.234 0 4.394.384 5.925 1.053 1.291.566 1.692 1.144 1.692 1.29 0 .147-.4.725-1.692 1.29-1.531.67-3.69 1.054-5.925 1.054v3.516c2.741 0 5.346-.48 7.334-1.349 3.305-1.446 3.799-3.447 3.799-4.51z" fill="#FFB454"/></svg>