<svg width="60" height="60" fill="none" xmlns="http://www.w3.org/2000/svg"><g clip-path="url(#clip0)"><path d="M49.499 19.222v-.617l-.284-.09H45.94l-.087.118v.589c0 7.977-6.197 14.534-14.03 15.11l-.327.255v2.978l.327.42C41.668 37.404 49.5 29.21 49.5 19.223z" fill="#60B9FE"/><path d="M42.207 19.222v-.625l-.19-.179h-3.323l-.133.22v.584c0 3.953-2.933 7.232-6.737 7.778l-.327.303v2.858l.327.512c5.82-.566 10.383-5.485 10.383-11.45zM28.178 27c-3.804-.546-6.737-3.825-6.737-7.778v-.583l-.11-.168h-1.56l-.159.128v.636c0 5.407 3.69 9.965 8.683 11.297l.083-.1v-3.27l-.2-.162z" fill="#60B9FE"/><path d="M28.177 34.333c-7.832-.577-14.03-7.134-14.03-15.11v-.59l-.115-.162H12.38l-.1.136v.624c0 9.422 6.89 17.264 15.897 18.755l.2-.21v-3.169l-.2-.274z" fill="#60B9FE"/><path d="M28.177 41.639C16.321 41.052 6.856 31.222 6.856 19.222v-.596l-.178-.13H5.012l-.09.12v.614c0 12.905 9.32 23.671 21.58 25.93.554.06 1.112.103 1.675.127l.281-.377v-2.978l-.28-.293z" fill="#60B9FE"/><path d="M19.754 19.222v-.625l.156-.126h-1.96l-.156.126v.625c0 5.966 4.564 10.885 10.383 11.451l.2-.24v-.074c-4.953-1.283-8.623-5.788-8.623-11.137zm-7.292 0v-.616l.1-.135h-1.96l-.1.135v.616c0 9.989 7.83 18.181 17.676 18.764l.182-.19c-8.993-1.4-15.898-9.195-15.898-18.574z" fill="#1CA8FF"/><path d="M5.17 19.223v-.609l.087-.118h-1.96l-.088.118v.608c0 14.01 11.1 25.475 24.968 26.065l.108-.145C15.295 43.66 5.17 32.602 5.17 19.222z" fill="#1CA8FF"/><path d="M56.647 18.455h-3.38l-.122.17v.597c0 11.999-9.465 21.83-21.322 22.416l-.327.454v2.696l.327.499c13.868-.59 24.968-12.055 24.968-26.065v-.609l-.144-.158z" fill="#60B9FE"/><path d="M45.94 18.516l-.088.117v.589c0 7.687-5.755 14.054-13.182 15.023h.379c2.37 0 4.716-.552 6.802-1.676 4.75-2.56 7.985-7.583 7.985-13.347v-.59l.088-.116H45.94zm-7.247-.098l-.133.22v.584c0 3.78-2.683 6.942-6.244 7.69h.472c3.228 0 6.174-1.968 7.283-5a7.84 7.84 0 00.474-2.69v-.583l.132-.221h-1.984z" fill="#1CA8FF"/><path d="M53.266 18.455l-.122.17v.597c0 11.693-8.99 21.325-20.42 22.352h.913c.93 0 1.861-.065 2.779-.219 10.606-1.782 18.713-11.029 18.713-22.133v-.597l.121-.17h-1.984z" fill="#1CA8FF"/><path d="M31.657 16.549h-1.715v35.965h1.654l.227-.232V16.675l-.166-.126z" fill="#B5DCFF"/><path d="M30.064 16.549h-1.756l-.13.126v35.607l.24.233h1.646V16.548z" fill="#8BCAFF"/><path d="M54.961 10.825a.905.905 0 01-.905-.906V7.335a.905.905 0 111.81 0V9.92c0 .5-.405.906-.905.906z" fill="#FFEAC8"/><path d="M56.42 9.646h-1.071a.63.63 0 00-.63.63v7.834a.63.63 0 00.63.629h1.07a.63.63 0 00.63-.63v-7.833a.63.63 0 00-.63-.63z" fill="#FFDDA8"/><path d="M54.96 18.11v-7.834a.63.63 0 01.63-.63h-2.088a.63.63 0 00-.629.63v7.834a.63.63 0 00.63.629h2.087a.63.63 0 01-.63-.63zm1.058-15.532a3.858 3.858 0 00-1.117 2.717c0 .969.44 1.639 1.05 2.014.7-.319 1.235-.999 1.235-2.042a3.67 3.67 0 00-1.168-2.689z" fill="#FFC365"/><path d="M54.96 5.268c0-1.033.428-1.965 1.113-2.633a3.694 3.694 0 00-.86-.627.544.544 0 00-.506 0 3.68 3.68 0 00-1.973 3.26c0 2.025 2.021 2.685 3.34 1.98-.639-.34-1.114-1-1.114-1.98z" fill="#FFA90F"/><path d="M34.871 52.283H29.18c-2.342.29-4.195 1.682-4.557 4.036l.702.422h14.3l.603-.467c-.399-2.595-2.655-3.99-5.357-3.99z" fill="#60B9FE"/><path d="M30.119 52.283h-4.99c-2.702 0-4.958 1.396-5.357 3.99l.779.468h4.99l-.779-.467c.399-2.595 2.655-3.99 5.357-3.99z" fill="#1CA8FF"/><path d="M42.35 56.273H23.406a.83.83 0 00-.83.83v2.067c0 .459.371.83.83.83H42.35a.83.83 0 00.83-.83v-2.066a.83.83 0 00-.83-.83z" fill="#B5DCFF"/><path d="M22.695 59.17v-2.066a.83.83 0 01.831-.83h-5.875a.83.83 0 00-.83.83v2.066c0 .459.371.83.83.83h5.875a.83.83 0 01-.83-.83z" fill="#8BCAFF"/><path d="M47.658 10.825a.905.905 0 01-.905-.906V7.335a.905.905 0 011.81 0V9.92c0 .5-.405.906-.905.906z" fill="#FFEAC8"/><path d="M49.116 9.646h-1.07a.63.63 0 00-.63.63v7.834a.63.63 0 00.63.629h1.07a.63.63 0 00.629-.63v-7.833a.63.63 0 00-.63-.63z" fill="#FFDDA8"/><path d="M47.658 18.11v-7.834a.63.63 0 01.629-.63H46.2a.63.63 0 00-.63.63v7.834a.63.63 0 00.63.629h2.087a.63.63 0 01-.63-.63zm1.057-15.532A3.858 3.858 0 0047.6 5.295c0 .969.44 1.639 1.049 2.014.7-.319 1.236-.999 1.236-2.042a3.67 3.67 0 00-1.169-2.689z" fill="#FFC365"/><path d="M47.659 5.268c0-1.033.427-1.965 1.113-2.633a3.692 3.692 0 00-.86-.627.544.544 0 00-.506 0 3.68 3.68 0 00-1.973 3.26c0 2.025 2.02 2.685 3.34 1.98-.64-.34-1.114-1-1.114-1.98z" fill="#FFA90F"/><path d="M40.356 10.825a.905.905 0 01-.906-.906V7.335a.905.905 0 111.811 0V9.92c0 .5-.405.906-.905.906z" fill="#FFEAC8"/><path d="M41.814 9.646h-1.07a.63.63 0 00-.63.63v7.834a.63.63 0 00.63.629h1.07a.63.63 0 00.63-.63v-7.833a.629.629 0 00-.63-.63z" fill="#FFDDA8"/><path d="M40.356 18.11v-7.834a.63.63 0 01.63-.63h-2.088a.63.63 0 00-.63.63v7.834a.63.63 0 00.63.629h2.087a.63.63 0 01-.629-.63zm1.057-15.532a3.858 3.858 0 00-1.117 2.717c0 .969.44 1.639 1.05 2.014.699-.319 1.235-.999 1.235-2.042 0-1.061-.45-2.017-1.168-2.689z" fill="#FFC365"/><path d="M40.356 5.268c0-1.033.427-1.965 1.113-2.633a3.694 3.694 0 00-.86-.627.544.544 0 00-.506 0 3.68 3.68 0 00-1.973 3.26c0 2.025 2.02 2.685 3.34 1.98-.64-.34-1.114-1-1.114-1.98z" fill="#FFA90F"/><path d="M19.644 10.825a.905.905 0 01-.906-.906V7.335a.905.905 0 111.811 0V9.92c0 .5-.405.906-.905.906z" fill="#FFEAC8"/><path d="M21.102 9.646h-1.07a.63.63 0 00-.63.63v7.834a.63.63 0 00.63.629h1.07a.63.63 0 00.63-.63v-7.833a.63.63 0 00-.63-.63z" fill="#FFDDA8"/><path d="M19.645 18.11v-7.834a.63.63 0 01.63-.63h-2.088a.63.63 0 00-.63.63v7.834a.63.63 0 00.63.629h2.087a.63.63 0 01-.629-.63zm1.057-15.532a3.858 3.858 0 00-1.117 2.717c0 .969.44 1.639 1.05 2.014.7-.319 1.235-.999 1.235-2.042 0-1.061-.45-2.017-1.168-2.689z" fill="#FFC365"/><path d="M19.645 5.268c0-1.033.427-1.965 1.113-2.633a3.693 3.693 0 00-.86-.627.544.544 0 00-.506 0 3.68 3.68 0 00-1.973 3.26c0 2.025 2.021 2.685 3.34 1.98-.639-.34-1.114-1-1.114-1.98z" fill="#FFA90F"/><path d="M12.342 10.825a.905.905 0 01-.905-.906V7.335a.905.905 0 011.81 0V9.92c0 .5-.405.906-.905.906z" fill="#FFEAC8"/><path d="M13.8 9.646h-1.07a.63.63 0 00-.63.63v7.834a.63.63 0 00.63.629h1.07a.63.63 0 00.63-.63v-7.833a.63.63 0 00-.63-.63z" fill="#FFDDA8"/><path d="M12.342 18.11v-7.834a.63.63 0 01.63-.63h-2.088a.63.63 0 00-.63.63v7.834a.63.63 0 00.63.629h2.088a.63.63 0 01-.63-.63zM13.4 2.578a3.858 3.858 0 00-1.117 2.717c0 .969.44 1.639 1.05 2.014.7-.319 1.235-.999 1.235-2.042 0-1.061-.45-2.017-1.168-2.689z" fill="#FFC365"/><path d="M12.341 5.268c0-1.033.428-1.965 1.113-2.633a3.695 3.695 0 00-.86-.627.544.544 0 00-.506 0 3.68 3.68 0 00-1.973 3.26c0 2.025 2.021 2.685 3.34 1.98-.639-.34-1.114-1-1.114-1.98z" fill="#FFA90F"/><path d="M5.04 10.825a.905.905 0 01-.905-.906V7.335a.905.905 0 111.81 0V9.92c0 .5-.405.906-.905.906z" fill="#FFEAC8"/><path d="M6.498 9.646H5.427a.63.63 0 00-.63.63v7.834a.63.63 0 00.63.629h1.07a.63.63 0 00.63-.63v-7.833a.629.629 0 00-.63-.63z" fill="#FFDDA8"/><path d="M5.04 18.11v-7.834a.63.63 0 01.629-.63H3.58a.63.63 0 00-.629.63v7.834a.63.63 0 00.63.629h2.087a.63.63 0 01-.63-.63zM6.097 2.578A3.858 3.858 0 004.98 5.295c0 .969.44 1.639 1.05 2.014.7-.319 1.236-.999 1.236-2.042a3.67 3.67 0 00-1.169-2.689z" fill="#FFC365"/><path d="M5.04 5.268c0-1.033.427-1.965 1.112-2.633a3.693 3.693 0 00-.86-.627.544.544 0 00-.506 0 3.68 3.68 0 00-1.973 3.26c0 2.025 2.021 2.685 3.34 1.98-.638-.34-1.114-1-1.114-1.98z" fill="#FFA90F"/><path d="M30 8.881a.905.905 0 01-.905-.905V5.392a.905.905 0 011.81 0v2.584c0 .5-.405.905-.905.905z" fill="#FFEAC8"/><path d="M31.459 7.701h-1.071a.63.63 0 00-.63.63v7.834a.63.63 0 00.63.629h1.07a.63.63 0 00.63-.63V8.33a.63.63 0 00-.63-.629z" fill="#FFDDA8"/><path d="M30 16.165V8.33a.63.63 0 01.63-.629h-2.088a.63.63 0 00-.629.63v7.834a.63.63 0 00.63.629h2.087a.63.63 0 01-.63-.63zM31.057.635a3.858 3.858 0 00-1.117 2.717c0 .968.44 1.638 1.05 2.014.7-.32 1.235-1 1.235-2.042a3.67 3.67 0 00-1.168-2.69z" fill="#FFC365"/><path d="M30 3.323A3.67 3.67 0 0131.113.689a3.692 3.692 0 00-.86-.627.544.544 0 00-.506 0 3.68 3.68 0 00-1.973 3.26c0 2.026 2.021 2.685 3.34 1.98-.639-.34-1.114-.999-1.114-1.98z" fill="#FFA90F"/></g><defs><clipPath id="clip0"><path fill="#fff" d="M0 0h60v60H0z"/></clipPath></defs></svg>