<svg width="60" height="60" fill="none" xmlns="http://www.w3.org/2000/svg"><g clip-path="url(#clip0)"><path d="M33.608 16.651a.906.906 0 01-.907-.906V9.48a.907.907 0 111.813 0v6.264c0 .5-.406.906-.906.906z" fill="#365E7D"/><path d="M47.538 53.181l-2.27 2.418h-22.75l-2.513-2.417V15.313c0-1.097.889-1.986 1.986-1.986h23.563c1.096 0 1.985.89 1.985 1.986v37.868z" fill="#F9EFDA"/><path d="M45.551 13.327h-2.553c1.097 0 1.986.89 1.986 1.986v37.868h2.553V15.313c0-1.097-.89-1.986-1.986-1.986z" fill="#ECD5C6"/><path d="M46.482 60H21.06a9.26 9.26 0 01-8.156-4.875l-.698-1.3a.437.437 0 01.385-.643h42.361c.331 0 .542.353.385.644l-.698 1.299A9.26 9.26 0 0146.482 60z" fill="#365E7D"/><path d="M54.951 53.182h-3.67c.331 0 .542.353.386.644l-.699 1.299A9.26 9.26 0 0142.812 60h3.67a9.26 9.26 0 008.156-4.875l.698-1.3a.437.437 0 00-.385-.643z" fill="#2B4D66"/><path d="M19.09 55.78l-1.295-.227C10.625 54.298 5.83 47.468 7.086 40.3l.196-1.115a.184.184 0 01.212-.15l1.115.196c7.17 1.255 11.964 8.085 10.709 15.254l-.227 1.297z" fill="#DA387D"/><path d="M19.122 55.78l1.296-.227c7.17-1.255 11.964-8.085 10.708-15.254l-.195-1.115a.184.184 0 00-.212-.15l-1.116.196c-7.17 1.255-11.963 8.085-10.708 15.254l.227 1.297z" fill="#DA387D"/><path d="M19.106 60H17.79c-7.278 0-13.179-5.901-13.179-13.18v-1.132c0-.101.082-.183.184-.183h1.132c7.279 0 13.179 5.9 13.179 13.178V60z" fill="#EAAADD"/><path d="M19.105 60v-1.316c0-7.279 5.9-13.18 13.18-13.18h1.132c.101 0 .183.083.183.184v1.132C33.6 54.1 27.7 60 20.421 60h-1.316z" fill="#EAAADD"/><path d="M19.106 60l-1.132-1.133c-6.265-6.265-6.265-16.422 0-22.686l1.003-1.003a.184.184 0 01.26 0l1.002 1.003c6.265 6.264 6.265 16.421 0 22.686l-1.133 1.132z" fill="#E490D0"/><path d="M20.238 58.867c6.265-6.265 6.265-16.422 0-22.686l-1.003-1.003a.184.184 0 00-.26 0l-1.002 1.003c-.1.1-.198.2-.295.303 5.87 6.183 5.87 15.897 0 22.08.096.102.195.203.295.303l1.133 1.132 1.132-1.132z" fill="#DF73C1"/><path d="M35.341 9.973a2.453 2.453 0 01-3.469 0 5.88 5.88 0 010-8.315L33.477.054a.184.184 0 01.26 0l1.604 1.604a5.88 5.88 0 010 8.315z" fill="#E49542"/><path d="M35.341 9.973a5.879 5.879 0 000-8.315L33.737.054a.184.184 0 00-.26 0l-1.09 1.09.514.514a5.88 5.88 0 010 8.315c-.157.157-.33.285-.514.39a2.45 2.45 0 002.954-.39z" fill="#E27D47"/><path d="M20.004 24.21a2.532 2.532 0 005.064 0v-4.996c0-1.166.946-2.112 2.112-2.112h.053c1.167 0 2.112.945 2.112 2.112V31.71a2.444 2.444 0 004.888 0v-8.082c0-1.167.945-2.112 2.112-2.112h.235c1.166 0 2.112.945 2.112 2.112v.471c0 1.184.968 2.189 2.152 2.167a2.112 2.112 0 002.071-2.112V13.327H21.99c-1.097 0-1.986.89-1.986 1.986v8.896z" fill="#F4D8A5"/><path d="M40.969 13.327v10.827a2.11 2.11 0 01-1.127 1.867c.3.161.642.252 1.004.245a2.112 2.112 0 002.072-2.112V13.327h-1.95zm-15.684 3.775h-.053a2.112 2.112 0 00-2.112 2.111v4.996a2.533 2.533 0 01-1.558 2.337 2.532 2.532 0 003.507-2.337v-4.996a2.11 2.11 0 011.164-1.885 2.1 2.1 0 00-.948-.226zm9.345 4.414h-.235a2.112 2.112 0 00-2.111 2.112v8.082a2.443 2.443 0 01-1.47 2.24 2.444 2.444 0 003.418-2.24v-8.082c0-.861.517-1.6 1.256-1.93a2.102 2.102 0 00-.857-.182z" fill="#FFD064"/><path d="M41.086 36.438a2.238 2.238 0 01-2.238-2.238v-2.076a2.238 2.238 0 114.476 0V34.2a2.238 2.238 0 01-2.238 2.238z" fill="#F4D8A5"/><path d="M41.087 29.886c-.287 0-.56.056-.812.155a2.237 2.237 0 011.427 2.083V34.2c0 .95-.592 1.758-1.427 2.084a2.238 2.238 0 003.05-2.084v-2.076a2.238 2.238 0 00-2.238-2.238z" fill="#FFD064"/></g><defs><clipPath id="clip0"><path fill="#fff" d="M0 0h60v60H0z"/></clipPath></defs></svg>