<svg width="60" height="60" fill="none" xmlns="http://www.w3.org/2000/svg"><path d="M8.583 24.053a6.206 6.206 0 013.93-1.806.965.965 0 011.025 1.025 6.205 6.205 0 01-1.806 3.93 6.22 6.22 0 01-4.95 1.8 6.22 6.22 0 011.8-4.95zm8.601 21.203a6.206 6.206 0 01.107-4.324.965.965 0 011.372-.47 6.205 6.205 0 012.735 3.352 6.22 6.22 0 01-.562 5.237 6.22 6.22 0 01-3.652-3.795zM13.022 13.54a6.205 6.205 0 014.318.244c.529.23.734.899.426 1.386a6.205 6.205 0 01-3.436 2.627 6.22 6.22 0 01-5.217-.726 6.22 6.22 0 013.91-3.531zm-1.828-8.535a6.206 6.206 0 013.797-2.071.965.965 0 011.093.952 6.206 6.206 0 01-1.532 4.045 6.206 6.206 0 01-3.796 2.071.965.965 0 01-1.094-.953 6.206 6.206 0 011.532-4.044z" fill="#B8EB7C"/><path d="M33.864 57.078a.967.967 0 01-.758-.363l-3.116-3.896-3.115 3.896a.97.97 0 01-1.512-1.21l3.871-4.84c.369-.46 1.144-.46 1.513 0l3.872 4.84a.97.97 0 01-.755 1.573z" fill="#77CC7D"/><path d="M25.975 38.684h8.856a.968.968 0 00.968-.968v-9.68l-2.901-6.776h-7.891v16.456c0 .535.433.968.968.968z" fill="#FCDBB2"/><path d="M26.119 35.781V25.133h-1.936v13.552c0 .535.433.968.968.968h9.68a.968.968 0 00.968-.968v-.968h-7.744a1.936 1.936 0 01-1.936-1.936z" fill="#F5C89D"/><path d="M34.831 18.356H30.96v-4.84h-1.936v4.84H26.12l-1.213.968v5.808l1.213 1.936c1.07 0 1.936-.867 1.936-1.936v-.968a1.936 1.936 0 113.872 0v3.872a1.936 1.936 0 003.872 0v-8.712a.968.968 0 00-.968-.968z" fill="#FFEAC6"/><path d="M25.15 18.355a.968.968 0 00-.967.968v5.809c0 1.069.866 1.936 1.936 1.936v-8.713h-.968z" fill="#FCDBB2"/><path d="M10 35.972a6.205 6.205 0 012.37-3.617.965.965 0 011.413.324 6.205 6.205 0 01.558 4.288 6.22 6.22 0 01-3.237 4.156 6.22 6.22 0 01-1.105-5.15zm45.042-8.046a6.205 6.205 0 013.93-1.806.965.965 0 011.025 1.025 6.206 6.206 0 01-1.806 3.93 6.22 6.22 0 01-4.95 1.8 6.22 6.22 0 011.8-4.95zM51.014 41.18a6.205 6.205 0 014.289.558c.51.269.666.95.324 1.414a6.205 6.205 0 01-3.618 2.37 6.22 6.22 0 01-5.15-1.105 6.22 6.22 0 014.155-3.237zm-10.081 9.036a6.205 6.205 0 013.35 2.734.965.965 0 01-.469 1.372 6.205 6.205 0 01-4.323.108 6.22 6.22 0 01-3.796-3.653 6.22 6.22 0 015.238-.561zm11.062-34.951a6.205 6.205 0 012.627-3.435.965.965 0 011.386.426c.574 1.316.7 2.837.244 4.318a6.22 6.22 0 01-3.53 3.909 6.22 6.22 0 01-.727-5.218zm-3.19-10.26a6.206 6.206 0 00-3.797-2.071.965.965 0 00-1.093.952 6.205 6.205 0 001.532 4.045 6.205 6.205 0 003.797 2.071.965.965 0 001.093-.953 6.205 6.205 0 00-1.532-4.044z" fill="#B8EB7C"/><path d="M51.588 17.107a.967.967 0 00-.938-.529 6.21 6.21 0 00-3.672-3.039 6.205 6.205 0 00-4.318.245.965.965 0 00-.426 1.386 6.205 6.205 0 003.436 2.627 6.2 6.2 0 004.093-.153c.012.115.044.23.1.338a21.967 21.967 0 012.155 6.77 6.205 6.205 0 00-4.53-2.505.965.965 0 00-1.026 1.025 6.205 6.205 0 001.806 3.93 6.205 6.205 0 003.965 1.808 22.106 22.106 0 01-2.076 8.457 6.205 6.205 0 00-2.526-5.113.965.965 0 00-1.414.324 6.205 6.205 0 00-.558 4.289 6.208 6.208 0 002.602 3.78 22.44 22.44 0 01-6.174 5.973 6.205 6.205 0 00.622-5.788.965.965 0 00-1.373-.47 6.205 6.205 0 00-2.734 3.35 6.21 6.21 0 00.248 4.649 22.137 22.137 0 01-8.859 1.84c-12.277 0-22.264-9.988-22.264-22.265 0-3.538.805-6.92 2.393-10.053a.967.967 0 10-1.726-.876l-.118.242a6.216 6.216 0 00-.27-2.084 6.206 6.206 0 00-2.628-3.435.965.965 0 00-1.386.426 6.205 6.205 0 00-.244 4.318 6.215 6.215 0 003.28 3.794A24.031 24.031 0 005.81 28.99a6.235 6.235 0 00-4.783-2.87.965.965 0 00-1.025 1.026 6.205 6.205 0 001.806 3.93 6.21 6.21 0 004.472 1.821 24.07 24.07 0 003.58 8.553 6.205 6.205 0 00-5.16.288.965.965 0 00-.325 1.414 6.205 6.205 0 003.618 2.37 6.209 6.209 0 004.568-.716 24.313 24.313 0 007.287 5.199 6.205 6.205 0 00-4.13 2.944.965.965 0 00.47 1.372 6.205 6.205 0 004.323.108 6.207 6.207 0 003.469-2.948 24.16 24.16 0 006.012.756c13.345 0 24.2-10.857 24.2-24.2a23.94 23.94 0 00-2.603-10.93z" fill="#98DB7C"/><path d="M32.895 11.58a2.904 2.904 0 11-5.808 0c0-1.888 1.228-4.186 2.087-5.562a.965.965 0 011.634 0c.859 1.376 2.087 3.674 2.087 5.562z" fill="#FFE077"/><path d="M29.991 12.547a.968.968 0 100-1.936.968.968 0 000 1.936z" fill="#fff"/></svg>