<svg width="60" height="60" fill="none" xmlns="http://www.w3.org/2000/svg"><g clip-path="url(#clip0)"><path d="M28.242 14.758v6.753c0 .97.787 1.757 1.758 1.757l1.172-4.78L30 13c-.97 0-1.758.787-1.758 1.758z" fill="#FFF5F5"/><path d="M31.758 21.51v-6.752C31.758 13.787 30.97 13 30 13v10.268c.97 0 1.758-.787 1.758-1.757z" fill="#ECE6F2"/><path d="M11.499 38.371c0 .971.787 1.758 1.758 1.758h16.67l3.633-10.607-3.632-9.65c-10.169.038-18.429 8.322-18.429 18.5z" fill="#B46C5D"/><path d="M30 19.87h-.072v20.258h16.816c.97 0 1.758-.787 1.758-1.758 0-10.201-8.3-18.5-18.502-18.5z" fill="#915145"/><path d="M25.01 36.469a6.73 6.73 0 00-4.989 2.21 6.73 6.73 0 00-4.989-2.21 6.755 6.755 0 00-6.747 6.747c0 .22.041.437.121.641l5.888 15.027A1.758 1.758 0 0015.931 60h5.616l1.912-1.29L25.141 60h3.101L30 58.829l.703-9.835L30 38.678a6.731 6.731 0 00-4.99-2.21z" fill="#FFE278"/><path d="M44.968 36.469a6.731 6.731 0 00-4.99 2.21 6.731 6.731 0 00-4.989-2.21A6.731 6.731 0 0030 38.679v20.15L31.758 60h3.238l1.838-2.461L38.526 60h5.543c.723 0 1.372-.443 1.636-1.116l5.875-14.992c.088-.212.135-.44.135-.676a6.755 6.755 0 00-6.747-6.747z" fill="#FFC178"/><path d="M28.802.471C28.375.87 24.627 4.47 24.627 8.2c0 4.373 4.106 7.68 4.281 7.819.32.254.707.38 1.092.38l.82-8.199L30 0c-.43 0-.861.157-1.198.471z" fill="#FF8659"/><path d="M35.373 8.199c0-3.904-3.775-7.373-4.205-7.756A1.753 1.753 0 0030 0v16.398c.41 0 .819-.142 1.148-.426.432-.373 4.225-3.758 4.225-7.773z" fill="#FF405C"/><path d="M19.713 41.657a1.758 1.758 0 00-1.382 2.066L21.557 60h3.584L21.78 43.04a1.759 1.759 0 00-2.066-1.383z" fill="#FCECB9"/><path d="M41.682 43.687a1.758 1.758 0 00-3.454-.658L34.998 60h3.578l3.106-16.312z" fill="#FFE278"/><path d="M28.242 43.357V60H30l1.406-9.987L30 41.6c-.97 0-1.758.787-1.758 1.757z" fill="#FCECB9"/><path d="M31.758 43.357c0-.97-.787-1.757-1.758-1.757V60h1.758V43.356z" fill="#FFE278"/></g><defs><clipPath id="clip0"><path fill="#fff" d="M0 0h60v60H0z"/></clipPath></defs></svg>