<svg width="60" height="60" fill="none" xmlns="http://www.w3.org/2000/svg"><g clip-path="url(#clip0)"><path d="M30 24.61h-1.758v28.359h3.516v-28.36H30z" fill="#59C36A"/><path d="M30 24.61h1.758v28.359H30v-28.36z" fill="#00A66C"/><path d="M53.712 34.531a1.752 1.752 0 00-1.803-.424c-.473.16-11.688 3.972-18.084 10.368-1.785 1.785-2.987 3.575-3.824 5.26-.838-1.685-2.04-3.475-3.825-5.26C19.78 38.08 8.566 34.267 8.092 34.107a1.76 1.76 0 00-2.226 2.226c.159.474 3.971 11.689 10.368 18.085C21.094 59.279 26.056 60 28.569 60h2.863c2.513 0 7.474-.72 12.336-5.582 6.396-6.396 10.208-17.61 10.368-18.085a1.76 1.76 0 00-.424-1.802z" fill="#97DE3D"/><path d="M43.767 54.418c6.396-6.396 10.209-17.61 10.368-18.085a1.76 1.76 0 00-2.226-2.226c-.474.16-11.688 3.972-18.084 10.368-1.786 1.785-2.987 3.575-3.825 5.26V60h1.432c2.513 0 7.474-.72 12.335-5.582z" fill="#59C36A"/><path d="M41.333.186a1.755 1.755 0 00-2.192.519l-5.292 7.057L30 28.125h.83c11.414 0 18.506-5.743 18.506-14.99 0-5.52-3.066-10.48-8.003-12.949z" fill="#CD0000"/><path d="M26.151 7.761L20.86.704a1.756 1.756 0 00-2.192-.518 14.397 14.397 0 00-8.003 12.948c0 9.248 7.091 14.991 18.507 14.991H30L26.15 7.761z" fill="#F03800"/><path d="M31.173.449A1.752 1.752 0 0030.001 0c-.42 0-.84.149-1.173.448-.31.278-7.616 6.918-7.616 15.372 0 8.86 7.81 12.05 8.142 12.18a1.754 1.754 0 001.294 0c.331-.13 8.142-3.32 8.142-12.18 0-8.454-7.306-15.094-7.617-15.372z" fill="#FF641A"/><path d="M38.789 15.82c0-8.453-7.306-15.093-7.617-15.371A1.751 1.751 0 0030 0v28.124c.22 0 .44-.04.647-.123.331-.13 8.142-3.322 8.142-12.181z" fill="#F03800"/></g><defs><clipPath id="clip0"><path fill="#fff" d="M0 0h60v60H0z"/></clipPath></defs></svg>