<svg width="60" height="60" fill="none" xmlns="http://www.w3.org/2000/svg"><g clip-path="url(#clip0)"><path d="M38.633 23.653a1.093 1.093 0 00-1.389-.67c-3.884 1.355-4.656 7.558-4.791 16.44-1.733-2.688-4.186-4.506-7.661-4.506a1.09 1.09 0 100 2.181c8.853 0 9.54 16.694 9.54 21.811a1.09 1.09 0 102.182 0c0-3.663-.298-9.792-1.974-14.938a1.07 1.07 0 00.066-.33c0-7.355 0-17.428 3.357-18.6.567-.197.867-.82.67-1.388z" fill="#71C285"/><path d="M51.96 31.234c-7.784-.013-14.095 6.502-14.108 14.564l.024-.025c7.785.013 14.096-6.502 14.109-14.564l-.024.025z" fill="#4C8056"/><path d="M52.09 24.007c5.4-3.837 7.94-9.534 5.674-12.726C55.496 8.09 49.28 8.613 43.88 12.45c-5.401 3.836-7.942 9.534-5.675 12.725 2.268 3.191 8.484 2.668 13.885-1.168z" fill="#89769B"/><path d="M43.882 12.447c.366-.26.735-.5 1.106-.731C44.746 5.779 41.924 1.09 38.47 1.09c-3.614 0-6.543 5.126-6.543 11.45 0 5.797 2.463 10.574 5.655 11.333-.964-3.281 1.572-8.066 6.301-11.426z" fill="#B49ACA"/><path d="M49.04.254c-2.121-.81-4.711.369-6.903 2.82 1.607 1.916 2.704 5.046 2.852 8.644 2.422-1.494 4.937-2.336 7.142-2.495.629-4.318-.502-7.981-3.091-8.969z" fill="#5D516B"/><path d="M15.692 26.848c-5.994-2.82-12.205-2.236-13.872 1.306-1.667 3.542 1.842 8.7 7.836 11.521 5.994 2.821 12.205 2.237 13.872-1.305 1.667-3.543-1.841-8.7-7.836-11.522z" fill="#B49ACA"/><path d="M15.69 26.847c-.405-.19-.812-.363-1.217-.523-.813-5.888 1.136-11.002 4.536-11.614 3.557-.639 7.347 3.888 8.466 10.113 1.025 5.705-.554 10.842-3.562 12.155.37-3.4-2.973-7.66-8.222-10.13z" fill="#89769B"/><path d="M8.457 15.758c1.944-1.173 4.701-.471 7.292 1.554-1.243 2.17-1.769 5.445-1.277 9.01C11.825 25.283 9.2 24.899 7 25.132c-1.38-4.138-.916-7.942 1.457-9.373z" fill="#5D516B"/><path d="M37.853 45.76l-.006.002.005.003v-.005zm16.536 6.723c-1.909-4.75-6.516-7.626-11.47-7.678-1.569.62-3.264.971-5.043.97 2.555 6.36 9.954 9.367 16.542 6.72l-.03-.012z" fill="#4FBA6F"/></g><defs><clipPath id="clip0"><path fill="#fff" d="M0 0h60v60H0z"/></clipPath></defs></svg>