<svg width="60" height="60" fill="none" xmlns="http://www.w3.org/2000/svg"><path d="M13.11 8.75c0 10.424 14.504 18.574 16.615 19.66a.6.6 0 00.55 0c2.11-1.086 16.614-8.866 16.614-19.66a12.14 12.14 0 00-.06-.529C45.333-2.716 32.088-1.636 30 5.027 27.913-1.636 14.668-2.716 13.172 8.22a11.867 11.867 0 00-.06.53z" fill="#DA4A54"/><path d="M29.725 27.354C27.614 26.27 14.035 18.91 13.11 8.75c-1.035 11.273 14.35 19.617 16.613 20.781a.6.6 0 00.553 0C32.54 28.367 47.924 20.023 46.89 8.75c-.926 10.16-14.503 17.519-16.614 18.604a.6.6 0 01-.55 0z" fill="#D82E3D"/><path d="M8.043 20.615l1.297 9.384a.605.605 0 00.786.405c.474-.167 2.566-1.188 2.566-1.188V22.11a2.566 2.566 0 00-4.651-1.494h.002z" fill="#EDBCA4"/><path d="M10.03 34.39l.001.002a2.767 2.767 0 012.66-3.362v-8.92a2.566 2.566 0 10-5.13 0v3.494l2.47 8.788z" fill="#EDBCA4"/><path d="M12.692 29.217a4.587 4.587 0 00-1.485.261.605.605 0 01-.787-.405l-2.377-8.458a2.551 2.551 0 00-.482 1.494v5.614l2.33 8.7 2.8-5.392v-1.814h.001z" fill="#EAAB92"/><path d="M26.825 46.563c-.495-5.705-6.796-8.597-6.796-8.597l-5.205-5.985a2.769 2.769 0 00-4.793 2.411L6.172 20.668a3.145 3.145 0 00-3.235-2.287C1.49 18.846.972 20.12 1.2 21.127l3.01 13.26a19.12 19.12 0 002.467 5.955l5.654 8.977a9.416 9.416 0 011.448 5.018v4.65l1.055 1.012h9.27c.334 0 .604-.27.604-.605v-3.52c0-1.364.33-2.708.965-3.916.646-1.228 1.347-3.133 1.151-5.395z" fill="#FFD6BD"/><path d="M11.959 33.568a2.759 2.759 0 01-.63-2.154 2.769 2.769 0 00-.708 4.173l4.951 5.844a2.237 2.237 0 00.332-3.212l-3.945-4.65zm.699 25.825v-3.969a9.416 9.416 0 00-1.449-5.018L5.556 41.43a19.117 19.117 0 01-2.467-5.955L.08 22.214a3.145 3.145 0 012.859-3.833 3.14 3.14 0 00-.682 2.745l3.01 13.26a19.118 19.118 0 002.467 5.955l5.654 8.977a9.416 9.416 0 011.448 5.017v5.663h-1.572a.605.605 0 01-.605-.605z" fill="#F9C6AA"/><path d="M51.956 20.615l-1.297 9.384a.605.605 0 01-.786.405c-.474-.167-2.565-1.188-2.565-1.188V22.11a2.566 2.566 0 014.65-1.494h-.002z" fill="#EDBCA4"/><path d="M49.97 34.39l-.002.002a2.767 2.767 0 00-2.66-3.362v-8.92a2.566 2.566 0 115.13 0v3.494l-2.469 8.788z" fill="#EDBCA4"/><path d="M47.308 29.217c.509.004 1.01.094 1.485.261a.605.605 0 00.786-.405l2.377-8.458c.303.421.483.936.483 1.494v5.614l-2.33 8.7-2.801-5.392v-1.814z" fill="#EAAB92"/><path d="M33.174 46.563c.495-5.705 6.797-8.597 6.797-8.597l5.204-5.985a2.769 2.769 0 014.793 2.411h.001l3.857-13.723a3.145 3.145 0 013.236-2.287c1.447.464 1.965 1.737 1.736 2.745l-3.01 13.26a19.121 19.121 0 01-2.467 5.955l-5.654 8.977a9.416 9.416 0 00-1.448 5.018v4.65l-1.055 1.012h-9.27a.605.605 0 01-.604-.605v-3.52a8.402 8.402 0 00-.964-3.916c-.647-1.228-1.348-3.133-1.152-5.395z" fill="#FFD6BD"/><path d="M48.04 33.568c.526-.62.729-1.406.63-2.154a2.769 2.769 0 01.708 4.173l-4.95 5.844a2.237 2.237 0 01-.333-3.212l3.946-4.65zm-.698 25.825v-3.969a9.42 9.42 0 011.448-5.018l5.654-8.977a19.118 19.118 0 002.466-5.955l3.01-13.26a3.145 3.145 0 00-2.858-3.833c.626.73.91 1.736.681 2.745l-3.01 13.26a19.115 19.115 0 01-2.467 5.955l-5.654 8.977a9.416 9.416 0 00-1.448 5.017v5.663h1.573c.334 0 .605-.27.605-.605z" fill="#F9C6AA"/></svg>