<svg width="60" height="60" fill="none" xmlns="http://www.w3.org/2000/svg"><g clip-path="url(#clip0)"><path d="M10.92 17.29H8.9a.891.891 0 00-.891.89v4.753c0 .492.399.89.89.89h2.02a2.087 2.087 0 002.08-2.08c0-.44-.14-.85-.375-1.187a2.07 2.07 0 00.375-1.188 2.082 2.082 0 00-2.08-2.079zm0 4.752H9.79v-.595h1.13a.297.297 0 010 .595zm0-2.377H9.79v-.594h1.13a.297.297 0 010 .594zm12.377 2.583l-1.092-.91a2.083 2.083 0 001.413-1.97 2.082 2.082 0 00-2.08-2.079h-1.663a.902.902 0 00-.178.018.891.891 0 00-1.07.873v4.753a.891.891 0 001.783 0v-.771l1.747 1.455a.89.89 0 101.14-1.37zm-1.758-2.583H20.41v-.594h1.129a.297.297 0 010 .594zm7.224-2.375h-3.564a.891.891 0 100 1.781h.89v3.862a.891.891 0 001.783 0V19.07h.891a.891.891 0 000-1.782zm-11.882 1.781a.891.891 0 100-1.782h-2.376a.891.891 0 100 1.782h.297v2.97h-.297a.891.891 0 100 1.783h2.376a.891.891 0 100-1.783h-.297v-2.97h.297zm17.422-1.451c-.031 0-.193.275-.193.552 0 .55-.001 1.044-.003 1.493h-1.764c.032-1.623.038-2.384-.906-2.384a.891.891 0 00-.891.891v4.753c0 .718.807 1.104 1.308.787.543-.288.494-.657.477-2.265h1.77c0 1.521.028 2.03.202 2.03.514.646 1.59.308 1.59-.552v-4.753c0-.845-1.068-1.209-1.59-.553zm4.678-.33h-1.188a.891.891 0 00-.89.89v4.753c0 .492.398.89.89.89h1.188a3.271 3.271 0 003.268-3.267 3.271 3.271 0 00-3.268-3.267zm0 4.752h-.297v-2.97h.297c.82 0 1.486.666 1.486 1.484 0 .82-.667 1.485-1.486 1.485zm13.377-4.608a.891.891 0 00-1.233.26l-1.035 1.588-1.036-1.589a.891.891 0 00-1.493.974l1.637 2.51v1.756a.891.891 0 101.782 0v-1.755l1.638-2.511a.891.891 0 00-.26-1.233zm-6.216.433a.89.89 0 00-1.668 0l-1.782 4.753a.891.891 0 001.621.728h1.991a.89.89 0 001.62-.728l-1.782-4.753zm-1.152 3.7l.318-.85.318.85h-.636z" fill="#B32834"/><path d="M18.818 9.889c-.031 0-.193.275-.193.553 0 .549-.001 1.044-.003 1.493h-1.764c.032-1.623.038-2.384-.906-2.384a.891.891 0 00-.892.89v4.753c0 .719.808 1.104 1.309.787.542-.287.493-.657.477-2.264h1.77c-.001 1.521.027 2.03.202 2.03.513.646 1.59.307 1.59-.553v-4.752c0-.845-1.068-1.21-1.59-.553zm11.672-.334h-1.732a.891.891 0 00-.89.89v4.753a.891.891 0 001.781 0v-.822h.841a2.413 2.413 0 002.411-2.41 2.413 2.413 0 00-2.41-2.411zm0 3.04h-.84v-1.258h.84a.63.63 0 010 1.257zm5.942-3.04H34.7a.891.891 0 00-.891.89v4.753a.891.891 0 001.782 0v-.822h.84a2.414 2.414 0 002.412-2.41 2.414 2.414 0 00-2.411-2.411zm0 3.04h-.841v-1.258h.84a.63.63 0 010 1.257zM44.357 9.7a.891.891 0 00-1.234.26l-1.035 1.587-1.036-1.588a.891.891 0 00-1.493.973l1.637 2.511v1.755a.891.891 0 001.783 0v-1.755l1.637-2.51a.891.891 0 00-.26-1.234zm-19.364.437a.891.891 0 00-1.668 0l-1.783 4.752a.891.891 0 001.622.729h1.99a.89.89 0 001.622-.729l-1.783-4.752zm-1.152 3.699l.317-.849.319.849h-.637z" fill="#D9435B"/><path d="M58.188 27.861h-8.472a29.61 29.61 0 00-19.27 7.13L20.94 49.425l9.505 10.514c.938 0 1.85-.29 2.625-.818a29.61 29.61 0 0116.646-5.123h8.472c.984 0 1.782-.797 1.782-1.782V29.643c0-.984-.798-1.782-1.782-1.782z" fill="#FF7C8B"/><path d="M58.188 54c.984 0 1.782-.798 1.782-1.783V29.644c0-.985-.798-1.783-1.782-1.783h-.21a2.663 2.663 0 00-.68 1.782v21.683h-7.582a32.16 32.16 0 00-18.149 5.585 2 2 0 01-1.11.356l-.14-.002a1.988 1.988 0 01-1.095-.353c-.104-.07-.208-.14-.313-.208l1.537 3.236c.937 0 1.849-.29 2.624-.818a29.61 29.61 0 0116.646-5.123h8.472z" fill="#FF6473"/><path d="M30.445 34.99l-1.609-1.206A29.61 29.61 0 0011.07 27.86H2.702c-.984 0-1.782.798-1.782 1.782v22.574c0 .985.798 1.782 1.782 1.782h8.367a29.612 29.612 0 0116.65 5.124c.758.516 1.65.805 2.567.815l.159.002V34.99z" fill="#FFB545" stroke="#FFCF5D" stroke-miterlimit="10"/><path d="M11.07 54a29.612 29.612 0 0116.648 5.123c.76.516 1.65.805 2.568.815l.159.002v-2.673l-.128-.002a1.989 1.989 0 01-1.096-.353 32.16 32.16 0 00-18.152-5.586H2.702c-.685 0-1.31.258-1.782.681v.21c0 .984.798 1.782 1.782 1.782h8.367z" fill="#FF983B"/><path d="M28.682 28.552l.329.108-.207.287a.891.891 0 001.446 1.041l.195-.27.195.27a.89.89 0 101.446-1.041l-.207-.287.329-.108a.891.891 0 10-.556-1.694l-.316.104v-.346a.891.891 0 10-1.782 0v.346l-.317-.104a.892.892 0 00-.555 1.694zm23.604-15.766l-.206-.287.328-.108a.891.891 0 10-.555-1.693l-.317.104v-.346a.891.891 0 10-1.782 0v.346l-.316-.104a.892.892 0 00-.556 1.693l.329.108-.207.287a.891.891 0 001.447 1.042l.194-.27c.187.26.392.64.919.64a.892.892 0 00.722-1.412zM20.958 3.569l-.316.104v-.346a.891.891 0 10-1.782 0v.346l-.317-.104a.892.892 0 00-.555 1.694l.328.107-.207.288a.891.891 0 101.447 1.04l.195-.27c.194.27.395.641.918.641a.892.892 0 00.723-1.412l-.207-.287.329-.107a.891.891 0 00-.556-1.694zm23.765 33.27l-.317.103v-.346a.891.891 0 00-1.782 0v.346l-.316-.103a.892.892 0 00-.556 1.693l.329.108-.207.287a.892.892 0 00.722 1.412c.52 0 .722-.367.919-.641l.195.27a.89.89 0 101.446-1.04l-.206-.288.328-.108a.891.891 0 00-.555-1.693zM30.384 1.782a.891.891 0 100-1.782.891.891 0 000 1.782zM7.808 12.643a.891.891 0 100-1.782.891.891 0 000 1.782zm47.528 11.881a.891.891 0 100-1.782.891.891 0 000 1.782zm-9.149-8.961a.891.891 0 100-1.782.891.891 0 000 1.782zM12.326 45.862a.891.891 0 100-1.782.891.891 0 000 1.782zm39.211 2.375a.891.891 0 100-1.782.891.891 0 000 1.782zm-46.34-5.939a.891.891 0 100-1.782.891.891 0 000 1.782zM.92 21.786a.891.891 0 100-1.782.891.891 0 000 1.782zm19.732 7.279l-2.198-.32-.983-1.99a.891.891 0 00-1.598 0l-.983 1.99-2.197.32a.891.891 0 00-.494 1.52l1.59 1.55-.375 2.189a.891.891 0 001.292.94l1.551-.816a.891.891 0 01.83 0l1.55.815a.891.891 0 001.293-.94l-.375-2.188 1.59-1.55a.89.89 0 00-.493-1.52zM35.43 41.694l-2.753-.4-1.23-2.494a1.116 1.116 0 00-2.002 0l-1.231 2.494-2.752.4a1.116 1.116 0 00-.619 1.903l1.992 1.942-.47 2.74c-.157.912.8 1.608 1.619 1.177l1.942-1.02a1.11 1.11 0 011.039 0l1.942 1.02a1.116 1.116 0 001.62-1.176l-.47-2.741 1.99-1.942a1.116 1.116 0 00-.618-1.903z" fill="#FFCF5D"/></g><defs><clipPath id="clip0"><path fill="#fff" d="M0 0h60v60H0z"/></clipPath></defs></svg>