<svg width="60" height="60" fill="none" xmlns="http://www.w3.org/2000/svg"><g clip-path="url(#clip0)"><path d="M57.018 22.581h-1.573a2.909 2.909 0 012.914 2.964c-.025 1.603-1.379 2.869-2.98 2.869h-1.573a2.911 2.911 0 012.915 2.964c-.027 1.601-1.379 2.867-2.98 2.867H38.666l-6.69 6.689-4.421-4.422 16.633-16.634a10.685 10.685 0 017.555-3.13h5.34a2.915 2.915 0 012.916 2.97c-.03 1.6-1.381 2.863-2.982 2.863z" fill="#ECF4FF"/><path d="M60 19.718a2.83 2.83 0 01-.223 1.053 2.997 2.997 0 01-2.759 1.81h-1.573a2.909 2.909 0 012.914 2.964 2.803 2.803 0 01-.223 1.058 2.994 2.994 0 01-2.757 1.81h-1.573c.804 0 1.534.326 2.062.854.537.538.867 1.286.853 2.11-.026 1.602-1.378 2.868-2.98 2.868h-3.46c1.602 0 2.954-1.266 2.98-2.868a2.907 2.907 0 00-.854-2.11 2.907 2.907 0 00-2.062-.853h.271a.906.906 0 01-.898-1.024c.058-.457.469-.787.929-.787h3.159c.586 0 1.082-.46 1.093-1.047v-.01a2.911 2.911 0 00-2.915-2.965h-1.337c-.46 0-.87-.33-.929-.787a.906.906 0 01.898-1.023h4.831c.584 0 1.078-.458 1.092-1.042v-.011a2.913 2.913 0 00-2.915-2.97h3.46A2.914 2.914 0 0160 19.718z" fill="#D2E5FD"/><path d="M32.445 36.512l-4.422 4.422-2.113-2.113-4.577-4.576H6.26c-1.602 0-2.954-1.266-2.98-2.868a2.911 2.911 0 012.915-2.963H4.622a2.994 2.994 0 01-2.758-1.811 2.803 2.803 0 01-.223-1.058 2.91 2.91 0 012.914-2.964H2.982a2.997 2.997 0 01-2.758-1.81A2.83 2.83 0 010 19.718a2.913 2.913 0 012.917-2.97h5.34c2.833 0 5.55 1.127 7.555 3.13l16.633 16.634z" fill="#ECF4FF"/><path d="M32.444 36.512l-4.422 4.422-2.112-2.113 2.31-2.31-16.634-16.633a10.685 10.685 0 00-7.555-3.13h4.226c2.833 0 5.55 1.127 7.554 3.13l16.633 16.634z" fill="#D2E5FD"/><path d="M43.845 34.995L32.667 46.173a3.773 3.773 0 01-5.334 0L16.156 34.995c-3.84-3.84-3.951-10.097-.14-13.966 3.46-3.512 8.895-3.875 12.764-1.09a2.096 2.096 0 002.44 0 9.82 9.82 0 014.064-1.705 9.837 9.837 0 018.7 2.795c3.812 3.87 3.7 10.126-.14 13.966z" fill="#FD3A48"/><path d="M43.844 34.995L32.666 46.173a3.773 3.773 0 01-4.259.753c.39-.18.755-.432 1.076-.753L40.66 34.995c3.84-3.84 3.952-10.097.14-13.966-1.374-1.394-3.361-2.266-5.516-2.795a9.837 9.837 0 018.699 2.795c3.812 3.87 3.701 10.126-.139 13.966z" fill="#E93140"/><path d="M37.17 5.988H22.83a3.637 3.637 0 00-3.635 3.634 3.637 3.637 0 003.634 3.633h14.342a3.637 3.637 0 003.634-3.633 3.637 3.637 0 00-3.634-3.634zm0 5.456H22.83a1.824 1.824 0 01-1.824-1.822c0-1.006.817-1.823 1.823-1.823h14.342c1.005 0 1.823.817 1.823 1.823a1.824 1.824 0 01-1.823 1.822zM15.477 54.012a.905.905 0 01-.64-1.546l3.5-3.5a.905.905 0 011.28 1.28l-3.5 3.5a.903.903 0 01-.64.266zm29.753 0a.902.902 0 01-.64-.266l-3.5-3.5a.905.905 0 111.28-1.28l3.5 3.5a.906.906 0 01-.64 1.546zm5.445-9.432a.908.908 0 01-.235-.03l-4.781-1.281a.906.906 0 01.468-1.75l4.781 1.282a.906.906 0 01-.233 1.78zm-40.644 0a.906.906 0 01-.234-1.78l4.781-1.28a.906.906 0 01.469 1.749l-4.781 1.28a.908.908 0 01-.235.032z" fill="#FEF056"/><path d="M9.86 21.676c0 .5-.406.906-.906.906H2.982A2.997 2.997 0 01.224 20.77h8.73c.5 0 .906.405.906.905zm0 5.832c0 .5-.405.906-.905.906H4.623a2.994 2.994 0 01-2.758-1.811h7.09c.5 0 .906.405.906.905z" fill="#D2E5FD"/></g><defs><clipPath id="clip0"><path fill="#fff" d="M0 0h60v60H0z"/></clipPath></defs></svg>