<svg width="60" height="60" fill="none" xmlns="http://www.w3.org/2000/svg"><path d="M40.148 15.82L43.7 9.668a1.757 1.757 0 00-1.522-2.637h-7.104L31.522.88a1.758 1.758 0 00-3.044 0l-3.554 6.15H17.82a1.758 1.758 0 00-1.52 2.638l3.552 6.152-3.552 6.153a1.758 1.758 0 001.522 2.636h7.104l3.552 6.153a1.758 1.758 0 003.045 0l3.552-6.153h7.104a1.758 1.758 0 001.523-2.636l-3.553-6.153zm-1.014-5.273l-1.015 1.758-1.015-1.758h2.03zm-3.045 5.273l-3.045 5.274h-6.089l-3.044-5.274 3.044-5.273h6.09l3.044 5.273zM30 5.273l1.016 1.758h-2.03L30 5.273zm-9.133 5.274h2.03l-1.015 1.758-1.015-1.758zm0 10.547l1.015-1.758 1.015 1.758h-2.03zM30 26.367l-1.015-1.758h2.03L30 26.367zm7.104-5.273l1.015-1.758 1.015 1.758h-2.03z" fill="#ACCEFF"/><path d="M40.149 15.82L43.7 9.668a1.757 1.757 0 00-1.523-2.637h-7.104L31.522.88A1.758 1.758 0 0030 0v5.273l1.015 1.758H30v3.516h3.045l3.044 5.273-3.044 5.274H30v3.515h1.015L30 26.367v5.274c.628 0 1.208-.335 1.522-.88l3.552-6.152h7.105a1.758 1.758 0 001.522-2.636l-3.552-6.153zm-3.045 5.274l1.015-1.758 1.015 1.758h-2.03zm1.015-8.79l-1.015-1.757h2.03l-1.015 1.758z" fill="#989DEC"/><path d="M16.992 41.836l-6.907-6.907a4.395 4.395 0 116.215-6.215l8.648 8.648a8.733 8.733 0 012.574 6.215v14.665c0 .97-.787 1.758-1.758 1.758H11.701c-.97 0-1.757-.787-1.757-1.758v-5.3L2.043 41.767A11.074 11.074 0 010 35.34V16.358a4.405 4.405 0 014.321-4.404c2.473-.046 4.493 2.025 4.488 4.497-.003 1.567-.006 9.287-.009 15.262" fill="#FFDDCE"/><path d="M5.282 31.821c0 2.113.823 4.1 2.317 5.593l6.907 6.908c.344.343.793.515 1.243.515a1.758 1.758 0 001.243-3l-6.907-6.909a4.366 4.366 0 01-1.287-3.107l.002-.108.003-6.473a7.92 7.92 0 00-1.204.988 7.86 7.86 0 00-2.317 5.593zm37.725 10.015l6.908-6.907a4.395 4.395 0 10-6.215-6.215l-8.648 8.648a8.733 8.733 0 00-2.575 6.215v14.665c0 .97.788 1.758 1.758 1.758h14.063c.97 0 1.758-.787 1.758-1.758v-5.3l7.9-11.174A11.074 11.074 0 0060 35.34V16.358a4.405 4.405 0 00-4.32-4.404c-2.473-.046-4.493 2.025-4.489 4.497.003 1.567.006 9.287.01 15.262" fill="#FFCBBC"/><path d="M54.718 31.821c0 2.113-.823 4.1-2.317 5.593l-6.907 6.908a1.752 1.752 0 01-1.243.515 1.758 1.758 0 01-1.243-3l6.907-6.909a4.366 4.366 0 001.288-3.107l-.003-.108a98014.8 98014.8 0 01-.003-6.473c.425.284.83.613 1.204.988a7.86 7.86 0 012.317 5.593z" fill="#FFBCA7"/></svg>