<svg width="60" height="60" fill="none" xmlns="http://www.w3.org/2000/svg"><g clip-path="url(#clip0)"><path d="M28.242 16.61h2.637v9.044h-2.637v-9.045z" fill="#F9F9F9"/><path d="M30 16.61h1.758v9.044H30v-9.045z" fill="#E2DFF4"/><path d="M11.104 23.643L14.294 60H30l2.82-18.727L30 23.643H11.104z" fill="#4D88FF"/><path d="M48.896 23.643H30V60h15.706l3.19-36.357z" fill="#005EDF"/><path d="M28.17 44.11h-3.658l1.829-3.168-1.83-3.169h3.66L30 34.605l1.194-2.08L30 30.037h-1.422l-2.437 4.22h-5.726v3.452l1.867 3.233-1.867 3.233v3.452h5.726l2.437 4.22H30l1.194-2.065L30 47.28l-1.83-3.17z" fill="#9DF"/><path d="M28.861.969a25.495 25.495 0 00-2.953 3.074C23.84 6.597 22.79 8.98 22.79 11.127c0 3.976 3.235 7.21 7.21 7.21l1.758-7.292L30 0l-1.139.969z" fill="#F1CB66"/><path d="M37.21 11.127c0-2.147-1.049-4.53-3.118-7.084A25.511 25.511 0 0031.139.97L30 0v18.338c3.976 0 7.21-3.235 7.21-7.21z" fill="#EAA64A"/><path d="M39.585 34.258h-5.726l-2.437-4.22H30v4.567l1.83 3.169h3.659l-1.83 3.168 1.83 3.169h-3.66L30 47.28v4.567h1.422l2.437-4.22h5.726v-3.452l-1.867-3.233 1.867-3.233v-3.451z" fill="#66B3FF"/></g><defs><clipPath id="clip0"><path fill="#fff" d="M0 0h60v60H0z"/></clipPath></defs></svg>