<svg width="60" height="60" fill="none" xmlns="http://www.w3.org/2000/svg"><path d="M34.681 50.126a2.286 2.286 0 00-1.167-1.152l.098-.097a11.591 11.591 0 017.524-3.14l1.289 1.64a11.75 11.75 0 00-.647-.019h-.014a10.234 10.234 0 00-6.99 2.672l-.093.096zm-16.005-7.462c-.144.04-.289.082-.437.137a6.665 6.665 0 00-1.323.67c.13-.478.206-.97.227-1.466v-.107c2.578-2.794 6.032-3.714 7.555-3.99a5.672 5.672 0 002.259 1.388c-.81.056-1.303.126-1.326.131-.47.05-4.194.515-6.955 3.237zM12.558 20.28a6.7 6.7 0 00.678-1.321c.176.464.403.907.677 1.32.112.169.234.33.365.484.528 2.06 1.943 3.416 3.425 4.832.3.29.595.572.872.849l3.108 2.962-3.675-2.367 1.565 2.625-2.142-2.044a48.678 48.678 0 00-.862-.834c-1.701-1.628-3.603-3.445-4.054-6.449l.043-.058zm32.404 6.3a6.7 6.7 0 00.677-1.32c.176.464.403.907.677 1.32.056.085.117.158.176.235.31 8.036 2.944 12.698 2.988 12.773l.9 1.706-3.103-2.526a34.537 34.537 0 01-2.428-12.037c.037-.052.076-.098.113-.15zm-15.217-.593c.28-.002.556-.055.816-.157 0 .052 0 .106.005.154.004.047.056 4.195 3.337 7.022l.745.646-2.507-.056a11.77 11.77 0 01-3.216-7.57l-.006-.2c.263.105.543.16.826.161z" fill="#54427F"/><path d="M17.812 8.284a5.152 5.152 0 015.063.916 3.428 3.428 0 01-1.285 1.514 3.429 3.429 0 011.929.468 5.153 5.153 0 01-3.557 3.717 6.37 6.37 0 01-4.958-.597l-.852-2.622a6.369 6.369 0 013.66-3.396z" fill="#FF8FB8"/><path d="M12.95 15.379l2.231-1.621a6.368 6.368 0 014.36 2.431 5.154 5.154 0 01.692 5.098 3.429 3.429 0 01-1.834-.755c.244.63.296 1.32.15 1.98a5.152 5.152 0 01-4.634-2.234 6.372 6.372 0 01-.965-4.9z" fill="#FF8FB8"/><path d="M6.93 16.19a6.367 6.367 0 014.36-2.432l2.231 1.62a6.367 6.367 0 01-.965 4.9 5.152 5.152 0 01-4.634 2.234 3.434 3.434 0 01.15-1.98 3.43 3.43 0 01-1.836.755 5.153 5.153 0 01.695-5.098z" fill="#FF8FB8"/><path d="M4.884 10.714A3.43 3.43 0 013.6 9.2a5.151 5.151 0 015.063-.916 6.37 6.37 0 013.66 3.397l-.852 2.623a6.37 6.37 0 01-4.958.596 5.152 5.152 0 01-3.556-3.716 3.427 3.427 0 011.927-.47z" fill="#FF8FB8"/><path d="M12.195 2.957a3.43 3.43 0 011.043 1.688 3.428 3.428 0 011.042-1.688 5.153 5.153 0 012.438 4.531 6.369 6.369 0 01-2.1 4.53h-2.759a6.368 6.368 0 01-2.1-4.53 5.153 5.153 0 012.436-4.531z" fill="#FF8FB8"/><path d="M11.265 13.428a1.972 1.972 0 103.943 0 1.972 1.972 0 00-3.943 0z" fill="#FFF2FB"/><path d="M50.214 14.582a5.153 5.153 0 015.063.917 3.431 3.431 0 01-1.285 1.514 3.429 3.429 0 011.929.468 5.152 5.152 0 01-3.556 3.718 6.368 6.368 0 01-4.958-.597l-.852-2.625a6.368 6.368 0 013.66-3.395z" fill="#FF8FB8"/><path d="M45.353 21.678l2.23-1.621a6.368 6.368 0 014.36 2.431 5.152 5.152 0 01.692 5.097 3.43 3.43 0 01-1.836-.754c.244.631.296 1.32.15 1.98a5.151 5.151 0 01-4.632-2.232 6.368 6.368 0 01-.964-4.901z" fill="#FF8FB8"/><path d="M39.334 22.488a6.37 6.37 0 014.362-2.431l2.231 1.62a6.368 6.368 0 01-.964 4.902 5.152 5.152 0 01-4.634 2.233 3.43 3.43 0 01.15-1.98 3.431 3.431 0 01-1.837.755 5.152 5.152 0 01.692-5.099z" fill="#FF8FB8"/><path d="M37.288 17.013a3.432 3.432 0 01-1.285-1.514 5.153 5.153 0 015.063-.917 6.37 6.37 0 013.66 3.397l-.853 2.625a6.37 6.37 0 01-4.958.595 5.153 5.153 0 01-3.556-3.717 3.43 3.43 0 011.928-.47z" fill="#FF8FB8"/><path d="M44.596 9.256a3.43 3.43 0 011.043 1.687 3.43 3.43 0 011.042-1.687 5.151 5.151 0 012.438 4.53 6.367 6.367 0 01-2.1 4.531H44.26a6.368 6.368 0 01-2.1-4.53 5.151 5.151 0 012.435-4.531z" fill="#FF8FB8"/><path d="M43.667 19.726a1.973 1.973 0 103.946 0 1.973 1.973 0 00-3.946 0z" fill="#FFF2FB"/><path d="M18.24 42.801a5.152 5.152 0 015.063.917 3.429 3.429 0 01-1.285 1.513 3.429 3.429 0 011.93.469 5.154 5.154 0 01-3.557 3.717 6.368 6.368 0 01-4.958-.597l-.852-2.623a6.367 6.367 0 013.66-3.396z" fill="#FF8FB8"/><path d="M13.38 49.896l2.23-1.62a6.372 6.372 0 014.361 2.43 5.154 5.154 0 01.693 5.098 3.432 3.432 0 01-1.837-.753 3.43 3.43 0 01.15 1.979 5.152 5.152 0 01-4.633-2.232 6.368 6.368 0 01-.965-4.902z" fill="#FF8FB8"/><path d="M7.358 50.707a6.371 6.371 0 014.363-2.432l2.23 1.621a6.37 6.37 0 01-.963 4.902 5.152 5.152 0 01-4.634 2.233 3.428 3.428 0 01.15-1.979 3.43 3.43 0 01-1.837.754 5.153 5.153 0 01.691-5.1z" fill="#FF8FB8"/><path d="M5.314 45.231a3.43 3.43 0 01-1.285-1.513 5.152 5.152 0 015.063-.917 6.366 6.366 0 013.66 3.397l-.852 2.623a6.37 6.37 0 01-4.958.597A5.152 5.152 0 013.386 45.7a3.426 3.426 0 011.928-.47z" fill="#FF8FB8"/><path d="M12.624 37.475a3.43 3.43 0 011.042 1.687 3.43 3.43 0 011.043-1.687 5.153 5.153 0 012.437 4.53 6.367 6.367 0 01-2.1 4.531H12.29a6.367 6.367 0 01-2.1-4.53 5.153 5.153 0 012.435-4.531z" fill="#FF8FB8"/><path d="M11.694 47.945a1.973 1.973 0 103.945 0 1.973 1.973 0 00-3.945 0z" fill="#FFF2FB"/><path d="M57.043 46.716l-13.994-11.39a7.031 7.031 0 00-4.277-1.578l-9.927-.227a2.812 2.812 0 01-1.458-.447l-9.375-6.035 5.847 9.79a5.626 5.626 0 003.697 2.625l9.467 1.945a2.344 2.344 0 011.37.848l11.631 14.797h7.019V46.716z" fill="#66518E"/><path d="M18.008 27.037l1.566 2.625 4.284 7.167a5.672 5.672 0 003.698 2.625l9.465 1.946a2.35 2.35 0 011.373.848l2.742 3.488 1.29 1.64 7.598 9.666h7.017V46.715l-6.66-5.423-3.104-2.527-4.228-3.44a7.028 7.028 0 00-4.28-1.58l-4.12-.094-2.508-.056-3.295-.075a2.86 2.86 0 01-1.458-.445l-5.705-3.67-3.675-2.368z" fill="#66518E"/><path d="M27.463 23.703a2.283 2.283 0 104.566 0 2.283 2.283 0 00-4.566 0zm2.861 27.363a2.283 2.283 0 104.566 0 2.283 2.283 0 00-4.566 0z" fill="#FE534E"/></svg>