<svg width="60" height="60" fill="none" xmlns="http://www.w3.org/2000/svg"><g clip-path="url(#clip0)"><path d="M15.344 33.568v22.955c0 1.001.825 1.813 1.843 1.813h25.624c1.018 0 1.843-.812 1.843-1.813V33.568h-29.31zM12.39 14.984c3.832 0 6.937-3.055 6.937-6.824 0-3.769-3.105-6.824-6.937-6.824-3.831 0-6.937 3.055-6.937 6.824 0 3.769 3.106 6.824 6.937 6.824z" fill="#DDB185"/><path d="M12.39 11.485c-1.863 0-3.38-1.492-3.38-3.325 0-1.833 1.517-3.324 3.38-3.324 1.864 0 3.38 1.491 3.38 3.324 0 1.833-1.516 3.325-3.38 3.325z" fill="#fff"/><path d="M47.61 14.984c3.83 0 6.936-3.055 6.936-6.824 0-3.769-3.105-6.824-6.937-6.824-3.831 0-6.937 3.055-6.937 6.824 0 3.769 3.106 6.824 6.937 6.824z" fill="#DDB185"/><path d="M47.61 11.485c-1.864 0-3.38-1.492-3.38-3.325 0-1.833 1.517-3.324 3.38-3.324 1.864 0 3.38 1.491 3.38 3.324 0 1.833-1.516 3.325-3.38 3.325z" fill="#fff"/><path d="M30 41.89c11.76 0 21.292-9.377 21.292-20.945S41.759 0 30 0C18.241 0 8.71 9.377 8.71 20.945S18.241 41.89 30 41.89z" fill="#EDD7BE"/><path opacity=".1" d="M12.68 20.945c0-10.909 8.478-19.868 19.305-20.854A21.938 21.938 0 0030 0C18.24 0 8.708 9.377 8.708 20.945c0 11.567 9.532 20.945 21.291 20.945.67 0 1.332-.032 1.986-.092-10.827-.985-19.305-9.944-19.305-20.853z" fill="#000"/><path d="M38.11 33.185c0 4.407-3.63 7.98-8.11 7.98-4.48 0-8.111-3.573-8.111-7.98v-4.17c0-4.407 3.63-7.98 8.11-7.98 4.48 0 8.112 3.573 8.112 7.98v4.17z" fill="#fff"/><path d="M30 57.224c-.482 0-.945-.192-1.285-.533L16.167 44.129a9.329 9.329 0 01-2.751-6.642c0-2.51.977-4.869 2.751-6.644a9.33 9.33 0 016.641-2.751 9.33 9.33 0 016.641 2.751l.551.552.552-.552a9.33 9.33 0 016.641-2.751 9.33 9.33 0 016.64 2.751 9.338 9.338 0 012.752 6.644 9.335 9.335 0 01-2.752 6.643L31.287 56.69a1.82 1.82 0 01-1.287.533z" fill="#F03800"/><path d="M20.119 42.799a9.329 9.329 0 01-2.751-6.642c0-2.51.977-4.868 2.751-6.644a9.445 9.445 0 011.742-1.374 9.318 9.318 0 00-5.695 2.704 9.337 9.337 0 00-2.751 6.644c0 2.509.977 4.868 2.751 6.642L28.714 56.69a1.817 1.817 0 002.572 0l1.354-1.356-12.52-12.535z" fill="#F03800"/><path d="M42.464 39.032c0 2.053 1.692 3.717 3.779 3.717 2.087 0 3.779-1.664 3.779-3.717v-2.54c0-2.052-1.692-3.716-3.78-3.716-2.086 0-3.778 1.664-3.778 3.717v2.539zm-32.978 0c0 2.053 1.692 3.717 3.78 3.717 2.086 0 3.779-1.664 3.779-3.717v-2.54c0-2.052-1.692-3.716-3.78-3.716-2.087 0-3.779 1.664-3.779 3.717v2.539z" fill="#EDD7BE"/><path d="M32.95 22.94c0 1.352-1.115 2.447-2.49 2.447h-.92c-1.375 0-2.49-1.095-2.49-2.447 0-1.353 1.115-2.449 2.49-2.449h.92c1.375 0 2.49 1.096 2.49 2.449z" fill="#8C6239"/><path d="M22.708 53.761c0 3.446-2.84 6.24-6.343 6.24s-6.342-2.794-6.342-6.24v-2.818c0-3.446 2.839-6.24 6.342-6.24 3.503 0 6.343 2.794 6.343 6.24v2.818z" fill="#EDD7BE"/><path opacity=".1" d="M12.083 39.032v-2.54c0-1.604 1.033-2.97 2.48-3.491a3.832 3.832 0 00-1.298-.226c-2.087 0-3.779 1.665-3.779 3.718v2.538c0 2.054 1.692 3.718 3.78 3.718.456 0 .893-.08 1.298-.226-1.448-.52-2.481-1.887-2.481-3.491zm.537 14.729v-2.818c0-3.008 2.163-5.518 5.043-6.108a6.475 6.475 0 00-1.298-.131c-3.503 0-6.342 2.793-6.342 6.239v2.818c0 3.446 2.839 6.24 6.342 6.24.445 0 .88-.046 1.298-.132-2.88-.59-5.044-3.1-5.044-6.108z" fill="#000"/><path d="M13.508 50.615a.947.947 0 01-.947-.948v-.133a.947.947 0 111.894 0v.133a.947.947 0 01-.947.948zm5.715 0a.947.947 0 01-.948-.948v-.133a.947.947 0 111.895 0v.133a.947.947 0 01-.947.948zm-2.836-1.124a.947.947 0 01-.947-.947v-.133a.947.947 0 111.894 0v.133a.947.947 0 01-.947.947zm-.023 7.082c1.352 0 2.448-1.078 2.448-2.408 0-1.33-1.096-2.407-2.448-2.407-1.351 0-2.447 1.078-2.447 2.407 0 1.33 1.096 2.408 2.447 2.408z" fill="#8C6239"/><path d="M50.612 53.761c0 3.446-2.84 6.24-6.343 6.24s-6.342-2.794-6.342-6.24v-2.818c0-3.446 2.84-6.24 6.342-6.24 3.503 0 6.343 2.794 6.343 6.24v2.818z" fill="#EDD7BE"/><path d="M41.412 50.615a.947.947 0 01-.947-.948v-.133a.947.947 0 011.894 0v.133a.947.947 0 01-.947.948zm5.715 0a.947.947 0 01-.947-.948v-.133a.947.947 0 111.894 0v.133a.947.947 0 01-.947.948zm-2.836-1.124a.947.947 0 01-.947-.947v-.133a.947.947 0 111.894 0v.133a.947.947 0 01-.947.947zm-.021 7.082c1.351 0 2.447-1.078 2.447-2.408 0-1.33-1.096-2.407-2.447-2.407-1.352 0-2.448 1.078-2.448 2.407 0 1.33 1.096 2.408 2.448 2.408z" fill="#8C6239"/><path d="M21.215 20.485a1.786 1.786 0 100-3.568 1.785 1.785 0 100 3.568zm17.938 0a1.786 1.786 0 100-3.568 1.785 1.785 0 100 3.568z" fill="#603813"/><path d="M24.183 40.595h-2.067v-3.591a.632.632 0 00-.639-.638.632.632 0 00-.638.638v4.125c0 .358.28.638.638.638h2.706a.58.58 0 00.586-.586.58.58 0 00-.586-.586zm3.227-4.275c-1.598 0-2.85 1.217-2.85 2.77v.014c0 1.57 1.219 2.753 2.835 2.753 1.599 0 2.85-1.216 2.85-2.768v-.015c0-1.57-1.218-2.753-2.835-2.753zm-1.52 2.754c0-.893.646-1.566 1.505-1.566.867 0 1.521.68 1.521 1.581v.015c0 .893-.647 1.566-1.506 1.566-.867 0-1.52-.68-1.52-1.581v-.015zm8.731-2.708a.66.66 0 00-.611.406l-1.264 3.27-1.249-3.233a.661.661 0 00-.642-.443.628.628 0 00-.638.63c0 .112.034.211.072.301l1.696 4.058c.136.324.381.495.709.495h.074c.328 0 .572-.171.709-.495l1.71-4.094a.617.617 0 00-.566-.896zm4.589 4.252h-2.306v-.973h1.932c.32 0 .58-.256.58-.57a.58.58 0 00-.58-.58h-1.931v-.934h2.268a.576.576 0 100-1.15h-2.9a.632.632 0 00-.638.638v4.08c0 .358.28.639.638.639h2.937a.576.576 0 100-1.15z" fill="#fff"/><path d="M17.081 27.428a2.571 2.571 0 100-5.142 2.571 2.571 0 000 5.142zm25.837 0a2.571 2.571 0 100-5.142 2.571 2.571 0 000 5.142z" fill="#FA9"/></g><defs><clipPath id="clip0"><path fill="#fff" d="M0 0h60v60H0z"/></clipPath></defs></svg>